solid OpenSCAD_Model
  facet normal 1 -0 0
    outer loop
      vertex 108.78 -53.1679 83.82
      vertex 108.78 -25.1063 -83.82
      vertex 108.78 -25.1063 83.82
    endloop
  endfacet
  facet normal 1 0 0
    outer loop
      vertex 108.78 -25.1063 -83.82
      vertex 108.78 -53.1679 83.82
      vertex 108.78 -53.1679 -83.82
    endloop
  endfacet
  facet normal -1 0 0
    outer loop
      vertex 14.725 -53.1679 -83.82
      vertex 14.725 -25.1063 83.82
      vertex 14.725 -25.1063 -83.82
    endloop
  endfacet
  facet normal -1 -0 0
    outer loop
      vertex 14.725 -25.1063 83.82
      vertex 14.725 -53.1679 -83.82
      vertex 14.725 -53.1679 83.82
    endloop
  endfacet
  facet normal 0 -1 0
    outer loop
      vertex 14.725 -53.1679 -83.82
      vertex 108.78 -53.1679 83.82
      vertex 14.725 -53.1679 83.82
    endloop
  endfacet
  facet normal 0 -1 -0
    outer loop
      vertex 108.78 -53.1679 83.82
      vertex 14.725 -53.1679 -83.82
      vertex 108.78 -53.1679 -83.82
    endloop
  endfacet
  facet normal -0.838672 0.544636 0
    outer loop
      vertex 25.1675 -3.7719 -83.82
      vertex 25.3825 -3.44078 83.82
      vertex 25.3825 -3.44078 -83.82
    endloop
  endfacet
  facet normal -0.838672 0.544636 0
    outer loop
      vertex 25.3825 -3.44078 83.82
      vertex 25.1675 -3.7719 -83.82
      vertex 25.1675 -3.7719 83.82
    endloop
  endfacet
  facet normal 0 0 1
    outer loop
      vertex 14.725 -25.1063 83.82
      vertex 108.78 -25.1063 83.82
      vertex 98.5168 -4.12368 83.82
    endloop
  endfacet
  facet normal 0 0 1
    outer loop
      vertex 24.9882 -4.12368 83.82
      vertex 98.5168 -4.12368 83.82
      vertex 98.3375 -3.7719 83.82
    endloop
  endfacet
  facet normal 0 0 1
    outer loop
      vertex 24.9882 -4.12368 83.82
      vertex 98.3375 -3.7719 83.82
      vertex 25.1675 -3.7719 83.82
    endloop
  endfacet
  facet normal 0 0 1
    outer loop
      vertex 98.5168 -4.12368 83.82
      vertex 24.9882 -4.12368 83.82
      vertex 14.725 -25.1063 83.82
    endloop
  endfacet
  facet normal 0 0 1
    outer loop
      vertex 108.78 -25.1063 83.82
      vertex 14.725 -25.1063 83.82
      vertex 108.78 -53.1679 83.82
    endloop
  endfacet
  facet normal 0 0 1
    outer loop
      vertex 108.78 -53.1679 83.82
      vertex 14.725 -25.1063 83.82
      vertex 14.725 -53.1679 83.82
    endloop
  endfacet
  facet normal 0 0 -1
    outer loop
      vertex 14.725 -25.1063 -83.82
      vertex 108.78 -25.1063 -83.82
      vertex 108.78 -53.1679 -83.82
    endloop
  endfacet
  facet normal 0 0 -1
    outer loop
      vertex 108.78 -25.1063 -83.82
      vertex 95.071 -1.88595 -83.82
      vertex 98.5168 -4.12368 -83.82
    endloop
  endfacet
  facet normal 0 0 -1
    outer loop
      vertex 98.5168 -4.12368 -83.82
      vertex 95.071 -1.88595 -83.82
      vertex 98.3375 -3.7719 -83.82
    endloop
  endfacet
  facet normal 0 0 -1
    outer loop
      vertex 98.3375 -3.7719 -83.82
      vertex 95.071 -1.88595 -83.82
      vertex 98.1225 -3.44078 -83.82
    endloop
  endfacet
  facet normal 0 0 -1
    outer loop
      vertex 98.1225 -3.44078 -83.82
      vertex 95.071 -1.88595 -83.82
      vertex 97.874 -3.13396 -83.82
    endloop
  endfacet
  facet normal 0 0 -1
    outer loop
      vertex 97.874 -3.13396 -83.82
      vertex 95.071 -1.88595 -83.82
      vertex 97.5948 -2.85478 -83.82
    endloop
  endfacet
  facet normal 0 0 -1
    outer loop
      vertex 97.5948 -2.85478 -83.82
      vertex 95.071 -1.88595 -83.82
      vertex 97.288 -2.60632 -83.82
    endloop
  endfacet
  facet normal 0 0 -1
    outer loop
      vertex 97.288 -2.60632 -83.82
      vertex 95.071 -1.88595 -83.82
      vertex 96.9569 -2.39129 -83.82
    endloop
  endfacet
  facet normal 0 0 -1
    outer loop
      vertex 96.9569 -2.39129 -83.82
      vertex 95.071 -1.88595 -83.82
      vertex 96.6051 -2.21205 -83.82
    endloop
  endfacet
  facet normal 0 0 -1
    outer loop
      vertex 96.6051 -2.21205 -83.82
      vertex 95.071 -1.88595 -83.82
      vertex 96.2365 -2.07056 -83.82
    endloop
  endfacet
  facet normal 0 0 -1
    outer loop
      vertex 96.2365 -2.07056 -83.82
      vertex 95.071 -1.88595 -83.82
      vertex 95.8552 -1.96837 -83.82
    endloop
  endfacet
  facet normal 0 0 -1
    outer loop
      vertex 95.8552 -1.96837 -83.82
      vertex 95.071 -1.88595 -83.82
      vertex 95.4652 -1.90661 -83.82
    endloop
  endfacet
  facet normal 0 0 -1
    outer loop
      vertex 108.78 -25.1063 -83.82
      vertex 14.725 -25.1063 -83.82
      vertex 95.071 -1.88595 -83.82
    endloop
  endfacet
  facet normal -0 0 -1
    outer loop
      vertex 95.071 -1.88595 -83.82
      vertex 14.725 -25.1063 -83.82
      vertex 28.434 -1.88595 -83.82
    endloop
  endfacet
  facet normal 0 -0 -1
    outer loop
      vertex 24.9882 -4.12368 -83.82
      vertex 28.434 -1.88595 -83.82
      vertex 14.725 -25.1063 -83.82
    endloop
  endfacet
  facet normal 0 0 -1
    outer loop
      vertex 28.434 -1.88595 -83.82
      vertex 24.9882 -4.12368 -83.82
      vertex 28.0398 -1.90661 -83.82
    endloop
  endfacet
  facet normal 0 0 -1
    outer loop
      vertex 28.0398 -1.90661 -83.82
      vertex 24.9882 -4.12368 -83.82
      vertex 27.6498 -1.96837 -83.82
    endloop
  endfacet
  facet normal 0 0 -1
    outer loop
      vertex 27.6498 -1.96837 -83.82
      vertex 24.9882 -4.12368 -83.82
      vertex 27.2685 -2.07056 -83.82
    endloop
  endfacet
  facet normal 0 0 -1
    outer loop
      vertex 27.2685 -2.07056 -83.82
      vertex 24.9882 -4.12368 -83.82
      vertex 26.8999 -2.21205 -83.82
    endloop
  endfacet
  facet normal 0 0 -1
    outer loop
      vertex 26.5481 -2.39129 -83.82
      vertex 24.9882 -4.12368 -83.82
      vertex 26.217 -2.60632 -83.82
    endloop
  endfacet
  facet normal 0 0 -1
    outer loop
      vertex 26.217 -2.60632 -83.82
      vertex 24.9882 -4.12368 -83.82
      vertex 25.9102 -2.85478 -83.82
    endloop
  endfacet
  facet normal 0 0 -1
    outer loop
      vertex 25.9102 -2.85478 -83.82
      vertex 24.9882 -4.12368 -83.82
      vertex 25.631 -3.13396 -83.82
    endloop
  endfacet
  facet normal 0 0 -1
    outer loop
      vertex 25.631 -3.13396 -83.82
      vertex 24.9882 -4.12368 -83.82
      vertex 25.3825 -3.44078 -83.82
    endloop
  endfacet
  facet normal 0 0 -1
    outer loop
      vertex 25.3825 -3.44078 -83.82
      vertex 24.9882 -4.12368 -83.82
      vertex 25.1675 -3.7719 -83.82
    endloop
  endfacet
  facet normal 0 0 -1
    outer loop
      vertex 14.725 -25.1063 -83.82
      vertex 108.78 -53.1679 -83.82
      vertex 14.725 -53.1679 -83.82
    endloop
  endfacet
  facet normal 0 0 -1
    outer loop
      vertex 26.8999 -2.21205 -83.82
      vertex 24.9882 -4.12368 -83.82
      vertex 26.5481 -2.39129 -83.82
    endloop
  endfacet
  facet normal 3.59151e-06 1.34038e-05 1
    outer loop
      vertex 96.2365 -2.07056 83.82
      vertex 95.8552 -1.96837 83.82
      vertex 98.3375 -3.7719 83.82
    endloop
  endfacet
  facet normal -0 8.09077e-06 1
    outer loop
      vertex 28.434 -1.88595 83.82
      vertex 98.3375 -3.7719 83.82
      vertex 95.071 -1.88595 83.82
    endloop
  endfacet
  facet normal 0 8.09077e-06 1
    outer loop
      vertex 98.3375 -3.7719 83.82
      vertex 28.434 -1.88595 83.82
      vertex 25.1675 -3.7719 83.82
    endloop
  endfacet
  facet normal -0.258819 0.965926 0
    outer loop
      vertex 27.6498 -1.96837 -83.82
      vertex 27.2685 -2.07056 83.82
      vertex 27.6498 -1.96837 83.82
    endloop
  endfacet
  facet normal -0.258819 0.965926 0
    outer loop
      vertex 27.2685 -2.07056 83.82
      vertex 27.6498 -1.96837 -83.82
      vertex 27.2685 -2.07056 -83.82
    endloop
  endfacet
  facet normal -1.71355e-06 1.0819e-05 1
    outer loop
      vertex 27.6498 -1.96837 83.82
      vertex 25.1675 -3.7719 83.82
      vertex 28.0398 -1.90661 83.82
    endloop
  endfacet
  facet normal 0.156432 0.987689 -0
    outer loop
      vertex 95.8552 -1.96837 -83.82
      vertex 95.4652 -1.90661 83.82
      vertex 95.8552 -1.96837 83.82
    endloop
  endfacet
  facet normal 0.156432 0.987689 0
    outer loop
      vertex 95.4652 -1.90661 83.82
      vertex 95.8552 -1.96837 -83.82
      vertex 95.4652 -1.90661 -83.82
    endloop
  endfacet
  facet normal 2.04724e-05 3.15245e-05 1
    outer loop
      vertex 97.288 -2.60632 83.82
      vertex 96.9569 -2.39129 83.82
      vertex 98.3375 -3.7719 83.82
    endloop
  endfacet
  facet normal -0.35837 0.93358 0
    outer loop
      vertex 27.2685 -2.07056 -83.82
      vertex 26.8999 -2.21205 83.82
      vertex 27.2685 -2.07056 83.82
    endloop
  endfacet
  facet normal -0.35837 0.93358 0
    outer loop
      vertex 26.8999 -2.21205 83.82
      vertex 27.2685 -2.07056 -83.82
      vertex 26.8999 -2.21205 -83.82
    endloop
  endfacet
  facet normal 0.0523357 0.99863 -0
    outer loop
      vertex 95.4652 -1.90661 -83.82
      vertex 95.071 -1.88595 83.82
      vertex 95.4652 -1.90661 83.82
    endloop
  endfacet
  facet normal 0.0523357 0.99863 0
    outer loop
      vertex 95.071 -1.88595 83.82
      vertex 95.4652 -1.90661 -83.82
      vertex 95.071 -1.88595 -83.82
    endloop
  endfacet
  facet normal 0 1 -0
    outer loop
      vertex 95.071 -1.88595 -83.82
      vertex 28.434 -1.88595 83.82
      vertex 95.071 -1.88595 83.82
    endloop
  endfacet
  facet normal 0 1 0
    outer loop
      vertex 28.434 -1.88595 83.82
      vertex 95.071 -1.88595 -83.82
      vertex 28.434 -1.88595 -83.82
    endloop
  endfacet
  facet normal -0.45399 0.891007 0
    outer loop
      vertex 26.8999 -2.21205 -83.82
      vertex 26.5481 -2.39129 83.82
      vertex 26.8999 -2.21205 83.82
    endloop
  endfacet
  facet normal -0.45399 0.891007 0
    outer loop
      vertex 26.5481 -2.39129 83.82
      vertex 26.8999 -2.21205 -83.82
      vertex 26.5481 -2.39129 -83.82
    endloop
  endfacet
  facet normal 6.54578e-06 1.7052e-05 1
    outer loop
      vertex 96.6051 -2.21205 83.82
      vertex 96.2365 -2.07056 83.82
      vertex 98.3375 -3.7719 83.82
    endloop
  endfacet
  facet normal 0.000287303 0.000232657 1
    outer loop
      vertex 98.1225 -3.44078 83.82
      vertex 97.874 -3.13396 83.82
      vertex 98.3375 -3.7719 83.82
    endloop
  endfacet
  facet normal -3.59156e-06 1.34039e-05 1
    outer loop
      vertex 27.2685 -2.07056 83.82
      vertex 25.1675 -3.7719 83.82
      vertex 27.6498 -1.96837 83.82
    endloop
  endfacet
  facet normal -8.74658e-05 8.7466e-05 1
    outer loop
      vertex 25.631 -3.13396 83.82
      vertex 25.1675 -3.7719 83.82
      vertex 25.9102 -2.85478 83.82
    endloop
  endfacet
  facet normal -2.04721e-05 3.15243e-05 1
    outer loop
      vertex 26.217 -2.60632 83.82
      vertex 25.1675 -3.7719 83.82
      vertex 26.5481 -2.39129 83.82
    endloop
  endfacet
  facet normal -0.898299 0.439385 0
    outer loop
      vertex 14.725 -25.1063 -83.82
      vertex 24.9882 -4.12368 83.82
      vertex 24.9882 -4.12368 -83.82
    endloop
  endfacet
  facet normal -0.898299 0.439385 0
    outer loop
      vertex 24.9882 -4.12368 83.82
      vertex 14.725 -25.1063 -83.82
      vertex 14.725 -25.1063 83.82
    endloop
  endfacet
  facet normal -0.891006 0.453991 0
    outer loop
      vertex 24.9882 -4.12368 -83.82
      vertex 25.1675 -3.7719 83.82
      vertex 25.1675 -3.7719 -83.82
    endloop
  endfacet
  facet normal -0.891006 0.453991 0
    outer loop
      vertex 25.1675 -3.7719 83.82
      vertex 24.9882 -4.12368 -83.82
      vertex 24.9882 -4.12368 83.82
    endloop
  endfacet
  facet normal 0.898299 0.439385 0
    outer loop
      vertex 108.78 -25.1063 83.82
      vertex 98.5168 -4.12368 -83.82
      vertex 98.5168 -4.12368 83.82
    endloop
  endfacet
  facet normal 0.898299 0.439385 0
    outer loop
      vertex 98.5168 -4.12368 -83.82
      vertex 108.78 -25.1063 83.82
      vertex 108.78 -25.1063 -83.82
    endloop
  endfacet
  facet normal 0.544641 0.838669 -0
    outer loop
      vertex 97.288 -2.60632 -83.82
      vertex 96.9569 -2.39129 83.82
      vertex 97.288 -2.60632 83.82
    endloop
  endfacet
  facet normal 0.544641 0.838669 0
    outer loop
      vertex 96.9569 -2.39129 83.82
      vertex 97.288 -2.60632 -83.82
      vertex 96.9569 -2.39129 -83.82
    endloop
  endfacet
  facet normal 0.258817 0.965926 -0
    outer loop
      vertex 96.2365 -2.07056 -83.82
      vertex 95.8552 -1.96837 83.82
      vertex 96.2365 -2.07056 83.82
    endloop
  endfacet
  facet normal 0.258817 0.965926 0
    outer loop
      vertex 95.8552 -1.96837 83.82
      vertex 96.2365 -2.07056 -83.82
      vertex 95.8552 -1.96837 -83.82
    endloop
  endfacet
  facet normal 1.14812e-05 2.25333e-05 1
    outer loop
      vertex 96.9569 -2.39129 83.82
      vertex 96.6051 -2.21205 83.82
      vertex 98.3375 -3.7719 83.82
    endloop
  endfacet
  facet normal -0.156433 0.987689 0
    outer loop
      vertex 28.0398 -1.90661 -83.82
      vertex 27.6498 -1.96837 83.82
      vertex 28.0398 -1.90661 83.82
    endloop
  endfacet
  facet normal -0.156433 0.987689 0
    outer loop
      vertex 27.6498 -1.96837 83.82
      vertex 28.0398 -1.90661 -83.82
      vertex 27.6498 -1.96837 -83.82
    endloop
  endfacet
  facet normal -4.66342e-07 8.8985e-06 1
    outer loop
      vertex 28.0398 -1.90661 83.82
      vertex 25.1675 -3.7719 83.82
      vertex 28.434 -1.88595 83.82
    endloop
  endfacet
  facet normal -0.052335 0.99863 0
    outer loop
      vertex 28.434 -1.88595 -83.82
      vertex 28.0398 -1.90661 83.82
      vertex 28.434 -1.88595 83.82
    endloop
  endfacet
  facet normal -0.052335 0.99863 0
    outer loop
      vertex 28.0398 -1.90661 83.82
      vertex 28.434 -1.88595 -83.82
      vertex 28.0398 -1.90661 -83.82
    endloop
  endfacet
  facet normal 4.66349e-07 8.89851e-06 1
    outer loop
      vertex 95.4652 -1.90661 83.82
      vertex 95.071 -1.88595 83.82
      vertex 98.3375 -3.7719 83.82
    endloop
  endfacet
  facet normal 1.71354e-06 1.0819e-05 1
    outer loop
      vertex 95.8552 -1.96837 83.82
      vertex 95.4652 -1.90661 83.82
      vertex 98.3375 -3.7719 83.82
    endloop
  endfacet
  facet normal -0.000287336 0.000232679 1
    outer loop
      vertex 25.3825 -3.44078 83.82
      vertex 25.1675 -3.7719 83.82
      vertex 25.631 -3.13396 83.82
    endloop
  endfacet
  facet normal -3.91366e-05 4.83299e-05 1
    outer loop
      vertex 25.9102 -2.85478 83.82
      vertex 25.1675 -3.7719 83.82
      vertex 26.217 -2.60632 83.82
    endloop
  endfacet
  facet normal -1.14815e-05 2.25337e-05 1
    outer loop
      vertex 26.5481 -2.39129 83.82
      vertex 25.1675 -3.7719 83.82
      vertex 26.8999 -2.21205 83.82
    endloop
  endfacet
  facet normal -6.54566e-06 1.70519e-05 1
    outer loop
      vertex 26.8999 -2.21205 83.82
      vertex 25.1675 -3.7719 83.82
      vertex 27.2685 -2.07056 83.82
    endloop
  endfacet
  facet normal 0.891002 0.453999 0
    outer loop
      vertex 98.5168 -4.12368 83.82
      vertex 98.3375 -3.7719 -83.82
      vertex 98.3375 -3.7719 83.82
    endloop
  endfacet
  facet normal 0.891002 0.453999 0
    outer loop
      vertex 98.3375 -3.7719 -83.82
      vertex 98.5168 -4.12368 83.82
      vertex 98.5168 -4.12368 -83.82
    endloop
  endfacet
  facet normal 3.91382e-05 4.83312e-05 1
    outer loop
      vertex 97.5948 -2.85478 83.82
      vertex 97.288 -2.60632 83.82
      vertex 98.3375 -3.7719 83.82
    endloop
  endfacet
  facet normal 8.74667e-05 8.74669e-05 1
    outer loop
      vertex 97.874 -3.13396 83.82
      vertex 97.5948 -2.85478 83.82
      vertex 98.3375 -3.7719 83.82
    endloop
  endfacet
  facet normal -0.629319 0.777147 0
    outer loop
      vertex 26.217 -2.60632 -83.82
      vertex 25.9102 -2.85478 83.82
      vertex 26.217 -2.60632 83.82
    endloop
  endfacet
  facet normal -0.629319 0.777147 0
    outer loop
      vertex 25.9102 -2.85478 83.82
      vertex 26.217 -2.60632 -83.82
      vertex 25.9102 -2.85478 -83.82
    endloop
  endfacet
  facet normal 0.707106 0.707108 -0
    outer loop
      vertex 97.874 -3.13396 -83.82
      vertex 97.5948 -2.85478 83.82
      vertex 97.874 -3.13396 83.82
    endloop
  endfacet
  facet normal 0.707106 0.707108 0
    outer loop
      vertex 97.5948 -2.85478 83.82
      vertex 97.874 -3.13396 -83.82
      vertex 97.5948 -2.85478 -83.82
    endloop
  endfacet
  facet normal 0.777142 0.629325 0
    outer loop
      vertex 98.1225 -3.44078 83.82
      vertex 97.874 -3.13396 -83.82
      vertex 97.874 -3.13396 83.82
    endloop
  endfacet
  facet normal 0.777142 0.629325 0
    outer loop
      vertex 97.874 -3.13396 -83.82
      vertex 98.1225 -3.44078 83.82
      vertex 98.1225 -3.44078 -83.82
    endloop
  endfacet
  facet normal 0.838675 0.544633 0
    outer loop
      vertex 98.3375 -3.7719 83.82
      vertex 98.1225 -3.44078 -83.82
      vertex 98.1225 -3.44078 83.82
    endloop
  endfacet
  facet normal 0.838675 0.544633 0
    outer loop
      vertex 98.1225 -3.44078 -83.82
      vertex 98.3375 -3.7719 83.82
      vertex 98.3375 -3.7719 -83.82
    endloop
  endfacet
  facet normal -0.777147 0.629319 0
    outer loop
      vertex 25.3825 -3.44078 -83.82
      vertex 25.631 -3.13396 83.82
      vertex 25.631 -3.13396 -83.82
    endloop
  endfacet
  facet normal -0.777147 0.629319 0
    outer loop
      vertex 25.631 -3.13396 83.82
      vertex 25.3825 -3.44078 -83.82
      vertex 25.3825 -3.44078 83.82
    endloop
  endfacet
  facet normal -0.707106 0.707108 0
    outer loop
      vertex 25.9102 -2.85478 -83.82
      vertex 25.631 -3.13396 83.82
      vertex 25.9102 -2.85478 83.82
    endloop
  endfacet
  facet normal -0.707106 0.707108 0
    outer loop
      vertex 25.631 -3.13396 83.82
      vertex 25.9102 -2.85478 -83.82
      vertex 25.631 -3.13396 -83.82
    endloop
  endfacet
  facet normal 0.358374 0.933578 -0
    outer loop
      vertex 96.6051 -2.21205 -83.82
      vertex 96.2365 -2.07056 83.82
      vertex 96.6051 -2.21205 83.82
    endloop
  endfacet
  facet normal 0.358374 0.933578 0
    outer loop
      vertex 96.2365 -2.07056 83.82
      vertex 96.6051 -2.21205 -83.82
      vertex 96.2365 -2.07056 -83.82
    endloop
  endfacet
  facet normal 0.453986 0.891009 -0
    outer loop
      vertex 96.9569 -2.39129 -83.82
      vertex 96.6051 -2.21205 83.82
      vertex 96.9569 -2.39129 83.82
    endloop
  endfacet
  facet normal 0.453986 0.891009 0
    outer loop
      vertex 96.6051 -2.21205 83.82
      vertex 96.9569 -2.39129 -83.82
      vertex 96.6051 -2.21205 -83.82
    endloop
  endfacet
  facet normal 0.629323 0.777144 -0
    outer loop
      vertex 97.5948 -2.85478 -83.82
      vertex 97.288 -2.60632 83.82
      vertex 97.5948 -2.85478 83.82
    endloop
  endfacet
  facet normal 0.629323 0.777144 0
    outer loop
      vertex 97.288 -2.60632 83.82
      vertex 97.5948 -2.85478 -83.82
      vertex 97.288 -2.60632 -83.82
    endloop
  endfacet
  facet normal -0.544639 0.838671 0
    outer loop
      vertex 26.5481 -2.39129 -83.82
      vertex 26.217 -2.60632 83.82
      vertex 26.5481 -2.39129 83.82
    endloop
  endfacet
  facet normal -0.544639 0.838671 0
    outer loop
      vertex 26.217 -2.60632 83.82
      vertex 26.5481 -2.39129 -83.82
      vertex 26.217 -2.60632 -83.82
    endloop
  endfacet
endsolid OpenSCAD_Model
