solid OpenSCAD_Model
  facet normal 1 -0 0
    outer loop
      vertex 47.0275 -83.82 53.1679
      vertex 47.0275 83.82 25.1063
      vertex 47.0275 83.82 53.1679
    endloop
  endfacet
  facet normal 1 0 0
    outer loop
      vertex 47.0275 83.82 25.1063
      vertex 47.0275 -83.82 53.1679
      vertex 47.0275 -83.82 25.1063
    endloop
  endfacet
  facet normal -1 0 0
    outer loop
      vertex -47.0275 -83.82 25.1063
      vertex -47.0275 83.82 53.1679
      vertex -47.0275 83.82 25.1063
    endloop
  endfacet
  facet normal -1 -0 0
    outer loop
      vertex -47.0275 83.82 53.1679
      vertex -47.0275 -83.82 25.1063
      vertex -47.0275 -83.82 53.1679
    endloop
  endfacet
  facet normal -0 0 1
    outer loop
      vertex -47.0275 83.82 53.1679
      vertex 47.0275 -83.82 53.1679
      vertex 47.0275 83.82 53.1679
    endloop
  endfacet
  facet normal 0 0 1
    outer loop
      vertex 47.0275 -83.82 53.1679
      vertex -47.0275 83.82 53.1679
      vertex -47.0275 -83.82 53.1679
    endloop
  endfacet
  facet normal -0.838707 0 -0.544582
    outer loop
      vertex -36.37 -83.82 3.44078
      vertex -36.585 83.82 3.7719
      vertex -36.37 83.82 3.44078
    endloop
  endfacet
  facet normal -0.838707 -0 -0.544582
    outer loop
      vertex -36.585 83.82 3.7719
      vertex -36.37 -83.82 3.44078
      vertex -36.585 -83.82 3.7719
    endloop
  endfacet
  facet normal 0 1 -0
    outer loop
      vertex 47.0275 83.82 25.1063
      vertex -47.0275 83.82 53.1679
      vertex 47.0275 83.82 53.1679
    endloop
  endfacet
  facet normal 0 1 0
    outer loop
      vertex 47.0275 83.82 25.1063
      vertex -47.0275 83.82 25.1063
      vertex -47.0275 83.82 53.1679
    endloop
  endfacet
  facet normal 0 1 -0
    outer loop
      vertex 36.7643 83.82 4.12368
      vertex -47.0275 83.82 25.1063
      vertex 47.0275 83.82 25.1063
    endloop
  endfacet
  facet normal 0 1 0
    outer loop
      vertex 36.7643 83.82 4.12368
      vertex -36.7643 83.82 4.12368
      vertex -47.0275 83.82 25.1063
    endloop
  endfacet
  facet normal 0 1 -0
    outer loop
      vertex 36.585 83.82 3.7719
      vertex -36.7643 83.82 4.12368
      vertex 36.7643 83.82 4.12368
    endloop
  endfacet
  facet normal 0 1 0
    outer loop
      vertex -36.7643 83.82 4.12368
      vertex 36.585 83.82 3.7719
      vertex -36.585 83.82 3.7719
    endloop
  endfacet
  facet normal 0 -1 0
    outer loop
      vertex -47.0275 -83.82 25.1063
      vertex 47.0275 -83.82 53.1679
      vertex -47.0275 -83.82 53.1679
    endloop
  endfacet
  facet normal 0 -1 0
    outer loop
      vertex -47.0275 -83.82 25.1063
      vertex 47.0275 -83.82 25.1063
      vertex 47.0275 -83.82 53.1679
    endloop
  endfacet
  facet normal 0 -1 0
    outer loop
      vertex -33.3185 -83.82 1.88595
      vertex -47.0275 -83.82 25.1063
      vertex -36.7643 -83.82 4.12368
    endloop
  endfacet
  facet normal 0 -1 0
    outer loop
      vertex -47.0275 -83.82 25.1063
      vertex -33.3185 -83.82 1.88595
      vertex 47.0275 -83.82 25.1063
    endloop
  endfacet
  facet normal 0 -1 0
    outer loop
      vertex -33.3185 -83.82 1.88595
      vertex -36.7643 -83.82 4.12368
      vertex -36.585 -83.82 3.7719
    endloop
  endfacet
  facet normal 0 -1 0
    outer loop
      vertex 33.3185 -83.82 1.88595
      vertex 47.0275 -83.82 25.1063
      vertex -33.3185 -83.82 1.88595
    endloop
  endfacet
  facet normal 0 -1 0
    outer loop
      vertex -33.3185 -83.82 1.88595
      vertex -36.585 -83.82 3.7719
      vertex -36.37 -83.82 3.44078
    endloop
  endfacet
  facet normal 0 -1 0
    outer loop
      vertex 47.0275 -83.82 25.1063
      vertex 33.3185 -83.82 1.88595
      vertex 36.7643 -83.82 4.12368
    endloop
  endfacet
  facet normal 0 -1 0
    outer loop
      vertex -33.3185 -83.82 1.88595
      vertex -36.37 -83.82 3.44078
      vertex -36.1215 -83.82 3.13396
    endloop
  endfacet
  facet normal 0 -1 0
    outer loop
      vertex 36.7643 -83.82 4.12368
      vertex 33.3185 -83.82 1.88595
      vertex 36.585 -83.82 3.7719
    endloop
  endfacet
  facet normal 0 -1 0
    outer loop
      vertex -33.3185 -83.82 1.88595
      vertex -36.1215 -83.82 3.13396
      vertex -35.8423 -83.82 2.85478
    endloop
  endfacet
  facet normal 0 -1 0
    outer loop
      vertex 36.585 -83.82 3.7719
      vertex 33.3185 -83.82 1.88595
      vertex 36.37 -83.82 3.44078
    endloop
  endfacet
  facet normal 0 -1 0
    outer loop
      vertex -33.3185 -83.82 1.88595
      vertex -35.8423 -83.82 2.85478
      vertex -35.5355 -83.82 2.60632
    endloop
  endfacet
  facet normal 0 -1 0
    outer loop
      vertex 36.37 -83.82 3.44078
      vertex 33.3185 -83.82 1.88595
      vertex 36.1215 -83.82 3.13396
    endloop
  endfacet
  facet normal 0 -1 0
    outer loop
      vertex -33.3185 -83.82 1.88595
      vertex -35.5355 -83.82 2.60632
      vertex -35.2044 -83.82 2.39129
    endloop
  endfacet
  facet normal 0 -1 0
    outer loop
      vertex 36.1215 -83.82 3.13396
      vertex 33.3185 -83.82 1.88595
      vertex 35.8423 -83.82 2.85478
    endloop
  endfacet
  facet normal 0 -1 0
    outer loop
      vertex -33.3185 -83.82 1.88595
      vertex -35.2044 -83.82 2.39129
      vertex -34.8526 -83.82 2.21205
    endloop
  endfacet
  facet normal 0 -1 0
    outer loop
      vertex 35.8423 -83.82 2.85478
      vertex 33.3185 -83.82 1.88595
      vertex 35.5355 -83.82 2.60632
    endloop
  endfacet
  facet normal 0 -1 0
    outer loop
      vertex -33.3185 -83.82 1.88595
      vertex -34.8526 -83.82 2.21205
      vertex -34.484 -83.82 2.07056
    endloop
  endfacet
  facet normal 0 -1 0
    outer loop
      vertex 35.5355 -83.82 2.60632
      vertex 33.3185 -83.82 1.88595
      vertex 35.2044 -83.82 2.39129
    endloop
  endfacet
  facet normal 0 -1 0
    outer loop
      vertex -33.3185 -83.82 1.88595
      vertex -34.484 -83.82 2.07056
      vertex -34.1027 -83.82 1.96837
    endloop
  endfacet
  facet normal 0 -1 0
    outer loop
      vertex 35.2044 -83.82 2.39129
      vertex 33.3185 -83.82 1.88595
      vertex 34.8526 -83.82 2.21205
    endloop
  endfacet
  facet normal 0 -1 0
    outer loop
      vertex -33.3185 -83.82 1.88595
      vertex -34.1027 -83.82 1.96837
      vertex -33.7127 -83.82 1.90661
    endloop
  endfacet
  facet normal 0 -1 0
    outer loop
      vertex 34.8526 -83.82 2.21205
      vertex 33.3185 -83.82 1.88595
      vertex 34.484 -83.82 2.07056
    endloop
  endfacet
  facet normal 0 -1 0
    outer loop
      vertex 34.484 -83.82 2.07056
      vertex 33.3185 -83.82 1.88595
      vertex 34.1027 -83.82 1.96837
    endloop
  endfacet
  facet normal 0 -1 0
    outer loop
      vertex 34.1027 -83.82 1.96837
      vertex 33.3185 -83.82 1.88595
      vertex 33.7127 -83.82 1.90661
    endloop
  endfacet
  facet normal 0 1 -0
    outer loop
      vertex 34.484 83.82 2.07056
      vertex 34.1027 83.82 1.96837
      vertex 36.585 83.82 3.7719
    endloop
  endfacet
  facet normal 0 1 -0
    outer loop
      vertex 33.3185 83.82 1.88595
      vertex -36.585 83.82 3.7719
      vertex 36.585 83.82 3.7719
    endloop
  endfacet
  facet normal 0 1 0
    outer loop
      vertex -36.585 83.82 3.7719
      vertex 33.3185 83.82 1.88595
      vertex -33.3185 83.82 1.88595
    endloop
  endfacet
  facet normal -0.258869 0 -0.965913
    outer loop
      vertex -34.484 -83.82 2.07056
      vertex -34.1027 83.82 1.96837
      vertex -34.1027 -83.82 1.96837
    endloop
  endfacet
  facet normal -0.258869 0 -0.965913
    outer loop
      vertex -34.1027 83.82 1.96837
      vertex -34.484 -83.82 2.07056
      vertex -34.484 83.82 2.07056
    endloop
  endfacet
  facet normal -0 1 -0
    outer loop
      vertex -33.7127 83.82 1.90661
      vertex -36.585 83.82 3.7719
      vertex -33.3185 83.82 1.88595
    endloop
  endfacet
  facet normal 0.15641 0 -0.987692
    outer loop
      vertex 33.7127 -83.82 1.90661
      vertex 34.1027 83.82 1.96837
      vertex 34.1027 -83.82 1.96837
    endloop
  endfacet
  facet normal 0.15641 0 -0.987692
    outer loop
      vertex 34.1027 83.82 1.96837
      vertex 33.7127 -83.82 1.90661
      vertex 33.7127 83.82 1.90661
    endloop
  endfacet
  facet normal 0 1 -0
    outer loop
      vertex 35.5355 83.82 2.60632
      vertex 35.2044 83.82 2.39129
      vertex 36.585 83.82 3.7719
    endloop
  endfacet
  facet normal -0.358363 0 -0.933582
    outer loop
      vertex -34.8526 -83.82 2.21205
      vertex -34.484 83.82 2.07056
      vertex -34.484 -83.82 2.07056
    endloop
  endfacet
  facet normal -0.358363 0 -0.933582
    outer loop
      vertex -34.484 83.82 2.07056
      vertex -34.8526 -83.82 2.21205
      vertex -34.8526 83.82 2.21205
    endloop
  endfacet
  facet normal 0.0523381 0 -0.998629
    outer loop
      vertex 33.3185 -83.82 1.88595
      vertex 33.7127 83.82 1.90661
      vertex 33.7127 -83.82 1.90661
    endloop
  endfacet
  facet normal 0.0523381 0 -0.998629
    outer loop
      vertex 33.7127 83.82 1.90661
      vertex 33.3185 -83.82 1.88595
      vertex 33.3185 83.82 1.88595
    endloop
  endfacet
  facet normal 0 0 -1
    outer loop
      vertex -33.3185 -83.82 1.88595
      vertex 33.3185 83.82 1.88595
      vertex 33.3185 -83.82 1.88595
    endloop
  endfacet
  facet normal -0 0 -1
    outer loop
      vertex 33.3185 83.82 1.88595
      vertex -33.3185 -83.82 1.88595
      vertex -33.3185 83.82 1.88595
    endloop
  endfacet
  facet normal -0.453968 0 -0.891018
    outer loop
      vertex -35.2044 -83.82 2.39129
      vertex -34.8526 83.82 2.21205
      vertex -34.8526 -83.82 2.21205
    endloop
  endfacet
  facet normal -0.453968 0 -0.891018
    outer loop
      vertex -34.8526 83.82 2.21205
      vertex -35.2044 -83.82 2.39129
      vertex -35.2044 83.82 2.39129
    endloop
  endfacet
  facet normal 0.258869 0 -0.965913
    outer loop
      vertex 34.1027 -83.82 1.96837
      vertex 34.484 83.82 2.07056
      vertex 34.484 -83.82 2.07056
    endloop
  endfacet
  facet normal 0.258869 0 -0.965913
    outer loop
      vertex 34.484 83.82 2.07056
      vertex 34.1027 -83.82 1.96837
      vertex 34.1027 83.82 1.96837
    endloop
  endfacet
  facet normal 0 1 -0
    outer loop
      vertex 34.8526 83.82 2.21205
      vertex 34.484 83.82 2.07056
      vertex 36.585 83.82 3.7719
    endloop
  endfacet
  facet normal -0 1 -0
    outer loop
      vertex -34.484 83.82 2.07056
      vertex -36.585 83.82 3.7719
      vertex -34.1027 83.82 1.96837
    endloop
  endfacet
  facet normal -0 1 -0
    outer loop
      vertex -36.1215 83.82 3.13396
      vertex -36.585 83.82 3.7719
      vertex -35.8423 83.82 2.85478
    endloop
  endfacet
  facet normal -0 1 -0
    outer loop
      vertex -35.5355 83.82 2.60632
      vertex -36.585 83.82 3.7719
      vertex -35.2044 83.82 2.39129
    endloop
  endfacet
  facet normal -0.898299 0 -0.439384
    outer loop
      vertex -36.7643 -83.82 4.12368
      vertex -47.0275 83.82 25.1063
      vertex -36.7643 83.82 4.12368
    endloop
  endfacet
  facet normal -0.898299 -0 -0.439384
    outer loop
      vertex -47.0275 83.82 25.1063
      vertex -36.7643 -83.82 4.12368
      vertex -47.0275 -83.82 25.1063
    endloop
  endfacet
  facet normal -0.890946 0 -0.454109
    outer loop
      vertex -36.585 -83.82 3.7719
      vertex -36.7643 83.82 4.12368
      vertex -36.585 83.82 3.7719
    endloop
  endfacet
  facet normal -0.890946 -0 -0.454109
    outer loop
      vertex -36.7643 83.82 4.12368
      vertex -36.585 -83.82 3.7719
      vertex -36.7643 -83.82 4.12368
    endloop
  endfacet
  facet normal 0.544659 0 -0.838658
    outer loop
      vertex 35.2044 -83.82 2.39129
      vertex 35.5355 83.82 2.60632
      vertex 35.5355 -83.82 2.60632
    endloop
  endfacet
  facet normal 0.544659 0 -0.838658
    outer loop
      vertex 35.5355 83.82 2.60632
      vertex 35.2044 -83.82 2.39129
      vertex 35.2044 83.82 2.39129
    endloop
  endfacet
  facet normal 0 1 -0
    outer loop
      vertex 35.2044 83.82 2.39129
      vertex 34.8526 83.82 2.21205
      vertex 36.585 83.82 3.7719
    endloop
  endfacet
  facet normal 0.890946 0 -0.454109
    outer loop
      vertex 36.7643 -83.82 4.12368
      vertex 36.585 83.82 3.7719
      vertex 36.7643 83.82 4.12368
    endloop
  endfacet
  facet normal 0.890946 0 -0.454109
    outer loop
      vertex 36.585 83.82 3.7719
      vertex 36.7643 -83.82 4.12368
      vertex 36.585 -83.82 3.7719
    endloop
  endfacet
  facet normal 0 1 -0
    outer loop
      vertex 36.1215 83.82 3.13396
      vertex 35.8423 83.82 2.85478
      vertex 36.585 83.82 3.7719
    endloop
  endfacet
  facet normal -0.15641 0 -0.987692
    outer loop
      vertex -34.1027 -83.82 1.96837
      vertex -33.7127 83.82 1.90661
      vertex -33.7127 -83.82 1.90661
    endloop
  endfacet
  facet normal -0.15641 0 -0.987692
    outer loop
      vertex -33.7127 83.82 1.90661
      vertex -34.1027 -83.82 1.96837
      vertex -34.1027 83.82 1.96837
    endloop
  endfacet
  facet normal -0.0523381 0 -0.998629
    outer loop
      vertex -33.7127 -83.82 1.90661
      vertex -33.3185 83.82 1.88595
      vertex -33.3185 -83.82 1.88595
    endloop
  endfacet
  facet normal -0.0523381 0 -0.998629
    outer loop
      vertex -33.3185 83.82 1.88595
      vertex -33.7127 -83.82 1.90661
      vertex -33.7127 83.82 1.90661
    endloop
  endfacet
  facet normal 0 1 -0
    outer loop
      vertex 33.7127 83.82 1.90661
      vertex 33.3185 83.82 1.88595
      vertex 36.585 83.82 3.7719
    endloop
  endfacet
  facet normal 0 1 -0
    outer loop
      vertex 34.1027 83.82 1.96837
      vertex 33.7127 83.82 1.90661
      vertex 36.585 83.82 3.7719
    endloop
  endfacet
  facet normal -0 1 -0
    outer loop
      vertex -36.37 83.82 3.44078
      vertex -36.585 83.82 3.7719
      vertex -36.1215 83.82 3.13396
    endloop
  endfacet
  facet normal -0 1 -0
    outer loop
      vertex -35.8423 83.82 2.85478
      vertex -36.585 83.82 3.7719
      vertex -35.5355 83.82 2.60632
    endloop
  endfacet
  facet normal -0 1 -0
    outer loop
      vertex -35.2044 83.82 2.39129
      vertex -36.585 83.82 3.7719
      vertex -34.8526 83.82 2.21205
    endloop
  endfacet
  facet normal -0 1 -0
    outer loop
      vertex -34.8526 83.82 2.21205
      vertex -36.585 83.82 3.7719
      vertex -34.484 83.82 2.07056
    endloop
  endfacet
  facet normal 0.898299 0 -0.439384
    outer loop
      vertex 47.0275 -83.82 25.1063
      vertex 36.7643 83.82 4.12368
      vertex 47.0275 83.82 25.1063
    endloop
  endfacet
  facet normal 0.898299 0 -0.439384
    outer loop
      vertex 36.7643 83.82 4.12368
      vertex 47.0275 -83.82 25.1063
      vertex 36.7643 -83.82 4.12368
    endloop
  endfacet
  facet normal 0.777094 0 -0.629385
    outer loop
      vertex 36.37 -83.82 3.44078
      vertex 36.1215 83.82 3.13396
      vertex 36.37 83.82 3.44078
    endloop
  endfacet
  facet normal 0.777094 0 -0.629385
    outer loop
      vertex 36.1215 83.82 3.13396
      vertex 36.37 -83.82 3.44078
      vertex 36.1215 -83.82 3.13396
    endloop
  endfacet
  facet normal 0 1 -0
    outer loop
      vertex 36.37 83.82 3.44078
      vertex 36.1215 83.82 3.13396
      vertex 36.585 83.82 3.7719
    endloop
  endfacet
  facet normal 0 1 -0
    outer loop
      vertex 35.8423 83.82 2.85478
      vertex 35.5355 83.82 2.60632
      vertex 36.585 83.82 3.7719
    endloop
  endfacet
  facet normal -0 1 -0
    outer loop
      vertex -34.1027 83.82 1.96837
      vertex -36.585 83.82 3.7719
      vertex -33.7127 83.82 1.90661
    endloop
  endfacet
  facet normal -0.707081 0 -0.707132
    outer loop
      vertex -36.1215 -83.82 3.13396
      vertex -35.8423 83.82 2.85478
      vertex -35.8423 -83.82 2.85478
    endloop
  endfacet
  facet normal -0.707081 0 -0.707132
    outer loop
      vertex -35.8423 83.82 2.85478
      vertex -36.1215 -83.82 3.13396
      vertex -36.1215 83.82 3.13396
    endloop
  endfacet
  facet normal 0.453968 0 -0.891018
    outer loop
      vertex 34.8526 -83.82 2.21205
      vertex 35.2044 83.82 2.39129
      vertex 35.2044 -83.82 2.39129
    endloop
  endfacet
  facet normal 0.453968 0 -0.891018
    outer loop
      vertex 35.2044 83.82 2.39129
      vertex 34.8526 -83.82 2.21205
      vertex 34.8526 83.82 2.21205
    endloop
  endfacet
  facet normal 0.838707 0 -0.544582
    outer loop
      vertex 36.585 -83.82 3.7719
      vertex 36.37 83.82 3.44078
      vertex 36.585 83.82 3.7719
    endloop
  endfacet
  facet normal 0.838707 0 -0.544582
    outer loop
      vertex 36.37 83.82 3.44078
      vertex 36.585 -83.82 3.7719
      vertex 36.37 -83.82 3.44078
    endloop
  endfacet
  facet normal 0.358363 0 -0.933582
    outer loop
      vertex 34.484 -83.82 2.07056
      vertex 34.8526 83.82 2.21205
      vertex 34.8526 -83.82 2.21205
    endloop
  endfacet
  facet normal 0.358363 0 -0.933582
    outer loop
      vertex 34.8526 83.82 2.21205
      vertex 34.484 -83.82 2.07056
      vertex 34.484 83.82 2.07056
    endloop
  endfacet
  facet normal 0.629348 0 -0.777123
    outer loop
      vertex 35.5355 -83.82 2.60632
      vertex 35.8423 83.82 2.85478
      vertex 35.8423 -83.82 2.85478
    endloop
  endfacet
  facet normal 0.629348 0 -0.777123
    outer loop
      vertex 35.8423 83.82 2.85478
      vertex 35.5355 -83.82 2.60632
      vertex 35.5355 83.82 2.60632
    endloop
  endfacet
  facet normal 0.707081 0 -0.707132
    outer loop
      vertex 35.8423 -83.82 2.85478
      vertex 36.1215 83.82 3.13396
      vertex 36.1215 -83.82 3.13396
    endloop
  endfacet
  facet normal 0.707081 0 -0.707132
    outer loop
      vertex 36.1215 83.82 3.13396
      vertex 35.8423 -83.82 2.85478
      vertex 35.8423 83.82 2.85478
    endloop
  endfacet
  facet normal -0.777094 0 -0.629385
    outer loop
      vertex -36.1215 -83.82 3.13396
      vertex -36.37 83.82 3.44078
      vertex -36.1215 83.82 3.13396
    endloop
  endfacet
  facet normal -0.777094 -0 -0.629385
    outer loop
      vertex -36.37 83.82 3.44078
      vertex -36.1215 -83.82 3.13396
      vertex -36.37 -83.82 3.44078
    endloop
  endfacet
  facet normal -0.629348 0 -0.777123
    outer loop
      vertex -35.8423 -83.82 2.85478
      vertex -35.5355 83.82 2.60632
      vertex -35.5355 -83.82 2.60632
    endloop
  endfacet
  facet normal -0.629348 0 -0.777123
    outer loop
      vertex -35.5355 83.82 2.60632
      vertex -35.8423 -83.82 2.85478
      vertex -35.8423 83.82 2.85478
    endloop
  endfacet
  facet normal -0.544659 0 -0.838658
    outer loop
      vertex -35.5355 -83.82 2.60632
      vertex -35.2044 83.82 2.39129
      vertex -35.2044 -83.82 2.39129
    endloop
  endfacet
  facet normal -0.544659 0 -0.838658
    outer loop
      vertex -35.2044 83.82 2.39129
      vertex -35.5355 -83.82 2.60632
      vertex -35.5355 83.82 2.60632
    endloop
  endfacet
endsolid OpenSCAD_Model
