solid OpenSCAD_Model
  facet normal 0 0 1
    outer loop
      vertex -51.7525 5.5 48.895
      vertex -51.7525 -5.5 48.895
      vertex -41.7525 -5.5 48.895
    endloop
  endfacet
  facet normal 0 -1 0
    outer loop
      vertex -41.7525 -5.5 48.895
      vertex -33.655 -5.5 0
      vertex 51.7525 -5.5 48.895
    endloop
  endfacet
  facet normal 0 -1 0
    outer loop
      vertex -33.655 -5.5 0
      vertex -41.7525 -5.5 48.895
      vertex -51.7525 -5.5 48.895
    endloop
  endfacet
  facet normal -0 0 1
    outer loop
      vertex -51.7525 5.5 48.895
      vertex -41.7525 -5.5 48.895
      vertex 51.7525 5.5 48.895
    endloop
  endfacet
  facet normal -0.965926 -0 -0.258819
    outer loop
      vertex -51.2421 5.5 29.21
      vertex -51.2421 -5.5 29.21
      vertex -51.7525 5.5 31.115
    endloop
  endfacet
  facet normal 0 1 0
    outer loop
      vertex -51.7525 5.5 48.895
      vertex -51.2421 5.5 29.21
      vertex -51.7525 5.5 31.115
    endloop
  endfacet
  facet normal 0 -1 0
    outer loop
      vertex -33.655 -5.5 0
      vertex -36.9546 -5.5 1.905
      vertex -35.56 -5.5 0.510443
    endloop
  endfacet
  facet normal 0 1 -0
    outer loop
      vertex -51.2421 5.5 29.21
      vertex -51.7525 5.5 48.895
      vertex 51.7525 5.5 48.895
    endloop
  endfacet
  facet normal 0 -1 0
    outer loop
      vertex -33.655 -5.5 0
      vertex -51.2421 -5.5 29.21
      vertex -36.9546 -5.5 1.905
    endloop
  endfacet
  facet normal 0 -1 0
    outer loop
      vertex -33.655 -5.5 0
      vertex -51.7525 -5.5 48.895
      vertex -51.2421 -5.5 29.21
    endloop
  endfacet
  facet normal -1 0 0
    outer loop
      vertex -51.7525 -5.5 48.895
      vertex -51.7525 5.5 31.115
      vertex -51.7525 -5.5 31.115
    endloop
  endfacet
  facet normal -1 0 0
    outer loop
      vertex -51.7525 -5.5 48.895
      vertex -51.7525 5.5 48.895
      vertex -51.7525 5.5 31.115
    endloop
  endfacet
  facet normal -0 1 0
    outer loop
      vertex -51.2421 5.5 29.21
      vertex 51.7525 5.5 48.895
      vertex 36.9546 5.5 1.905
    endloop
  endfacet
  facet normal 0 0 1
    outer loop
      vertex 51.7525 5.5 48.895
      vertex -41.7525 -5.5 48.895
      vertex 51.7525 -5.5 48.895
    endloop
  endfacet
  facet normal 1 0 0
    outer loop
      vertex 51.7525 5.5 48.895
      vertex 51.7525 -5.5 48.895
      vertex 51.7525 5.5 31.115
    endloop
  endfacet
  facet normal 0 0 -1
    outer loop
      vertex -33.655 -5.5 0
      vertex 33.655 5.5 0
      vertex 33.655 -5.5 0
    endloop
  endfacet
  facet normal -0.886033 0 -0.463622
    outer loop
      vertex -51.2421 -5.5 29.21
      vertex -51.2421 5.5 29.21
      vertex -36.9546 -5.5 1.905
    endloop
  endfacet
  facet normal 0 1 0
    outer loop
      vertex -51.2421 5.5 29.21
      vertex 36.9546 5.5 1.905
      vertex -36.9546 5.5 1.905
    endloop
  endfacet
  facet normal -0.965926 -0 -0.258819
    outer loop
      vertex -51.7525 5.5 31.115
      vertex -51.2421 -5.5 29.21
      vertex -51.7525 -5.5 31.115
    endloop
  endfacet
  facet normal 0 -1 0
    outer loop
      vertex -51.2421 -5.5 29.21
      vertex -51.7525 -5.5 48.895
      vertex -51.7525 -5.5 31.115
    endloop
  endfacet
  facet normal 2.50308e-07 1 -9.34163e-07
    outer loop
      vertex 33.655 5.5 0
      vertex 36.9546 5.5 1.905
      vertex 35.56 5.5 0.510443
    endloop
  endfacet
  facet normal -2.50308e-07 1 -9.34163e-07
    outer loop
      vertex -35.56 5.5 0.510443
      vertex -36.9546 5.5 1.905
      vertex -33.655 5.5 0
    endloop
  endfacet
  facet normal -0.258819 0 -0.965926
    outer loop
      vertex -33.655 -5.5 0
      vertex -35.56 5.5 0.510443
      vertex -33.655 5.5 0
    endloop
  endfacet
  facet normal 0 1 -5.00617e-07
    outer loop
      vertex 36.9546 5.5 1.905
      vertex 33.655 5.5 0
      vertex -36.9546 5.5 1.905
    endloop
  endfacet
  facet normal 0 -1 0
    outer loop
      vertex 51.7525 -5.5 48.895
      vertex 33.655 -5.5 0
      vertex 51.2421 -5.5 29.21
    endloop
  endfacet
  facet normal 0 -1 0
    outer loop
      vertex 51.7525 -5.5 48.895
      vertex -33.655 -5.5 0
      vertex 33.655 -5.5 0
    endloop
  endfacet
  facet normal -0.707107 0 -0.707107
    outer loop
      vertex -36.9546 -5.5 1.905
      vertex -35.56 5.5 0.510443
      vertex -35.56 -5.5 0.510443
    endloop
  endfacet
  facet normal -0.258819 -0 -0.965926
    outer loop
      vertex -35.56 5.5 0.510443
      vertex -33.655 -5.5 0
      vertex -35.56 -5.5 0.510443
    endloop
  endfacet
  facet normal -0.707107 0 -0.707107
    outer loop
      vertex -35.56 5.5 0.510443
      vertex -36.9546 -5.5 1.905
      vertex -36.9546 5.5 1.905
    endloop
  endfacet
  facet normal -0.886033 0 -0.463622
    outer loop
      vertex -36.9546 -5.5 1.905
      vertex -51.2421 5.5 29.21
      vertex -36.9546 5.5 1.905
    endloop
  endfacet
  facet normal 0 -1 0
    outer loop
      vertex 51.2421 -5.5 29.21
      vertex 33.655 -5.5 0
      vertex 35.56 -5.5 0.510443
    endloop
  endfacet
  facet normal 0 1 0
    outer loop
      vertex 36.9546 5.5 1.905
      vertex 51.7525 5.5 48.895
      vertex 51.2421 5.5 29.21
    endloop
  endfacet
  facet normal 0.886033 0 -0.463622
    outer loop
      vertex 36.9546 5.5 1.905
      vertex 51.2421 -5.5 29.21
      vertex 36.9546 -5.5 1.905
    endloop
  endfacet
  facet normal 0.258819 0 -0.965926
    outer loop
      vertex 33.655 -5.5 0
      vertex 33.655 5.5 0
      vertex 35.56 5.5 0.510443
    endloop
  endfacet
  facet normal 0 1 -5.00617e-07
    outer loop
      vertex -36.9546 5.5 1.905
      vertex 33.655 5.5 0
      vertex -33.655 5.5 0
    endloop
  endfacet
  facet normal -0 0 -1
    outer loop
      vertex 33.655 5.5 0
      vertex -33.655 -5.5 0
      vertex -33.655 5.5 0
    endloop
  endfacet
  facet normal 0.886033 0 -0.463622
    outer loop
      vertex 36.9546 5.5 1.905
      vertex 51.2421 5.5 29.21
      vertex 51.2421 -5.5 29.21
    endloop
  endfacet
  facet normal 0 1 0
    outer loop
      vertex 51.2421 5.5 29.21
      vertex 51.7525 5.5 48.895
      vertex 51.7525 5.5 31.115
    endloop
  endfacet
  facet normal 0.965926 0 -0.258819
    outer loop
      vertex 51.2421 5.5 29.21
      vertex 51.7525 5.5 31.115
      vertex 51.2421 -5.5 29.21
    endloop
  endfacet
  facet normal 0 -1 -0
    outer loop
      vertex 51.7525 -5.5 48.895
      vertex 51.2421 -5.5 29.21
      vertex 51.7525 -5.5 31.115
    endloop
  endfacet
  facet normal 0.258819 0 -0.965926
    outer loop
      vertex 33.655 -5.5 0
      vertex 35.56 5.5 0.510443
      vertex 35.56 -5.5 0.510443
    endloop
  endfacet
  facet normal 0.707107 0 -0.707107
    outer loop
      vertex 35.56 5.5 0.510443
      vertex 36.9546 5.5 1.905
      vertex 35.56 -5.5 0.510443
    endloop
  endfacet
  facet normal 0.965926 0 -0.258819
    outer loop
      vertex 51.2421 -5.5 29.21
      vertex 51.7525 5.5 31.115
      vertex 51.7525 -5.5 31.115
    endloop
  endfacet
  facet normal 1 0 0
    outer loop
      vertex 51.7525 5.5 31.115
      vertex 51.7525 -5.5 48.895
      vertex 51.7525 -5.5 31.115
    endloop
  endfacet
  facet normal 0 -1 0
    outer loop
      vertex 51.2421 -5.5 29.21
      vertex 35.56 -5.5 0.510443
      vertex 36.9546 -5.5 1.905
    endloop
  endfacet
  facet normal 0.707107 0 -0.707107
    outer loop
      vertex 35.56 -5.5 0.510443
      vertex 36.9546 5.5 1.905
      vertex 36.9546 -5.5 1.905
    endloop
  endfacet
endsolid OpenSCAD_Model
