solid OpenSCAD_Model
  facet normal 1 -0 0
    outer loop
      vertex 47.0275 -53.1679 5.5
      vertex 47.0275 -41.1889 -5.5
      vertex 47.0275 -41.1889 5.5
    endloop
  endfacet
  facet normal 1 0 0
    outer loop
      vertex 47.0275 -41.1889 -5.5
      vertex 47.0275 -53.1679 5.5
      vertex 47.0275 -53.1679 -5.5
    endloop
  endfacet
  facet normal 0 -1 0
    outer loop
      vertex 47.0275 -41.1889 -5.5
      vertex 51.235 -41.1889 5.5
      vertex 47.0275 -41.1889 5.5
    endloop
  endfacet
  facet normal 0 -1 -0
    outer loop
      vertex 51.235 -41.1889 5.5
      vertex 47.0275 -41.1889 -5.5
      vertex 51.235 -41.1889 -5.5
    endloop
  endfacet
  facet normal -1 0 0
    outer loop
      vertex -47.0275 -53.1679 -5.5
      vertex -47.0275 -41.1889 5.5
      vertex -47.0275 -41.1889 -5.5
    endloop
  endfacet
  facet normal -1 -0 0
    outer loop
      vertex -47.0275 -41.1889 5.5
      vertex -47.0275 -53.1679 -5.5
      vertex -47.0275 -53.1679 5.5
    endloop
  endfacet
  facet normal 0 -1 0
    outer loop
      vertex -51.235 -41.1889 -5.5
      vertex -47.0275 -41.1889 5.5
      vertex -51.235 -41.1889 5.5
    endloop
  endfacet
  facet normal 0 -1 -0
    outer loop
      vertex -47.0275 -41.1889 5.5
      vertex -51.235 -41.1889 -5.5
      vertex -47.0275 -41.1889 -5.5
    endloop
  endfacet
  facet normal 0 -1 0
    outer loop
      vertex -47.0275 -53.1679 -5.5
      vertex 47.0275 -53.1679 5.5
      vertex -47.0275 -53.1679 5.5
    endloop
  endfacet
  facet normal 0 -1 -0
    outer loop
      vertex 47.0275 -53.1679 5.5
      vertex -47.0275 -53.1679 -5.5
      vertex 47.0275 -53.1679 -5.5
    endloop
  endfacet
  facet normal -1 0 0
    outer loop
      vertex -51.235 -41.1889 -5.5
      vertex -51.235 -34.5757 5.5
      vertex -51.235 -34.5757 -5.5
    endloop
  endfacet
  facet normal -1 -0 0
    outer loop
      vertex -51.235 -34.5757 5.5
      vertex -51.235 -41.1889 -5.5
      vertex -51.235 -41.1889 5.5
    endloop
  endfacet
  facet normal -0.83867 0.54464 0
    outer loop
      vertex -36.585 -3.7719 -5.5
      vertex -36.37 -3.44078 5.5
      vertex -36.37 -3.44078 -5.5
    endloop
  endfacet
  facet normal -0.83867 0.54464 0
    outer loop
      vertex -36.37 -3.44078 5.5
      vertex -36.585 -3.7719 -5.5
      vertex -36.585 -3.7719 5.5
    endloop
  endfacet
  facet normal -0 0 1
    outer loop
      vertex -50.9089 -33.0416 5.5
      vertex -47.0275 -41.1889 5.5
      vertex -36.7643 -4.12368 5.5
    endloop
  endfacet
  facet normal 0 0 1
    outer loop
      vertex -51.235 -34.5757 5.5
      vertex -50.9089 -33.0416 5.5
      vertex -51.0504 -33.4102 5.5
    endloop
  endfacet
  facet normal 0 0 1
    outer loop
      vertex -51.235 -34.5757 5.5
      vertex -51.0504 -33.4102 5.5
      vertex -51.1525 -33.7915 5.5
    endloop
  endfacet
  facet normal 0 0 1
    outer loop
      vertex -51.235 -34.5757 5.5
      vertex -51.1525 -33.7915 5.5
      vertex -51.2143 -34.1815 5.5
    endloop
  endfacet
  facet normal 0 0 1
    outer loop
      vertex -50.9089 -33.0416 5.5
      vertex -51.235 -34.5757 5.5
      vertex -47.0275 -41.1889 5.5
    endloop
  endfacet
  facet normal 0 0 1
    outer loop
      vertex -47.0275 -41.1889 5.5
      vertex -51.235 -34.5757 5.5
      vertex -51.235 -41.1889 5.5
    endloop
  endfacet
  facet normal 0 0 1
    outer loop
      vertex 50.9089 -33.0416 5.5
      vertex 51.235 -34.5757 5.5
      vertex 51.2143 -34.1815 5.5
    endloop
  endfacet
  facet normal 0 0 1
    outer loop
      vertex 50.9089 -33.0416 5.5
      vertex 51.2143 -34.1815 5.5
      vertex 51.1525 -33.7915 5.5
    endloop
  endfacet
  facet normal 0 0 1
    outer loop
      vertex 50.9089 -33.0416 5.5
      vertex 51.1525 -33.7915 5.5
      vertex 51.0504 -33.4102 5.5
    endloop
  endfacet
  facet normal 0 0 1
    outer loop
      vertex 51.235 -34.5757 5.5
      vertex 50.9089 -33.0416 5.5
      vertex 47.0275 -41.1889 5.5
    endloop
  endfacet
  facet normal 0 0 1
    outer loop
      vertex 51.235 -34.5757 5.5
      vertex 47.0275 -41.1889 5.5
      vertex 51.235 -41.1889 5.5
    endloop
  endfacet
  facet normal 0 0 1
    outer loop
      vertex 36.7643 -4.12368 5.5
      vertex 47.0275 -41.1889 5.5
      vertex 50.9089 -33.0416 5.5
    endloop
  endfacet
  facet normal 0 0 1
    outer loop
      vertex -47.0275 -41.1889 5.5
      vertex 47.0275 -41.1889 5.5
      vertex 36.7643 -4.12368 5.5
    endloop
  endfacet
  facet normal 0 0 1
    outer loop
      vertex -36.7643 -4.12368 5.5
      vertex 36.7643 -4.12368 5.5
      vertex 36.585 -3.7719 5.5
    endloop
  endfacet
  facet normal 0 0 1
    outer loop
      vertex -36.7643 -4.12368 5.5
      vertex 36.585 -3.7719 5.5
      vertex -36.585 -3.7719 5.5
    endloop
  endfacet
  facet normal 0 0 1
    outer loop
      vertex 36.7643 -4.12368 5.5
      vertex -36.7643 -4.12368 5.5
      vertex -47.0275 -41.1889 5.5
    endloop
  endfacet
  facet normal 0 0 1
    outer loop
      vertex 47.0275 -41.1889 5.5
      vertex -47.0275 -41.1889 5.5
      vertex 47.0275 -53.1679 5.5
    endloop
  endfacet
  facet normal 0 0 1
    outer loop
      vertex 47.0275 -53.1679 5.5
      vertex -47.0275 -41.1889 5.5
      vertex -47.0275 -53.1679 5.5
    endloop
  endfacet
  facet normal 0 0 -1
    outer loop
      vertex -47.0275 -41.1889 -5.5
      vertex 47.0275 -41.1889 -5.5
      vertex 47.0275 -53.1679 -5.5
    endloop
  endfacet
  facet normal 0 0 -1
    outer loop
      vertex 47.0275 -41.1889 -5.5
      vertex 33.3185 -1.88595 -5.5
      vertex 36.7643 -4.12368 -5.5
    endloop
  endfacet
  facet normal 0 0 -1
    outer loop
      vertex 36.7643 -4.12368 -5.5
      vertex 33.3185 -1.88595 -5.5
      vertex 36.585 -3.7719 -5.5
    endloop
  endfacet
  facet normal 0 0 -1
    outer loop
      vertex 36.585 -3.7719 -5.5
      vertex 33.3185 -1.88595 -5.5
      vertex 36.37 -3.44078 -5.5
    endloop
  endfacet
  facet normal 0 0 -1
    outer loop
      vertex 36.37 -3.44078 -5.5
      vertex 33.3185 -1.88595 -5.5
      vertex 36.1215 -3.13396 -5.5
    endloop
  endfacet
  facet normal 0 0 -1
    outer loop
      vertex 36.1215 -3.13396 -5.5
      vertex 33.3185 -1.88595 -5.5
      vertex 35.8423 -2.85478 -5.5
    endloop
  endfacet
  facet normal 0 0 -1
    outer loop
      vertex 35.8423 -2.85478 -5.5
      vertex 33.3185 -1.88595 -5.5
      vertex 35.5355 -2.60632 -5.5
    endloop
  endfacet
  facet normal 0 0 -1
    outer loop
      vertex 35.5355 -2.60632 -5.5
      vertex 33.3185 -1.88595 -5.5
      vertex 35.2044 -2.39129 -5.5
    endloop
  endfacet
  facet normal 0 0 -1
    outer loop
      vertex 35.2044 -2.39129 -5.5
      vertex 33.3185 -1.88595 -5.5
      vertex 34.8526 -2.21205 -5.5
    endloop
  endfacet
  facet normal 0 0 -1
    outer loop
      vertex 34.8526 -2.21205 -5.5
      vertex 33.3185 -1.88595 -5.5
      vertex 34.484 -2.07056 -5.5
    endloop
  endfacet
  facet normal 0 0 -1
    outer loop
      vertex 34.484 -2.07056 -5.5
      vertex 33.3185 -1.88595 -5.5
      vertex 34.1027 -1.96837 -5.5
    endloop
  endfacet
  facet normal 0 0 -1
    outer loop
      vertex 34.1027 -1.96837 -5.5
      vertex 33.3185 -1.88595 -5.5
      vertex 33.7127 -1.90661 -5.5
    endloop
  endfacet
  facet normal 0 0 -1
    outer loop
      vertex 47.0275 -41.1889 -5.5
      vertex -47.0275 -41.1889 -5.5
      vertex 33.3185 -1.88595 -5.5
    endloop
  endfacet
  facet normal -0 0 -1
    outer loop
      vertex 33.3185 -1.88595 -5.5
      vertex -47.0275 -41.1889 -5.5
      vertex -33.3185 -1.88595 -5.5
    endloop
  endfacet
  facet normal 0 -0 -1
    outer loop
      vertex -36.7643 -4.12368 -5.5
      vertex -33.3185 -1.88595 -5.5
      vertex -47.0275 -41.1889 -5.5
    endloop
  endfacet
  facet normal 0 0 -1
    outer loop
      vertex -33.3185 -1.88595 -5.5
      vertex -36.7643 -4.12368 -5.5
      vertex -33.7127 -1.90661 -5.5
    endloop
  endfacet
  facet normal 0 0 -1
    outer loop
      vertex -33.7127 -1.90661 -5.5
      vertex -36.7643 -4.12368 -5.5
      vertex -34.1027 -1.96837 -5.5
    endloop
  endfacet
  facet normal 0 0 -1
    outer loop
      vertex -34.1027 -1.96837 -5.5
      vertex -36.7643 -4.12368 -5.5
      vertex -34.484 -2.07056 -5.5
    endloop
  endfacet
  facet normal 0 0 -1
    outer loop
      vertex -34.484 -2.07056 -5.5
      vertex -36.7643 -4.12368 -5.5
      vertex -34.8526 -2.21205 -5.5
    endloop
  endfacet
  facet normal 0 0 -1
    outer loop
      vertex -35.2044 -2.39129 -5.5
      vertex -36.7643 -4.12368 -5.5
      vertex -35.5355 -2.60632 -5.5
    endloop
  endfacet
  facet normal 0 0 -1
    outer loop
      vertex -35.5355 -2.60632 -5.5
      vertex -36.7643 -4.12368 -5.5
      vertex -35.8423 -2.85478 -5.5
    endloop
  endfacet
  facet normal 0 0 -1
    outer loop
      vertex -35.8423 -2.85478 -5.5
      vertex -36.7643 -4.12368 -5.5
      vertex -36.1215 -3.13396 -5.5
    endloop
  endfacet
  facet normal 0 0 -1
    outer loop
      vertex -36.1215 -3.13396 -5.5
      vertex -36.7643 -4.12368 -5.5
      vertex -36.37 -3.44078 -5.5
    endloop
  endfacet
  facet normal 0 0 -1
    outer loop
      vertex -36.37 -3.44078 -5.5
      vertex -36.7643 -4.12368 -5.5
      vertex -36.585 -3.7719 -5.5
    endloop
  endfacet
  facet normal 0 0 -1
    outer loop
      vertex -47.0275 -41.1889 -5.5
      vertex 47.0275 -53.1679 -5.5
      vertex -47.0275 -53.1679 -5.5
    endloop
  endfacet
  facet normal 0 0 -1
    outer loop
      vertex -34.8526 -2.21205 -5.5
      vertex -36.7643 -4.12368 -5.5
      vertex -35.2044 -2.39129 -5.5
    endloop
  endfacet
  facet normal 0 0 -1
    outer loop
      vertex -47.0275 -41.1889 -5.5
      vertex -50.9089 -33.0416 -5.5
      vertex -36.7643 -4.12368 -5.5
    endloop
  endfacet
  facet normal 0 0 -1
    outer loop
      vertex -51.235 -34.5757 -5.5
      vertex -50.9089 -33.0416 -5.5
      vertex -47.0275 -41.1889 -5.5
    endloop
  endfacet
  facet normal 0 0 -1
    outer loop
      vertex -50.9089 -33.0416 -5.5
      vertex -51.235 -34.5757 -5.5
      vertex -51.0504 -33.4102 -5.5
    endloop
  endfacet
  facet normal 0 0 -1
    outer loop
      vertex -51.0504 -33.4102 -5.5
      vertex -51.235 -34.5757 -5.5
      vertex -51.1525 -33.7915 -5.5
    endloop
  endfacet
  facet normal 0 0 -1
    outer loop
      vertex -51.235 -34.5757 -5.5
      vertex -47.0275 -41.1889 -5.5
      vertex -51.235 -41.1889 -5.5
    endloop
  endfacet
  facet normal 0 0 -1
    outer loop
      vertex -51.1525 -33.7915 -5.5
      vertex -51.235 -34.5757 -5.5
      vertex -51.2143 -34.1815 -5.5
    endloop
  endfacet
  facet normal 0 0 -1
    outer loop
      vertex 47.0275 -41.1889 -5.5
      vertex 51.235 -34.5757 -5.5
      vertex 51.235 -41.1889 -5.5
    endloop
  endfacet
  facet normal 0 -0 -1
    outer loop
      vertex 50.9089 -33.0416 -5.5
      vertex 51.235 -34.5757 -5.5
      vertex 47.0275 -41.1889 -5.5
    endloop
  endfacet
  facet normal 0 0 -1
    outer loop
      vertex 51.235 -34.5757 -5.5
      vertex 50.9089 -33.0416 -5.5
      vertex 51.2143 -34.1815 -5.5
    endloop
  endfacet
  facet normal 0 0 -1
    outer loop
      vertex 51.2143 -34.1815 -5.5
      vertex 50.9089 -33.0416 -5.5
      vertex 51.1525 -33.7915 -5.5
    endloop
  endfacet
  facet normal 0 0 -1
    outer loop
      vertex 51.1525 -33.7915 -5.5
      vertex 50.9089 -33.0416 -5.5
      vertex 51.0504 -33.4102 -5.5
    endloop
  endfacet
  facet normal -0 0 -1
    outer loop
      vertex 50.9089 -33.0416 -5.5
      vertex 47.0275 -41.1889 -5.5
      vertex 36.7643 -4.12368 -5.5
    endloop
  endfacet
  facet normal 2.24473e-07 8.37743e-07 1
    outer loop
      vertex 34.484 -2.07056 5.5
      vertex 34.1027 -1.96837 5.5
      vertex 36.585 -3.7719 5.5
    endloop
  endfacet
  facet normal -0 5.05673e-07 1
    outer loop
      vertex -33.3185 -1.88595 5.5
      vertex 36.585 -3.7719 5.5
      vertex 33.3185 -1.88595 5.5
    endloop
  endfacet
  facet normal 0 5.05673e-07 1
    outer loop
      vertex 36.585 -3.7719 5.5
      vertex -33.3185 -1.88595 5.5
      vertex -36.585 -3.7719 5.5
    endloop
  endfacet
  facet normal -0.258819 0.965926 0
    outer loop
      vertex -34.1027 -1.96837 -5.5
      vertex -34.484 -2.07056 5.5
      vertex -34.1027 -1.96837 5.5
    endloop
  endfacet
  facet normal -0.258819 0.965926 0
    outer loop
      vertex -34.484 -2.07056 5.5
      vertex -34.1027 -1.96837 -5.5
      vertex -34.484 -2.07056 -5.5
    endloop
  endfacet
  facet normal -0.933581 0.358367 0
    outer loop
      vertex -51.0504 -33.4102 -5.5
      vertex -50.9089 -33.0416 5.5
      vertex -50.9089 -33.0416 -5.5
    endloop
  endfacet
  facet normal -0.933581 0.358367 0
    outer loop
      vertex -50.9089 -33.0416 5.5
      vertex -51.0504 -33.4102 -5.5
      vertex -51.0504 -33.4102 5.5
    endloop
  endfacet
  facet normal -0.99863 0.0523296 0
    outer loop
      vertex -51.235 -34.5757 -5.5
      vertex -51.2143 -34.1815 5.5
      vertex -51.2143 -34.1815 -5.5
    endloop
  endfacet
  facet normal -0.99863 0.0523296 0
    outer loop
      vertex -51.2143 -34.1815 5.5
      vertex -51.235 -34.5757 -5.5
      vertex -51.235 -34.5757 5.5
    endloop
  endfacet
  facet normal -2.91465e-08 5.56156e-07 1
    outer loop
      vertex -33.7127 -1.90661 5.5
      vertex -36.585 -3.7719 5.5
      vertex -33.3185 -1.88595 5.5
    endloop
  endfacet
  facet normal 0.156432 0.987689 -0
    outer loop
      vertex 34.1027 -1.96837 -5.5
      vertex 33.7127 -1.90661 5.5
      vertex 34.1027 -1.96837 5.5
    endloop
  endfacet
  facet normal 0.156432 0.987689 0
    outer loop
      vertex 33.7127 -1.90661 5.5
      vertex 34.1027 -1.96837 -5.5
      vertex 33.7127 -1.90661 -5.5
    endloop
  endfacet
  facet normal 1.27949e-06 1.97025e-06 1
    outer loop
      vertex 35.5355 -2.60632 5.5
      vertex 35.2044 -2.39129 5.5
      vertex 36.585 -3.7719 5.5
    endloop
  endfacet
  facet normal -0.987688 0.156439 0
    outer loop
      vertex -51.2143 -34.1815 -5.5
      vertex -51.1525 -33.7915 5.5
      vertex -51.1525 -33.7915 -5.5
    endloop
  endfacet
  facet normal -0.987688 0.156439 0
    outer loop
      vertex -51.1525 -33.7915 5.5
      vertex -51.2143 -34.1815 -5.5
      vertex -51.2143 -34.1815 5.5
    endloop
  endfacet
  facet normal -0.965926 0.258818 0
    outer loop
      vertex -51.1525 -33.7915 -5.5
      vertex -51.0504 -33.4102 5.5
      vertex -51.0504 -33.4102 -5.5
    endloop
  endfacet
  facet normal -0.965926 0.258818 0
    outer loop
      vertex -51.0504 -33.4102 5.5
      vertex -51.1525 -33.7915 -5.5
      vertex -51.1525 -33.7915 5.5
    endloop
  endfacet
  facet normal -0.35837 0.93358 0
    outer loop
      vertex -34.484 -2.07056 -5.5
      vertex -34.8526 -2.21205 5.5
      vertex -34.484 -2.07056 5.5
    endloop
  endfacet
  facet normal -0.35837 0.93358 0
    outer loop
      vertex -34.8526 -2.21205 5.5
      vertex -34.484 -2.07056 -5.5
      vertex -34.8526 -2.21205 -5.5
    endloop
  endfacet
  facet normal 0.0523352 0.99863 -0
    outer loop
      vertex 33.7127 -1.90661 -5.5
      vertex 33.3185 -1.88595 5.5
      vertex 33.7127 -1.90661 5.5
    endloop
  endfacet
  facet normal 0.0523352 0.99863 0
    outer loop
      vertex 33.3185 -1.88595 5.5
      vertex 33.7127 -1.90661 -5.5
      vertex 33.3185 -1.88595 -5.5
    endloop
  endfacet
  facet normal 0 1 -0
    outer loop
      vertex 33.3185 -1.88595 -5.5
      vertex -33.3185 -1.88595 5.5
      vertex 33.3185 -1.88595 5.5
    endloop
  endfacet
  facet normal 0 1 0
    outer loop
      vertex -33.3185 -1.88595 5.5
      vertex 33.3185 -1.88595 -5.5
      vertex -33.3185 -1.88595 -5.5
    endloop
  endfacet
  facet normal -0.45399 0.891007 0
    outer loop
      vertex -34.8526 -2.21205 -5.5
      vertex -35.2044 -2.39129 5.5
      vertex -34.8526 -2.21205 5.5
    endloop
  endfacet
  facet normal -0.45399 0.891007 0
    outer loop
      vertex -35.2044 -2.39129 5.5
      vertex -34.8526 -2.21205 -5.5
      vertex -35.2044 -2.39129 -5.5
    endloop
  endfacet
  facet normal 0.258819 0.965926 -0
    outer loop
      vertex 34.484 -2.07056 -5.5
      vertex 34.1027 -1.96837 5.5
      vertex 34.484 -2.07056 5.5
    endloop
  endfacet
  facet normal 0.258819 0.965926 0
    outer loop
      vertex 34.1027 -1.96837 5.5
      vertex 34.484 -2.07056 -5.5
      vertex 34.1027 -1.96837 -5.5
    endloop
  endfacet
  facet normal 4.09104e-07 1.06574e-06 1
    outer loop
      vertex 34.8526 -2.21205 5.5
      vertex 34.484 -2.07056 5.5
      vertex 36.585 -3.7719 5.5
    endloop
  endfacet
  facet normal 0.35837 0.93358 -0
    outer loop
      vertex 34.8526 -2.21205 -5.5
      vertex 34.484 -2.07056 5.5
      vertex 34.8526 -2.21205 5.5
    endloop
  endfacet
  facet normal 0.35837 0.93358 0
    outer loop
      vertex 34.484 -2.07056 5.5
      vertex 34.8526 -2.21205 -5.5
      vertex 34.484 -2.07056 -5.5
    endloop
  endfacet
  facet normal -2.24473e-07 8.37743e-07 1
    outer loop
      vertex -34.484 -2.07056 5.5
      vertex -36.585 -3.7719 5.5
      vertex -34.1027 -1.96837 5.5
    endloop
  endfacet
  facet normal -5.46667e-06 5.46668e-06 1
    outer loop
      vertex -36.1215 -3.13396 5.5
      vertex -36.585 -3.7719 5.5
      vertex -35.8423 -2.85478 5.5
    endloop
  endfacet
  facet normal -1.27949e-06 1.97025e-06 1
    outer loop
      vertex -35.5355 -2.60632 5.5
      vertex -36.585 -3.7719 5.5
      vertex -35.2044 -2.39129 5.5
    endloop
  endfacet
  facet normal -0.898299 0.439385 0
    outer loop
      vertex -50.9089 -33.0416 -5.5
      vertex -36.7643 -4.12368 5.5
      vertex -36.7643 -4.12368 -5.5
    endloop
  endfacet
  facet normal -0.898299 0.439385 0
    outer loop
      vertex -36.7643 -4.12368 5.5
      vertex -50.9089 -33.0416 -5.5
      vertex -50.9089 -33.0416 5.5
    endloop
  endfacet
  facet normal -0.891006 0.453991 0
    outer loop
      vertex -36.7643 -4.12368 -5.5
      vertex -36.585 -3.7719 5.5
      vertex -36.585 -3.7719 -5.5
    endloop
  endfacet
  facet normal -0.891006 0.453991 0
    outer loop
      vertex -36.585 -3.7719 5.5
      vertex -36.7643 -4.12368 -5.5
      vertex -36.7643 -4.12368 5.5
    endloop
  endfacet
  facet normal 0.965926 0.258818 0
    outer loop
      vertex 51.1525 -33.7915 5.5
      vertex 51.0504 -33.4102 -5.5
      vertex 51.0504 -33.4102 5.5
    endloop
  endfacet
  facet normal 0.965926 0.258818 0
    outer loop
      vertex 51.0504 -33.4102 -5.5
      vertex 51.1525 -33.7915 5.5
      vertex 51.1525 -33.7915 -5.5
    endloop
  endfacet
  facet normal 1 -0 0
    outer loop
      vertex 51.235 -41.1889 5.5
      vertex 51.235 -34.5757 -5.5
      vertex 51.235 -34.5757 5.5
    endloop
  endfacet
  facet normal 1 0 0
    outer loop
      vertex 51.235 -34.5757 -5.5
      vertex 51.235 -41.1889 5.5
      vertex 51.235 -41.1889 -5.5
    endloop
  endfacet
  facet normal 0.544637 0.838672 -0
    outer loop
      vertex 35.5355 -2.60632 -5.5
      vertex 35.2044 -2.39129 5.5
      vertex 35.5355 -2.60632 5.5
    endloop
  endfacet
  facet normal 0.544637 0.838672 0
    outer loop
      vertex 35.2044 -2.39129 5.5
      vertex 35.5355 -2.60632 -5.5
      vertex 35.2044 -2.39129 -5.5
    endloop
  endfacet
  facet normal 7.17592e-07 1.40835e-06 1
    outer loop
      vertex 35.2044 -2.39129 5.5
      vertex 34.8526 -2.21205 5.5
      vertex 36.585 -3.7719 5.5
    endloop
  endfacet
  facet normal 0.891006 0.453991 0
    outer loop
      vertex 36.7643 -4.12368 5.5
      vertex 36.585 -3.7719 -5.5
      vertex 36.585 -3.7719 5.5
    endloop
  endfacet
  facet normal 0.891006 0.453991 0
    outer loop
      vertex 36.585 -3.7719 -5.5
      vertex 36.7643 -4.12368 5.5
      vertex 36.7643 -4.12368 -5.5
    endloop
  endfacet
  facet normal 5.46667e-06 5.46668e-06 1
    outer loop
      vertex 36.1215 -3.13396 5.5
      vertex 35.8423 -2.85478 5.5
      vertex 36.585 -3.7719 5.5
    endloop
  endfacet
  facet normal -0.156432 0.987689 0
    outer loop
      vertex -33.7127 -1.90661 -5.5
      vertex -34.1027 -1.96837 5.5
      vertex -33.7127 -1.90661 5.5
    endloop
  endfacet
  facet normal -0.156432 0.987689 0
    outer loop
      vertex -34.1027 -1.96837 5.5
      vertex -33.7127 -1.90661 -5.5
      vertex -34.1027 -1.96837 -5.5
    endloop
  endfacet
  facet normal -0.0523352 0.99863 0
    outer loop
      vertex -33.3185 -1.88595 -5.5
      vertex -33.7127 -1.90661 5.5
      vertex -33.3185 -1.88595 5.5
    endloop
  endfacet
  facet normal -0.0523352 0.99863 0
    outer loop
      vertex -33.7127 -1.90661 5.5
      vertex -33.3185 -1.88595 -5.5
      vertex -33.7127 -1.90661 -5.5
    endloop
  endfacet
  facet normal 2.91465e-08 5.56156e-07 1
    outer loop
      vertex 33.7127 -1.90661 5.5
      vertex 33.3185 -1.88595 5.5
      vertex 36.585 -3.7719 5.5
    endloop
  endfacet
  facet normal 1.07096e-07 6.76189e-07 1
    outer loop
      vertex 34.1027 -1.96837 5.5
      vertex 33.7127 -1.90661 5.5
      vertex 36.585 -3.7719 5.5
    endloop
  endfacet
  facet normal -1.79591e-05 1.4543e-05 1
    outer loop
      vertex -36.37 -3.44078 5.5
      vertex -36.585 -3.7719 5.5
      vertex -36.1215 -3.13396 5.5
    endloop
  endfacet
  facet normal -2.44614e-06 3.0207e-06 1
    outer loop
      vertex -35.8423 -2.85478 5.5
      vertex -36.585 -3.7719 5.5
      vertex -35.5355 -2.60632 5.5
    endloop
  endfacet
  facet normal -7.17592e-07 1.40835e-06 1
    outer loop
      vertex -35.2044 -2.39129 5.5
      vertex -36.585 -3.7719 5.5
      vertex -34.8526 -2.21205 5.5
    endloop
  endfacet
  facet normal -4.09104e-07 1.06574e-06 1
    outer loop
      vertex -34.8526 -2.21205 5.5
      vertex -36.585 -3.7719 5.5
      vertex -34.484 -2.07056 5.5
    endloop
  endfacet
  facet normal 0.99863 0.0523296 0
    outer loop
      vertex 51.235 -34.5757 5.5
      vertex 51.2143 -34.1815 -5.5
      vertex 51.2143 -34.1815 5.5
    endloop
  endfacet
  facet normal 0.99863 0.0523296 0
    outer loop
      vertex 51.2143 -34.1815 -5.5
      vertex 51.235 -34.5757 5.5
      vertex 51.235 -34.5757 -5.5
    endloop
  endfacet
  facet normal 0.898299 0.439385 0
    outer loop
      vertex 50.9089 -33.0416 5.5
      vertex 36.7643 -4.12368 -5.5
      vertex 36.7643 -4.12368 5.5
    endloop
  endfacet
  facet normal 0.898299 0.439385 0
    outer loop
      vertex 36.7643 -4.12368 -5.5
      vertex 50.9089 -33.0416 5.5
      vertex 50.9089 -33.0416 -5.5
    endloop
  endfacet
  facet normal 0.933581 0.358367 0
    outer loop
      vertex 51.0504 -33.4102 5.5
      vertex 50.9089 -33.0416 -5.5
      vertex 50.9089 -33.0416 5.5
    endloop
  endfacet
  facet normal 0.933581 0.358367 0
    outer loop
      vertex 50.9089 -33.0416 -5.5
      vertex 51.0504 -33.4102 5.5
      vertex 51.0504 -33.4102 -5.5
    endloop
  endfacet
  facet normal 0.777147 0.629319 0
    outer loop
      vertex 36.37 -3.44078 5.5
      vertex 36.1215 -3.13396 -5.5
      vertex 36.1215 -3.13396 5.5
    endloop
  endfacet
  facet normal 0.777147 0.629319 0
    outer loop
      vertex 36.1215 -3.13396 -5.5
      vertex 36.37 -3.44078 5.5
      vertex 36.37 -3.44078 -5.5
    endloop
  endfacet
  facet normal 1.79591e-05 1.4543e-05 1
    outer loop
      vertex 36.37 -3.44078 5.5
      vertex 36.1215 -3.13396 5.5
      vertex 36.585 -3.7719 5.5
    endloop
  endfacet
  facet normal 2.44614e-06 3.0207e-06 1
    outer loop
      vertex 35.8423 -2.85478 5.5
      vertex 35.5355 -2.60632 5.5
      vertex 36.585 -3.7719 5.5
    endloop
  endfacet
  facet normal -1.07096e-07 6.76189e-07 1
    outer loop
      vertex -34.1027 -1.96837 5.5
      vertex -36.585 -3.7719 5.5
      vertex -33.7127 -1.90661 5.5
    endloop
  endfacet
  facet normal -0.777147 0.629319 0
    outer loop
      vertex -36.37 -3.44078 -5.5
      vertex -36.1215 -3.13396 5.5
      vertex -36.1215 -3.13396 -5.5
    endloop
  endfacet
  facet normal -0.777147 0.629319 0
    outer loop
      vertex -36.1215 -3.13396 5.5
      vertex -36.37 -3.44078 -5.5
      vertex -36.37 -3.44078 5.5
    endloop
  endfacet
  facet normal 0.987688 0.156439 0
    outer loop
      vertex 51.2143 -34.1815 5.5
      vertex 51.1525 -33.7915 -5.5
      vertex 51.1525 -33.7915 5.5
    endloop
  endfacet
  facet normal 0.987688 0.156439 0
    outer loop
      vertex 51.1525 -33.7915 -5.5
      vertex 51.2143 -34.1815 5.5
      vertex 51.2143 -34.1815 -5.5
    endloop
  endfacet
  facet normal 0.45399 0.891007 -0
    outer loop
      vertex 35.2044 -2.39129 -5.5
      vertex 34.8526 -2.21205 5.5
      vertex 35.2044 -2.39129 5.5
    endloop
  endfacet
  facet normal 0.45399 0.891007 0
    outer loop
      vertex 34.8526 -2.21205 5.5
      vertex 35.2044 -2.39129 -5.5
      vertex 34.8526 -2.21205 -5.5
    endloop
  endfacet
  facet normal 0.83867 0.54464 0
    outer loop
      vertex 36.585 -3.7719 5.5
      vertex 36.37 -3.44078 -5.5
      vertex 36.37 -3.44078 5.5
    endloop
  endfacet
  facet normal 0.83867 0.54464 0
    outer loop
      vertex 36.37 -3.44078 -5.5
      vertex 36.585 -3.7719 5.5
      vertex 36.585 -3.7719 -5.5
    endloop
  endfacet
  facet normal -0.707106 0.707108 0
    outer loop
      vertex -35.8423 -2.85478 -5.5
      vertex -36.1215 -3.13396 5.5
      vertex -35.8423 -2.85478 5.5
    endloop
  endfacet
  facet normal -0.707106 0.707108 0
    outer loop
      vertex -36.1215 -3.13396 5.5
      vertex -35.8423 -2.85478 -5.5
      vertex -36.1215 -3.13396 -5.5
    endloop
  endfacet
  facet normal 0.629323 0.777144 -0
    outer loop
      vertex 35.8423 -2.85478 -5.5
      vertex 35.5355 -2.60632 5.5
      vertex 35.8423 -2.85478 5.5
    endloop
  endfacet
  facet normal 0.629323 0.777144 0
    outer loop
      vertex 35.5355 -2.60632 5.5
      vertex 35.8423 -2.85478 -5.5
      vertex 35.5355 -2.60632 -5.5
    endloop
  endfacet
  facet normal 0.707106 0.707108 -0
    outer loop
      vertex 36.1215 -3.13396 -5.5
      vertex 35.8423 -2.85478 5.5
      vertex 36.1215 -3.13396 5.5
    endloop
  endfacet
  facet normal 0.707106 0.707108 0
    outer loop
      vertex 35.8423 -2.85478 5.5
      vertex 36.1215 -3.13396 -5.5
      vertex 35.8423 -2.85478 -5.5
    endloop
  endfacet
  facet normal -0.629323 0.777144 0
    outer loop
      vertex -35.5355 -2.60632 -5.5
      vertex -35.8423 -2.85478 5.5
      vertex -35.5355 -2.60632 5.5
    endloop
  endfacet
  facet normal -0.629323 0.777144 0
    outer loop
      vertex -35.8423 -2.85478 5.5
      vertex -35.5355 -2.60632 -5.5
      vertex -35.8423 -2.85478 -5.5
    endloop
  endfacet
  facet normal -0.544637 0.838672 0
    outer loop
      vertex -35.2044 -2.39129 -5.5
      vertex -35.5355 -2.60632 5.5
      vertex -35.2044 -2.39129 5.5
    endloop
  endfacet
  facet normal -0.544637 0.838672 0
    outer loop
      vertex -35.5355 -2.60632 5.5
      vertex -35.2044 -2.39129 -5.5
      vertex -35.5355 -2.60632 -5.5
    endloop
  endfacet
endsolid OpenSCAD_Model
