solid OpenSCAD_Model
  facet normal 1 -0 0
    outer loop
      vertex 47.0275 -53.1679 5.5
      vertex 47.0275 -41.1889 -5.5
      vertex 47.0275 -41.1889 5.5
    endloop
  endfacet
  facet normal 1 0 0
    outer loop
      vertex 47.0275 -41.1889 -5.5
      vertex 47.0275 -53.1679 5.5
      vertex 47.0275 -53.1679 -5.5
    endloop
  endfacet
  facet normal 0 -1 0
    outer loop
      vertex 47.0275 -41.1889 -5.5
      vertex 51.235 -41.1889 5.5
      vertex 47.0275 -41.1889 5.5
    endloop
  endfacet
  facet normal 0 -1 -0
    outer loop
      vertex 51.235 -41.1889 5.5
      vertex 47.0275 -41.1889 -5.5
      vertex 51.235 -41.1889 -5.5
    endloop
  endfacet
  facet normal -1 0 0
    outer loop
      vertex -47.0275 -53.1679 -5.5
      vertex -47.0275 -41.1889 5.5
      vertex -47.0275 -41.1889 -5.5
    endloop
  endfacet
  facet normal -1 -0 0
    outer loop
      vertex -47.0275 -41.1889 5.5
      vertex -47.0275 -53.1679 -5.5
      vertex -47.0275 -53.1679 5.5
    endloop
  endfacet
  facet normal 0 -1 0
    outer loop
      vertex -51.235 -41.1889 -5.5
      vertex -47.0275 -41.1889 5.5
      vertex -51.235 -41.1889 5.5
    endloop
  endfacet
  facet normal 0 -1 -0
    outer loop
      vertex -47.0275 -41.1889 5.5
      vertex -51.235 -41.1889 -5.5
      vertex -47.0275 -41.1889 -5.5
    endloop
  endfacet
  facet normal 0 -1 0
    outer loop
      vertex -47.0275 -53.1679 -5.5
      vertex 47.0275 -53.1679 5.5
      vertex -47.0275 -53.1679 5.5
    endloop
  endfacet
  facet normal 0 -1 -0
    outer loop
      vertex 47.0275 -53.1679 5.5
      vertex -47.0275 -53.1679 -5.5
      vertex 47.0275 -53.1679 -5.5
    endloop
  endfacet
  facet normal -1 0 0
    outer loop
      vertex -51.235 -41.1889 -5.5
      vertex -51.235 -34.5757 5.5
      vertex -51.235 -34.5757 -5.5
    endloop
  endfacet
  facet normal -1 -0 0
    outer loop
      vertex -51.235 -34.5757 5.5
      vertex -51.235 -41.1889 -5.5
      vertex -51.235 -41.1889 5.5
    endloop
  endfacet
  facet normal -0.838707 0.544582 0
    outer loop
      vertex -36.585 -3.7719 -5.5
      vertex -36.37 -3.44078 5.5
      vertex -36.37 -3.44078 -5.5
    endloop
  endfacet
  facet normal -0.838707 0.544582 0
    outer loop
      vertex -36.37 -3.44078 5.5
      vertex -36.585 -3.7719 -5.5
      vertex -36.585 -3.7719 5.5
    endloop
  endfacet
  facet normal -0 0 1
    outer loop
      vertex -50.9089 -33.0416 5.5
      vertex -47.0275 -41.1889 5.5
      vertex -36.7643 -4.12368 5.5
    endloop
  endfacet
  facet normal 0 0 1
    outer loop
      vertex -51.235 -34.5757 5.5
      vertex -50.9089 -33.0416 5.5
      vertex -51.0504 -33.4102 5.5
    endloop
  endfacet
  facet normal 0 0 1
    outer loop
      vertex -51.235 -34.5757 5.5
      vertex -51.0504 -33.4102 5.5
      vertex -51.1525 -33.7915 5.5
    endloop
  endfacet
  facet normal 0 0 1
    outer loop
      vertex -51.235 -34.5757 5.5
      vertex -51.1525 -33.7915 5.5
      vertex -51.2143 -34.1815 5.5
    endloop
  endfacet
  facet normal 0 0 1
    outer loop
      vertex -50.9089 -33.0416 5.5
      vertex -51.235 -34.5757 5.5
      vertex -47.0275 -41.1889 5.5
    endloop
  endfacet
  facet normal 0 0 1
    outer loop
      vertex -47.0275 -41.1889 5.5
      vertex -51.235 -34.5757 5.5
      vertex -51.235 -41.1889 5.5
    endloop
  endfacet
  facet normal 0 0 1
    outer loop
      vertex 50.9089 -33.0416 5.5
      vertex 51.235 -34.5757 5.5
      vertex 51.2143 -34.1815 5.5
    endloop
  endfacet
  facet normal 0 0 1
    outer loop
      vertex 50.9089 -33.0416 5.5
      vertex 51.2143 -34.1815 5.5
      vertex 51.1525 -33.7915 5.5
    endloop
  endfacet
  facet normal 0 0 1
    outer loop
      vertex 50.9089 -33.0416 5.5
      vertex 51.1525 -33.7915 5.5
      vertex 51.0504 -33.4102 5.5
    endloop
  endfacet
  facet normal 0 0 1
    outer loop
      vertex 51.235 -34.5757 5.5
      vertex 50.9089 -33.0416 5.5
      vertex 47.0275 -41.1889 5.5
    endloop
  endfacet
  facet normal 0 0 1
    outer loop
      vertex 51.235 -34.5757 5.5
      vertex 47.0275 -41.1889 5.5
      vertex 51.235 -41.1889 5.5
    endloop
  endfacet
  facet normal 0 0 1
    outer loop
      vertex 36.7643 -4.12368 5.5
      vertex 47.0275 -41.1889 5.5
      vertex 50.9089 -33.0416 5.5
    endloop
  endfacet
  facet normal 0 0 1
    outer loop
      vertex -47.0275 -41.1889 5.5
      vertex 47.0275 -41.1889 5.5
      vertex 36.7643 -4.12368 5.5
    endloop
  endfacet
  facet normal 0 0 1
    outer loop
      vertex -36.7643 -4.12368 5.5
      vertex 36.7643 -4.12368 5.5
      vertex 36.585 -3.7719 5.5
    endloop
  endfacet
  facet normal 0 0 1
    outer loop
      vertex -36.7643 -4.12368 5.5
      vertex 36.585 -3.7719 5.5
      vertex -36.585 -3.7719 5.5
    endloop
  endfacet
  facet normal 0 0 1
    outer loop
      vertex 36.7643 -4.12368 5.5
      vertex -36.7643 -4.12368 5.5
      vertex -47.0275 -41.1889 5.5
    endloop
  endfacet
  facet normal 0 0 1
    outer loop
      vertex 47.0275 -41.1889 5.5
      vertex -47.0275 -41.1889 5.5
      vertex 47.0275 -53.1679 5.5
    endloop
  endfacet
  facet normal 0 0 1
    outer loop
      vertex 47.0275 -53.1679 5.5
      vertex -47.0275 -41.1889 5.5
      vertex -47.0275 -53.1679 5.5
    endloop
  endfacet
  facet normal 0 0 -1
    outer loop
      vertex -47.0275 -41.1889 -5.5
      vertex 47.0275 -41.1889 -5.5
      vertex 47.0275 -53.1679 -5.5
    endloop
  endfacet
  facet normal 0 0 -1
    outer loop
      vertex 47.0275 -41.1889 -5.5
      vertex 33.3185 -1.88595 -5.5
      vertex 36.7643 -4.12368 -5.5
    endloop
  endfacet
  facet normal 0 0 -1
    outer loop
      vertex 36.7643 -4.12368 -5.5
      vertex 33.3185 -1.88595 -5.5
      vertex 36.585 -3.7719 -5.5
    endloop
  endfacet
  facet normal 0 0 -1
    outer loop
      vertex 36.585 -3.7719 -5.5
      vertex 33.3185 -1.88595 -5.5
      vertex 36.37 -3.44078 -5.5
    endloop
  endfacet
  facet normal 0 0 -1
    outer loop
      vertex 36.37 -3.44078 -5.5
      vertex 33.3185 -1.88595 -5.5
      vertex 36.1215 -3.13396 -5.5
    endloop
  endfacet
  facet normal 0 0 -1
    outer loop
      vertex 36.1215 -3.13396 -5.5
      vertex 33.3185 -1.88595 -5.5
      vertex 35.8423 -2.85478 -5.5
    endloop
  endfacet
  facet normal 0 0 -1
    outer loop
      vertex 35.8423 -2.85478 -5.5
      vertex 33.3185 -1.88595 -5.5
      vertex 35.5355 -2.60632 -5.5
    endloop
  endfacet
  facet normal 0 0 -1
    outer loop
      vertex 35.5355 -2.60632 -5.5
      vertex 33.3185 -1.88595 -5.5
      vertex 35.2044 -2.39129 -5.5
    endloop
  endfacet
  facet normal 0 0 -1
    outer loop
      vertex 35.2044 -2.39129 -5.5
      vertex 33.3185 -1.88595 -5.5
      vertex 34.8526 -2.21205 -5.5
    endloop
  endfacet
  facet normal 0 0 -1
    outer loop
      vertex 34.8526 -2.21205 -5.5
      vertex 33.3185 -1.88595 -5.5
      vertex 34.484 -2.07056 -5.5
    endloop
  endfacet
  facet normal 0 0 -1
    outer loop
      vertex 34.484 -2.07056 -5.5
      vertex 33.3185 -1.88595 -5.5
      vertex 34.1027 -1.96837 -5.5
    endloop
  endfacet
  facet normal 0 0 -1
    outer loop
      vertex 34.1027 -1.96837 -5.5
      vertex 33.3185 -1.88595 -5.5
      vertex 33.7127 -1.90661 -5.5
    endloop
  endfacet
  facet normal 0 0 -1
    outer loop
      vertex 47.0275 -41.1889 -5.5
      vertex -47.0275 -41.1889 -5.5
      vertex 33.3185 -1.88595 -5.5
    endloop
  endfacet
  facet normal -0 0 -1
    outer loop
      vertex 33.3185 -1.88595 -5.5
      vertex -47.0275 -41.1889 -5.5
      vertex -33.3185 -1.88595 -5.5
    endloop
  endfacet
  facet normal 0 -0 -1
    outer loop
      vertex -36.7643 -4.12368 -5.5
      vertex -33.3185 -1.88595 -5.5
      vertex -47.0275 -41.1889 -5.5
    endloop
  endfacet
  facet normal 0 0 -1
    outer loop
      vertex -33.3185 -1.88595 -5.5
      vertex -36.7643 -4.12368 -5.5
      vertex -33.7127 -1.90661 -5.5
    endloop
  endfacet
  facet normal 0 0 -1
    outer loop
      vertex -33.7127 -1.90661 -5.5
      vertex -36.7643 -4.12368 -5.5
      vertex -34.1027 -1.96837 -5.5
    endloop
  endfacet
  facet normal 0 0 -1
    outer loop
      vertex -34.1027 -1.96837 -5.5
      vertex -36.7643 -4.12368 -5.5
      vertex -34.484 -2.07056 -5.5
    endloop
  endfacet
  facet normal 0 0 -1
    outer loop
      vertex -34.484 -2.07056 -5.5
      vertex -36.7643 -4.12368 -5.5
      vertex -34.8526 -2.21205 -5.5
    endloop
  endfacet
  facet normal 0 0 -1
    outer loop
      vertex -35.2044 -2.39129 -5.5
      vertex -36.7643 -4.12368 -5.5
      vertex -35.5355 -2.60632 -5.5
    endloop
  endfacet
  facet normal 0 0 -1
    outer loop
      vertex -35.5355 -2.60632 -5.5
      vertex -36.7643 -4.12368 -5.5
      vertex -35.8423 -2.85478 -5.5
    endloop
  endfacet
  facet normal 0 0 -1
    outer loop
      vertex -35.8423 -2.85478 -5.5
      vertex -36.7643 -4.12368 -5.5
      vertex -36.1215 -3.13396 -5.5
    endloop
  endfacet
  facet normal 0 0 -1
    outer loop
      vertex -36.1215 -3.13396 -5.5
      vertex -36.7643 -4.12368 -5.5
      vertex -36.37 -3.44078 -5.5
    endloop
  endfacet
  facet normal 0 0 -1
    outer loop
      vertex -36.37 -3.44078 -5.5
      vertex -36.7643 -4.12368 -5.5
      vertex -36.585 -3.7719 -5.5
    endloop
  endfacet
  facet normal 0 0 -1
    outer loop
      vertex -47.0275 -41.1889 -5.5
      vertex 47.0275 -53.1679 -5.5
      vertex -47.0275 -53.1679 -5.5
    endloop
  endfacet
  facet normal 0 0 -1
    outer loop
      vertex -34.8526 -2.21205 -5.5
      vertex -36.7643 -4.12368 -5.5
      vertex -35.2044 -2.39129 -5.5
    endloop
  endfacet
  facet normal 0 0 -1
    outer loop
      vertex -47.0275 -41.1889 -5.5
      vertex -50.9089 -33.0416 -5.5
      vertex -36.7643 -4.12368 -5.5
    endloop
  endfacet
  facet normal 0 0 -1
    outer loop
      vertex -51.235 -34.5757 -5.5
      vertex -50.9089 -33.0416 -5.5
      vertex -47.0275 -41.1889 -5.5
    endloop
  endfacet
  facet normal 0 0 -1
    outer loop
      vertex -50.9089 -33.0416 -5.5
      vertex -51.235 -34.5757 -5.5
      vertex -51.0504 -33.4102 -5.5
    endloop
  endfacet
  facet normal 0 0 -1
    outer loop
      vertex -51.0504 -33.4102 -5.5
      vertex -51.235 -34.5757 -5.5
      vertex -51.1525 -33.7915 -5.5
    endloop
  endfacet
  facet normal 0 0 -1
    outer loop
      vertex -51.235 -34.5757 -5.5
      vertex -47.0275 -41.1889 -5.5
      vertex -51.235 -41.1889 -5.5
    endloop
  endfacet
  facet normal 0 0 -1
    outer loop
      vertex -51.1525 -33.7915 -5.5
      vertex -51.235 -34.5757 -5.5
      vertex -51.2143 -34.1815 -5.5
    endloop
  endfacet
  facet normal 0 0 -1
    outer loop
      vertex 47.0275 -41.1889 -5.5
      vertex 51.235 -34.5757 -5.5
      vertex 51.235 -41.1889 -5.5
    endloop
  endfacet
  facet normal 0 -0 -1
    outer loop
      vertex 50.9089 -33.0416 -5.5
      vertex 51.235 -34.5757 -5.5
      vertex 47.0275 -41.1889 -5.5
    endloop
  endfacet
  facet normal 0 0 -1
    outer loop
      vertex 51.235 -34.5757 -5.5
      vertex 50.9089 -33.0416 -5.5
      vertex 51.2143 -34.1815 -5.5
    endloop
  endfacet
  facet normal 0 0 -1
    outer loop
      vertex 51.2143 -34.1815 -5.5
      vertex 50.9089 -33.0416 -5.5
      vertex 51.1525 -33.7915 -5.5
    endloop
  endfacet
  facet normal 0 0 -1
    outer loop
      vertex 51.1525 -33.7915 -5.5
      vertex 50.9089 -33.0416 -5.5
      vertex 51.0504 -33.4102 -5.5
    endloop
  endfacet
  facet normal -0 0 -1
    outer loop
      vertex 50.9089 -33.0416 -5.5
      vertex 47.0275 -41.1889 -5.5
      vertex 36.7643 -4.12368 -5.5
    endloop
  endfacet
  facet normal 0 0 1
    outer loop
      vertex 34.484 -2.07056 5.5
      vertex 34.1027 -1.96837 5.5
      vertex 36.585 -3.7719 5.5
    endloop
  endfacet
  facet normal -0 0 1
    outer loop
      vertex -33.3185 -1.88595 5.5
      vertex 36.585 -3.7719 5.5
      vertex 33.3185 -1.88595 5.5
    endloop
  endfacet
  facet normal 0 0 1
    outer loop
      vertex 36.585 -3.7719 5.5
      vertex -33.3185 -1.88595 5.5
      vertex -36.585 -3.7719 5.5
    endloop
  endfacet
  facet normal -0.258869 0.965913 0
    outer loop
      vertex -34.1027 -1.96837 -5.5
      vertex -34.484 -2.07056 5.5
      vertex -34.1027 -1.96837 5.5
    endloop
  endfacet
  facet normal -0.258869 0.965913 0
    outer loop
      vertex -34.484 -2.07056 5.5
      vertex -34.1027 -1.96837 -5.5
      vertex -34.484 -2.07056 -5.5
    endloop
  endfacet
  facet normal -0.933574 0.358385 0
    outer loop
      vertex -51.0504 -33.4102 -5.5
      vertex -50.9089 -33.0416 5.5
      vertex -50.9089 -33.0416 -5.5
    endloop
  endfacet
  facet normal -0.933574 0.358385 0
    outer loop
      vertex -50.9089 -33.0416 5.5
      vertex -51.0504 -33.4102 -5.5
      vertex -51.0504 -33.4102 5.5
    endloop
  endfacet
  facet normal -0.998624 0.0524392 0
    outer loop
      vertex -51.235 -34.5757 -5.5
      vertex -51.2143 -34.1815 5.5
      vertex -51.2143 -34.1815 -5.5
    endloop
  endfacet
  facet normal -0.998624 0.0524392 0
    outer loop
      vertex -51.2143 -34.1815 5.5
      vertex -51.235 -34.5757 -5.5
      vertex -51.235 -34.5757 5.5
    endloop
  endfacet
  facet normal -0 0 1
    outer loop
      vertex -33.7127 -1.90661 5.5
      vertex -36.585 -3.7719 5.5
      vertex -33.3185 -1.88595 5.5
    endloop
  endfacet
  facet normal 0.15641 0.987692 -0
    outer loop
      vertex 34.1027 -1.96837 -5.5
      vertex 33.7127 -1.90661 5.5
      vertex 34.1027 -1.96837 5.5
    endloop
  endfacet
  facet normal 0.15641 0.987692 0
    outer loop
      vertex 33.7127 -1.90661 5.5
      vertex 34.1027 -1.96837 -5.5
      vertex 33.7127 -1.90661 -5.5
    endloop
  endfacet
  facet normal 0 0 1
    outer loop
      vertex 35.5355 -2.60632 5.5
      vertex 35.2044 -2.39129 5.5
      vertex 36.585 -3.7719 5.5
    endloop
  endfacet
  facet normal -0.987677 0.156509 0
    outer loop
      vertex -51.2143 -34.1815 -5.5
      vertex -51.1525 -33.7915 5.5
      vertex -51.1525 -33.7915 -5.5
    endloop
  endfacet
  facet normal -0.987677 0.156509 0
    outer loop
      vertex -51.1525 -33.7915 5.5
      vertex -51.2143 -34.1815 -5.5
      vertex -51.2143 -34.1815 5.5
    endloop
  endfacet
  facet normal -0.96597 0.258656 0
    outer loop
      vertex -51.1525 -33.7915 -5.5
      vertex -51.0504 -33.4102 5.5
      vertex -51.0504 -33.4102 -5.5
    endloop
  endfacet
  facet normal -0.96597 0.258656 0
    outer loop
      vertex -51.0504 -33.4102 5.5
      vertex -51.1525 -33.7915 -5.5
      vertex -51.1525 -33.7915 5.5
    endloop
  endfacet
  facet normal -0.358363 0.933582 0
    outer loop
      vertex -34.484 -2.07056 -5.5
      vertex -34.8526 -2.21205 5.5
      vertex -34.484 -2.07056 5.5
    endloop
  endfacet
  facet normal -0.358363 0.933582 0
    outer loop
      vertex -34.8526 -2.21205 5.5
      vertex -34.484 -2.07056 -5.5
      vertex -34.8526 -2.21205 -5.5
    endloop
  endfacet
  facet normal 0.0523381 0.998629 -0
    outer loop
      vertex 33.7127 -1.90661 -5.5
      vertex 33.3185 -1.88595 5.5
      vertex 33.7127 -1.90661 5.5
    endloop
  endfacet
  facet normal 0.0523381 0.998629 0
    outer loop
      vertex 33.3185 -1.88595 5.5
      vertex 33.7127 -1.90661 -5.5
      vertex 33.3185 -1.88595 -5.5
    endloop
  endfacet
  facet normal 0 1 -0
    outer loop
      vertex 33.3185 -1.88595 -5.5
      vertex -33.3185 -1.88595 5.5
      vertex 33.3185 -1.88595 5.5
    endloop
  endfacet
  facet normal 0 1 0
    outer loop
      vertex -33.3185 -1.88595 5.5
      vertex 33.3185 -1.88595 -5.5
      vertex -33.3185 -1.88595 -5.5
    endloop
  endfacet
  facet normal -0.453968 0.891018 0
    outer loop
      vertex -34.8526 -2.21205 -5.5
      vertex -35.2044 -2.39129 5.5
      vertex -34.8526 -2.21205 5.5
    endloop
  endfacet
  facet normal -0.453968 0.891018 0
    outer loop
      vertex -35.2044 -2.39129 5.5
      vertex -34.8526 -2.21205 -5.5
      vertex -35.2044 -2.39129 -5.5
    endloop
  endfacet
  facet normal 0.258869 0.965913 -0
    outer loop
      vertex 34.484 -2.07056 -5.5
      vertex 34.1027 -1.96837 5.5
      vertex 34.484 -2.07056 5.5
    endloop
  endfacet
  facet normal 0.258869 0.965913 0
    outer loop
      vertex 34.1027 -1.96837 5.5
      vertex 34.484 -2.07056 -5.5
      vertex 34.1027 -1.96837 -5.5
    endloop
  endfacet
  facet normal 0 0 1
    outer loop
      vertex 34.8526 -2.21205 5.5
      vertex 34.484 -2.07056 5.5
      vertex 36.585 -3.7719 5.5
    endloop
  endfacet
  facet normal -0 0 1
    outer loop
      vertex -34.484 -2.07056 5.5
      vertex -36.585 -3.7719 5.5
      vertex -34.1027 -1.96837 5.5
    endloop
  endfacet
  facet normal -0 0 1
    outer loop
      vertex -36.1215 -3.13396 5.5
      vertex -36.585 -3.7719 5.5
      vertex -35.8423 -2.85478 5.5
    endloop
  endfacet
  facet normal -0.777094 0.629385 0
    outer loop
      vertex -36.37 -3.44078 -5.5
      vertex -36.1215 -3.13396 5.5
      vertex -36.1215 -3.13396 -5.5
    endloop
  endfacet
  facet normal -0.777094 0.629385 0
    outer loop
      vertex -36.1215 -3.13396 5.5
      vertex -36.37 -3.44078 -5.5
      vertex -36.37 -3.44078 5.5
    endloop
  endfacet
  facet normal -0 0 1
    outer loop
      vertex -35.5355 -2.60632 5.5
      vertex -36.585 -3.7719 5.5
      vertex -35.2044 -2.39129 5.5
    endloop
  endfacet
  facet normal -0.898299 0.439384 0
    outer loop
      vertex -50.9089 -33.0416 -5.5
      vertex -36.7643 -4.12368 5.5
      vertex -36.7643 -4.12368 -5.5
    endloop
  endfacet
  facet normal -0.898299 0.439384 0
    outer loop
      vertex -36.7643 -4.12368 5.5
      vertex -50.9089 -33.0416 -5.5
      vertex -50.9089 -33.0416 5.5
    endloop
  endfacet
  facet normal -0.890946 0.454109 0
    outer loop
      vertex -36.7643 -4.12368 -5.5
      vertex -36.585 -3.7719 5.5
      vertex -36.585 -3.7719 -5.5
    endloop
  endfacet
  facet normal -0.890946 0.454109 0
    outer loop
      vertex -36.585 -3.7719 5.5
      vertex -36.7643 -4.12368 -5.5
      vertex -36.7643 -4.12368 5.5
    endloop
  endfacet
  facet normal 0.96597 0.258656 0
    outer loop
      vertex 51.1525 -33.7915 5.5
      vertex 51.0504 -33.4102 -5.5
      vertex 51.0504 -33.4102 5.5
    endloop
  endfacet
  facet normal 0.96597 0.258656 0
    outer loop
      vertex 51.0504 -33.4102 -5.5
      vertex 51.1525 -33.7915 5.5
      vertex 51.1525 -33.7915 -5.5
    endloop
  endfacet
  facet normal 1 -0 0
    outer loop
      vertex 51.235 -41.1889 5.5
      vertex 51.235 -34.5757 -5.5
      vertex 51.235 -34.5757 5.5
    endloop
  endfacet
  facet normal 1 0 0
    outer loop
      vertex 51.235 -34.5757 -5.5
      vertex 51.235 -41.1889 5.5
      vertex 51.235 -41.1889 -5.5
    endloop
  endfacet
  facet normal 0 0 1
    outer loop
      vertex 35.2044 -2.39129 5.5
      vertex 34.8526 -2.21205 5.5
      vertex 36.585 -3.7719 5.5
    endloop
  endfacet
  facet normal 0.890946 0.454109 0
    outer loop
      vertex 36.7643 -4.12368 5.5
      vertex 36.585 -3.7719 -5.5
      vertex 36.585 -3.7719 5.5
    endloop
  endfacet
  facet normal 0.890946 0.454109 0
    outer loop
      vertex 36.585 -3.7719 -5.5
      vertex 36.7643 -4.12368 5.5
      vertex 36.7643 -4.12368 -5.5
    endloop
  endfacet
  facet normal 0 0 1
    outer loop
      vertex 36.1215 -3.13396 5.5
      vertex 35.8423 -2.85478 5.5
      vertex 36.585 -3.7719 5.5
    endloop
  endfacet
  facet normal -0.15641 0.987692 0
    outer loop
      vertex -33.7127 -1.90661 -5.5
      vertex -34.1027 -1.96837 5.5
      vertex -33.7127 -1.90661 5.5
    endloop
  endfacet
  facet normal -0.15641 0.987692 0
    outer loop
      vertex -34.1027 -1.96837 5.5
      vertex -33.7127 -1.90661 -5.5
      vertex -34.1027 -1.96837 -5.5
    endloop
  endfacet
  facet normal -0.0523381 0.998629 0
    outer loop
      vertex -33.3185 -1.88595 -5.5
      vertex -33.7127 -1.90661 5.5
      vertex -33.3185 -1.88595 5.5
    endloop
  endfacet
  facet normal -0.0523381 0.998629 0
    outer loop
      vertex -33.7127 -1.90661 5.5
      vertex -33.3185 -1.88595 -5.5
      vertex -33.7127 -1.90661 -5.5
    endloop
  endfacet
  facet normal 0 0 1
    outer loop
      vertex 33.7127 -1.90661 5.5
      vertex 33.3185 -1.88595 5.5
      vertex 36.585 -3.7719 5.5
    endloop
  endfacet
  facet normal 0 0 1
    outer loop
      vertex 34.1027 -1.96837 5.5
      vertex 33.7127 -1.90661 5.5
      vertex 36.585 -3.7719 5.5
    endloop
  endfacet
  facet normal -0 0 1
    outer loop
      vertex -36.37 -3.44078 5.5
      vertex -36.585 -3.7719 5.5
      vertex -36.1215 -3.13396 5.5
    endloop
  endfacet
  facet normal -0 0 1
    outer loop
      vertex -35.8423 -2.85478 5.5
      vertex -36.585 -3.7719 5.5
      vertex -35.5355 -2.60632 5.5
    endloop
  endfacet
  facet normal -0 0 1
    outer loop
      vertex -35.2044 -2.39129 5.5
      vertex -36.585 -3.7719 5.5
      vertex -34.8526 -2.21205 5.5
    endloop
  endfacet
  facet normal -0 0 1
    outer loop
      vertex -34.8526 -2.21205 5.5
      vertex -36.585 -3.7719 5.5
      vertex -34.484 -2.07056 5.5
    endloop
  endfacet
  facet normal 0.998624 0.0524392 0
    outer loop
      vertex 51.235 -34.5757 5.5
      vertex 51.2143 -34.1815 -5.5
      vertex 51.2143 -34.1815 5.5
    endloop
  endfacet
  facet normal 0.998624 0.0524392 0
    outer loop
      vertex 51.2143 -34.1815 -5.5
      vertex 51.235 -34.5757 5.5
      vertex 51.235 -34.5757 -5.5
    endloop
  endfacet
  facet normal 0.898299 0.439384 0
    outer loop
      vertex 50.9089 -33.0416 5.5
      vertex 36.7643 -4.12368 -5.5
      vertex 36.7643 -4.12368 5.5
    endloop
  endfacet
  facet normal 0.898299 0.439384 0
    outer loop
      vertex 36.7643 -4.12368 -5.5
      vertex 50.9089 -33.0416 5.5
      vertex 50.9089 -33.0416 -5.5
    endloop
  endfacet
  facet normal 0.933574 0.358385 0
    outer loop
      vertex 51.0504 -33.4102 5.5
      vertex 50.9089 -33.0416 -5.5
      vertex 50.9089 -33.0416 5.5
    endloop
  endfacet
  facet normal 0.933574 0.358385 0
    outer loop
      vertex 50.9089 -33.0416 -5.5
      vertex 51.0504 -33.4102 5.5
      vertex 51.0504 -33.4102 -5.5
    endloop
  endfacet
  facet normal 0.777094 0.629385 0
    outer loop
      vertex 36.37 -3.44078 5.5
      vertex 36.1215 -3.13396 -5.5
      vertex 36.1215 -3.13396 5.5
    endloop
  endfacet
  facet normal 0.777094 0.629385 0
    outer loop
      vertex 36.1215 -3.13396 -5.5
      vertex 36.37 -3.44078 5.5
      vertex 36.37 -3.44078 -5.5
    endloop
  endfacet
  facet normal 0 0 1
    outer loop
      vertex 36.37 -3.44078 5.5
      vertex 36.1215 -3.13396 5.5
      vertex 36.585 -3.7719 5.5
    endloop
  endfacet
  facet normal 0 0 1
    outer loop
      vertex 35.8423 -2.85478 5.5
      vertex 35.5355 -2.60632 5.5
      vertex 36.585 -3.7719 5.5
    endloop
  endfacet
  facet normal -0 0 1
    outer loop
      vertex -34.1027 -1.96837 5.5
      vertex -36.585 -3.7719 5.5
      vertex -33.7127 -1.90661 5.5
    endloop
  endfacet
  facet normal -0.707081 0.707132 0
    outer loop
      vertex -35.8423 -2.85478 -5.5
      vertex -36.1215 -3.13396 5.5
      vertex -35.8423 -2.85478 5.5
    endloop
  endfacet
  facet normal -0.707081 0.707132 0
    outer loop
      vertex -36.1215 -3.13396 5.5
      vertex -35.8423 -2.85478 -5.5
      vertex -36.1215 -3.13396 -5.5
    endloop
  endfacet
  facet normal 0.987677 0.156509 0
    outer loop
      vertex 51.2143 -34.1815 5.5
      vertex 51.1525 -33.7915 -5.5
      vertex 51.1525 -33.7915 5.5
    endloop
  endfacet
  facet normal 0.987677 0.156509 0
    outer loop
      vertex 51.1525 -33.7915 -5.5
      vertex 51.2143 -34.1815 5.5
      vertex 51.2143 -34.1815 -5.5
    endloop
  endfacet
  facet normal 0.453968 0.891018 -0
    outer loop
      vertex 35.2044 -2.39129 -5.5
      vertex 34.8526 -2.21205 5.5
      vertex 35.2044 -2.39129 5.5
    endloop
  endfacet
  facet normal 0.453968 0.891018 0
    outer loop
      vertex 34.8526 -2.21205 5.5
      vertex 35.2044 -2.39129 -5.5
      vertex 34.8526 -2.21205 -5.5
    endloop
  endfacet
  facet normal 0.544659 0.838658 -0
    outer loop
      vertex 35.5355 -2.60632 -5.5
      vertex 35.2044 -2.39129 5.5
      vertex 35.5355 -2.60632 5.5
    endloop
  endfacet
  facet normal 0.544659 0.838658 0
    outer loop
      vertex 35.2044 -2.39129 5.5
      vertex 35.5355 -2.60632 -5.5
      vertex 35.2044 -2.39129 -5.5
    endloop
  endfacet
  facet normal 0.838707 0.544582 0
    outer loop
      vertex 36.585 -3.7719 5.5
      vertex 36.37 -3.44078 -5.5
      vertex 36.37 -3.44078 5.5
    endloop
  endfacet
  facet normal 0.838707 0.544582 0
    outer loop
      vertex 36.37 -3.44078 -5.5
      vertex 36.585 -3.7719 5.5
      vertex 36.585 -3.7719 -5.5
    endloop
  endfacet
  facet normal 0.358363 0.933582 -0
    outer loop
      vertex 34.8526 -2.21205 -5.5
      vertex 34.484 -2.07056 5.5
      vertex 34.8526 -2.21205 5.5
    endloop
  endfacet
  facet normal 0.358363 0.933582 0
    outer loop
      vertex 34.484 -2.07056 5.5
      vertex 34.8526 -2.21205 -5.5
      vertex 34.484 -2.07056 -5.5
    endloop
  endfacet
  facet normal 0.629348 0.777123 -0
    outer loop
      vertex 35.8423 -2.85478 -5.5
      vertex 35.5355 -2.60632 5.5
      vertex 35.8423 -2.85478 5.5
    endloop
  endfacet
  facet normal 0.629348 0.777123 0
    outer loop
      vertex 35.5355 -2.60632 5.5
      vertex 35.8423 -2.85478 -5.5
      vertex 35.5355 -2.60632 -5.5
    endloop
  endfacet
  facet normal 0.707081 0.707132 -0
    outer loop
      vertex 36.1215 -3.13396 -5.5
      vertex 35.8423 -2.85478 5.5
      vertex 36.1215 -3.13396 5.5
    endloop
  endfacet
  facet normal 0.707081 0.707132 0
    outer loop
      vertex 35.8423 -2.85478 5.5
      vertex 36.1215 -3.13396 -5.5
      vertex 35.8423 -2.85478 -5.5
    endloop
  endfacet
  facet normal -0.629348 0.777123 0
    outer loop
      vertex -35.5355 -2.60632 -5.5
      vertex -35.8423 -2.85478 5.5
      vertex -35.5355 -2.60632 5.5
    endloop
  endfacet
  facet normal -0.629348 0.777123 0
    outer loop
      vertex -35.8423 -2.85478 5.5
      vertex -35.5355 -2.60632 -5.5
      vertex -35.8423 -2.85478 -5.5
    endloop
  endfacet
  facet normal -0.544659 0.838658 0
    outer loop
      vertex -35.2044 -2.39129 -5.5
      vertex -35.5355 -2.60632 5.5
      vertex -35.2044 -2.39129 5.5
    endloop
  endfacet
  facet normal -0.544659 0.838658 0
    outer loop
      vertex -35.5355 -2.60632 5.5
      vertex -35.2044 -2.39129 -5.5
      vertex -35.5355 -2.60632 -5.5
    endloop
  endfacet
endsolid OpenSCAD_Model
