solid OpenSCAD_Model
  facet normal -1 0 0
    outer loop
      vertex -25.4 -20.2 7.6975
      vertex -25.4 21.4823 12.7
      vertex -25.4 20.2 7.6975
    endloop
  endfacet
  facet normal -1 -0 0
    outer loop
      vertex -25.4 21.4823 12.7
      vertex -25.4 -20.2 7.6975
      vertex -25.4 -21.4823 12.7
    endloop
  endfacet
  facet normal 0 0 1
    outer loop
      vertex 25.4 21.4823 12.7
      vertex 21.6144 16.4112 12.7
      vertex 25.4 -21.4823 12.7
    endloop
  endfacet
  facet normal 0 0 1
    outer loop
      vertex 25.4 21.4823 12.7
      vertex 8.41695 53.7441 12.7
      vertex 21.6144 16.4112 12.7
    endloop
  endfacet
  facet normal 0 0 1
    outer loop
      vertex 6.34943 75.3725 12.7
      vertex 8.41695 53.7441 12.7
      vertex 25.4 21.4823 12.7
    endloop
  endfacet
  facet normal 0 0 1
    outer loop
      vertex 1.29561 69.396 12.7
      vertex 6.34943 75.3725 12.7
      vertex 6.05466 76.2 12.7
    endloop
  endfacet
  facet normal 0 0 1
    outer loop
      vertex 6.34943 75.3725 12.7
      vertex 3.73055 65.851 12.7
      vertex 8.41695 53.7441 12.7
    endloop
  endfacet
  facet normal 0 0 1
    outer loop
      vertex 6.34943 75.3725 12.7
      vertex 1.82922 68.6191 12.7
      vertex 3.73055 65.851 12.7
    endloop
  endfacet
  facet normal 0 0 1
    outer loop
      vertex 6.34943 75.3725 12.7
      vertex 1.29561 69.396 12.7
      vertex 1.82922 68.6191 12.7
    endloop
  endfacet
  facet normal 0 0 1
    outer loop
      vertex 6.05466 76.2 12.7
      vertex -1.29561 69.396 12.7
      vertex 1.29561 69.396 12.7
    endloop
  endfacet
  facet normal -0 0 1
    outer loop
      vertex -6.05466 76.2 12.7
      vertex -1.29561 69.396 12.7
      vertex 6.05466 76.2 12.7
    endloop
  endfacet
  facet normal -0 0 1
    outer loop
      vertex -6.34943 75.3725 12.7
      vertex -1.29561 69.396 12.7
      vertex -6.05466 76.2 12.7
    endloop
  endfacet
  facet normal 0 0 1
    outer loop
      vertex -1.29561 69.396 12.7
      vertex -6.34943 75.3725 12.7
      vertex -1.82922 68.6191 12.7
    endloop
  endfacet
  facet normal 0 0 1
    outer loop
      vertex -1.82922 68.6191 12.7
      vertex -6.34943 75.3725 12.7
      vertex -3.73055 65.851 12.7
    endloop
  endfacet
  facet normal 0 0 1
    outer loop
      vertex -6.34943 75.3725 12.7
      vertex -8.41695 53.7441 12.7
      vertex -3.73055 65.851 12.7
    endloop
  endfacet
  facet normal 0 0 1
    outer loop
      vertex -25.4 21.4823 12.7
      vertex -8.41695 53.7441 12.7
      vertex -6.34943 75.3725 12.7
    endloop
  endfacet
  facet normal 0 0 1
    outer loop
      vertex -21.6144 16.4112 12.7
      vertex -25.4 21.4823 12.7
      vertex -21.6144 -16.4112 12.7
    endloop
  endfacet
  facet normal 0 0 1
    outer loop
      vertex -8.41695 53.7441 12.7
      vertex -25.4 21.4823 12.7
      vertex -21.6144 16.4112 12.7
    endloop
  endfacet
  facet normal -0 0 1
    outer loop
      vertex 21.6144 -16.4112 12.7
      vertex 25.4 -21.4823 12.7
      vertex 21.6144 16.4112 12.7
    endloop
  endfacet
  facet normal 0 0 1
    outer loop
      vertex 8.41695 -53.7441 12.7
      vertex 25.4 -21.4823 12.7
      vertex 21.6144 -16.4112 12.7
    endloop
  endfacet
  facet normal -0 0 1
    outer loop
      vertex 8.41695 -53.7441 12.7
      vertex 6.34943 -75.3725 12.7
      vertex 25.4 -21.4823 12.7
    endloop
  endfacet
  facet normal -0 0 1
    outer loop
      vertex 3.73055 -65.851 12.7
      vertex 6.34943 -75.3725 12.7
      vertex 8.41695 -53.7441 12.7
    endloop
  endfacet
  facet normal -0 0 1
    outer loop
      vertex 1.82922 -68.6191 12.7
      vertex 6.34943 -75.3725 12.7
      vertex 3.73055 -65.851 12.7
    endloop
  endfacet
  facet normal -0 0 1
    outer loop
      vertex 1.29561 -69.396 12.7
      vertex 6.34943 -75.3725 12.7
      vertex 1.82922 -68.6191 12.7
    endloop
  endfacet
  facet normal 0 0 1
    outer loop
      vertex 6.34943 -75.3725 12.7
      vertex 1.29561 -69.396 12.7
      vertex 6.05466 -76.2 12.7
    endloop
  endfacet
  facet normal -0 0 1
    outer loop
      vertex -1.29561 -69.396 12.7
      vertex 6.05466 -76.2 12.7
      vertex 1.29561 -69.396 12.7
    endloop
  endfacet
  facet normal 0 0 1
    outer loop
      vertex -1.29561 -69.396 12.7
      vertex -6.05466 -76.2 12.7
      vertex 6.05466 -76.2 12.7
    endloop
  endfacet
  facet normal 0 0 1
    outer loop
      vertex -6.34943 -75.3725 12.7
      vertex -1.29561 -69.396 12.7
      vertex -1.82922 -68.6191 12.7
    endloop
  endfacet
  facet normal 0 0 1
    outer loop
      vertex -6.34943 -75.3725 12.7
      vertex -1.82922 -68.6191 12.7
      vertex -3.73055 -65.851 12.7
    endloop
  endfacet
  facet normal 0 0 1
    outer loop
      vertex -1.29561 -69.396 12.7
      vertex -6.34943 -75.3725 12.7
      vertex -6.05466 -76.2 12.7
    endloop
  endfacet
  facet normal 0 0 1
    outer loop
      vertex -8.41695 -53.7441 12.7
      vertex -6.34943 -75.3725 12.7
      vertex -3.73055 -65.851 12.7
    endloop
  endfacet
  facet normal -0 0 1
    outer loop
      vertex -25.4 -21.4823 12.7
      vertex -8.41695 -53.7441 12.7
      vertex -21.6144 -16.4112 12.7
    endloop
  endfacet
  facet normal 0 0 1
    outer loop
      vertex -8.41695 -53.7441 12.7
      vertex -25.4 -21.4823 12.7
      vertex -6.34943 -75.3725 12.7
    endloop
  endfacet
  facet normal 0 0 1
    outer loop
      vertex -25.4 -21.4823 12.7
      vertex -21.6144 -16.4112 12.7
      vertex -25.4 21.4823 12.7
    endloop
  endfacet
  facet normal 1 0 0
    outer loop
      vertex 25.4 21.4823 12.7
      vertex 25.4 -20.2 7.6975
      vertex 25.4 20.2 7.6975
    endloop
  endfacet
  facet normal 1 0 -0
    outer loop
      vertex 25.4 -20.2 7.6975
      vertex 25.4 21.4823 12.7
      vertex 25.4 -21.4823 12.7
    endloop
  endfacet
  facet normal 0 -1 0
    outer loop
      vertex -6.04251 -76.2 12.5411
      vertex 6.05466 -76.2 12.7
      vertex -6.05466 -76.2 12.7
    endloop
  endfacet
  facet normal 0 -1 0
    outer loop
      vertex -6.04251 -76.2 12.5411
      vertex 6.04251 -76.2 12.5411
      vertex 6.05466 -76.2 12.7
    endloop
  endfacet
  facet normal 0 -1 0
    outer loop
      vertex -5.91303 -76.2 11.1122
      vertex 6.04251 -76.2 12.5411
      vertex -6.04251 -76.2 12.5411
    endloop
  endfacet
  facet normal 0 -1 0
    outer loop
      vertex -5.91303 -76.2 11.1122
      vertex 5.91303 -76.2 11.1122
      vertex 6.04251 -76.2 12.5411
    endloop
  endfacet
  facet normal 0 -1 0
    outer loop
      vertex -4.12445 -76.2 4.38089
      vertex 5.91303 -76.2 11.1122
      vertex -5.91303 -76.2 11.1122
    endloop
  endfacet
  facet normal 0 -1 0
    outer loop
      vertex -4.12445 -76.2 4.38089
      vertex 4.12445 -76.2 4.38089
      vertex 5.91303 -76.2 11.1122
    endloop
  endfacet
  facet normal 0 -1 0
    outer loop
      vertex -3.32919 -76.2 2.4674
      vertex 4.12445 -76.2 4.38089
      vertex -4.12445 -76.2 4.38089
    endloop
  endfacet
  facet normal 0 -1 0
    outer loop
      vertex -3.32919 -76.2 2.4674
      vertex 3.32919 -76.2 2.4674
      vertex 4.12445 -76.2 4.38089
    endloop
  endfacet
  facet normal 0 -1 0
    outer loop
      vertex -2.25775 -76.2 -0.110633
      vertex 3.32919 -76.2 2.4674
      vertex -3.32919 -76.2 2.4674
    endloop
  endfacet
  facet normal 0 -1 0
    outer loop
      vertex -2.25775 -76.2 -0.110633
      vertex 2.25775 -76.2 -0.110633
      vertex 3.32919 -76.2 2.4674
    endloop
  endfacet
  facet normal 0 -1 0
    outer loop
      vertex -1.53055 -76.2 -0.958312
      vertex 2.25775 -76.2 -0.110633
      vertex -2.25775 -76.2 -0.110633
    endloop
  endfacet
  facet normal 0 -1 0
    outer loop
      vertex -1.53055 -76.2 -0.958312
      vertex 1.53055 -76.2 -0.958312
      vertex 2.25775 -76.2 -0.110633
    endloop
  endfacet
  facet normal 0 -1 0
    outer loop
      vertex -1.25964 -76.2 -1.2741
      vertex 1.53055 -76.2 -0.958312
      vertex -1.53055 -76.2 -0.958312
    endloop
  endfacet
  facet normal 0 -1 0
    outer loop
      vertex 1.53055 -76.2 -0.958312
      vertex -1.25964 -76.2 -1.2741
      vertex 1.25964 -76.2 -1.2741
    endloop
  endfacet
  facet normal 0 1 -0
    outer loop
      vertex 6.04251 76.2 12.5411
      vertex -6.05466 76.2 12.7
      vertex 6.05466 76.2 12.7
    endloop
  endfacet
  facet normal 0 1 0
    outer loop
      vertex 6.04251 76.2 12.5411
      vertex -6.04251 76.2 12.5411
      vertex -6.05466 76.2 12.7
    endloop
  endfacet
  facet normal 0 1 -0
    outer loop
      vertex 5.91303 76.2 11.1122
      vertex -6.04251 76.2 12.5411
      vertex 6.04251 76.2 12.5411
    endloop
  endfacet
  facet normal 0 1 0
    outer loop
      vertex 5.91303 76.2 11.1122
      vertex -5.91303 76.2 11.1122
      vertex -6.04251 76.2 12.5411
    endloop
  endfacet
  facet normal 0 1 -0
    outer loop
      vertex 4.12445 76.2 4.38089
      vertex -5.91303 76.2 11.1122
      vertex 5.91303 76.2 11.1122
    endloop
  endfacet
  facet normal 0 1 0
    outer loop
      vertex 4.12445 76.2 4.38089
      vertex -4.12445 76.2 4.38089
      vertex -5.91303 76.2 11.1122
    endloop
  endfacet
  facet normal 0 1 -0
    outer loop
      vertex 3.32919 76.2 2.4674
      vertex -4.12445 76.2 4.38089
      vertex 4.12445 76.2 4.38089
    endloop
  endfacet
  facet normal 0 1 0
    outer loop
      vertex 3.32919 76.2 2.4674
      vertex -3.32919 76.2 2.4674
      vertex -4.12445 76.2 4.38089
    endloop
  endfacet
  facet normal 0 1 -0
    outer loop
      vertex 2.25775 76.2 -0.110633
      vertex -3.32919 76.2 2.4674
      vertex 3.32919 76.2 2.4674
    endloop
  endfacet
  facet normal 0 1 0
    outer loop
      vertex 2.25775 76.2 -0.110633
      vertex -2.25775 76.2 -0.110633
      vertex -3.32919 76.2 2.4674
    endloop
  endfacet
  facet normal 0 1 -0
    outer loop
      vertex 1.53055 76.2 -0.958312
      vertex -2.25775 76.2 -0.110633
      vertex 2.25775 76.2 -0.110633
    endloop
  endfacet
  facet normal 0 1 0
    outer loop
      vertex 1.53055 76.2 -0.958312
      vertex -1.53055 76.2 -0.958312
      vertex -2.25775 76.2 -0.110633
    endloop
  endfacet
  facet normal 0 1 -0
    outer loop
      vertex 1.25964 76.2 -1.2741
      vertex -1.53055 76.2 -0.958312
      vertex 1.53055 76.2 -0.958312
    endloop
  endfacet
  facet normal 0 1 0
    outer loop
      vertex -1.53055 76.2 -0.958312
      vertex 1.25964 76.2 -1.2741
      vertex -1.25964 76.2 -1.2741
    endloop
  endfacet
  facet normal 0.779796 -0.535618 -0.324086
    outer loop
      vertex 4.12445 -76.2 4.38089
      vertex 3.32919 -76.2 2.4674
      vertex 3.8003 -73.9542 -0.110633
    endloop
  endfacet
  facet normal -0.673016 -0.462274 -0.577367
    outer loop
      vertex -1.53055 -76.2 -0.958312
      vertex -1.10654 -72.7269 -4.23333
      vertex -1.25964 -76.2 -1.2741
    endloop
  endfacet
  facet normal -0.673016 -0.462274 -0.577367
    outer loop
      vertex -1.10654 -72.7269 -4.23333
      vertex -1.53055 -76.2 -0.958312
      vertex -2.34466 -70.9243 -4.23333
    endloop
  endfacet
  facet normal 0.955352 0 -0.29547
    outer loop
      vertex 25.4 -20.2 7.6975
      vertex 23.375 24.25 1.15
      vertex 25.4 20.2 7.6975
    endloop
  endfacet
  facet normal 0.955352 0 -0.29547
    outer loop
      vertex 23.375 24.25 1.15
      vertex 25.4 -20.2 7.6975
      vertex 23.375 -24.25 1.15
    endloop
  endfacet
  facet normal -0.939401 -0.332084 -0.0851231
    outer loop
      vertex -23.375 -24.25 1.15
      vertex -25.4 -21.4823 12.7
      vertex -25.4 -20.2 7.6975
    endloop
  endfacet
  facet normal -0.939401 -0.332085 -0.085123
    outer loop
      vertex -23.375 -24.25 1.15
      vertex -6.34943 -75.3725 12.7
      vertex -25.4 -21.4823 12.7
    endloop
  endfacet
  facet normal -0.939401 -0.332085 -0.0851238
    outer loop
      vertex -5.91303 -76.2 11.1122
      vertex -6.34943 -75.3725 12.7
      vertex -23.375 -24.25 1.15
    endloop
  endfacet
  facet normal -0.9394 -0.332086 -0.0851231
    outer loop
      vertex -6.34943 -75.3725 12.7
      vertex -5.91303 -76.2 11.1122
      vertex -6.04251 -76.2 12.5411
    endloop
  endfacet
  facet normal 0.834076 0.317029 -0.451453
    outer loop
      vertex 3.8003 73.9542 -0.110633
      vertex 8.65756 55.3044 -4.23333
      vertex 3.18614 69.6992 -4.23333
    endloop
  endfacet
  facet normal 0.834076 0.317029 -0.451453
    outer loop
      vertex 8.65756 55.3044 -4.23333
      vertex 3.8003 73.9542 -0.110633
      vertex 23.375 24.25 1.15
    endloop
  endfacet
  facet normal 0.905195 0.350387 -0.24052
    outer loop
      vertex 5.91303 76.2 11.1122
      vertex 3.8003 73.9542 -0.110633
      vertex 4.12445 76.2 4.38089
    endloop
  endfacet
  facet normal 0.905195 0.350387 -0.24052
    outer loop
      vertex 3.8003 73.9542 -0.110633
      vertex 5.91303 76.2 11.1122
      vertex 23.375 24.25 1.15
    endloop
  endfacet
  facet normal 0.824494 -0.305962 -0.476022
    outer loop
      vertex 23.375 -24.25 1.15
      vertex 12.2606 -45.8252 -4.23333
      vertex 20.2669 -24.25 -4.23333
    endloop
  endfacet
  facet normal -0.9394 0.332086 -0.0851231
    outer loop
      vertex -5.91303 76.2 11.1122
      vertex -6.34943 75.3725 12.7
      vertex -6.04251 76.2 12.5411
    endloop
  endfacet
  facet normal -0.939401 0.332085 -0.0851238
    outer loop
      vertex -23.375 24.25 1.15
      vertex -6.34943 75.3725 12.7
      vertex -5.91303 76.2 11.1122
    endloop
  endfacet
  facet normal -0.939401 0.332085 -0.085123
    outer loop
      vertex -23.375 24.25 1.15
      vertex -25.4 21.4823 12.7
      vertex -6.34943 75.3725 12.7
    endloop
  endfacet
  facet normal -0.939401 0.332084 -0.0851231
    outer loop
      vertex -25.4 21.4823 12.7
      vertex -23.375 24.25 1.15
      vertex -25.4 20.2 7.6975
    endloop
  endfacet
  facet normal -0.939581 0.334708 -0.0718205
    outer loop
      vertex -6.04251 76.2 12.5411
      vertex -6.34943 75.3725 12.7
      vertex -6.05466 76.2 12.7
    endloop
  endfacet
  facet normal -0.905195 -0.350387 -0.24052
    outer loop
      vertex -5.91303 -76.2 11.1122
      vertex -3.8003 -73.9542 -0.110633
      vertex -4.12445 -76.2 4.38089
    endloop
  endfacet
  facet normal -0.905195 -0.350387 -0.24052
    outer loop
      vertex -3.8003 -73.9542 -0.110633
      vertex -5.91303 -76.2 11.1122
      vertex -23.375 -24.25 1.15
    endloop
  endfacet
  facet normal 0.905195 -0.350387 -0.24052
    outer loop
      vertex 5.91303 -76.2 11.1122
      vertex 3.8003 -73.9542 -0.110633
      vertex 23.375 -24.25 1.15
    endloop
  endfacet
  facet normal 0.905195 -0.350387 -0.24052
    outer loop
      vertex 3.8003 -73.9542 -0.110633
      vertex 5.91303 -76.2 11.1122
      vertex 4.12445 -76.2 4.38089
    endloop
  endfacet
  facet normal 0.9394 0.332086 -0.0851231
    outer loop
      vertex 6.34943 75.3725 12.7
      vertex 5.91303 76.2 11.1122
      vertex 6.04251 76.2 12.5411
    endloop
  endfacet
  facet normal 0.939401 0.332085 -0.0851238
    outer loop
      vertex 6.34943 75.3725 12.7
      vertex 23.375 24.25 1.15
      vertex 5.91303 76.2 11.1122
    endloop
  endfacet
  facet normal 0.939401 0.332085 -0.085123
    outer loop
      vertex 25.4 21.4823 12.7
      vertex 23.375 24.25 1.15
      vertex 6.34943 75.3725 12.7
    endloop
  endfacet
  facet normal 0.939401 0.332084 -0.0851231
    outer loop
      vertex 23.375 24.25 1.15
      vertex 25.4 21.4823 12.7
      vertex 25.4 20.2 7.6975
    endloop
  endfacet
  facet normal 0.673016 0.462274 -0.577367
    outer loop
      vertex 3.8003 73.9542 -0.110633
      vertex 1.53055 76.2 -0.958312
      vertex 2.25775 76.2 -0.110633
    endloop
  endfacet
  facet normal 0.673016 0.462274 -0.577367
    outer loop
      vertex 3.8003 73.9542 -0.110633
      vertex 2.34466 70.9243 -4.23333
      vertex 1.53055 76.2 -0.958312
    endloop
  endfacet
  facet normal 0.673016 0.462275 -0.577367
    outer loop
      vertex 2.34466 70.9243 -4.23333
      vertex 3.8003 73.9542 -0.110633
      vertex 3.18614 69.6992 -4.23333
    endloop
  endfacet
  facet normal 0.939581 0.334708 -0.0718205
    outer loop
      vertex 6.34943 75.3725 12.7
      vertex 6.04251 76.2 12.5411
      vertex 6.05466 76.2 12.7
    endloop
  endfacet
  facet normal 0.866025 0 -0.5
    outer loop
      vertex 23.375 -24.25 1.15
      vertex 20.2669 24.25 -4.23333
      vertex 23.375 24.25 1.15
    endloop
  endfacet
  facet normal 0.866025 0 -0.5
    outer loop
      vertex 20.2669 24.25 -4.23333
      vertex 23.375 -24.25 1.15
      vertex 20.2669 -24.25 -4.23333
    endloop
  endfacet
  facet normal -0.779796 -0.535618 -0.324086
    outer loop
      vertex -3.32919 -76.2 2.4674
      vertex -4.12445 -76.2 4.38089
      vertex -3.8003 -73.9542 -0.110633
    endloop
  endfacet
  facet normal -0.673016 -0.462275 -0.577367
    outer loop
      vertex -2.34466 -70.9243 -4.23333
      vertex -3.8003 -73.9542 -0.110633
      vertex -3.18614 -69.6992 -4.23333
    endloop
  endfacet
  facet normal -0.673016 -0.462274 -0.577367
    outer loop
      vertex -1.53055 -76.2 -0.958312
      vertex -3.8003 -73.9542 -0.110633
      vertex -2.34466 -70.9243 -4.23333
    endloop
  endfacet
  facet normal -0.673016 -0.462274 -0.577367
    outer loop
      vertex -3.8003 -73.9542 -0.110633
      vertex -1.53055 -76.2 -0.958312
      vertex -2.25775 -76.2 -0.110633
    endloop
  endfacet
  facet normal -0.779796 0.535618 -0.324086
    outer loop
      vertex -3.8003 73.9542 -0.110633
      vertex -4.12445 76.2 4.38089
      vertex -3.32919 76.2 2.4674
    endloop
  endfacet
  facet normal -0.824494 0.305962 -0.476022
    outer loop
      vertex -20.2669 24.25 -4.23333
      vertex -23.375 24.25 1.15
      vertex -12.2606 45.8252 -4.23333
    endloop
  endfacet
  facet normal -0.779796 -0.535618 -0.324086
    outer loop
      vertex -3.32919 -76.2 2.4674
      vertex -3.8003 -73.9542 -0.110633
      vertex -2.25775 -76.2 -0.110633
    endloop
  endfacet
  facet normal -0.955352 0 -0.29547
    outer loop
      vertex -23.375 24.25 1.15
      vertex -25.4 -20.2 7.6975
      vertex -25.4 20.2 7.6975
    endloop
  endfacet
  facet normal -0.955352 0 -0.29547
    outer loop
      vertex -25.4 -20.2 7.6975
      vertex -23.375 24.25 1.15
      vertex -23.375 -24.25 1.15
    endloop
  endfacet
  facet normal -0.866025 0 -0.5
    outer loop
      vertex -20.2669 -24.25 -4.23333
      vertex -23.375 24.25 1.15
      vertex -20.2669 24.25 -4.23333
    endloop
  endfacet
  facet normal -0.866025 -0 -0.5
    outer loop
      vertex -23.375 24.25 1.15
      vertex -20.2669 -24.25 -4.23333
      vertex -23.375 -24.25 1.15
    endloop
  endfacet
  facet normal 0.834076 0.317028 -0.451454
    outer loop
      vertex 12.2606 45.8252 -4.23333
      vertex 8.65756 55.3044 -4.23333
      vertex 23.375 24.25 1.15
    endloop
  endfacet
  facet normal -0.673016 0.462274 -0.577367
    outer loop
      vertex -1.10654 72.7269 -4.23333
      vertex -1.53055 76.2 -0.958312
      vertex -1.25964 76.2 -1.2741
    endloop
  endfacet
  facet normal -0.673016 0.462274 -0.577367
    outer loop
      vertex -1.53055 76.2 -0.958312
      vertex -1.10654 72.7269 -4.23333
      vertex -2.34466 70.9243 -4.23333
    endloop
  endfacet
  facet normal -0.673016 0.462274 -0.577367
    outer loop
      vertex -1.53055 76.2 -0.958312
      vertex -3.8003 73.9542 -0.110633
      vertex -2.25775 76.2 -0.110633
    endloop
  endfacet
  facet normal -0.673016 0.462274 -0.577367
    outer loop
      vertex -2.34466 70.9243 -4.23333
      vertex -3.8003 73.9542 -0.110633
      vertex -1.53055 76.2 -0.958312
    endloop
  endfacet
  facet normal -0.673016 0.462275 -0.577367
    outer loop
      vertex -3.8003 73.9542 -0.110633
      vertex -2.34466 70.9243 -4.23333
      vertex -3.18614 69.6992 -4.23333
    endloop
  endfacet
  facet normal -0.834076 -0.317029 -0.451453
    outer loop
      vertex -3.8003 -73.9542 -0.110633
      vertex -8.65756 -55.3044 -4.23333
      vertex -3.18614 -69.6992 -4.23333
    endloop
  endfacet
  facet normal -0.834076 -0.317029 -0.451453
    outer loop
      vertex -8.65756 -55.3044 -4.23333
      vertex -3.8003 -73.9542 -0.110633
      vertex -23.375 -24.25 1.15
    endloop
  endfacet
  facet normal -0.834076 0.317029 -0.451453
    outer loop
      vertex -8.65756 55.3044 -4.23333
      vertex -3.8003 73.9542 -0.110633
      vertex -3.18614 69.6992 -4.23333
    endloop
  endfacet
  facet normal -0.834076 0.317029 -0.451453
    outer loop
      vertex -3.8003 73.9542 -0.110633
      vertex -8.65756 55.3044 -4.23333
      vertex -23.375 24.25 1.15
    endloop
  endfacet
  facet normal -0.905195 0.350387 -0.24052
    outer loop
      vertex -3.8003 73.9542 -0.110633
      vertex -5.91303 76.2 11.1122
      vertex -4.12445 76.2 4.38089
    endloop
  endfacet
  facet normal -0.905195 0.350387 -0.24052
    outer loop
      vertex -5.91303 76.2 11.1122
      vertex -3.8003 73.9542 -0.110633
      vertex -23.375 24.25 1.15
    endloop
  endfacet
  facet normal -0.939581 -0.334708 -0.0718205
    outer loop
      vertex -6.05466 -76.2 12.7
      vertex -6.34943 -75.3725 12.7
      vertex -6.04251 -76.2 12.5411
    endloop
  endfacet
  facet normal 0.824494 0.305962 -0.476022
    outer loop
      vertex 20.2669 24.25 -4.23333
      vertex 12.2606 45.8252 -4.23333
      vertex 23.375 24.25 1.15
    endloop
  endfacet
  facet normal 0.779796 0.535618 -0.324086
    outer loop
      vertex 3.8003 73.9542 -0.110633
      vertex 2.25775 76.2 -0.110633
      vertex 3.32919 76.2 2.4674
    endloop
  endfacet
  facet normal 0 -0.648551 -0.761171
    outer loop
      vertex 1.25964 -76.2 -1.2741
      vertex -1.10654 -72.7269 -4.23333
      vertex 1.10654 -72.7269 -4.23333
    endloop
  endfacet
  facet normal 0 -0.648551 -0.761171
    outer loop
      vertex -1.10654 -72.7269 -4.23333
      vertex 1.25964 -76.2 -1.2741
      vertex -1.25964 -76.2 -1.2741
    endloop
  endfacet
  facet normal -0.779796 0.535618 -0.324086
    outer loop
      vertex -2.25775 76.2 -0.110633
      vertex -3.8003 73.9542 -0.110633
      vertex -3.32919 76.2 2.4674
    endloop
  endfacet
  facet normal 0.939401 -0.332084 -0.0851231
    outer loop
      vertex 25.4 -21.4823 12.7
      vertex 23.375 -24.25 1.15
      vertex 25.4 -20.2 7.6975
    endloop
  endfacet
  facet normal 0.939401 -0.332085 -0.085123
    outer loop
      vertex 6.34943 -75.3725 12.7
      vertex 23.375 -24.25 1.15
      vertex 25.4 -21.4823 12.7
    endloop
  endfacet
  facet normal 0.9394 -0.332086 -0.0851231
    outer loop
      vertex 5.91303 -76.2 11.1122
      vertex 6.34943 -75.3725 12.7
      vertex 6.04251 -76.2 12.5411
    endloop
  endfacet
  facet normal 0.939401 -0.332085 -0.0851238
    outer loop
      vertex 6.34943 -75.3725 12.7
      vertex 5.91303 -76.2 11.1122
      vertex 23.375 -24.25 1.15
    endloop
  endfacet
  facet normal 0.673016 0.462274 -0.577367
    outer loop
      vertex 1.53055 76.2 -0.958312
      vertex 1.10654 72.7269 -4.23333
      vertex 1.25964 76.2 -1.2741
    endloop
  endfacet
  facet normal 0.673016 0.462274 -0.577367
    outer loop
      vertex 1.10654 72.7269 -4.23333
      vertex 1.53055 76.2 -0.958312
      vertex 2.34466 70.9243 -4.23333
    endloop
  endfacet
  facet normal 0 0.648551 -0.761171
    outer loop
      vertex -1.10654 72.7269 -4.23333
      vertex 1.25964 76.2 -1.2741
      vertex 1.10654 72.7269 -4.23333
    endloop
  endfacet
  facet normal 0 0.648551 -0.761171
    outer loop
      vertex 1.25964 76.2 -1.2741
      vertex -1.10654 72.7269 -4.23333
      vertex -1.25964 76.2 -1.2741
    endloop
  endfacet
  facet normal 0.779796 0.535618 -0.324086
    outer loop
      vertex 3.8003 73.9542 -0.110633
      vertex 3.32919 76.2 2.4674
      vertex 4.12445 76.2 4.38089
    endloop
  endfacet
  facet normal -0.834076 -0.317028 -0.451454
    outer loop
      vertex -8.65756 -55.3044 -4.23333
      vertex -23.375 -24.25 1.15
      vertex -12.2606 -45.8252 -4.23333
    endloop
  endfacet
  facet normal -0.824494 -0.305962 -0.476022
    outer loop
      vertex -12.2606 -45.8252 -4.23333
      vertex -23.375 -24.25 1.15
      vertex -20.2669 -24.25 -4.23333
    endloop
  endfacet
  facet normal -0.834076 0.317028 -0.451454
    outer loop
      vertex -12.2606 45.8252 -4.23333
      vertex -23.375 24.25 1.15
      vertex -8.65756 55.3044 -4.23333
    endloop
  endfacet
  facet normal 0.834076 -0.317029 -0.451453
    outer loop
      vertex 3.8003 -73.9542 -0.110633
      vertex 8.65756 -55.3044 -4.23333
      vertex 23.375 -24.25 1.15
    endloop
  endfacet
  facet normal 0.834076 -0.317029 -0.451453
    outer loop
      vertex 8.65756 -55.3044 -4.23333
      vertex 3.8003 -73.9542 -0.110633
      vertex 3.18614 -69.6992 -4.23333
    endloop
  endfacet
  facet normal 0.779796 -0.535618 -0.324086
    outer loop
      vertex 3.32919 -76.2 2.4674
      vertex 2.25775 -76.2 -0.110633
      vertex 3.8003 -73.9542 -0.110633
    endloop
  endfacet
  facet normal 0.939581 -0.334708 -0.0718205
    outer loop
      vertex 6.05466 -76.2 12.7
      vertex 6.04251 -76.2 12.5411
      vertex 6.34943 -75.3725 12.7
    endloop
  endfacet
  facet normal 0.673016 -0.462275 -0.577367
    outer loop
      vertex 3.8003 -73.9542 -0.110633
      vertex 2.34466 -70.9243 -4.23333
      vertex 3.18614 -69.6992 -4.23333
    endloop
  endfacet
  facet normal 0.673016 -0.462274 -0.577367
    outer loop
      vertex 1.53055 -76.2 -0.958312
      vertex 3.8003 -73.9542 -0.110633
      vertex 2.25775 -76.2 -0.110633
    endloop
  endfacet
  facet normal 0.673016 -0.462274 -0.577367
    outer loop
      vertex 3.8003 -73.9542 -0.110633
      vertex 1.53055 -76.2 -0.958312
      vertex 2.34466 -70.9243 -4.23333
    endloop
  endfacet
  facet normal 0.673016 -0.462274 -0.577367
    outer loop
      vertex 1.53055 -76.2 -0.958312
      vertex 1.10654 -72.7269 -4.23333
      vertex 2.34466 -70.9243 -4.23333
    endloop
  endfacet
  facet normal 0.673016 -0.462274 -0.577367
    outer loop
      vertex 1.10654 -72.7269 -4.23333
      vertex 1.53055 -76.2 -0.958312
      vertex 1.25964 -76.2 -1.2741
    endloop
  endfacet
  facet normal 0.834076 -0.317028 -0.451454
    outer loop
      vertex 23.375 -24.25 1.15
      vertex 8.65756 -55.3044 -4.23333
      vertex 12.2606 -45.8252 -4.23333
    endloop
  endfacet
  facet normal 0.834076 -0.317029 0.451453
    outer loop
      vertex -3.19225 62.1216 5.24107
      vertex -6.62803 45.619 0
      vertex -2.41149 56.7123 0
    endloop
  endfacet
  facet normal 0.834076 -0.317029 0.451454
    outer loop
      vertex -6.62803 45.619 0
      vertex -3.19225 62.1216 5.24107
      vertex -19.635 20.37 6.3
    endloop
  endfacet
  facet normal -0.834076 0.317029 0.451453
    outer loop
      vertex 3.19225 -62.1216 5.24107
      vertex 6.62803 -45.619 0
      vertex 2.41149 -56.7123 0
    endloop
  endfacet
  facet normal -0.834076 0.317029 0.451454
    outer loop
      vertex 6.62803 -45.619 0
      vertex 3.19225 -62.1216 5.24107
      vertex 19.635 -20.37 6.3
    endloop
  endfacet
  facet normal 0.824494 -0.305962 0.476022
    outer loop
      vertex -19.635 20.37 6.3
      vertex -12.4933 29.8135 0
      vertex -6.62803 45.619 0
    endloop
  endfacet
  facet normal 0.824494 -0.305962 0.476022
    outer loop
      vertex -12.4933 29.8135 0
      vertex -19.635 20.37 6.3
      vertex -16.485 20.37 0.844041
    endloop
  endfacet
  facet normal 0.955352 -0 0.29547
    outer loop
      vertex -21.6144 -16.4112 12.7
      vertex -19.635 20.37 6.3
      vertex -21.6144 16.4112 12.7
    endloop
  endfacet
  facet normal 0.955352 0 0.29547
    outer loop
      vertex -19.635 20.37 6.3
      vertex -21.6144 -16.4112 12.7
      vertex -19.635 -20.37 6.3
    endloop
  endfacet
  facet normal -0.628354 0.18721 0.755066
    outer loop
      vertex 16.485 -20.37 0.844041
      vertex 14.6323 -23.1842 0
      vertex 14.5859 -23.3399 0
    endloop
  endfacet
  facet normal 0.628354 -0.18721 0.755066
    outer loop
      vertex -14.6323 23.1842 0
      vertex -14.5859 23.3399 0
      vertex -16.485 20.37 0.844041
    endloop
  endfacet
  facet normal -0.673016 -0.462274 0.577367
    outer loop
      vertex 2.41149 56.7123 0
      vertex 3.19225 62.1216 5.24107
      vertex 1.45375 58.1067 0
    endloop
  endfacet
  facet normal 0.673016 0.462274 0.577367
    outer loop
      vertex -1.45375 -58.1067 0
      vertex -2.41149 -56.7123 0
      vertex -3.19225 -62.1216 5.24107
    endloop
  endfacet
  facet normal 0.866025 -0 0.5
    outer loop
      vertex -19.635 -20.37 6.3
      vertex -16.485 20.37 0.844041
      vertex -19.635 20.37 6.3
    endloop
  endfacet
  facet normal 0.866025 0 0.5
    outer loop
      vertex -16.485 20.37 0.844041
      vertex -19.635 -20.37 6.3
      vertex -16.485 -20.37 0.844041
    endloop
  endfacet
  facet normal 0.939401 -0.332085 0.0851231
    outer loop
      vertex -19.635 20.37 6.3
      vertex -8.41695 53.7441 12.7
      vertex -21.6144 16.4112 12.7
    endloop
  endfacet
  facet normal 0.939401 0.332085 0.0851231
    outer loop
      vertex -8.41695 -53.7441 12.7
      vertex -19.635 -20.37 6.3
      vertex -21.6144 -16.4112 12.7
    endloop
  endfacet
  facet normal -0.939401 -0.332085 0.0851231
    outer loop
      vertex 19.635 20.37 6.3
      vertex 21.6144 16.4112 12.7
      vertex 8.41695 53.7441 12.7
    endloop
  endfacet
  facet normal -0.824494 -0.305962 0.476022
    outer loop
      vertex 19.635 20.37 6.3
      vertex 12.4933 29.8135 0
      vertex 16.485 20.37 0.844041
    endloop
  endfacet
  facet normal -0.824494 -0.305962 0.476022
    outer loop
      vertex 12.4933 29.8135 0
      vertex 19.635 20.37 6.3
      vertex 6.62803 45.619 0
    endloop
  endfacet
  facet normal -0.866025 0 0.5
    outer loop
      vertex 16.485 -20.37 0.844041
      vertex 19.635 20.37 6.3
      vertex 16.485 20.37 0.844041
    endloop
  endfacet
  facet normal -0.866025 0 0.5
    outer loop
      vertex 19.635 20.37 6.3
      vertex 16.485 -20.37 0.844041
      vertex 19.635 -20.37 6.3
    endloop
  endfacet
  facet normal -0.422264 0 0.906473
    outer loop
      vertex 14.6731 22.7358 0
      vertex 16.485 -20.37 0.844041
      vertex 16.485 20.37 0.844041
    endloop
  endfacet
  facet normal -0.422264 0 0.906473
    outer loop
      vertex 16.485 -20.37 0.844041
      vertex 14.6731 22.7358 0
      vertex 14.6731 -22.7358 0
    endloop
  endfacet
  facet normal 0.834076 0.317029 0.451454
    outer loop
      vertex -3.19225 -62.1216 5.24107
      vertex -6.62803 -45.619 0
      vertex -19.635 -20.37 6.3
    endloop
  endfacet
  facet normal 0.834076 0.317029 0.451453
    outer loop
      vertex -6.62803 -45.619 0
      vertex -3.19225 -62.1216 5.24107
      vertex -2.41149 -56.7123 0
    endloop
  endfacet
  facet normal -0.779796 0.535618 0.324086
    outer loop
      vertex 3.73055 -65.851 12.7
      vertex 3.19225 -62.1216 5.24107
      vertex 1.82922 -68.6191 12.7
    endloop
  endfacet
  facet normal 0.502655 -0.0725534 0.861437
    outer loop
      vertex -14.6626 22.9744 0
      vertex -14.6323 23.1842 0
      vertex -16.485 20.37 0.844041
    endloop
  endfacet
  facet normal 0.422264 0 0.906473
    outer loop
      vertex -16.485 20.37 0.844041
      vertex -14.6731 -22.7358 0
      vertex -14.6731 22.7358 0
    endloop
  endfacet
  facet normal 0.422264 0 0.906473
    outer loop
      vertex -14.6731 -22.7358 0
      vertex -16.485 20.37 0.844041
      vertex -16.485 -20.37 0.844041
    endloop
  endfacet
  facet normal 0.502655 0.0725534 0.861437
    outer loop
      vertex -14.6323 -23.1842 0
      vertex -14.6626 -22.9744 0
      vertex -16.485 -20.37 0.844041
    endloop
  endfacet
  facet normal 0.673016 -0.462274 0.577367
    outer loop
      vertex -3.19225 62.1216 5.24107
      vertex -0.837502 59.0039 0
      vertex -1.10866 65.155 5.24107
    endloop
  endfacet
  facet normal 0.673016 -0.462274 0.577367
    outer loop
      vertex -0.837502 59.0039 0
      vertex -3.19225 62.1216 5.24107
      vertex -1.45375 58.1067 0
    endloop
  endfacet
  facet normal -0.834076 -0.317029 0.451453
    outer loop
      vertex 6.62803 45.619 0
      vertex 3.19225 62.1216 5.24107
      vertex 2.41149 56.7123 0
    endloop
  endfacet
  facet normal -0.834076 -0.317029 0.451454
    outer loop
      vertex 3.19225 62.1216 5.24107
      vertex 6.62803 45.619 0
      vertex 19.635 20.37 6.3
    endloop
  endfacet
  facet normal 0.779796 -0.535618 0.324086
    outer loop
      vertex -3.19225 62.1216 5.24107
      vertex -1.82922 68.6191 12.7
      vertex -3.73055 65.851 12.7
    endloop
  endfacet
  facet normal -0.905195 0.350387 0.24052
    outer loop
      vertex 3.19225 -62.1216 5.24107
      vertex 8.41695 -53.7441 12.7
      vertex 19.635 -20.37 6.3
    endloop
  endfacet
  facet normal -0.905195 0.350387 0.24052
    outer loop
      vertex 8.41695 -53.7441 12.7
      vertex 3.19225 -62.1216 5.24107
      vertex 3.73055 -65.851 12.7
    endloop
  endfacet
  facet normal -0.955352 0 0.29547
    outer loop
      vertex 19.635 20.37 6.3
      vertex 21.6144 -16.4112 12.7
      vertex 21.6144 16.4112 12.7
    endloop
  endfacet
  facet normal -0.955352 0 0.29547
    outer loop
      vertex 21.6144 -16.4112 12.7
      vertex 19.635 20.37 6.3
      vertex 19.635 -20.37 6.3
    endloop
  endfacet
  facet normal -0.824494 0.305962 0.476022
    outer loop
      vertex 12.4933 -29.8135 0
      vertex 19.635 -20.37 6.3
      vertex 16.485 -20.37 0.844041
    endloop
  endfacet
  facet normal -0.824494 0.305962 0.476022
    outer loop
      vertex 19.635 -20.37 6.3
      vertex 12.4933 -29.8135 0
      vertex 6.62803 -45.619 0
    endloop
  endfacet
  facet normal 0.443023 -0.0195288 0.896297
    outer loop
      vertex -14.6731 22.7358 0
      vertex -14.6626 22.9744 0
      vertex -16.485 20.37 0.844041
    endloop
  endfacet
  facet normal 0.443023 0.0195288 0.896297
    outer loop
      vertex -14.6626 -22.9744 0
      vertex -14.6731 -22.7358 0
      vertex -16.485 -20.37 0.844041
    endloop
  endfacet
  facet normal 0.653396 -0.211212 0.726955
    outer loop
      vertex -14.5859 23.3399 0
      vertex -12.4933 29.8135 0
      vertex -16.485 20.37 0.844041
    endloop
  endfacet
  facet normal 0.673016 -0.462274 0.577367
    outer loop
      vertex -2.41149 56.7123 0
      vertex -1.45375 58.1067 0
      vertex -3.19225 62.1216 5.24107
    endloop
  endfacet
  facet normal 0.905195 -0.350387 0.24052
    outer loop
      vertex -8.41695 53.7441 12.7
      vertex -3.19225 62.1216 5.24107
      vertex -3.73055 65.851 12.7
    endloop
  endfacet
  facet normal 0.905195 -0.350387 0.24052
    outer loop
      vertex -3.19225 62.1216 5.24107
      vertex -8.41695 53.7441 12.7
      vertex -19.635 20.37 6.3
    endloop
  endfacet
  facet normal -0.673016 0.462274 0.577367
    outer loop
      vertex 3.19225 -62.1216 5.24107
      vertex 2.41149 -56.7123 0
      vertex 1.45375 -58.1067 0
    endloop
  endfacet
  facet normal -0.939401 0.332085 0.0851231
    outer loop
      vertex 21.6144 -16.4112 12.7
      vertex 19.635 -20.37 6.3
      vertex 8.41695 -53.7441 12.7
    endloop
  endfacet
  facet normal -0.653396 -0.211212 0.726955
    outer loop
      vertex 14.5859 23.3399 0
      vertex 16.485 20.37 0.844041
      vertex 12.4933 29.8135 0
    endloop
  endfacet
  facet normal -0.653396 0.211212 0.726955
    outer loop
      vertex 16.485 -20.37 0.844041
      vertex 14.5859 -23.3399 0
      vertex 12.4933 -29.8135 0
    endloop
  endfacet
  facet normal 0.824494 0.305962 0.476022
    outer loop
      vertex -19.635 -20.37 6.3
      vertex -12.4933 -29.8135 0
      vertex -16.485 -20.37 0.844041
    endloop
  endfacet
  facet normal 0.824494 0.305962 0.476022
    outer loop
      vertex -12.4933 -29.8135 0
      vertex -19.635 -20.37 6.3
      vertex -6.62803 -45.619 0
    endloop
  endfacet
  facet normal -0 0.648551 0.761171
    outer loop
      vertex -0.837502 -59.0039 0
      vertex 1.10866 -65.155 5.24107
      vertex 0.837502 -59.0039 0
    endloop
  endfacet
  facet normal 0 0.648551 0.761171
    outer loop
      vertex 1.10866 -65.155 5.24107
      vertex -0.837502 -59.0039 0
      vertex -1.10866 -65.155 5.24107
    endloop
  endfacet
  facet normal -0.628354 -0.18721 0.755066
    outer loop
      vertex 14.6323 23.1842 0
      vertex 16.485 20.37 0.844041
      vertex 14.5859 23.3399 0
    endloop
  endfacet
  facet normal -0.779796 -0.535618 0.324086
    outer loop
      vertex 3.19225 62.1216 5.24107
      vertex 3.73055 65.851 12.7
      vertex 1.82922 68.6191 12.7
    endloop
  endfacet
  facet normal -0.905195 -0.350387 0.24052
    outer loop
      vertex 3.19225 62.1216 5.24107
      vertex 8.41695 53.7441 12.7
      vertex 3.73055 65.851 12.7
    endloop
  endfacet
  facet normal -0.905195 -0.350387 0.24052
    outer loop
      vertex 8.41695 53.7441 12.7
      vertex 3.19225 62.1216 5.24107
      vertex 19.635 20.37 6.3
    endloop
  endfacet
  facet normal 0.779796 -0.535618 0.324086
    outer loop
      vertex -1.82922 68.6191 12.7
      vertex -1.10866 65.155 5.24107
      vertex -1.29561 69.396 12.7
    endloop
  endfacet
  facet normal 0.779796 -0.535618 0.324086
    outer loop
      vertex -1.10866 65.155 5.24107
      vertex -1.82922 68.6191 12.7
      vertex -3.19225 62.1216 5.24107
    endloop
  endfacet
  facet normal -0.779796 -0.535618 0.324086
    outer loop
      vertex 1.10866 65.155 5.24107
      vertex 1.82922 68.6191 12.7
      vertex 1.29561 69.396 12.7
    endloop
  endfacet
  facet normal -0.779796 -0.535618 0.324086
    outer loop
      vertex 1.82922 68.6191 12.7
      vertex 1.10866 65.155 5.24107
      vertex 3.19225 62.1216 5.24107
    endloop
  endfacet
  facet normal -0.502655 0.0725534 0.861437
    outer loop
      vertex 16.485 -20.37 0.844041
      vertex 14.6626 -22.9744 0
      vertex 14.6323 -23.1842 0
    endloop
  endfacet
  facet normal -0.673016 0.462274 0.577367
    outer loop
      vertex 0.837502 -59.0039 0
      vertex 3.19225 -62.1216 5.24107
      vertex 1.45375 -58.1067 0
    endloop
  endfacet
  facet normal -0.673016 0.462274 0.577367
    outer loop
      vertex 3.19225 -62.1216 5.24107
      vertex 0.837502 -59.0039 0
      vertex 1.10866 -65.155 5.24107
    endloop
  endfacet
  facet normal -0.779796 0.535618 0.324086
    outer loop
      vertex 1.10866 -65.155 5.24107
      vertex 1.82922 -68.6191 12.7
      vertex 3.19225 -62.1216 5.24107
    endloop
  endfacet
  facet normal -0.779796 0.535618 0.324086
    outer loop
      vertex 1.82922 -68.6191 12.7
      vertex 1.10866 -65.155 5.24107
      vertex 1.29561 -69.396 12.7
    endloop
  endfacet
  facet normal 0.905195 0.350387 0.24052
    outer loop
      vertex -8.41695 -53.7441 12.7
      vertex -3.19225 -62.1216 5.24107
      vertex -19.635 -20.37 6.3
    endloop
  endfacet
  facet normal 0.905195 0.350387 0.24052
    outer loop
      vertex -3.19225 -62.1216 5.24107
      vertex -8.41695 -53.7441 12.7
      vertex -3.73055 -65.851 12.7
    endloop
  endfacet
  facet normal -0.502655 -0.0725534 0.861437
    outer loop
      vertex 14.6626 22.9744 0
      vertex 16.485 20.37 0.844041
      vertex 14.6323 23.1842 0
    endloop
  endfacet
  facet normal -0.443023 -0.0195288 0.896297
    outer loop
      vertex 14.6731 22.7358 0
      vertex 16.485 20.37 0.844041
      vertex 14.6626 22.9744 0
    endloop
  endfacet
  facet normal -0.673016 -0.462274 0.577367
    outer loop
      vertex 0.837502 59.0039 0
      vertex 3.19225 62.1216 5.24107
      vertex 1.10866 65.155 5.24107
    endloop
  endfacet
  facet normal -0.673016 -0.462274 0.577367
    outer loop
      vertex 3.19225 62.1216 5.24107
      vertex 0.837502 59.0039 0
      vertex 1.45375 58.1067 0
    endloop
  endfacet
  facet normal -0.443023 0.0195288 0.896297
    outer loop
      vertex 16.485 -20.37 0.844041
      vertex 14.6731 -22.7358 0
      vertex 14.6626 -22.9744 0
    endloop
  endfacet
  facet normal 0.653396 0.211212 0.726955
    outer loop
      vertex -12.4933 -29.8135 0
      vertex -14.5859 -23.3399 0
      vertex -16.485 -20.37 0.844041
    endloop
  endfacet
  facet normal 0.628354 0.18721 0.755066
    outer loop
      vertex -14.5859 -23.3399 0
      vertex -14.6323 -23.1842 0
      vertex -16.485 -20.37 0.844041
    endloop
  endfacet
  facet normal 0 -0.869308 0.49427
    outer loop
      vertex -1.10866 65.155 5.24107
      vertex 1.29561 69.396 12.7
      vertex -1.29561 69.396 12.7
    endloop
  endfacet
  facet normal 0 -0.869308 0.49427
    outer loop
      vertex 1.29561 69.396 12.7
      vertex -1.10866 65.155 5.24107
      vertex 1.10866 65.155 5.24107
    endloop
  endfacet
  facet normal 0 -0.648551 0.761171
    outer loop
      vertex 1.10866 65.155 5.24107
      vertex -0.837502 59.0039 0
      vertex 0.837502 59.0039 0
    endloop
  endfacet
  facet normal 0 -0.648551 0.761171
    outer loop
      vertex -0.837502 59.0039 0
      vertex 1.10866 65.155 5.24107
      vertex -1.10866 65.155 5.24107
    endloop
  endfacet
  facet normal 0.779796 0.535618 0.324086
    outer loop
      vertex -1.82922 -68.6191 12.7
      vertex -3.19225 -62.1216 5.24107
      vertex -3.73055 -65.851 12.7
    endloop
  endfacet
  facet normal 0.673016 0.462274 0.577367
    outer loop
      vertex -3.19225 -62.1216 5.24107
      vertex -0.837502 -59.0039 0
      vertex -1.45375 -58.1067 0
    endloop
  endfacet
  facet normal 0.673016 0.462274 0.577367
    outer loop
      vertex -0.837502 -59.0039 0
      vertex -3.19225 -62.1216 5.24107
      vertex -1.10866 -65.155 5.24107
    endloop
  endfacet
  facet normal 0 0.869308 0.49427
    outer loop
      vertex 1.10866 -65.155 5.24107
      vertex -1.29561 -69.396 12.7
      vertex 1.29561 -69.396 12.7
    endloop
  endfacet
  facet normal 0 0.869308 0.49427
    outer loop
      vertex -1.29561 -69.396 12.7
      vertex 1.10866 -65.155 5.24107
      vertex -1.10866 -65.155 5.24107
    endloop
  endfacet
  facet normal 0.779796 0.535618 0.324086
    outer loop
      vertex -1.82922 -68.6191 12.7
      vertex -1.10866 -65.155 5.24107
      vertex -3.19225 -62.1216 5.24107
    endloop
  endfacet
  facet normal 0.779796 0.535618 0.324086
    outer loop
      vertex -1.10866 -65.155 5.24107
      vertex -1.82922 -68.6191 12.7
      vertex -1.29561 -69.396 12.7
    endloop
  endfacet
  facet normal 0 0 1
    outer loop
      vertex 14.5859 23.3399 0
      vertex 14.6731 22.7358 0
      vertex 14.6626 22.9744 0
    endloop
  endfacet
  facet normal 0 0 1
    outer loop
      vertex 14.6731 22.7358 0
      vertex -14.6731 22.7358 0
      vertex 14.6731 -22.7358 0
    endloop
  endfacet
  facet normal 0 0 1
    outer loop
      vertex 14.5859 23.3399 0
      vertex 14.6626 22.9744 0
      vertex 14.6323 23.1842 0
    endloop
  endfacet
  facet normal 0 0 1
    outer loop
      vertex -14.6731 -22.7358 0
      vertex 14.6731 -22.7358 0
      vertex -14.6731 22.7358 0
    endloop
  endfacet
  facet normal 0 0 1
    outer loop
      vertex 14.6731 22.7358 0
      vertex 14.5859 23.3399 0
      vertex -14.6731 22.7358 0
    endloop
  endfacet
  facet normal 0 -0 1
    outer loop
      vertex 14.5859 -23.3399 0
      vertex 14.6731 -22.7358 0
      vertex -14.6731 -22.7358 0
    endloop
  endfacet
  facet normal 0 0 1
    outer loop
      vertex -14.5859 23.3399 0
      vertex 14.5859 23.3399 0
      vertex 12.4933 29.8135 0
    endloop
  endfacet
  facet normal 0 0 1
    outer loop
      vertex 14.6731 -22.7358 0
      vertex 14.5859 -23.3399 0
      vertex 14.6626 -22.9744 0
    endloop
  endfacet
  facet normal 0 0 1
    outer loop
      vertex -12.4933 29.8135 0
      vertex 12.4933 29.8135 0
      vertex 6.62803 45.619 0
    endloop
  endfacet
  facet normal 0 0 1
    outer loop
      vertex 14.6626 -22.9744 0
      vertex 14.5859 -23.3399 0
      vertex 14.6323 -23.1842 0
    endloop
  endfacet
  facet normal 0 0 1
    outer loop
      vertex -6.62803 45.619 0
      vertex 6.62803 45.619 0
      vertex 2.41149 56.7123 0
    endloop
  endfacet
  facet normal 0 0 1
    outer loop
      vertex -14.5859 23.3399 0
      vertex 12.4933 29.8135 0
      vertex -12.4933 29.8135 0
    endloop
  endfacet
  facet normal 0 0 1
    outer loop
      vertex -2.41149 56.7123 0
      vertex 2.41149 56.7123 0
      vertex 1.45375 58.1067 0
    endloop
  endfacet
  facet normal 0 -0 1
    outer loop
      vertex -14.5859 -23.3399 0
      vertex 14.5859 -23.3399 0
      vertex -14.6731 -22.7358 0
    endloop
  endfacet
  facet normal 0 0 1
    outer loop
      vertex -1.45375 58.1067 0
      vertex 1.45375 58.1067 0
      vertex 0.837502 59.0039 0
    endloop
  endfacet
  facet normal 0 0 1
    outer loop
      vertex 6.62803 45.619 0
      vertex -6.62803 45.619 0
      vertex -12.4933 29.8135 0
    endloop
  endfacet
  facet normal 0 0 1
    outer loop
      vertex -1.45375 58.1067 0
      vertex 0.837502 59.0039 0
      vertex -0.837502 59.0039 0
    endloop
  endfacet
  facet normal 0 -0 1
    outer loop
      vertex -6.62803 -45.619 0
      vertex 6.62803 -45.619 0
      vertex -12.4933 -29.8135 0
    endloop
  endfacet
  facet normal 0 0 1
    outer loop
      vertex 1.45375 58.1067 0
      vertex -1.45375 58.1067 0
      vertex -2.41149 56.7123 0
    endloop
  endfacet
  facet normal 0 0 1
    outer loop
      vertex 2.41149 -56.7123 0
      vertex -2.41149 -56.7123 0
      vertex 1.45375 -58.1067 0
    endloop
  endfacet
  facet normal 0 0 1
    outer loop
      vertex 2.41149 56.7123 0
      vertex -2.41149 56.7123 0
      vertex -6.62803 45.619 0
    endloop
  endfacet
  facet normal 0 -0 1
    outer loop
      vertex -1.45375 -58.1067 0
      vertex 1.45375 -58.1067 0
      vertex -2.41149 -56.7123 0
    endloop
  endfacet
  facet normal 0 0 1
    outer loop
      vertex 0.837502 -59.0039 0
      vertex -1.45375 -58.1067 0
      vertex -0.837502 -59.0039 0
    endloop
  endfacet
  facet normal 0 0 1
    outer loop
      vertex 1.45375 -58.1067 0
      vertex -1.45375 -58.1067 0
      vertex 0.837502 -59.0039 0
    endloop
  endfacet
  facet normal 0 0 1
    outer loop
      vertex 6.62803 -45.619 0
      vertex -6.62803 -45.619 0
      vertex 2.41149 -56.7123 0
    endloop
  endfacet
  facet normal 0 -0 1
    outer loop
      vertex -2.41149 -56.7123 0
      vertex 2.41149 -56.7123 0
      vertex -6.62803 -45.619 0
    endloop
  endfacet
  facet normal 0 0 1
    outer loop
      vertex 14.5859 23.3399 0
      vertex -14.5859 23.3399 0
      vertex -14.6731 22.7358 0
    endloop
  endfacet
  facet normal 0 0 1
    outer loop
      vertex 14.5859 -23.3399 0
      vertex -14.5859 -23.3399 0
      vertex 12.4933 -29.8135 0
    endloop
  endfacet
  facet normal 0 0 1
    outer loop
      vertex -14.6626 22.9744 0
      vertex -14.5859 23.3399 0
      vertex -14.6323 23.1842 0
    endloop
  endfacet
  facet normal 0 0 1
    outer loop
      vertex 12.4933 -29.8135 0
      vertex -12.4933 -29.8135 0
      vertex 6.62803 -45.619 0
    endloop
  endfacet
  facet normal 0 0 1
    outer loop
      vertex -14.5859 23.3399 0
      vertex -14.6626 22.9744 0
      vertex -14.6731 22.7358 0
    endloop
  endfacet
  facet normal 0 0 1
    outer loop
      vertex 12.4933 -29.8135 0
      vertex -14.5859 -23.3399 0
      vertex -12.4933 -29.8135 0
    endloop
  endfacet
  facet normal -0 -0 1
    outer loop
      vertex -14.6626 -22.9744 0
      vertex -14.5859 -23.3399 0
      vertex -14.6731 -22.7358 0
    endloop
  endfacet
  facet normal 0 0 1
    outer loop
      vertex -14.5859 -23.3399 0
      vertex -14.6626 -22.9744 0
      vertex -14.6323 -23.1842 0
    endloop
  endfacet
  facet normal 0 0 -1
    outer loop
      vertex -20.2669 -24.25 -4.23333
      vertex 20.2669 -24.25 -4.23333
      vertex 12.2606 -45.8252 -4.23333
    endloop
  endfacet
  facet normal 0 0 -1
    outer loop
      vertex 20.2669 -24.25 -4.23333
      vertex -20.2669 -24.25 -4.23333
      vertex 20.2669 24.25 -4.23333
    endloop
  endfacet
  facet normal 0 0 -1
    outer loop
      vertex -12.2606 -45.8252 -4.23333
      vertex 12.2606 -45.8252 -4.23333
      vertex 8.65756 -55.3044 -4.23333
    endloop
  endfacet
  facet normal 0 0 -1
    outer loop
      vertex -20.2669 24.25 -4.23333
      vertex 20.2669 24.25 -4.23333
      vertex -20.2669 -24.25 -4.23333
    endloop
  endfacet
  facet normal 0 0 -1
    outer loop
      vertex -8.65756 -55.3044 -4.23333
      vertex 8.65756 -55.3044 -4.23333
      vertex 3.18614 -69.6992 -4.23333
    endloop
  endfacet
  facet normal 0 0 -1
    outer loop
      vertex 12.2606 -45.8252 -4.23333
      vertex -12.2606 -45.8252 -4.23333
      vertex -20.2669 -24.25 -4.23333
    endloop
  endfacet
  facet normal 0 0 -1
    outer loop
      vertex -3.18614 -69.6992 -4.23333
      vertex 3.18614 -69.6992 -4.23333
      vertex 2.34466 -70.9243 -4.23333
    endloop
  endfacet
  facet normal 0 0 -1
    outer loop
      vertex 20.2669 24.25 -4.23333
      vertex -20.2669 24.25 -4.23333
      vertex 12.2606 45.8252 -4.23333
    endloop
  endfacet
  facet normal 0 0 -1
    outer loop
      vertex -2.34466 -70.9243 -4.23333
      vertex 2.34466 -70.9243 -4.23333
      vertex 1.10654 -72.7269 -4.23333
    endloop
  endfacet
  facet normal 0 -0 -1
    outer loop
      vertex -8.65756 55.3044 -4.23333
      vertex 8.65756 55.3044 -4.23333
      vertex -12.2606 45.8252 -4.23333
    endloop
  endfacet
  facet normal 0 0 -1
    outer loop
      vertex -2.34466 -70.9243 -4.23333
      vertex 1.10654 -72.7269 -4.23333
      vertex -1.10654 -72.7269 -4.23333
    endloop
  endfacet
  facet normal 0 0 -1
    outer loop
      vertex 8.65756 -55.3044 -4.23333
      vertex -8.65756 -55.3044 -4.23333
      vertex -12.2606 -45.8252 -4.23333
    endloop
  endfacet
  facet normal 0 0 -1
    outer loop
      vertex 2.34466 -70.9243 -4.23333
      vertex -2.34466 -70.9243 -4.23333
      vertex -3.18614 -69.6992 -4.23333
    endloop
  endfacet
  facet normal 0 0 -1
    outer loop
      vertex 8.65756 55.3044 -4.23333
      vertex -8.65756 55.3044 -4.23333
      vertex 3.18614 69.6992 -4.23333
    endloop
  endfacet
  facet normal 0 0 -1
    outer loop
      vertex 3.18614 -69.6992 -4.23333
      vertex -3.18614 -69.6992 -4.23333
      vertex -8.65756 -55.3044 -4.23333
    endloop
  endfacet
  facet normal 0 -0 -1
    outer loop
      vertex -2.34466 70.9243 -4.23333
      vertex 2.34466 70.9243 -4.23333
      vertex -3.18614 69.6992 -4.23333
    endloop
  endfacet
  facet normal -0 0 -1
    outer loop
      vertex 1.10654 72.7269 -4.23333
      vertex -2.34466 70.9243 -4.23333
      vertex -1.10654 72.7269 -4.23333
    endloop
  endfacet
  facet normal 0 0 -1
    outer loop
      vertex 2.34466 70.9243 -4.23333
      vertex -2.34466 70.9243 -4.23333
      vertex 1.10654 72.7269 -4.23333
    endloop
  endfacet
  facet normal 0 -0 -1
    outer loop
      vertex -3.18614 69.6992 -4.23333
      vertex 3.18614 69.6992 -4.23333
      vertex -8.65756 55.3044 -4.23333
    endloop
  endfacet
  facet normal 0 0 -1
    outer loop
      vertex 3.18614 69.6992 -4.23333
      vertex -3.18614 69.6992 -4.23333
      vertex 2.34466 70.9243 -4.23333
    endloop
  endfacet
  facet normal 0 -0 -1
    outer loop
      vertex -12.2606 45.8252 -4.23333
      vertex 12.2606 45.8252 -4.23333
      vertex -20.2669 24.25 -4.23333
    endloop
  endfacet
  facet normal 0 0 -1
    outer loop
      vertex 12.2606 45.8252 -4.23333
      vertex -12.2606 45.8252 -4.23333
      vertex 8.65756 55.3044 -4.23333
    endloop
  endfacet
endsolid OpenSCAD_Model
