solid OpenSCAD_Model
  facet normal 0.944308 0.32155 0.069915
    outer loop
      vertex -12.2678 -38.1 25.4
      vertex -3.28892 -62.3863 15.8234
      vertex -21.7 -10.4 25.4
    endloop
  endfacet
  facet normal 0.944308 0.32155 0.0699151
    outer loop
      vertex -3.28892 -62.3863 15.8234
      vertex -12.2678 -38.1 25.4
      vertex -3.5 -63.8487 25.4
    endloop
  endfacet
  facet normal 0.83435 0.267981 0.481712
    outer loop
      vertex -15.7 -22.4 9
      vertex -9.38164 -31.2866 3
      vertex -12.7 -22.4 3.80385
    endloop
  endfacet
  facet normal 0.83435 0.267981 0.481712
    outer loop
      vertex -9.38164 -31.2866 3
      vertex -15.7 -22.4 9
      vertex -5.03583 -44.8172 3
    endloop
  endfacet
  facet normal 0.942784 -0.312468 0.116286
    outer loop
      vertex -15.7 22.4 9
      vertex -3.28892 62.3863 15.8234
      vertex -21.7 10.4 25.4
    endloop
  endfacet
  facet normal -0.854963 -0.291974 0.428706
    outer loop
      vertex 5.03583 44.8172 3
      vertex 2.68116 58.1756 7.40195
      vertex 2.0254 53.6324 3
    endloop
  endfacet
  facet normal -0.854963 -0.291974 0.428706
    outer loop
      vertex 2.68116 58.1756 7.40195
      vertex 5.03583 44.8172 3
      vertex 15.7 22.4 9
    endloop
  endfacet
  facet normal -0 0.648551 0.761171
    outer loop
      vertex -0.703414 -55.557 3
      vertex 0.931155 -60.7234 7.40195
      vertex 0.703414 -55.557 3
    endloop
  endfacet
  facet normal 0 0.648551 0.761171
    outer loop
      vertex 0.931155 -60.7234 7.40195
      vertex -0.703414 -55.557 3
      vertex -0.931155 -60.7234 7.40195
    endloop
  endfacet
  facet normal -0.932708 0.291108 -0.212866
    outer loop
      vertex 3.29059 -60.097 38.1
      vertex 3.28892 -62.3863 34.9766
      vertex 3.00796 -60.4398 38.8697
    endloop
  endfacet
  facet normal -0.932708 0.291108 -0.212866
    outer loop
      vertex 3.28892 -62.3863 34.9766
      vertex 3.29059 -60.097 38.1
      vertex 5.15282 -57.1233 34.0071
    endloop
  endfacet
  facet normal 0.939123 -0 0.343582
    outer loop
      vertex -21.7 -10.4 25.4
      vertex -15.7 22.4 9
      vertex -21.7 10.4 25.4
    endloop
  endfacet
  facet normal 0.939123 0 0.343582
    outer loop
      vertex -15.7 22.4 9
      vertex -21.7 -10.4 25.4
      vertex -15.7 -22.4 9
    endloop
  endfacet
  facet normal 0.918145 0.323921 0.228222
    outer loop
      vertex -3.28892 -62.3863 15.8234
      vertex -2.68116 -58.1756 7.40195
      vertex -15.7 -22.4 9
    endloop
  endfacet
  facet normal -0.944308 0.32155 0.0699152
    outer loop
      vertex 3.28892 -62.3863 15.8234
      vertex 12.2678 -38.1 25.4
      vertex 21.7 -10.4 25.4
    endloop
  endfacet
  facet normal -0.944308 0.32155 0.0699152
    outer loop
      vertex 12.2678 -38.1 25.4
      vertex 3.28892 -62.3863 15.8234
      vertex 3.5 -63.8487 25.4
    endloop
  endfacet
  facet normal -0.83435 0.267981 0.481712
    outer loop
      vertex 9.38164 -31.2866 3
      vertex 15.7 -22.4 9
      vertex 12.7 -22.4 3.80385
    endloop
  endfacet
  facet normal -0.83435 0.267981 0.481712
    outer loop
      vertex 15.7 -22.4 9
      vertex 9.38164 -31.2866 3
      vertex 5.03583 -44.8172 3
    endloop
  endfacet
  facet normal -0.939123 0 0.343582
    outer loop
      vertex 15.7 22.4 9
      vertex 21.7 -10.4 25.4
      vertex 21.7 10.4 25.4
    endloop
  endfacet
  facet normal -0.939123 0 0.343582
    outer loop
      vertex 21.7 -10.4 25.4
      vertex 15.7 22.4 9
      vertex 15.7 -22.4 9
    endloop
  endfacet
  facet normal 0.866025 -0 0.5
    outer loop
      vertex -15.7 -22.4 9
      vertex -12.7 22.4 3.80385
      vertex -15.7 22.4 9
    endloop
  endfacet
  facet normal 0.866025 0 0.5
    outer loop
      vertex -12.7 22.4 3.80385
      vertex -15.7 -22.4 9
      vertex -12.7 -22.4 3.80385
    endloop
  endfacet
  facet normal 0.932708 0.291108 -0.212866
    outer loop
      vertex -3.29059 -60.097 38.1
      vertex -3.28892 -62.3863 34.9766
      vertex -5.15282 -57.1233 34.0071
    endloop
  endfacet
  facet normal 0.932708 0.291108 -0.212866
    outer loop
      vertex -3.28892 -62.3863 34.9766
      vertex -3.29059 -60.097 38.1
      vertex -3.00796 -60.4398 38.8697
    endloop
  endfacet
  facet normal 0.944308 0.321551 -0.0699098
    outer loop
      vertex -3.28892 -62.3863 34.9766
      vertex -5.21806 -56.9759 33.8041
      vertex -5.15282 -57.1233 34.0071
    endloop
  endfacet
  facet normal 0.944308 0.321549 -0.0699151
    outer loop
      vertex -3.5 -63.8487 25.4
      vertex -5.21806 -56.9759 33.8041
      vertex -3.28892 -62.3863 34.9766
    endloop
  endfacet
  facet normal 0.944308 0.32155 -0.0699153
    outer loop
      vertex -5.21806 -56.9759 33.8041
      vertex -3.5 -63.8487 25.4
      vertex -6.82484 -53.0297 30.251
    endloop
  endfacet
  facet normal 0.944308 0.32155 -0.0699133
    outer loop
      vertex -10.4284 -43.381 25.9551
      vertex -3.5 -63.8487 25.4
      vertex -12.2678 -38.1 25.4
    endloop
  endfacet
  facet normal 0.944308 0.32155 -0.0699153
    outer loop
      vertex -8.58731 -48.4311 27.5959
      vertex -3.5 -63.8487 25.4
      vertex -10.4284 -43.381 25.9551
    endloop
  endfacet
  facet normal 0.944308 0.32155 -0.069915
    outer loop
      vertex -6.82484 -53.0297 30.251
      vertex -3.5 -63.8487 25.4
      vertex -8.58731 -48.4311 27.5959
    endloop
  endfacet
  facet normal 0.779796 -0.535618 -0.324086
    outer loop
      vertex -2.08695 61.0082 40.1464
      vertex -3.28892 62.3863 34.9766
      vertex -1.14223 65.5117 34.9766
    endloop
  endfacet
  facet normal 0.779796 -0.535618 -0.324086
    outer loop
      vertex -3.28892 62.3863 34.9766
      vertex -2.08695 61.0082 40.1464
      vertex -3.00796 60.4398 38.8697
    endloop
  endfacet
  facet normal 0.942784 0.312468 0.116286
    outer loop
      vertex -3.28892 -62.3863 15.8234
      vertex -15.7 -22.4 9
      vertex -21.7 -10.4 25.4
    endloop
  endfacet
  facet normal 0.854963 0.291974 0.428706
    outer loop
      vertex -2.68116 -58.1756 7.40195
      vertex -5.03583 -44.8172 3
      vertex -15.7 -22.4 9
    endloop
  endfacet
  facet normal 0.854963 0.291974 0.428706
    outer loop
      vertex -5.03583 -44.8172 3
      vertex -2.68116 -58.1756 7.40195
      vertex -2.0254 -53.6324 3
    endloop
  endfacet
  facet normal 0.558597 0.0806259 0.825511
    outer loop
      vertex -11.1176 -25.1329 3
      vertex -11.146 -24.9363 3
      vertex -12.7 -22.4 3.80385
    endloop
  endfacet
  facet normal 0.932708 -0.291108 -0.212866
    outer loop
      vertex -3.29059 60.097 38.1
      vertex -3.28892 62.3863 34.9766
      vertex -3.00796 60.4398 38.8697
    endloop
  endfacet
  facet normal 0.932708 -0.291108 -0.212866
    outer loop
      vertex -3.28892 62.3863 34.9766
      vertex -3.29059 60.097 38.1
      vertex -5.15282 57.1233 34.0071
    endloop
  endfacet
  facet normal 0 0.869308 0.494271
    outer loop
      vertex 0.931155 -60.7234 7.40195
      vertex -1.14223 -65.5117 15.8234
      vertex 1.14223 -65.5117 15.8234
    endloop
  endfacet
  facet normal 0 0.869308 0.494271
    outer loop
      vertex -1.14223 -65.5117 15.8234
      vertex 0.931155 -60.7234 7.40195
      vertex -0.931155 -60.7234 7.40195
    endloop
  endfacet
  facet normal 0.854963 -0.291974 0.428706
    outer loop
      vertex -2.68116 58.1756 7.40195
      vertex -5.03583 44.8172 3
      vertex -2.0254 53.6324 3
    endloop
  endfacet
  facet normal 0.854963 -0.291974 0.428706
    outer loop
      vertex -5.03583 44.8172 3
      vertex -2.68116 58.1756 7.40195
      vertex -15.7 22.4 9
    endloop
  endfacet
  facet normal 0.779796 -0.535618 0.324086
    outer loop
      vertex -0.931155 60.7234 7.40195
      vertex -1.14223 65.5117 15.8234
      vertex -2.68116 58.1756 7.40195
    endloop
  endfacet
  facet normal -0.558597 0.0806259 0.825511
    outer loop
      vertex 12.7 -22.4 3.80385
      vertex 11.146 -24.9363 3
      vertex 11.1176 -25.1329 3
    endloop
  endfacet
  facet normal -0.748501 0.223007 0.624511
    outer loop
      vertex 12.7 -22.4 3.80385
      vertex 9.66383 -30.3395 3
      vertex 9.38164 -31.2866 3
    endloop
  endfacet
  facet normal -0.673015 0.462274 0.577367
    outer loop
      vertex 1.50782 -54.3859 3
      vertex 2.68116 -58.1756 7.40195
      vertex 2.0254 -53.6324 3
    endloop
  endfacet
  facet normal -0.673016 0.462274 0.577367
    outer loop
      vertex 2.68116 -58.1756 7.40195
      vertex 1.50782 -54.3859 3
      vertex 0.931155 -60.7234 7.40195
    endloop
  endfacet
  facet normal 0.687308 0.191906 0.700557
    outer loop
      vertex -9.66383 -30.3395 3
      vertex -11.1176 -25.1329 3
      vertex -12.7 -22.4 3.80385
    endloop
  endfacet
  facet normal 0.748501 0.223007 0.624511
    outer loop
      vertex -9.38164 -31.2866 3
      vertex -9.66383 -30.3395 3
      vertex -12.7 -22.4 3.80385
    endloop
  endfacet
  facet normal 0.687308 -0.191906 0.700557
    outer loop
      vertex -11.1176 25.1329 3
      vertex -9.66383 30.3395 3
      vertex -12.7 22.4 3.80385
    endloop
  endfacet
  facet normal 0.918145 -0.323921 0.228222
    outer loop
      vertex -2.68116 58.1756 7.40195
      vertex -3.28892 62.3863 15.8234
      vertex -15.7 22.4 9
    endloop
  endfacet
  facet normal -0.918145 -0.323921 0.228222
    outer loop
      vertex 15.7 22.4 9
      vertex 3.28892 62.3863 15.8234
      vertex 2.68116 58.1756 7.40195
    endloop
  endfacet
  facet normal 0.81981 0.563102 0.104057
    outer loop
      vertex -1.21554 -67.1746 25.4
      vertex -3.28892 -62.3863 15.8234
      vertex -3.5 -63.8487 25.4
    endloop
  endfacet
  facet normal -0.944308 0.321551 -0.0699098
    outer loop
      vertex 5.21806 -56.9759 33.8041
      vertex 3.28892 -62.3863 34.9766
      vertex 5.15282 -57.1233 34.0071
    endloop
  endfacet
  facet normal -0.944308 0.32155 -0.0699154
    outer loop
      vertex 3.5 -63.8487 25.4
      vertex 5.21806 -56.9759 33.8041
      vertex 6.82484 -53.0297 30.251
    endloop
  endfacet
  facet normal -0.944308 0.32155 -0.069915
    outer loop
      vertex 3.5 -63.8487 25.4
      vertex 6.82484 -53.0297 30.251
      vertex 8.58731 -48.4311 27.5959
    endloop
  endfacet
  facet normal -0.944308 0.321549 -0.0699152
    outer loop
      vertex 5.21806 -56.9759 33.8041
      vertex 3.5 -63.8487 25.4
      vertex 3.28892 -62.3863 34.9766
    endloop
  endfacet
  facet normal -0.944308 0.32155 -0.0699158
    outer loop
      vertex 10.4284 -43.381 25.9551
      vertex 3.5 -63.8487 25.4
      vertex 8.58731 -48.4311 27.5959
    endloop
  endfacet
  facet normal -0.944308 0.32155 -0.0699133
    outer loop
      vertex 3.5 -63.8487 25.4
      vertex 10.4284 -43.381 25.9551
      vertex 12.2678 -38.1 25.4
    endloop
  endfacet
  facet normal 0.673017 0.462274 0.577366
    outer loop
      vertex -0.931155 -60.7234 7.40195
      vertex -0.703414 -55.557 3
      vertex -1.50782 -54.3859 3
    endloop
  endfacet
  facet normal -0.779797 0.535617 -0.324086
    outer loop
      vertex 2.08695 -61.0082 40.1464
      vertex 1.14223 -65.5117 34.9766
      vertex 0.973987 -61.695 41.6891
    endloop
  endfacet
  facet normal 0 0.985256 -0.171087
    outer loop
      vertex 1.21554 -67.1746 25.4
      vertex -1.14223 -65.5117 34.9766
      vertex 1.14223 -65.5117 34.9766
    endloop
  endfacet
  facet normal 0 0.985256 -0.171087
    outer loop
      vertex -1.14223 -65.5117 34.9766
      vertex 1.21554 -67.1746 25.4
      vertex -1.21554 -67.1746 25.4
    endloop
  endfacet
  facet normal -0.866025 0 0.5
    outer loop
      vertex 12.7 -22.4 3.80385
      vertex 15.7 22.4 9
      vertex 12.7 22.4 3.80385
    endloop
  endfacet
  facet normal -0.866025 0 0.5
    outer loop
      vertex 15.7 22.4 9
      vertex 12.7 -22.4 3.80385
      vertex 15.7 -22.4 9
    endloop
  endfacet
  facet normal -0.687308 -0.191906 0.700557
    outer loop
      vertex 11.1176 25.1329 3
      vertex 12.7 22.4 3.80385
      vertex 9.66383 30.3395 3
    endloop
  endfacet
  facet normal -0.81981 -0.563102 -0.104057
    outer loop
      vertex 1.21554 67.1746 25.4
      vertex 3.5 63.8487 25.4
      vertex 1.14223 65.5117 34.9766
    endloop
  endfacet
  facet normal -0.81981 0.563102 0.104057
    outer loop
      vertex 1.21554 -67.1746 25.4
      vertex 3.5 -63.8487 25.4
      vertex 1.14223 -65.5117 15.8234
    endloop
  endfacet
  facet normal 0.461751 0 0.88701
    outer loop
      vertex -12.7 22.4 3.80385
      vertex -11.1558 -24.7127 3
      vertex -11.1558 24.7127 3
    endloop
  endfacet
  facet normal 0.461751 0 0.88701
    outer loop
      vertex -11.1558 -24.7127 3
      vertex -12.7 22.4 3.80385
      vertex -12.7 -22.4 3.80385
    endloop
  endfacet
  facet normal 0.944308 -0.32155 0.0699151
    outer loop
      vertex -12.2678 38.1 25.4
      vertex -3.28892 62.3863 15.8234
      vertex -3.5 63.8487 25.4
    endloop
  endfacet
  facet normal 0.944308 -0.32155 0.069915
    outer loop
      vertex -3.28892 62.3863 15.8234
      vertex -12.2678 38.1 25.4
      vertex -21.7 10.4 25.4
    endloop
  endfacet
  facet normal 0.944308 -0.321551 -0.0699098
    outer loop
      vertex -5.21806 56.9759 33.8041
      vertex -3.28892 62.3863 34.9766
      vertex -5.15282 57.1233 34.0071
    endloop
  endfacet
  facet normal 0.944308 -0.321549 -0.0699151
    outer loop
      vertex -3.28892 62.3863 34.9766
      vertex -5.21806 56.9759 33.8041
      vertex -3.5 63.8487 25.4
    endloop
  endfacet
  facet normal 0.944308 -0.32155 -0.0699153
    outer loop
      vertex -6.82484 53.0297 30.251
      vertex -3.5 63.8487 25.4
      vertex -5.21806 56.9759 33.8041
    endloop
  endfacet
  facet normal 0.944308 -0.32155 -0.069915
    outer loop
      vertex -8.58731 48.4311 27.5959
      vertex -3.5 63.8487 25.4
      vertex -6.82484 53.0297 30.251
    endloop
  endfacet
  facet normal 0.944308 -0.32155 -0.0699153
    outer loop
      vertex -10.4284 43.381 25.9551
      vertex -3.5 63.8487 25.4
      vertex -8.58731 48.4311 27.5959
    endloop
  endfacet
  facet normal 0.944308 -0.32155 -0.0699133
    outer loop
      vertex -3.5 63.8487 25.4
      vertex -10.4284 43.381 25.9551
      vertex -12.2678 38.1 25.4
    endloop
  endfacet
  facet normal -0.942784 -0.312468 0.116286
    outer loop
      vertex 15.7 22.4 9
      vertex 21.7 10.4 25.4
      vertex 3.28892 62.3863 15.8234
    endloop
  endfacet
  facet normal -0.673017 -0.462274 0.577366
    outer loop
      vertex 1.50782 54.3859 3
      vertex 0.931155 60.7234 7.40195
      vertex 0.703414 55.557 3
    endloop
  endfacet
  facet normal 0.779796 0.535618 0.324086
    outer loop
      vertex -1.14223 -65.5117 15.8234
      vertex -2.68116 -58.1756 7.40195
      vertex -3.28892 -62.3863 15.8234
    endloop
  endfacet
  facet normal 0 0.985256 0.171087
    outer loop
      vertex 1.14223 -65.5117 15.8234
      vertex -1.21554 -67.1746 25.4
      vertex 1.21554 -67.1746 25.4
    endloop
  endfacet
  facet normal 0 0.985256 0.171087
    outer loop
      vertex -1.21554 -67.1746 25.4
      vertex 1.14223 -65.5117 15.8234
      vertex -1.14223 -65.5117 15.8234
    endloop
  endfacet
  facet normal -0.779796 0.535618 0.324086
    outer loop
      vertex 1.14223 -65.5117 15.8234
      vertex 2.68116 -58.1756 7.40195
      vertex 0.931155 -60.7234 7.40195
    endloop
  endfacet
  facet normal -0.854963 0.291974 0.428706
    outer loop
      vertex 2.68116 -58.1756 7.40195
      vertex 5.03583 -44.8172 3
      vertex 2.0254 -53.6324 3
    endloop
  endfacet
  facet normal -0.854963 0.291974 0.428706
    outer loop
      vertex 5.03583 -44.8172 3
      vertex 2.68116 -58.1756 7.40195
      vertex 15.7 -22.4 9
    endloop
  endfacet
  facet normal 0.81981 0.563102 0.104057
    outer loop
      vertex -1.21554 -67.1746 25.4
      vertex -1.14223 -65.5117 15.8234
      vertex -3.28892 -62.3863 15.8234
    endloop
  endfacet
  facet normal 0 0.869308 -0.49427
    outer loop
      vertex 1.14223 -65.5117 34.9766
      vertex -0.973987 -61.695 41.6891
      vertex 0.973987 -61.695 41.6891
    endloop
  endfacet
  facet normal 0 0.869308 -0.49427
    outer loop
      vertex -0.973987 -61.695 41.6891
      vertex 1.14223 -65.5117 34.9766
      vertex -1.14223 -65.5117 34.9766
    endloop
  endfacet
  facet normal 0.81981 0.563102 -0.104057
    outer loop
      vertex -1.14223 -65.5117 34.9766
      vertex -1.21554 -67.1746 25.4
      vertex -3.28892 -62.3863 34.9766
    endloop
  endfacet
  facet normal -0.687308 0.191906 0.700557
    outer loop
      vertex 12.7 -22.4 3.80385
      vertex 11.1176 -25.1329 3
      vertex 9.66383 -30.3395 3
    endloop
  endfacet
  facet normal -0.486742 -0.0214578 0.873282
    outer loop
      vertex 11.1558 24.7127 3
      vertex 12.7 22.4 3.80385
      vertex 11.146 24.9363 3
    endloop
  endfacet
  facet normal -0.83435 -0.267981 0.481712
    outer loop
      vertex 15.7 22.4 9
      vertex 9.38164 31.2866 3
      vertex 12.7 22.4 3.80385
    endloop
  endfacet
  facet normal -0.83435 -0.267981 0.481712
    outer loop
      vertex 9.38164 31.2866 3
      vertex 15.7 22.4 9
      vertex 5.03583 44.8172 3
    endloop
  endfacet
  facet normal -0.673017 0.462274 0.577366
    outer loop
      vertex 0.931155 -60.7234 7.40195
      vertex 1.50782 -54.3859 3
      vertex 0.703414 -55.557 3
    endloop
  endfacet
  facet normal 0.486742 0.0214578 0.873282
    outer loop
      vertex -11.146 -24.9363 3
      vertex -11.1558 -24.7127 3
      vertex -12.7 -22.4 3.80385
    endloop
  endfacet
  facet normal 0.779796 -0.535618 0.324086
    outer loop
      vertex -2.68116 58.1756 7.40195
      vertex -1.14223 65.5117 15.8234
      vertex -3.28892 62.3863 15.8234
    endloop
  endfacet
  facet normal 0.558597 -0.0806259 0.825511
    outer loop
      vertex -11.146 24.9363 3
      vertex -11.1176 25.1329 3
      vertex -12.7 22.4 3.80385
    endloop
  endfacet
  facet normal -0.918145 0.323921 0.228222
    outer loop
      vertex 3.28892 -62.3863 15.8234
      vertex 15.7 -22.4 9
      vertex 2.68116 -58.1756 7.40195
    endloop
  endfacet
  facet normal -0.942784 0.312468 0.116286
    outer loop
      vertex 21.7 -10.4 25.4
      vertex 15.7 -22.4 9
      vertex 3.28892 -62.3863 15.8234
    endloop
  endfacet
  facet normal -0.81981 0.563102 -0.104057
    outer loop
      vertex 3.5 -63.8487 25.4
      vertex 1.21554 -67.1746 25.4
      vertex 1.14223 -65.5117 34.9766
    endloop
  endfacet
  facet normal 0.81981 0.563102 -0.104057
    outer loop
      vertex -3.28892 -62.3863 34.9766
      vertex -1.21554 -67.1746 25.4
      vertex -3.5 -63.8487 25.4
    endloop
  endfacet
  facet normal -0.81981 0.563102 -0.104057
    outer loop
      vertex 3.28892 -62.3863 34.9766
      vertex 3.5 -63.8487 25.4
      vertex 1.14223 -65.5117 34.9766
    endloop
  endfacet
  facet normal -0.779796 0.535618 -0.324086
    outer loop
      vertex 3.28892 -62.3863 34.9766
      vertex 2.08695 -61.0082 40.1464
      vertex 3.00796 -60.4398 38.8697
    endloop
  endfacet
  facet normal -0.779796 0.535618 -0.324086
    outer loop
      vertex 2.08695 -61.0082 40.1464
      vertex 3.28892 -62.3863 34.9766
      vertex 1.14223 -65.5117 34.9766
    endloop
  endfacet
  facet normal -0.461751 0 0.88701
    outer loop
      vertex 11.1558 24.7127 3
      vertex 12.7 -22.4 3.80385
      vertex 12.7 22.4 3.80385
    endloop
  endfacet
  facet normal -0.461751 0 0.88701
    outer loop
      vertex 12.7 -22.4 3.80385
      vertex 11.1558 24.7127 3
      vertex 11.1558 -24.7127 3
    endloop
  endfacet
  facet normal -0.748501 -0.223007 0.624511
    outer loop
      vertex 9.66383 30.3395 3
      vertex 12.7 22.4 3.80385
      vertex 9.38164 31.2866 3
    endloop
  endfacet
  facet normal -0.558597 -0.0806259 0.825511
    outer loop
      vertex 11.146 24.9363 3
      vertex 12.7 22.4 3.80385
      vertex 11.1176 25.1329 3
    endloop
  endfacet
  facet normal 0.748501 -0.223007 0.624511
    outer loop
      vertex -9.66383 30.3395 3
      vertex -9.38164 31.2866 3
      vertex -12.7 22.4 3.80385
    endloop
  endfacet
  facet normal 0.83435 -0.267981 0.481712
    outer loop
      vertex -15.7 22.4 9
      vertex -9.38164 31.2866 3
      vertex -5.03583 44.8172 3
    endloop
  endfacet
  facet normal 0.83435 -0.267981 0.481712
    outer loop
      vertex -9.38164 31.2866 3
      vertex -15.7 22.4 9
      vertex -12.7 22.4 3.80385
    endloop
  endfacet
  facet normal 0.779796 0.535618 0.324086
    outer loop
      vertex -1.14223 -65.5117 15.8234
      vertex -0.931155 -60.7234 7.40195
      vertex -2.68116 -58.1756 7.40195
    endloop
  endfacet
  facet normal 0.673015 0.462274 0.577367
    outer loop
      vertex -2.68116 -58.1756 7.40195
      vertex -1.50782 -54.3859 3
      vertex -2.0254 -53.6324 3
    endloop
  endfacet
  facet normal 0.673016 0.462274 0.577367
    outer loop
      vertex -1.50782 -54.3859 3
      vertex -2.68116 -58.1756 7.40195
      vertex -0.931155 -60.7234 7.40195
    endloop
  endfacet
  facet normal -0.944308 -0.321549 -0.0699152
    outer loop
      vertex 5.21806 56.9759 33.8041
      vertex 3.28892 62.3863 34.9766
      vertex 3.5 63.8487 25.4
    endloop
  endfacet
  facet normal -0.944308 -0.321551 -0.0699098
    outer loop
      vertex 3.28892 62.3863 34.9766
      vertex 5.21806 56.9759 33.8041
      vertex 5.15282 57.1233 34.0071
    endloop
  endfacet
  facet normal -0.944308 -0.32155 -0.0699154
    outer loop
      vertex 3.5 63.8487 25.4
      vertex 6.82484 53.0297 30.251
      vertex 5.21806 56.9759 33.8041
    endloop
  endfacet
  facet normal -0.944308 -0.32155 -0.069915
    outer loop
      vertex 3.5 63.8487 25.4
      vertex 8.58731 48.4311 27.5959
      vertex 6.82484 53.0297 30.251
    endloop
  endfacet
  facet normal -0.944308 -0.32155 -0.0699158
    outer loop
      vertex 3.5 63.8487 25.4
      vertex 10.4284 43.381 25.9551
      vertex 8.58731 48.4311 27.5959
    endloop
  endfacet
  facet normal -0.944308 -0.32155 -0.0699133
    outer loop
      vertex 10.4284 43.381 25.9551
      vertex 3.5 63.8487 25.4
      vertex 12.2678 38.1 25.4
    endloop
  endfacet
  facet normal -0.779796 -0.535618 0.324086
    outer loop
      vertex 2.68116 58.1756 7.40195
      vertex 3.28892 62.3863 15.8234
      vertex 1.14223 65.5117 15.8234
    endloop
  endfacet
  facet normal 0.81981 -0.563102 0.104057
    outer loop
      vertex -1.14223 65.5117 15.8234
      vertex -1.21554 67.1746 25.4
      vertex -3.28892 62.3863 15.8234
    endloop
  endfacet
  facet normal 0.81981 -0.563102 -0.104057
    outer loop
      vertex -1.21554 67.1746 25.4
      vertex -1.14223 65.5117 34.9766
      vertex -3.28892 62.3863 34.9766
    endloop
  endfacet
  facet normal 0.486742 -0.0214578 0.873282
    outer loop
      vertex -11.1558 24.7127 3
      vertex -11.146 24.9363 3
      vertex -12.7 22.4 3.80385
    endloop
  endfacet
  facet normal -0.779796 0.535618 0.324086
    outer loop
      vertex 3.28892 -62.3863 15.8234
      vertex 2.68116 -58.1756 7.40195
      vertex 1.14223 -65.5117 15.8234
    endloop
  endfacet
  facet normal -0.81981 0.563102 0.104057
    outer loop
      vertex 3.5 -63.8487 25.4
      vertex 3.28892 -62.3863 15.8234
      vertex 1.14223 -65.5117 15.8234
    endloop
  endfacet
  facet normal 0.779797 0.535617 -0.324086
    outer loop
      vertex -0.973987 -61.695 41.6891
      vertex -1.14223 -65.5117 34.9766
      vertex -2.08695 -61.0082 40.1464
    endloop
  endfacet
  facet normal 0.779796 0.535618 -0.324086
    outer loop
      vertex -2.08695 -61.0082 40.1464
      vertex -3.28892 -62.3863 34.9766
      vertex -3.00796 -60.4398 38.8697
    endloop
  endfacet
  facet normal 0.779796 0.535618 -0.324086
    outer loop
      vertex -3.28892 -62.3863 34.9766
      vertex -2.08695 -61.0082 40.1464
      vertex -1.14223 -65.5117 34.9766
    endloop
  endfacet
  facet normal -0.486742 0.0214578 0.873282
    outer loop
      vertex 12.7 -22.4 3.80385
      vertex 11.1558 -24.7127 3
      vertex 11.146 -24.9363 3
    endloop
  endfacet
  facet normal 0 -0.648551 0.761171
    outer loop
      vertex 0.931155 60.7234 7.40195
      vertex -0.703414 55.557 3
      vertex 0.703414 55.557 3
    endloop
  endfacet
  facet normal 0 -0.648551 0.761171
    outer loop
      vertex -0.703414 55.557 3
      vertex 0.931155 60.7234 7.40195
      vertex -0.931155 60.7234 7.40195
    endloop
  endfacet
  facet normal 0.779797 -0.535617 -0.324086
    outer loop
      vertex -1.14223 65.5117 34.9766
      vertex -0.973987 61.695 41.6891
      vertex -2.08695 61.0082 40.1464
    endloop
  endfacet
  facet normal 0 -0.869308 -0.49427
    outer loop
      vertex -1.14223 65.5117 34.9766
      vertex 0.973987 61.695 41.6891
      vertex -0.973987 61.695 41.6891
    endloop
  endfacet
  facet normal 0 -0.869308 -0.49427
    outer loop
      vertex 0.973987 61.695 41.6891
      vertex -1.14223 65.5117 34.9766
      vertex 1.14223 65.5117 34.9766
    endloop
  endfacet
  facet normal 0 -0.985256 0.171087
    outer loop
      vertex -1.14223 65.5117 15.8234
      vertex 1.21554 67.1746 25.4
      vertex -1.21554 67.1746 25.4
    endloop
  endfacet
  facet normal 0 -0.985256 0.171087
    outer loop
      vertex 1.21554 67.1746 25.4
      vertex -1.14223 65.5117 15.8234
      vertex 1.14223 65.5117 15.8234
    endloop
  endfacet
  facet normal 0 -0.869308 0.494271
    outer loop
      vertex -0.931155 60.7234 7.40195
      vertex 1.14223 65.5117 15.8234
      vertex -1.14223 65.5117 15.8234
    endloop
  endfacet
  facet normal 0 -0.869308 0.494271
    outer loop
      vertex 1.14223 65.5117 15.8234
      vertex -0.931155 60.7234 7.40195
      vertex 0.931155 60.7234 7.40195
    endloop
  endfacet
  facet normal -0.779796 -0.535618 0.324086
    outer loop
      vertex 2.68116 58.1756 7.40195
      vertex 1.14223 65.5117 15.8234
      vertex 0.931155 60.7234 7.40195
    endloop
  endfacet
  facet normal 0 -0.985256 -0.171087
    outer loop
      vertex -1.21554 67.1746 25.4
      vertex 1.14223 65.5117 34.9766
      vertex -1.14223 65.5117 34.9766
    endloop
  endfacet
  facet normal 0 -0.985256 -0.171087
    outer loop
      vertex 1.14223 65.5117 34.9766
      vertex -1.21554 67.1746 25.4
      vertex 1.21554 67.1746 25.4
    endloop
  endfacet
  facet normal 0.673017 -0.462274 0.577366
    outer loop
      vertex -0.703414 55.557 3
      vertex -0.931155 60.7234 7.40195
      vertex -1.50782 54.3859 3
    endloop
  endfacet
  facet normal 0.673016 -0.462274 0.577367
    outer loop
      vertex -2.68116 58.1756 7.40195
      vertex -1.50782 54.3859 3
      vertex -0.931155 60.7234 7.40195
    endloop
  endfacet
  facet normal 0.673015 -0.462274 0.577367
    outer loop
      vertex -1.50782 54.3859 3
      vertex -2.68116 58.1756 7.40195
      vertex -2.0254 53.6324 3
    endloop
  endfacet
  facet normal -0.673016 -0.462274 0.577367
    outer loop
      vertex 1.50782 54.3859 3
      vertex 2.68116 58.1756 7.40195
      vertex 0.931155 60.7234 7.40195
    endloop
  endfacet
  facet normal -0.673015 -0.462274 0.577367
    outer loop
      vertex 2.68116 58.1756 7.40195
      vertex 1.50782 54.3859 3
      vertex 2.0254 53.6324 3
    endloop
  endfacet
  facet normal 0.81981 -0.563102 0.104057
    outer loop
      vertex -3.28892 62.3863 15.8234
      vertex -1.21554 67.1746 25.4
      vertex -3.5 63.8487 25.4
    endloop
  endfacet
  facet normal 0.81981 -0.563102 -0.104057
    outer loop
      vertex -1.21554 67.1746 25.4
      vertex -3.28892 62.3863 34.9766
      vertex -3.5 63.8487 25.4
    endloop
  endfacet
  facet normal -0.81981 -0.563102 0.104057
    outer loop
      vertex 3.5 63.8487 25.4
      vertex 1.21554 67.1746 25.4
      vertex 1.14223 65.5117 15.8234
    endloop
  endfacet
  facet normal -0.779797 -0.535617 -0.324086
    outer loop
      vertex 1.14223 65.5117 34.9766
      vertex 2.08695 61.0082 40.1464
      vertex 0.973987 61.695 41.6891
    endloop
  endfacet
  facet normal -0.932708 -0.291108 -0.212866
    outer loop
      vertex 3.28892 62.3863 34.9766
      vertex 3.29059 60.097 38.1
      vertex 3.00796 60.4398 38.8697
    endloop
  endfacet
  facet normal -0.932708 -0.291108 -0.212866
    outer loop
      vertex 3.29059 60.097 38.1
      vertex 3.28892 62.3863 34.9766
      vertex 5.15282 57.1233 34.0071
    endloop
  endfacet
  facet normal -0.81981 -0.563102 0.104057
    outer loop
      vertex 3.28892 62.3863 15.8234
      vertex 3.5 63.8487 25.4
      vertex 1.14223 65.5117 15.8234
    endloop
  endfacet
  facet normal -0.944308 -0.32155 0.0699152
    outer loop
      vertex 3.28892 62.3863 15.8234
      vertex 12.2678 38.1 25.4
      vertex 3.5 63.8487 25.4
    endloop
  endfacet
  facet normal -0.944308 -0.32155 0.0699152
    outer loop
      vertex 12.2678 38.1 25.4
      vertex 3.28892 62.3863 15.8234
      vertex 21.7 10.4 25.4
    endloop
  endfacet
  facet normal -0.779796 -0.535618 -0.324086
    outer loop
      vertex 3.28892 62.3863 34.9766
      vertex 2.08695 61.0082 40.1464
      vertex 1.14223 65.5117 34.9766
    endloop
  endfacet
  facet normal -0.779796 -0.535618 -0.324086
    outer loop
      vertex 2.08695 61.0082 40.1464
      vertex 3.28892 62.3863 34.9766
      vertex 3.00796 60.4398 38.8697
    endloop
  endfacet
  facet normal -0.81981 -0.563102 -0.104057
    outer loop
      vertex 3.5 63.8487 25.4
      vertex 3.28892 62.3863 34.9766
      vertex 1.14223 65.5117 34.9766
    endloop
  endfacet
  facet normal 0 0 1
    outer loop
      vertex 11.1176 25.1329 3
      vertex 11.1558 24.7127 3
      vertex 11.146 24.9363 3
    endloop
  endfacet
  facet normal 0 0 1
    outer loop
      vertex 11.1558 24.7127 3
      vertex -11.1558 24.7127 3
      vertex 11.1558 -24.7127 3
    endloop
  endfacet
  facet normal 0 0 1
    outer loop
      vertex 11.1558 24.7127 3
      vertex 11.1176 25.1329 3
      vertex -11.1558 24.7127 3
    endloop
  endfacet
  facet normal 0 0 1
    outer loop
      vertex -11.1558 -24.7127 3
      vertex 11.1558 -24.7127 3
      vertex -11.1558 24.7127 3
    endloop
  endfacet
  facet normal 0 0 1
    outer loop
      vertex -11.1176 25.1329 3
      vertex 11.1176 25.1329 3
      vertex 9.66383 30.3395 3
    endloop
  endfacet
  facet normal 0 -0 1
    outer loop
      vertex 11.1176 -25.1329 3
      vertex 11.1558 -24.7127 3
      vertex -11.1558 -24.7127 3
    endloop
  endfacet
  facet normal 0 0 1
    outer loop
      vertex -9.66383 30.3395 3
      vertex 9.66383 30.3395 3
      vertex 9.38164 31.2866 3
    endloop
  endfacet
  facet normal 0 0 1
    outer loop
      vertex 11.1558 -24.7127 3
      vertex 11.1176 -25.1329 3
      vertex 11.146 -24.9363 3
    endloop
  endfacet
  facet normal 0 0 1
    outer loop
      vertex -9.38164 31.2866 3
      vertex 9.38164 31.2866 3
      vertex 5.03583 44.8172 3
    endloop
  endfacet
  facet normal 0 -0 1
    outer loop
      vertex -11.1176 -25.1329 3
      vertex 11.1176 -25.1329 3
      vertex -11.1558 -24.7127 3
    endloop
  endfacet
  facet normal 0 0 1
    outer loop
      vertex -5.03583 44.8172 3
      vertex 5.03583 44.8172 3
      vertex 2.0254 53.6324 3
    endloop
  endfacet
  facet normal 0 0 1
    outer loop
      vertex 11.1176 -25.1329 3
      vertex -11.1176 -25.1329 3
      vertex 9.66383 -30.3395 3
    endloop
  endfacet
  facet normal 0 0 1
    outer loop
      vertex -2.0254 53.6324 3
      vertex 2.0254 53.6324 3
      vertex 1.50782 54.3859 3
    endloop
  endfacet
  facet normal 0 -0 1
    outer loop
      vertex -9.66383 -30.3395 3
      vertex 9.66383 -30.3395 3
      vertex -11.1176 -25.1329 3
    endloop
  endfacet
  facet normal 0 0 1
    outer loop
      vertex -1.50782 54.3859 3
      vertex 1.50782 54.3859 3
      vertex 0.703414 55.557 3
    endloop
  endfacet
  facet normal 0 0 1
    outer loop
      vertex 9.38164 31.2866 3
      vertex -9.38164 31.2866 3
      vertex -9.66383 30.3395 3
    endloop
  endfacet
  facet normal 0 0 1
    outer loop
      vertex -1.50782 54.3859 3
      vertex 0.703414 55.557 3
      vertex -0.703414 55.557 3
    endloop
  endfacet
  facet normal 0 0 1
    outer loop
      vertex 5.03583 44.8172 3
      vertex -5.03583 44.8172 3
      vertex -9.38164 31.2866 3
    endloop
  endfacet
  facet normal 0 0 1
    outer loop
      vertex 1.50782 54.3859 3
      vertex -1.50782 54.3859 3
      vertex -2.0254 53.6324 3
    endloop
  endfacet
  facet normal 0 0 1
    outer loop
      vertex 9.66383 30.3395 3
      vertex -9.66383 30.3395 3
      vertex -11.1176 25.1329 3
    endloop
  endfacet
  facet normal 0 0 1
    outer loop
      vertex 2.0254 53.6324 3
      vertex -2.0254 53.6324 3
      vertex -5.03583 44.8172 3
    endloop
  endfacet
  facet normal 0 -0 1
    outer loop
      vertex -1.50782 -54.3859 3
      vertex 1.50782 -54.3859 3
      vertex -2.0254 -53.6324 3
    endloop
  endfacet
  facet normal 0 0 1
    outer loop
      vertex 0.703414 -55.557 3
      vertex -1.50782 -54.3859 3
      vertex -0.703414 -55.557 3
    endloop
  endfacet
  facet normal 0 0 1
    outer loop
      vertex 1.50782 -54.3859 3
      vertex -1.50782 -54.3859 3
      vertex 0.703414 -55.557 3
    endloop
  endfacet
  facet normal 0 -0 1
    outer loop
      vertex -2.0254 -53.6324 3
      vertex 2.0254 -53.6324 3
      vertex -5.03583 -44.8172 3
    endloop
  endfacet
  facet normal 0 0 1
    outer loop
      vertex 2.0254 -53.6324 3
      vertex -2.0254 -53.6324 3
      vertex 1.50782 -54.3859 3
    endloop
  endfacet
  facet normal 0 -0 1
    outer loop
      vertex -9.38164 -31.2866 3
      vertex 9.38164 -31.2866 3
      vertex -9.66383 -30.3395 3
    endloop
  endfacet
  facet normal 0 0 1
    outer loop
      vertex 5.03583 -44.8172 3
      vertex -5.03583 -44.8172 3
      vertex 2.0254 -53.6324 3
    endloop
  endfacet
  facet normal 0 0 1
    outer loop
      vertex 11.1176 25.1329 3
      vertex -11.1176 25.1329 3
      vertex -11.1558 24.7127 3
    endloop
  endfacet
  facet normal 0 0 1
    outer loop
      vertex 9.38164 -31.2866 3
      vertex -9.38164 -31.2866 3
      vertex 5.03583 -44.8172 3
    endloop
  endfacet
  facet normal 0 0 1
    outer loop
      vertex -11.1558 24.7127 3
      vertex -11.1176 25.1329 3
      vertex -11.146 24.9363 3
    endloop
  endfacet
  facet normal 0 -0 1
    outer loop
      vertex -5.03583 -44.8172 3
      vertex 5.03583 -44.8172 3
      vertex -9.38164 -31.2866 3
    endloop
  endfacet
  facet normal 0 0 1
    outer loop
      vertex 9.66383 -30.3395 3
      vertex -9.66383 -30.3395 3
      vertex 9.38164 -31.2866 3
    endloop
  endfacet
  facet normal 0 0 1
    outer loop
      vertex -11.1176 -25.1329 3
      vertex -11.1558 -24.7127 3
      vertex -11.146 -24.9363 3
    endloop
  endfacet
  facet normal 0.939401 -0.332085 -0.0851231
    outer loop
      vertex 24.7 -7.4 25.4
      vertex 3.7294 -63.9381 14.5409
      vertex 18.7 -19.4 6
    endloop
  endfacet
  facet normal 0.905195 -0.350387 -0.24052
    outer loop
      vertex 3.7294 -63.9381 14.5409
      vertex 3.04024 -59.1634 4.99149
      vertex 18.7 -19.4 6
    endloop
  endfacet
  facet normal -0.673016 0.462274 -0.577366
    outer loop
      vertex -0.797621 56.1941 0
      vertex -3.04024 59.1634 4.99149
      vertex -1.05586 62.0524 4.99149
    endloop
  endfacet
  facet normal -0.673016 0.462274 -0.577367
    outer loop
      vertex -3.04024 59.1634 4.99149
      vertex -0.797621 56.1941 0
      vertex -1.38453 55.3397 0
    endloop
  endfacet
  facet normal -0.779796 0.535618 0.324086
    outer loop
      vertex -3.7294 63.9381 36.2591
      vertex -2.4021 62.2054 42.3164
      vertex -1.29521 67.482 36.2591
    endloop
  endfacet
  facet normal -0.779796 0.535618 0.324086
    outer loop
      vertex -3.37356 61.4727 41.1898
      vertex -2.4021 62.2054 42.3164
      vertex -3.7294 63.9381 36.2591
    endloop
  endfacet
  facet normal -0.779795 0.535619 0.324085
    outer loop
      vertex -2.4021 62.2054 42.3164
      vertex -3.37356 61.4727 41.1898
      vertex -2.56084 61.9743 42.3164
    endloop
  endfacet
  facet normal 0.673016 0.462274 -0.577366
    outer loop
      vertex 3.04024 59.1634 4.99149
      vertex 0.797621 56.1941 0
      vertex 1.05586 62.0524 4.99149
    endloop
  endfacet
  facet normal 0.673016 0.462274 -0.577367
    outer loop
      vertex 0.797621 56.1941 0
      vertex 3.04024 59.1634 4.99149
      vertex 1.38453 55.3397 0
    endloop
  endfacet
  facet normal 0.502654 -0.0725529 -0.861438
    outer loop
      vertex 15.7 -19.4 0.803848
      vertex 13.9355 -22.0802 0
      vertex 13.9644 -21.8804 0
    endloop
  endfacet
  facet normal 0.955352 0 -0.29547
    outer loop
      vertex 24.7 -7.4 25.4
      vertex 18.7 19.4 6
      vertex 24.7 7.4 25.4
    endloop
  endfacet
  facet normal 0.955352 0 -0.29547
    outer loop
      vertex 18.7 19.4 6
      vertex 24.7 -7.4 25.4
      vertex 18.7 -19.4 6
    endloop
  endfacet
  facet normal 0 -0.648551 -0.761171
    outer loop
      vertex 1.05586 -62.0524 4.99149
      vertex -0.797621 -56.1941 0
      vertex 0.797621 -56.1941 0
    endloop
  endfacet
  facet normal 0 -0.648551 -0.761171
    outer loop
      vertex -0.797621 -56.1941 0
      vertex 1.05586 -62.0524 4.99149
      vertex -1.05586 -62.0524 4.99149
    endloop
  endfacet
  facet normal -0.939581 -0.334707 0.0718189
    outer loop
      vertex -6.39721 -56.9759 33.8041
      vertex -3.7294 -63.9381 36.2591
      vertex -5.96167 -57.9198 35.1032
    endloop
  endfacet
  facet normal -0.939581 -0.334707 0.0718204
    outer loop
      vertex -3.96875 -65.5963 25.4
      vertex -6.39721 -56.9759 33.8041
      vertex -8.07453 -53.0297 30.251
    endloop
  endfacet
  facet normal -0.939581 -0.334707 0.0718199
    outer loop
      vertex -3.96875 -65.5963 25.4
      vertex -8.07453 -53.0297 30.251
      vertex -9.91565 -48.4311 27.5959
    endloop
  endfacet
  facet normal -0.939581 -0.334707 0.0718201
    outer loop
      vertex -6.39721 -56.9759 33.8041
      vertex -3.96875 -65.5963 25.4
      vertex -3.7294 -63.9381 36.2591
    endloop
  endfacet
  facet normal -0.939581 -0.334707 0.0718201
    outer loop
      vertex -11.8401 -43.381 25.9551
      vertex -3.96875 -65.5963 25.4
      vertex -9.91565 -48.4311 27.5959
    endloop
  endfacet
  facet normal -0.939581 -0.334707 0.071819
    outer loop
      vertex -3.96875 -65.5963 25.4
      vertex -11.8401 -43.381 25.9551
      vertex -13.7637 -38.1 25.4
    endloop
  endfacet
  facet normal 0.673016 -0.462274 -0.577366
    outer loop
      vertex 3.04024 -59.1634 4.99149
      vertex 1.38453 -55.3397 0
      vertex 2.29666 -54.0117 0
    endloop
  endfacet
  facet normal 0.824494 -0.305962 -0.476022
    outer loop
      vertex 18.7 -19.4 6
      vertex 11.8984 -28.3938 0
      vertex 15.7 -19.4 0.803848
    endloop
  endfacet
  facet normal 0.824494 -0.305962 -0.476022
    outer loop
      vertex 11.8984 -28.3938 0
      vertex 18.7 -19.4 6
      vertex 6.31241 -43.4466 0
    endloop
  endfacet
  facet normal -0.779796 0.535618 -0.324086
    outer loop
      vertex -3.04024 59.1634 4.99149
      vertex -3.7294 63.9381 14.5409
      vertex -1.29521 67.482 14.5409
    endloop
  endfacet
  facet normal 0 0.869308 0.494271
    outer loop
      vertex 1.29521 67.482 36.2591
      vertex -1.14339 64.0379 42.3164
      vertex 1.14339 64.0379 42.3164
    endloop
  endfacet
  facet normal 0 0.869308 0.494271
    outer loop
      vertex -1.14339 64.0379 42.3164
      vertex 1.29521 67.482 36.2591
      vertex -1.29521 67.482 36.2591
    endloop
  endfacet
  facet normal -0.939581 0.334707 -0.0718201
    outer loop
      vertex -3.7294 63.9381 14.5409
      vertex -13.7637 38.1 25.4
      vertex -3.96875 65.5963 25.4
    endloop
  endfacet
  facet normal -0.939581 0.334707 -0.07182
    outer loop
      vertex -13.7637 38.1 25.4
      vertex -3.7294 63.9381 14.5409
      vertex -24.7 7.4 25.4
    endloop
  endfacet
  facet normal 0.81981 -0.563102 -0.104057
    outer loop
      vertex 1.37833 -69.3676 25.4
      vertex 1.29521 -67.482 14.5409
      vertex 3.7294 -63.9381 14.5409
    endloop
  endfacet
  facet normal 0 -0.869308 -0.494271
    outer loop
      vertex -1.05586 -62.0524 4.99149
      vertex 1.29521 -67.482 14.5409
      vertex -1.29521 -67.482 14.5409
    endloop
  endfacet
  facet normal 0 -0.869308 -0.494271
    outer loop
      vertex 1.29521 -67.482 14.5409
      vertex -1.05586 -62.0524 4.99149
      vertex 1.05586 -62.0524 4.99149
    endloop
  endfacet
  facet normal 0.81981 -0.563102 0.104057
    outer loop
      vertex 3.7294 -63.9381 36.2591
      vertex 1.29521 -67.482 36.2591
      vertex 1.37833 -69.3676 25.4
    endloop
  endfacet
  facet normal 0.834076 -0.317029 -0.451453
    outer loop
      vertex 3.04024 -59.1634 4.99149
      vertex 6.31241 -43.4466 0
      vertex 18.7 -19.4 6
    endloop
  endfacet
  facet normal 0.834076 -0.317029 -0.451453
    outer loop
      vertex 6.31241 -43.4466 0
      vertex 3.04024 -59.1634 4.99149
      vertex 2.29666 -54.0117 0
    endloop
  endfacet
  facet normal 0.866025 0 -0.5
    outer loop
      vertex 18.7 -19.4 6
      vertex 15.7 19.4 0.803848
      vertex 18.7 19.4 6
    endloop
  endfacet
  facet normal 0.866025 0 -0.5
    outer loop
      vertex 15.7 19.4 0.803848
      vertex 18.7 -19.4 6
      vertex 15.7 -19.4 0.803848
    endloop
  endfacet
  facet normal -0.866025 0 -0.5
    outer loop
      vertex -15.7 -19.4 0.803848
      vertex -18.7 19.4 6
      vertex -15.7 19.4 0.803848
    endloop
  endfacet
  facet normal -0.866025 -0 -0.5
    outer loop
      vertex -18.7 19.4 6
      vertex -15.7 -19.4 0.803848
      vertex -18.7 -19.4 6
    endloop
  endfacet
  facet normal 0.443023 0.019529 -0.896297
    outer loop
      vertex 13.9744 21.6532 0
      vertex 13.9644 21.8804 0
      vertex 15.7 19.4 0.803848
    endloop
  endfacet
  facet normal 0.834076 0.317029 -0.451453
    outer loop
      vertex 3.04024 59.1634 4.99149
      vertex 6.31241 43.4466 0
      vertex 2.29666 54.0117 0
    endloop
  endfacet
  facet normal 0.834076 0.317029 -0.451453
    outer loop
      vertex 6.31241 43.4466 0
      vertex 3.04024 59.1634 4.99149
      vertex 18.7 19.4 6
    endloop
  endfacet
  facet normal 0.824494 0.305962 -0.476022
    outer loop
      vertex 18.7 19.4 6
      vertex 11.8984 28.3938 0
      vertex 6.31241 43.4466 0
    endloop
  endfacet
  facet normal 0.824494 0.305962 -0.476022
    outer loop
      vertex 11.8984 28.3938 0
      vertex 18.7 19.4 6
      vertex 15.7 19.4 0.803848
    endloop
  endfacet
  facet normal -0.81981 0.563102 0.104057
    outer loop
      vertex -1.37833 69.3676 25.4
      vertex -3.7294 63.9381 36.2591
      vertex -1.29521 67.482 36.2591
    endloop
  endfacet
  facet normal -0.824494 0.305962 -0.476022
    outer loop
      vertex -18.7 19.4 6
      vertex -11.8984 28.3938 0
      vertex -15.7 19.4 0.803848
    endloop
  endfacet
  facet normal -0.824494 0.305962 -0.476022
    outer loop
      vertex -11.8984 28.3938 0
      vertex -18.7 19.4 6
      vertex -6.31241 43.4466 0
    endloop
  endfacet
  facet normal 0 0.985256 -0.171088
    outer loop
      vertex 1.29521 67.482 14.5409
      vertex -1.37833 69.3676 25.4
      vertex 1.37833 69.3676 25.4
    endloop
  endfacet
  facet normal 0 0.985256 -0.171088
    outer loop
      vertex -1.37833 69.3676 25.4
      vertex 1.29521 67.482 14.5409
      vertex -1.29521 67.482 14.5409
    endloop
  endfacet
  facet normal 0 -0.985256 -0.171088
    outer loop
      vertex -1.29521 -67.482 14.5409
      vertex 1.37833 -69.3676 25.4
      vertex -1.37833 -69.3676 25.4
    endloop
  endfacet
  facet normal 0 -0.985256 -0.171088
    outer loop
      vertex 1.37833 -69.3676 25.4
      vertex -1.29521 -67.482 14.5409
      vertex 1.29521 -67.482 14.5409
    endloop
  endfacet
  facet normal -0.955352 0 -0.29547
    outer loop
      vertex -18.7 19.4 6
      vertex -24.7 -7.4 25.4
      vertex -24.7 7.4 25.4
    endloop
  endfacet
  facet normal -0.955352 0 -0.29547
    outer loop
      vertex -24.7 -7.4 25.4
      vertex -18.7 19.4 6
      vertex -18.7 -19.4 6
    endloop
  endfacet
  facet normal -0.927928 -0.302287 0.218111
    outer loop
      vertex -4.54798 -60.097 38.1
      vertex -3.7294 -63.9381 36.2591
      vertex -3.37356 -61.4727 41.1898
    endloop
  endfacet
  facet normal -0.927928 -0.302287 0.218111
    outer loop
      vertex -3.7294 -63.9381 36.2591
      vertex -4.54798 -60.097 38.1
      vertex -5.96167 -57.9198 35.1032
    endloop
  endfacet
  facet normal 0.939581 -0.334707 0.0718189
    outer loop
      vertex 3.7294 -63.9381 36.2591
      vertex 6.39721 -56.9759 33.8041
      vertex 5.96167 -57.9198 35.1032
    endloop
  endfacet
  facet normal 0.939581 -0.334707 0.0718202
    outer loop
      vertex 3.96875 -65.5963 25.4
      vertex 6.39721 -56.9759 33.8041
      vertex 3.7294 -63.9381 36.2591
    endloop
  endfacet
  facet normal 0.939581 -0.334707 0.0718205
    outer loop
      vertex 6.39721 -56.9759 33.8041
      vertex 3.96875 -65.5963 25.4
      vertex 8.07453 -53.0297 30.251
    endloop
  endfacet
  facet normal 0.939582 -0.334707 0.0718178
    outer loop
      vertex 11.8401 -43.381 25.9551
      vertex 3.96875 -65.5963 25.4
      vertex 13.7637 -38.1 25.4
    endloop
  endfacet
  facet normal 0.939581 -0.334707 0.0718206
    outer loop
      vertex 9.91565 -48.4311 27.5959
      vertex 3.96875 -65.5963 25.4
      vertex 11.8401 -43.381 25.9551
    endloop
  endfacet
  facet normal 0.939581 -0.334707 0.07182
    outer loop
      vertex 8.07453 -53.0297 30.251
      vertex 3.96875 -65.5963 25.4
      vertex 9.91565 -48.4311 27.5959
    endloop
  endfacet
  facet normal 0.81981 -0.563102 0.104057
    outer loop
      vertex 3.7294 -63.9381 36.2591
      vertex 1.37833 -69.3676 25.4
      vertex 3.96875 -65.5963 25.4
    endloop
  endfacet
  facet normal -0.673016 -0.462274 -0.577366
    outer loop
      vertex -1.38453 -55.3397 0
      vertex -3.04024 -59.1634 4.99149
      vertex -2.29666 -54.0117 0
    endloop
  endfacet
  facet normal -0.939581 -0.334707 -0.07182
    outer loop
      vertex -3.7294 -63.9381 14.5409
      vertex -13.7637 -38.1 25.4
      vertex -24.7 -7.4 25.4
    endloop
  endfacet
  facet normal -0.939581 -0.334707 -0.0718201
    outer loop
      vertex -13.7637 -38.1 25.4
      vertex -3.7294 -63.9381 14.5409
      vertex -3.96875 -65.5963 25.4
    endloop
  endfacet
  facet normal 0.628358 -0.187214 -0.755061
    outer loop
      vertex 15.7 -19.4 0.803848
      vertex 13.8913 -22.2285 0
      vertex 13.9355 -22.0802 0
    endloop
  endfacet
  facet normal -0.834076 0.317029 -0.451453
    outer loop
      vertex -6.31241 43.4466 0
      vertex -3.04024 59.1634 4.99149
      vertex -2.29666 54.0117 0
    endloop
  endfacet
  facet normal -0.834076 0.317029 -0.451453
    outer loop
      vertex -3.04024 59.1634 4.99149
      vertex -6.31241 43.4466 0
      vertex -18.7 19.4 6
    endloop
  endfacet
  facet normal 0.927928 0.302287 0.218111
    outer loop
      vertex 4.54798 60.097 38.1
      vertex 3.7294 63.9381 36.2591
      vertex 3.37356 61.4727 41.1898
    endloop
  endfacet
  facet normal 0.927928 0.302287 0.218111
    outer loop
      vertex 3.7294 63.9381 36.2591
      vertex 4.54798 60.097 38.1
      vertex 5.96167 57.9198 35.1032
    endloop
  endfacet
  facet normal 0.673016 0.462274 -0.577366
    outer loop
      vertex 2.29666 54.0117 0
      vertex 1.38453 55.3397 0
      vertex 3.04024 59.1634 4.99149
    endloop
  endfacet
  facet normal -0.502654 -0.0725529 -0.861438
    outer loop
      vertex -13.9355 -22.0802 0
      vertex -15.7 -19.4 0.803848
      vertex -13.9644 -21.8804 0
    endloop
  endfacet
  facet normal 0.81981 -0.563102 -0.104057
    outer loop
      vertex 3.96875 -65.5963 25.4
      vertex 1.37833 -69.3676 25.4
      vertex 3.7294 -63.9381 14.5409
    endloop
  endfacet
  facet normal 0.939581 -0.334707 -0.07182
    outer loop
      vertex 13.7637 -38.1 25.4
      vertex 3.7294 -63.9381 14.5409
      vertex 24.7 -7.4 25.4
    endloop
  endfacet
  facet normal 0.939581 -0.334707 -0.0718202
    outer loop
      vertex 3.7294 -63.9381 14.5409
      vertex 13.7637 -38.1 25.4
      vertex 3.96875 -65.5963 25.4
    endloop
  endfacet
  facet normal 0.779796 -0.535618 -0.324086
    outer loop
      vertex 1.29521 -67.482 14.5409
      vertex 1.05586 -62.0524 4.99149
      vertex 3.04024 -59.1634 4.99149
    endloop
  endfacet
  facet normal 0.779796 -0.535618 -0.324086
    outer loop
      vertex 3.7294 -63.9381 14.5409
      vertex 1.29521 -67.482 14.5409
      vertex 3.04024 -59.1634 4.99149
    endloop
  endfacet
  facet normal 0.653396 -0.211212 -0.726955
    outer loop
      vertex 15.7 -19.4 0.803848
      vertex 11.8984 -28.3938 0
      vertex 13.8913 -22.2285 0
    endloop
  endfacet
  facet normal -0.834076 -0.317029 -0.451453
    outer loop
      vertex -3.04024 -59.1634 4.99149
      vertex -6.31241 -43.4466 0
      vertex -2.29666 -54.0117 0
    endloop
  endfacet
  facet normal -0.834076 -0.317029 -0.451453
    outer loop
      vertex -6.31241 -43.4466 0
      vertex -3.04024 -59.1634 4.99149
      vertex -18.7 -19.4 6
    endloop
  endfacet
  facet normal -0.502654 0.0725529 -0.861438
    outer loop
      vertex -13.9644 21.8804 0
      vertex -15.7 19.4 0.803848
      vertex -13.9355 22.0802 0
    endloop
  endfacet
  facet normal 0 0.985256 0.171088
    outer loop
      vertex 1.37833 69.3676 25.4
      vertex -1.29521 67.482 36.2591
      vertex 1.29521 67.482 36.2591
    endloop
  endfacet
  facet normal 0 0.985256 0.171088
    outer loop
      vertex -1.29521 67.482 36.2591
      vertex 1.37833 69.3676 25.4
      vertex -1.37833 69.3676 25.4
    endloop
  endfacet
  facet normal 0.939401 0.332085 -0.0851231
    outer loop
      vertex 18.7 19.4 6
      vertex 3.7294 63.9381 14.5409
      vertex 24.7 7.4 25.4
    endloop
  endfacet
  facet normal -0.927928 0.302287 0.218111
    outer loop
      vertex -3.7294 63.9381 36.2591
      vertex -4.54798 60.097 38.1
      vertex -3.37356 61.4727 41.1898
    endloop
  endfacet
  facet normal -0.927928 0.302287 0.218111
    outer loop
      vertex -4.54798 60.097 38.1
      vertex -3.7294 63.9381 36.2591
      vertex -5.96167 57.9198 35.1032
    endloop
  endfacet
  facet normal 0.905195 0.350387 -0.24052
    outer loop
      vertex 18.7 19.4 6
      vertex 3.04024 59.1634 4.99149
      vertex 3.7294 63.9381 14.5409
    endloop
  endfacet
  facet normal 0.81981 0.563102 -0.104057
    outer loop
      vertex 3.7294 63.9381 14.5409
      vertex 1.29521 67.482 14.5409
      vertex 1.37833 69.3676 25.4
    endloop
  endfacet
  facet normal -0.673016 0.462274 -0.577366
    outer loop
      vertex -2.29666 54.0117 0
      vertex -3.04024 59.1634 4.99149
      vertex -1.38453 55.3397 0
    endloop
  endfacet
  facet normal 0.653396 0.211212 -0.726955
    outer loop
      vertex 13.8913 22.2285 0
      vertex 11.8984 28.3938 0
      vertex 15.7 19.4 0.803848
    endloop
  endfacet
  facet normal -0.905195 0.350387 -0.24052
    outer loop
      vertex -3.04024 59.1634 4.99149
      vertex -18.7 19.4 6
      vertex -3.7294 63.9381 14.5409
    endloop
  endfacet
  facet normal -0.939401 0.332085 -0.0851231
    outer loop
      vertex -18.7 19.4 6
      vertex -24.7 7.4 25.4
      vertex -3.7294 63.9381 14.5409
    endloop
  endfacet
  facet normal -0.824494 -0.305962 -0.476022
    outer loop
      vertex -11.8984 -28.3938 0
      vertex -18.7 -19.4 6
      vertex -15.7 -19.4 0.803848
    endloop
  endfacet
  facet normal -0.824494 -0.305962 -0.476022
    outer loop
      vertex -18.7 -19.4 6
      vertex -11.8984 -28.3938 0
      vertex -6.31241 -43.4466 0
    endloop
  endfacet
  facet normal -0.422264 0 -0.906473
    outer loop
      vertex -15.7 -19.4 0.803848
      vertex -13.9744 21.6532 0
      vertex -13.9744 -21.6532 0
    endloop
  endfacet
  facet normal -0.422264 0 -0.906473
    outer loop
      vertex -13.9744 21.6532 0
      vertex -15.7 -19.4 0.803848
      vertex -15.7 19.4 0.803848
    endloop
  endfacet
  facet normal 0 -0.869308 0.494271
    outer loop
      vertex -1.29521 -67.482 36.2591
      vertex 1.14339 -64.0379 42.3164
      vertex -1.14339 -64.0379 42.3164
    endloop
  endfacet
  facet normal 0 -0.869308 0.494271
    outer loop
      vertex 1.14339 -64.0379 42.3164
      vertex -1.29521 -67.482 36.2591
      vertex 1.29521 -67.482 36.2591
    endloop
  endfacet
  facet normal -0.779795 -0.535619 0.324085
    outer loop
      vertex -3.37356 -61.4727 41.1898
      vertex -2.4021 -62.2054 42.3164
      vertex -2.56084 -61.9743 42.3164
    endloop
  endfacet
  facet normal -0.779796 -0.535618 0.324086
    outer loop
      vertex -3.7294 -63.9381 36.2591
      vertex -2.4021 -62.2054 42.3164
      vertex -3.37356 -61.4727 41.1898
    endloop
  endfacet
  facet normal -0.779796 -0.535618 0.324086
    outer loop
      vertex -2.4021 -62.2054 42.3164
      vertex -3.7294 -63.9381 36.2591
      vertex -1.29521 -67.482 36.2591
    endloop
  endfacet
  facet normal 0.939581 0.334707 0.0718189
    outer loop
      vertex 6.39721 56.9759 33.8041
      vertex 3.7294 63.9381 36.2591
      vertex 5.96167 57.9198 35.1032
    endloop
  endfacet
  facet normal 0.939581 0.334707 0.0718202
    outer loop
      vertex 3.7294 63.9381 36.2591
      vertex 6.39721 56.9759 33.8041
      vertex 3.96875 65.5963 25.4
    endloop
  endfacet
  facet normal 0.939581 0.334707 0.0718205
    outer loop
      vertex 8.07453 53.0297 30.251
      vertex 3.96875 65.5963 25.4
      vertex 6.39721 56.9759 33.8041
    endloop
  endfacet
  facet normal 0.939581 0.334707 0.07182
    outer loop
      vertex 9.91565 48.4311 27.5959
      vertex 3.96875 65.5963 25.4
      vertex 8.07453 53.0297 30.251
    endloop
  endfacet
  facet normal 0.939581 0.334707 0.0718206
    outer loop
      vertex 11.8401 43.381 25.9551
      vertex 3.96875 65.5963 25.4
      vertex 9.91565 48.4311 27.5959
    endloop
  endfacet
  facet normal 0.939582 0.334707 0.0718178
    outer loop
      vertex 3.96875 65.5963 25.4
      vertex 11.8401 43.381 25.9551
      vertex 13.7637 38.1 25.4
    endloop
  endfacet
  facet normal 0.939581 0.334707 -0.0718202
    outer loop
      vertex 13.7637 38.1 25.4
      vertex 3.7294 63.9381 14.5409
      vertex 3.96875 65.5963 25.4
    endloop
  endfacet
  facet normal 0.939581 0.334707 -0.07182
    outer loop
      vertex 3.7294 63.9381 14.5409
      vertex 13.7637 38.1 25.4
      vertex 24.7 7.4 25.4
    endloop
  endfacet
  facet normal -0.939401 -0.332085 -0.0851231
    outer loop
      vertex -3.7294 -63.9381 14.5409
      vertex -24.7 -7.4 25.4
      vertex -18.7 -19.4 6
    endloop
  endfacet
  facet normal 0.422264 0 -0.906473
    outer loop
      vertex 13.9744 -21.6532 0
      vertex 15.7 19.4 0.803848
      vertex 15.7 -19.4 0.803848
    endloop
  endfacet
  facet normal 0.422264 0 -0.906473
    outer loop
      vertex 15.7 19.4 0.803848
      vertex 13.9744 -21.6532 0
      vertex 13.9744 21.6532 0
    endloop
  endfacet
  facet normal -0.443023 0.019529 -0.896297
    outer loop
      vertex -13.9744 21.6532 0
      vertex -15.7 19.4 0.803848
      vertex -13.9644 21.8804 0
    endloop
  endfacet
  facet normal -0.779796 0.535618 -0.324086
    outer loop
      vertex -1.05586 62.0524 4.99149
      vertex -3.04024 59.1634 4.99149
      vertex -1.29521 67.482 14.5409
    endloop
  endfacet
  facet normal 0 0.869308 -0.494271
    outer loop
      vertex 1.05586 62.0524 4.99149
      vertex -1.29521 67.482 14.5409
      vertex 1.29521 67.482 14.5409
    endloop
  endfacet
  facet normal 0 0.869308 -0.494271
    outer loop
      vertex -1.29521 67.482 14.5409
      vertex 1.05586 62.0524 4.99149
      vertex -1.05586 62.0524 4.99149
    endloop
  endfacet
  facet normal -0.81981 0.563102 -0.104057
    outer loop
      vertex -1.29521 67.482 14.5409
      vertex -3.7294 63.9381 14.5409
      vertex -1.37833 69.3676 25.4
    endloop
  endfacet
  facet normal -0.81981 0.563102 -0.104057
    outer loop
      vertex -3.7294 63.9381 14.5409
      vertex -3.96875 65.5963 25.4
      vertex -1.37833 69.3676 25.4
    endloop
  endfacet
  facet normal -0.81981 0.563102 0.104057
    outer loop
      vertex -1.37833 69.3676 25.4
      vertex -3.96875 65.5963 25.4
      vertex -3.7294 63.9381 36.2591
    endloop
  endfacet
  facet normal -0.939581 0.334707 0.0718201
    outer loop
      vertex -6.39721 56.9759 33.8041
      vertex -3.7294 63.9381 36.2591
      vertex -3.96875 65.5963 25.4
    endloop
  endfacet
  facet normal -0.939581 0.334707 0.0718189
    outer loop
      vertex -3.7294 63.9381 36.2591
      vertex -6.39721 56.9759 33.8041
      vertex -5.96167 57.9198 35.1032
    endloop
  endfacet
  facet normal -0.939581 0.334707 0.0718204
    outer loop
      vertex -3.96875 65.5963 25.4
      vertex -8.07453 53.0297 30.251
      vertex -6.39721 56.9759 33.8041
    endloop
  endfacet
  facet normal -0.939581 0.334707 0.0718199
    outer loop
      vertex -3.96875 65.5963 25.4
      vertex -9.91565 48.4311 27.5959
      vertex -8.07453 53.0297 30.251
    endloop
  endfacet
  facet normal -0.939581 0.334707 0.0718201
    outer loop
      vertex -3.96875 65.5963 25.4
      vertex -11.8401 43.381 25.9551
      vertex -9.91565 48.4311 27.5959
    endloop
  endfacet
  facet normal -0.939581 0.334707 0.071819
    outer loop
      vertex -11.8401 43.381 25.9551
      vertex -3.96875 65.5963 25.4
      vertex -13.7637 38.1 25.4
    endloop
  endfacet
  facet normal 0.779796 0.535618 -0.324086
    outer loop
      vertex 3.04024 59.1634 4.99149
      vertex 1.29521 67.482 14.5409
      vertex 3.7294 63.9381 14.5409
    endloop
  endfacet
  facet normal 0.779796 0.535618 -0.324086
    outer loop
      vertex 3.04024 59.1634 4.99149
      vertex 1.05586 62.0524 4.99149
      vertex 1.29521 67.482 14.5409
    endloop
  endfacet
  facet normal -0.653396 0.211212 -0.726955
    outer loop
      vertex -13.8913 22.2285 0
      vertex -15.7 19.4 0.803848
      vertex -11.8984 28.3938 0
    endloop
  endfacet
  facet normal 0.628358 0.187214 -0.755061
    outer loop
      vertex 13.9355 22.0802 0
      vertex 13.8913 22.2285 0
      vertex 15.7 19.4 0.803848
    endloop
  endfacet
  facet normal 0.673016 -0.462274 -0.577367
    outer loop
      vertex 3.04024 -59.1634 4.99149
      vertex 0.797621 -56.1941 0
      vertex 1.38453 -55.3397 0
    endloop
  endfacet
  facet normal 0.673016 -0.462274 -0.577366
    outer loop
      vertex 0.797621 -56.1941 0
      vertex 3.04024 -59.1634 4.99149
      vertex 1.05586 -62.0524 4.99149
    endloop
  endfacet
  facet normal -0.443023 -0.019529 -0.896297
    outer loop
      vertex -13.9644 -21.8804 0
      vertex -15.7 -19.4 0.803848
      vertex -13.9744 -21.6532 0
    endloop
  endfacet
  facet normal 0 -0.985256 0.171088
    outer loop
      vertex -1.37833 -69.3676 25.4
      vertex 1.29521 -67.482 36.2591
      vertex -1.29521 -67.482 36.2591
    endloop
  endfacet
  facet normal 0 -0.985256 0.171088
    outer loop
      vertex 1.29521 -67.482 36.2591
      vertex -1.37833 -69.3676 25.4
      vertex 1.37833 -69.3676 25.4
    endloop
  endfacet
  facet normal -0.81981 -0.563102 0.104057
    outer loop
      vertex -1.29521 -67.482 36.2591
      vertex -3.7294 -63.9381 36.2591
      vertex -1.37833 -69.3676 25.4
    endloop
  endfacet
  facet normal -0.779795 -0.535618 0.324087
    outer loop
      vertex -1.14339 -64.0379 42.3164
      vertex -2.4021 -62.2054 42.3164
      vertex -1.29521 -67.482 36.2591
    endloop
  endfacet
  facet normal 0.81981 0.563102 0.104057
    outer loop
      vertex 1.37833 69.3676 25.4
      vertex 1.29521 67.482 36.2591
      vertex 3.7294 63.9381 36.2591
    endloop
  endfacet
  facet normal -0.673016 -0.462274 -0.577367
    outer loop
      vertex -0.797621 -56.1941 0
      vertex -3.04024 -59.1634 4.99149
      vertex -1.38453 -55.3397 0
    endloop
  endfacet
  facet normal -0.673016 -0.462274 -0.577366
    outer loop
      vertex -3.04024 -59.1634 4.99149
      vertex -0.797621 -56.1941 0
      vertex -1.05586 -62.0524 4.99149
    endloop
  endfacet
  facet normal 0.443023 -0.019529 -0.896297
    outer loop
      vertex 15.7 -19.4 0.803848
      vertex 13.9644 -21.8804 0
      vertex 13.9744 -21.6532 0
    endloop
  endfacet
  facet normal 0 0.648551 -0.761171
    outer loop
      vertex -0.797621 56.1941 0
      vertex 1.05586 62.0524 4.99149
      vertex 0.797621 56.1941 0
    endloop
  endfacet
  facet normal 0 0.648551 -0.761171
    outer loop
      vertex 1.05586 62.0524 4.99149
      vertex -0.797621 56.1941 0
      vertex -1.05586 62.0524 4.99149
    endloop
  endfacet
  facet normal -0.628358 0.187214 -0.755061
    outer loop
      vertex -13.9355 22.0802 0
      vertex -15.7 19.4 0.803848
      vertex -13.8913 22.2285 0
    endloop
  endfacet
  facet normal 0.502654 0.0725529 -0.861438
    outer loop
      vertex 13.9644 21.8804 0
      vertex 13.9355 22.0802 0
      vertex 15.7 19.4 0.803848
    endloop
  endfacet
  facet normal -0.653396 -0.211212 -0.726955
    outer loop
      vertex -11.8984 -28.3938 0
      vertex -15.7 -19.4 0.803848
      vertex -13.8913 -22.2285 0
    endloop
  endfacet
  facet normal -0.628358 -0.187214 -0.755061
    outer loop
      vertex -13.8913 -22.2285 0
      vertex -15.7 -19.4 0.803848
      vertex -13.9355 -22.0802 0
    endloop
  endfacet
  facet normal -0.81981 -0.563102 -0.104057
    outer loop
      vertex -1.37833 -69.3676 25.4
      vertex -3.96875 -65.5963 25.4
      vertex -3.7294 -63.9381 14.5409
    endloop
  endfacet
  facet normal -0.81981 -0.563102 0.104057
    outer loop
      vertex -3.7294 -63.9381 36.2591
      vertex -3.96875 -65.5963 25.4
      vertex -1.37833 -69.3676 25.4
    endloop
  endfacet
  facet normal 0.779795 -0.535619 0.324085
    outer loop
      vertex 2.4021 -62.2054 42.3164
      vertex 3.37356 -61.4727 41.1898
      vertex 2.56084 -61.9743 42.3164
    endloop
  endfacet
  facet normal 0.779796 -0.535618 0.324086
    outer loop
      vertex 2.4021 -62.2054 42.3164
      vertex 3.7294 -63.9381 36.2591
      vertex 3.37356 -61.4727 41.1898
    endloop
  endfacet
  facet normal 0.779796 -0.535618 0.324086
    outer loop
      vertex 3.7294 -63.9381 36.2591
      vertex 2.4021 -62.2054 42.3164
      vertex 1.29521 -67.482 36.2591
    endloop
  endfacet
  facet normal 0.927928 -0.302287 0.218111
    outer loop
      vertex 4.54798 -60.097 38.1
      vertex 3.7294 -63.9381 36.2591
      vertex 5.96167 -57.9198 35.1032
    endloop
  endfacet
  facet normal 0.927928 -0.302287 0.218111
    outer loop
      vertex 3.7294 -63.9381 36.2591
      vertex 4.54798 -60.097 38.1
      vertex 3.37356 -61.4727 41.1898
    endloop
  endfacet
  facet normal 0.779796 0.535618 0.324086
    outer loop
      vertex 2.4021 62.2054 42.3164
      vertex 3.7294 63.9381 36.2591
      vertex 1.29521 67.482 36.2591
    endloop
  endfacet
  facet normal 0.779795 0.535619 0.324085
    outer loop
      vertex 3.37356 61.4727 41.1898
      vertex 2.4021 62.2054 42.3164
      vertex 2.56084 61.9743 42.3164
    endloop
  endfacet
  facet normal 0.779796 0.535618 0.324086
    outer loop
      vertex 2.4021 62.2054 42.3164
      vertex 3.37356 61.4727 41.1898
      vertex 3.7294 63.9381 36.2591
    endloop
  endfacet
  facet normal 0.81981 0.563102 -0.104057
    outer loop
      vertex 3.7294 63.9381 14.5409
      vertex 1.37833 69.3676 25.4
      vertex 3.96875 65.5963 25.4
    endloop
  endfacet
  facet normal 0.81981 0.563102 0.104057
    outer loop
      vertex 3.96875 65.5963 25.4
      vertex 1.37833 69.3676 25.4
      vertex 3.7294 63.9381 36.2591
    endloop
  endfacet
  facet normal -0.905195 -0.350387 -0.24052
    outer loop
      vertex -3.7294 -63.9381 14.5409
      vertex -18.7 -19.4 6
      vertex -3.04024 -59.1634 4.99149
    endloop
  endfacet
  facet normal -0.81981 -0.563102 -0.104057
    outer loop
      vertex -1.37833 -69.3676 25.4
      vertex -3.7294 -63.9381 14.5409
      vertex -1.29521 -67.482 14.5409
    endloop
  endfacet
  facet normal 0.779795 0.535618 0.324087
    outer loop
      vertex 1.29521 67.482 36.2591
      vertex 1.14339 64.0379 42.3164
      vertex 2.4021 62.2054 42.3164
    endloop
  endfacet
  facet normal 0.779795 -0.535618 0.324087
    outer loop
      vertex 2.4021 -62.2054 42.3164
      vertex 1.14339 -64.0379 42.3164
      vertex 1.29521 -67.482 36.2591
    endloop
  endfacet
  facet normal -0.779796 -0.535618 -0.324086
    outer loop
      vertex -1.29521 -67.482 14.5409
      vertex -3.7294 -63.9381 14.5409
      vertex -3.04024 -59.1634 4.99149
    endloop
  endfacet
  facet normal -0.779796 -0.535618 -0.324086
    outer loop
      vertex -1.29521 -67.482 14.5409
      vertex -3.04024 -59.1634 4.99149
      vertex -1.05586 -62.0524 4.99149
    endloop
  endfacet
  facet normal -0.779795 0.535618 0.324087
    outer loop
      vertex -1.29521 67.482 36.2591
      vertex -2.4021 62.2054 42.3164
      vertex -1.14339 64.0379 42.3164
    endloop
  endfacet
  facet normal 0 0 1
    outer loop
      vertex 24.7 7.4 25.4
      vertex 21.7 10.4 25.4
      vertex 24.7 -7.4 25.4
    endloop
  endfacet
  facet normal 0 0 1
    outer loop
      vertex 13.7637 38.1 25.4
      vertex 21.7 10.4 25.4
      vertex 24.7 7.4 25.4
    endloop
  endfacet
  facet normal 0 0 1
    outer loop
      vertex 21.7 10.4 25.4
      vertex 13.7637 38.1 25.4
      vertex 12.2678 38.1 25.4
    endloop
  endfacet
  facet normal 0 0 1
    outer loop
      vertex 21.7 -10.4 25.4
      vertex 24.7 -7.4 25.4
      vertex 21.7 10.4 25.4
    endloop
  endfacet
  facet normal -0 0 1
    outer loop
      vertex 21.7 -10.4 25.4
      vertex 13.7637 -38.1 25.4
      vertex 24.7 -7.4 25.4
    endloop
  endfacet
  facet normal 0 -0 1
    outer loop
      vertex 13.7637 -38.1 25.4
      vertex 21.7 -10.4 25.4
      vertex 12.2678 -38.1 25.4
    endloop
  endfacet
  facet normal -0 0 1
    outer loop
      vertex -13.7637 38.1 25.4
      vertex -21.7 10.4 25.4
      vertex -12.2678 38.1 25.4
    endloop
  endfacet
  facet normal 0 0 1
    outer loop
      vertex -21.7 10.4 25.4
      vertex -24.7 7.4 25.4
      vertex -21.7 -10.4 25.4
    endloop
  endfacet
  facet normal 0 0 1
    outer loop
      vertex -24.7 7.4 25.4
      vertex -21.7 10.4 25.4
      vertex -13.7637 38.1 25.4
    endloop
  endfacet
  facet normal 0 0 1
    outer loop
      vertex -21.7 -10.4 25.4
      vertex -13.7637 -38.1 25.4
      vertex -12.2678 -38.1 25.4
    endloop
  endfacet
  facet normal 0 0 1
    outer loop
      vertex -21.7 -10.4 25.4
      vertex -24.7 -7.4 25.4
      vertex -13.7637 -38.1 25.4
    endloop
  endfacet
  facet normal -0 0 1
    outer loop
      vertex -24.7 -7.4 25.4
      vertex -21.7 -10.4 25.4
      vertex -24.7 7.4 25.4
    endloop
  endfacet
  facet normal 0 -0.309017 0.951057
    outer loop
      vertex -9.91565 48.4311 27.5959
      vertex -10.4284 43.381 25.9551
      vertex -8.58731 48.4311 27.5959
    endloop
  endfacet
  facet normal 0 -0.309017 0.951057
    outer loop
      vertex -10.4284 43.381 25.9551
      vertex -9.91565 48.4311 27.5959
      vertex -11.8401 43.381 25.9551
    endloop
  endfacet
  facet normal 0 -0.309017 0.951057
    outer loop
      vertex 9.91565 48.4311 27.5959
      vertex 10.4284 43.381 25.9551
      vertex 11.8401 43.381 25.9551
    endloop
  endfacet
  facet normal 0 -0.309017 0.951057
    outer loop
      vertex 10.4284 43.381 25.9551
      vertex 9.91565 48.4311 27.5959
      vertex 8.58731 48.4311 27.5959
    endloop
  endfacet
  facet normal 0 -0.104529 0.994522
    outer loop
      vertex -11.8401 43.381 25.9551
      vertex -12.2678 38.1 25.4
      vertex -10.4284 43.381 25.9551
    endloop
  endfacet
  facet normal 0 -0.104529 0.994522
    outer loop
      vertex -12.2678 38.1 25.4
      vertex -11.8401 43.381 25.9551
      vertex -13.7637 38.1 25.4
    endloop
  endfacet
  facet normal 0 -0.104529 0.994522
    outer loop
      vertex 11.8401 43.381 25.9551
      vertex 12.2678 38.1 25.4
      vertex 13.7637 38.1 25.4
    endloop
  endfacet
  facet normal 0 -0.104529 0.994522
    outer loop
      vertex 12.2678 38.1 25.4
      vertex 11.8401 43.381 25.9551
      vertex 10.4284 43.381 25.9551
    endloop
  endfacet
  facet normal 0 0.669131 0.743145
    outer loop
      vertex -6.82484 -53.0297 30.251
      vertex -6.39721 -56.9759 33.8041
      vertex -5.21806 -56.9759 33.8041
    endloop
  endfacet
  facet normal 0 0.669131 0.743145
    outer loop
      vertex -6.39721 -56.9759 33.8041
      vertex -6.82484 -53.0297 30.251
      vertex -8.07453 -53.0297 30.251
    endloop
  endfacet
  facet normal -0 0.669131 0.743145
    outer loop
      vertex 6.82484 -53.0297 30.251
      vertex 6.39721 -56.9759 33.8041
      vertex 8.07453 -53.0297 30.251
    endloop
  endfacet
  facet normal 0 0.669131 0.743145
    outer loop
      vertex 6.39721 -56.9759 33.8041
      vertex 6.82484 -53.0297 30.251
      vertex 5.21806 -56.9759 33.8041
    endloop
  endfacet
  facet normal 0 -0.5 0.866025
    outer loop
      vertex -8.07453 53.0297 30.251
      vertex -8.58731 48.4311 27.5959
      vertex -6.82484 53.0297 30.251
    endloop
  endfacet
  facet normal 0 -0.5 0.866025
    outer loop
      vertex -8.58731 48.4311 27.5959
      vertex -8.07453 53.0297 30.251
      vertex -9.91565 48.4311 27.5959
    endloop
  endfacet
  facet normal 0 -0.5 0.866025
    outer loop
      vertex 8.07453 53.0297 30.251
      vertex 8.58731 48.4311 27.5959
      vertex 9.91565 48.4311 27.5959
    endloop
  endfacet
  facet normal 0 -0.5 0.866025
    outer loop
      vertex 8.58731 48.4311 27.5959
      vertex 8.07453 53.0297 30.251
      vertex 6.82484 53.0297 30.251
    endloop
  endfacet
  facet normal 0 0.104529 0.994522
    outer loop
      vertex -12.2678 -38.1 25.4
      vertex -11.8401 -43.381 25.9551
      vertex -10.4284 -43.381 25.9551
    endloop
  endfacet
  facet normal 0 0.104529 0.994522
    outer loop
      vertex -11.8401 -43.381 25.9551
      vertex -12.2678 -38.1 25.4
      vertex -13.7637 -38.1 25.4
    endloop
  endfacet
  facet normal -0 0.104529 0.994522
    outer loop
      vertex 12.2678 -38.1 25.4
      vertex 11.8401 -43.381 25.9551
      vertex 13.7637 -38.1 25.4
    endloop
  endfacet
  facet normal 0 0.104529 0.994522
    outer loop
      vertex 11.8401 -43.381 25.9551
      vertex 12.2678 -38.1 25.4
      vertex 10.4284 -43.381 25.9551
    endloop
  endfacet
  facet normal 0 0.913545 0.406737
    outer loop
      vertex 2.56084 -61.9743 42.3164
      vertex 0.973987 -61.695 41.6891
      vertex -2.56084 -61.9743 42.3164
    endloop
  endfacet
  facet normal 1.72037e-007 0.913545 0.406737
    outer loop
      vertex 2.08695 -61.0082 40.1464
      vertex 2.56084 -61.9743 42.3164
      vertex 3.37356 -61.4727 41.1898
    endloop
  endfacet
  facet normal 7.38501e-008 0.913545 0.406737
    outer loop
      vertex 2.56084 -61.9743 42.3164
      vertex 2.08695 -61.0082 40.1464
      vertex 0.973987 -61.695 41.6891
    endloop
  endfacet
  facet normal 7.81384e-007 0.913545 0.406737
    outer loop
      vertex 3.37356 -61.4727 41.1898
      vertex 3.00796 -60.4398 38.8697
      vertex 2.08695 -61.0082 40.1464
    endloop
  endfacet
  facet normal 5.28189e-007 0.913545 0.406737
    outer loop
      vertex 4.54798 -60.097 38.1
      vertex 3.00796 -60.4398 38.8697
      vertex 3.37356 -61.4727 41.1898
    endloop
  endfacet
  facet normal 0 0.913546 0.406736
    outer loop
      vertex 3.00796 -60.4398 38.8697
      vertex 4.54798 -60.097 38.1
      vertex 3.29059 -60.097 38.1
    endloop
  endfacet
  facet normal -0 0.913545 0.406737
    outer loop
      vertex -0.973987 -61.695 41.6891
      vertex -2.56084 -61.9743 42.3164
      vertex 0.973987 -61.695 41.6891
    endloop
  endfacet
  facet normal -7.38501e-008 0.913545 0.406737
    outer loop
      vertex -2.08695 -61.0082 40.1464
      vertex -2.56084 -61.9743 42.3164
      vertex -0.973987 -61.695 41.6891
    endloop
  endfacet
  facet normal -1.72037e-007 0.913545 0.406737
    outer loop
      vertex -2.56084 -61.9743 42.3164
      vertex -2.08695 -61.0082 40.1464
      vertex -3.37356 -61.4727 41.1898
    endloop
  endfacet
  facet normal -7.81384e-007 0.913545 0.406737
    outer loop
      vertex -3.00796 -60.4398 38.8697
      vertex -3.37356 -61.4727 41.1898
      vertex -2.08695 -61.0082 40.1464
    endloop
  endfacet
  facet normal -0 0.913546 0.406736
    outer loop
      vertex -4.54798 -60.097 38.1
      vertex -3.00796 -60.4398 38.8697
      vertex -3.29059 -60.097 38.1
    endloop
  endfacet
  facet normal -5.28189e-007 0.913545 0.406737
    outer loop
      vertex -3.00796 -60.4398 38.8697
      vertex -4.54798 -60.097 38.1
      vertex -3.37356 -61.4727 41.1898
    endloop
  endfacet
  facet normal 0 -0.913545 0.406737
    outer loop
      vertex -2.56084 61.9743 42.3164
      vertex -0.973987 61.695 41.6891
      vertex 2.56084 61.9743 42.3164
    endloop
  endfacet
  facet normal -1.72037e-007 -0.913545 0.406737
    outer loop
      vertex -2.08695 61.0082 40.1464
      vertex -2.56084 61.9743 42.3164
      vertex -3.37356 61.4727 41.1898
    endloop
  endfacet
  facet normal -7.38501e-008 -0.913545 0.406737
    outer loop
      vertex -2.56084 61.9743 42.3164
      vertex -2.08695 61.0082 40.1464
      vertex -0.973987 61.695 41.6891
    endloop
  endfacet
  facet normal -7.81384e-007 -0.913545 0.406737
    outer loop
      vertex -3.37356 61.4727 41.1898
      vertex -3.00796 60.4398 38.8697
      vertex -2.08695 61.0082 40.1464
    endloop
  endfacet
  facet normal -5.28189e-007 -0.913545 0.406737
    outer loop
      vertex -4.54798 60.097 38.1
      vertex -3.00796 60.4398 38.8697
      vertex -3.37356 61.4727 41.1898
    endloop
  endfacet
  facet normal 0 -0.913546 0.406736
    outer loop
      vertex -3.00796 60.4398 38.8697
      vertex -4.54798 60.097 38.1
      vertex -3.29059 60.097 38.1
    endloop
  endfacet
  facet normal 0 -0.913545 0.406737
    outer loop
      vertex 0.973987 61.695 41.6891
      vertex 2.56084 61.9743 42.3164
      vertex -0.973987 61.695 41.6891
    endloop
  endfacet
  facet normal 7.38501e-008 -0.913545 0.406737
    outer loop
      vertex 2.08695 61.0082 40.1464
      vertex 2.56084 61.9743 42.3164
      vertex 0.973987 61.695 41.6891
    endloop
  endfacet
  facet normal 1.72037e-007 -0.913545 0.406737
    outer loop
      vertex 2.56084 61.9743 42.3164
      vertex 2.08695 61.0082 40.1464
      vertex 3.37356 61.4727 41.1898
    endloop
  endfacet
  facet normal 7.81384e-007 -0.913545 0.406737
    outer loop
      vertex 3.00796 60.4398 38.8697
      vertex 3.37356 61.4727 41.1898
      vertex 2.08695 61.0082 40.1464
    endloop
  endfacet
  facet normal 0 -0.913546 0.406736
    outer loop
      vertex 4.54798 60.097 38.1
      vertex 3.00796 60.4398 38.8697
      vertex 3.29059 60.097 38.1
    endloop
  endfacet
  facet normal 5.28189e-007 -0.913545 0.406737
    outer loop
      vertex 3.00796 60.4398 38.8697
      vertex 4.54798 60.097 38.1
      vertex 3.37356 61.4727 41.1898
    endloop
  endfacet
  facet normal 0 -0.669131 0.743145
    outer loop
      vertex -6.39721 56.9759 33.8041
      vertex -6.82484 53.0297 30.251
      vertex -5.21806 56.9759 33.8041
    endloop
  endfacet
  facet normal 0 -0.669131 0.743145
    outer loop
      vertex -6.82484 53.0297 30.251
      vertex -6.39721 56.9759 33.8041
      vertex -8.07453 53.0297 30.251
    endloop
  endfacet
  facet normal 0 -0.669131 0.743145
    outer loop
      vertex 6.39721 56.9759 33.8041
      vertex 6.82484 53.0297 30.251
      vertex 8.07453 53.0297 30.251
    endloop
  endfacet
  facet normal 0 -0.669131 0.743145
    outer loop
      vertex 6.82484 53.0297 30.251
      vertex 6.39721 56.9759 33.8041
      vertex 5.21806 56.9759 33.8041
    endloop
  endfacet
  facet normal 0 0.5 0.866025
    outer loop
      vertex -8.58731 -48.4311 27.5959
      vertex -8.07453 -53.0297 30.251
      vertex -6.82484 -53.0297 30.251
    endloop
  endfacet
  facet normal 0 0.5 0.866025
    outer loop
      vertex -8.07453 -53.0297 30.251
      vertex -8.58731 -48.4311 27.5959
      vertex -9.91565 -48.4311 27.5959
    endloop
  endfacet
  facet normal -0 0.5 0.866025
    outer loop
      vertex 8.58731 -48.4311 27.5959
      vertex 8.07453 -53.0297 30.251
      vertex 9.91565 -48.4311 27.5959
    endloop
  endfacet
  facet normal 0 0.5 0.866025
    outer loop
      vertex 8.07453 -53.0297 30.251
      vertex 8.58731 -48.4311 27.5959
      vertex 6.82484 -53.0297 30.251
    endloop
  endfacet
  facet normal 0 0.809017 0.587785
    outer loop
      vertex -3.29059 -60.097 38.1
      vertex -5.96167 -57.9198 35.1032
      vertex -4.54798 -60.097 38.1
    endloop
  endfacet
  facet normal -8.38012e-007 0.809017 0.587786
    outer loop
      vertex -5.15282 -57.1233 34.0071
      vertex -5.96167 -57.9198 35.1032
      vertex -3.29059 -60.097 38.1
    endloop
  endfacet
  facet normal -0 0.809016 0.587786
    outer loop
      vertex -6.39721 -56.9759 33.8041
      vertex -5.15282 -57.1233 34.0071
      vertex -5.21806 -56.9759 33.8041
    endloop
  endfacet
  facet normal 5.10285e-008 0.809016 0.587786
    outer loop
      vertex -5.15282 -57.1233 34.0071
      vertex -6.39721 -56.9759 33.8041
      vertex -5.96167 -57.9198 35.1032
    endloop
  endfacet
  facet normal 0 0.809017 0.587785
    outer loop
      vertex 5.96167 -57.9198 35.1032
      vertex 3.29059 -60.097 38.1
      vertex 4.54798 -60.097 38.1
    endloop
  endfacet
  facet normal 8.38012e-007 0.809017 0.587786
    outer loop
      vertex 5.96167 -57.9198 35.1032
      vertex 5.15282 -57.1233 34.0071
      vertex 3.29059 -60.097 38.1
    endloop
  endfacet
  facet normal -5.10285e-008 0.809016 0.587786
    outer loop
      vertex 6.39721 -56.9759 33.8041
      vertex 5.15282 -57.1233 34.0071
      vertex 5.96167 -57.9198 35.1032
    endloop
  endfacet
  facet normal 0 0.809016 0.587786
    outer loop
      vertex 5.15282 -57.1233 34.0071
      vertex 6.39721 -56.9759 33.8041
      vertex 5.21806 -56.9759 33.8041
    endloop
  endfacet
  facet normal 0 -0.809017 0.587785
    outer loop
      vertex -5.96167 57.9198 35.1032
      vertex -3.29059 60.097 38.1
      vertex -4.54798 60.097 38.1
    endloop
  endfacet
  facet normal -8.38012e-007 -0.809017 0.587786
    outer loop
      vertex -5.96167 57.9198 35.1032
      vertex -5.15282 57.1233 34.0071
      vertex -3.29059 60.097 38.1
    endloop
  endfacet
  facet normal 5.10285e-008 -0.809016 0.587786
    outer loop
      vertex -6.39721 56.9759 33.8041
      vertex -5.15282 57.1233 34.0071
      vertex -5.96167 57.9198 35.1032
    endloop
  endfacet
  facet normal 0 -0.809016 0.587786
    outer loop
      vertex -5.15282 57.1233 34.0071
      vertex -6.39721 56.9759 33.8041
      vertex -5.21806 56.9759 33.8041
    endloop
  endfacet
  facet normal 0 -0.809017 0.587785
    outer loop
      vertex 3.29059 60.097 38.1
      vertex 5.96167 57.9198 35.1032
      vertex 4.54798 60.097 38.1
    endloop
  endfacet
  facet normal 8.38012e-007 -0.809017 0.587786
    outer loop
      vertex 5.15282 57.1233 34.0071
      vertex 5.96167 57.9198 35.1032
      vertex 3.29059 60.097 38.1
    endloop
  endfacet
  facet normal 0 -0.809016 0.587786
    outer loop
      vertex 6.39721 56.9759 33.8041
      vertex 5.15282 57.1233 34.0071
      vertex 5.21806 56.9759 33.8041
    endloop
  endfacet
  facet normal -5.10285e-008 -0.809016 0.587786
    outer loop
      vertex 5.15282 57.1233 34.0071
      vertex 6.39721 56.9759 33.8041
      vertex 5.96167 57.9198 35.1032
    endloop
  endfacet
  facet normal 0 0.309017 0.951057
    outer loop
      vertex -10.4284 -43.381 25.9551
      vertex -9.91565 -48.4311 27.5959
      vertex -8.58731 -48.4311 27.5959
    endloop
  endfacet
  facet normal 0 0.309017 0.951057
    outer loop
      vertex -9.91565 -48.4311 27.5959
      vertex -10.4284 -43.381 25.9551
      vertex -11.8401 -43.381 25.9551
    endloop
  endfacet
  facet normal -0 0.309017 0.951057
    outer loop
      vertex 10.4284 -43.381 25.9551
      vertex 9.91565 -48.4311 27.5959
      vertex 11.8401 -43.381 25.9551
    endloop
  endfacet
  facet normal 0 0.309017 0.951057
    outer loop
      vertex 9.91565 -48.4311 27.5959
      vertex 10.4284 -43.381 25.9551
      vertex 8.58731 -48.4311 27.5959
    endloop
  endfacet
  facet normal 0 0 -1
    outer loop
      vertex 13.8913 -22.2285 0
      vertex 13.9744 -21.6532 0
      vertex 13.9644 -21.8804 0
    endloop
  endfacet
  facet normal 0 0 -1
    outer loop
      vertex 13.9744 -21.6532 0
      vertex -13.9744 -21.6532 0
      vertex 13.9744 21.6532 0
    endloop
  endfacet
  facet normal 0 0 -1
    outer loop
      vertex 13.8913 -22.2285 0
      vertex 13.9644 -21.8804 0
      vertex 13.9355 -22.0802 0
    endloop
  endfacet
  facet normal 0 0 -1
    outer loop
      vertex -13.9744 21.6532 0
      vertex 13.9744 21.6532 0
      vertex -13.9744 -21.6532 0
    endloop
  endfacet
  facet normal -0 0 -1
    outer loop
      vertex 13.9744 -21.6532 0
      vertex 13.8913 -22.2285 0
      vertex -13.9744 -21.6532 0
    endloop
  endfacet
  facet normal 0 -0 -1
    outer loop
      vertex 13.8913 22.2285 0
      vertex 13.9744 21.6532 0
      vertex -13.9744 21.6532 0
    endloop
  endfacet
  facet normal 0 0 -1
    outer loop
      vertex -13.8913 -22.2285 0
      vertex 13.8913 -22.2285 0
      vertex 11.8984 -28.3938 0
    endloop
  endfacet
  facet normal 0 0 -1
    outer loop
      vertex 13.9744 21.6532 0
      vertex 13.8913 22.2285 0
      vertex 13.9644 21.8804 0
    endloop
  endfacet
  facet normal 0 0 -1
    outer loop
      vertex -11.8984 -28.3938 0
      vertex 11.8984 -28.3938 0
      vertex 6.31241 -43.4466 0
    endloop
  endfacet
  facet normal 0 0 -1
    outer loop
      vertex 13.9644 21.8804 0
      vertex 13.8913 22.2285 0
      vertex 13.9355 22.0802 0
    endloop
  endfacet
  facet normal 0 0 -1
    outer loop
      vertex -6.31241 -43.4466 0
      vertex 6.31241 -43.4466 0
      vertex 2.29666 -54.0117 0
    endloop
  endfacet
  facet normal 0 0 -1
    outer loop
      vertex -13.8913 -22.2285 0
      vertex 11.8984 -28.3938 0
      vertex -11.8984 -28.3938 0
    endloop
  endfacet
  facet normal 0 0 -1
    outer loop
      vertex -2.29666 -54.0117 0
      vertex 2.29666 -54.0117 0
      vertex 1.38453 -55.3397 0
    endloop
  endfacet
  facet normal 0 -0 -1
    outer loop
      vertex -13.8913 22.2285 0
      vertex 13.8913 22.2285 0
      vertex -13.9744 21.6532 0
    endloop
  endfacet
  facet normal 0 0 -1
    outer loop
      vertex -1.38453 -55.3397 0
      vertex 1.38453 -55.3397 0
      vertex 0.797621 -56.1941 0
    endloop
  endfacet
  facet normal 0 0 -1
    outer loop
      vertex 6.31241 -43.4466 0
      vertex -6.31241 -43.4466 0
      vertex -11.8984 -28.3938 0
    endloop
  endfacet
  facet normal 0 0 -1
    outer loop
      vertex -1.38453 -55.3397 0
      vertex 0.797621 -56.1941 0
      vertex -0.797621 -56.1941 0
    endloop
  endfacet
  facet normal 0 -0 -1
    outer loop
      vertex -6.31241 43.4466 0
      vertex 6.31241 43.4466 0
      vertex -11.8984 28.3938 0
    endloop
  endfacet
  facet normal 0 0 -1
    outer loop
      vertex 1.38453 -55.3397 0
      vertex -1.38453 -55.3397 0
      vertex -2.29666 -54.0117 0
    endloop
  endfacet
  facet normal 0 0 -1
    outer loop
      vertex 2.29666 54.0117 0
      vertex -2.29666 54.0117 0
      vertex 1.38453 55.3397 0
    endloop
  endfacet
  facet normal 0 0 -1
    outer loop
      vertex 2.29666 -54.0117 0
      vertex -2.29666 -54.0117 0
      vertex -6.31241 -43.4466 0
    endloop
  endfacet
  facet normal 0 -0 -1
    outer loop
      vertex -1.38453 55.3397 0
      vertex 1.38453 55.3397 0
      vertex -2.29666 54.0117 0
    endloop
  endfacet
  facet normal -0 0 -1
    outer loop
      vertex 0.797621 56.1941 0
      vertex -1.38453 55.3397 0
      vertex -0.797621 56.1941 0
    endloop
  endfacet
  facet normal 0 0 -1
    outer loop
      vertex 1.38453 55.3397 0
      vertex -1.38453 55.3397 0
      vertex 0.797621 56.1941 0
    endloop
  endfacet
  facet normal 0 0 -1
    outer loop
      vertex 6.31241 43.4466 0
      vertex -6.31241 43.4466 0
      vertex 2.29666 54.0117 0
    endloop
  endfacet
  facet normal 0 -0 -1
    outer loop
      vertex -2.29666 54.0117 0
      vertex 2.29666 54.0117 0
      vertex -6.31241 43.4466 0
    endloop
  endfacet
  facet normal 0 0 -1
    outer loop
      vertex 13.8913 -22.2285 0
      vertex -13.8913 -22.2285 0
      vertex -13.9744 -21.6532 0
    endloop
  endfacet
  facet normal 0 0 -1
    outer loop
      vertex 13.8913 22.2285 0
      vertex -13.8913 22.2285 0
      vertex 11.8984 28.3938 0
    endloop
  endfacet
  facet normal 0 0 -1
    outer loop
      vertex -13.9644 -21.8804 0
      vertex -13.8913 -22.2285 0
      vertex -13.9355 -22.0802 0
    endloop
  endfacet
  facet normal 0 0 -1
    outer loop
      vertex 11.8984 28.3938 0
      vertex -11.8984 28.3938 0
      vertex 6.31241 43.4466 0
    endloop
  endfacet
  facet normal 0 0 -1
    outer loop
      vertex -13.8913 -22.2285 0
      vertex -13.9644 -21.8804 0
      vertex -13.9744 -21.6532 0
    endloop
  endfacet
  facet normal -0 0 -1
    outer loop
      vertex 11.8984 28.3938 0
      vertex -13.8913 22.2285 0
      vertex -11.8984 28.3938 0
    endloop
  endfacet
  facet normal 0 -0 -1
    outer loop
      vertex -13.9644 21.8804 0
      vertex -13.8913 22.2285 0
      vertex -13.9744 21.6532 0
    endloop
  endfacet
  facet normal 0 0 -1
    outer loop
      vertex -13.8913 22.2285 0
      vertex -13.9644 21.8804 0
      vertex -13.9355 22.0802 0
    endloop
  endfacet
  facet normal 0 0 1
    outer loop
      vertex 2.4021 -62.2054 42.3164
      vertex -1.14339 -64.0379 42.3164
      vertex 1.14339 -64.0379 42.3164
    endloop
  endfacet
  facet normal 0 0 1
    outer loop
      vertex -2.4021 -62.2054 42.3164
      vertex 2.4021 -62.2054 42.3164
      vertex 2.56084 -61.9743 42.3164
    endloop
  endfacet
  facet normal 0 0 1
    outer loop
      vertex 2.4021 -62.2054 42.3164
      vertex -2.4021 -62.2054 42.3164
      vertex -1.14339 -64.0379 42.3164
    endloop
  endfacet
  facet normal 0 -0 1
    outer loop
      vertex -2.4021 -62.2054 42.3164
      vertex 2.56084 -61.9743 42.3164
      vertex -2.56084 -61.9743 42.3164
    endloop
  endfacet
  facet normal -0 0 1
    outer loop
      vertex -1.14339 64.0379 42.3164
      vertex 2.4021 62.2054 42.3164
      vertex 1.14339 64.0379 42.3164
    endloop
  endfacet
  facet normal 0 0 1
    outer loop
      vertex -2.4021 62.2054 42.3164
      vertex 2.4021 62.2054 42.3164
      vertex -1.14339 64.0379 42.3164
    endloop
  endfacet
  facet normal 0 0 1
    outer loop
      vertex 2.4021 62.2054 42.3164
      vertex -2.4021 62.2054 42.3164
      vertex 2.56084 61.9743 42.3164
    endloop
  endfacet
  facet normal 0 0 1
    outer loop
      vertex 2.56084 61.9743 42.3164
      vertex -2.4021 62.2054 42.3164
      vertex -2.56084 61.9743 42.3164
    endloop
  endfacet
endsolid OpenSCAD_Model
