solid OpenSCAD_Model
  facet normal 0 0.5 -0.866025
    outer loop
      vertex -29.75 40.5176 -1.93185
      vertex 29.75 41.4142 -1.41421
      vertex 29.75 40.5176 -1.93185
    endloop
  endfacet
  facet normal 0 0.5 -0.866025
    outer loop
      vertex 29.75 41.4142 -1.41421
      vertex -29.75 40.5176 -1.93185
      vertex -29.75 41.4142 -1.41421
    endloop
  endfacet
  facet normal 0 0.866027 -0.499998
    outer loop
      vertex 29.75 41.4142 -1.41421
      vertex -29.75 41.9319 -0.517637
      vertex 29.75 41.9319 -0.517637
    endloop
  endfacet
  facet normal 0 0.866027 -0.499998
    outer loop
      vertex -29.75 41.9319 -0.517637
      vertex 29.75 41.4142 -1.41421
      vertex -29.75 41.4142 -1.41421
    endloop
  endfacet
  facet normal -0.965926 0.258819 0
    outer loop
      vertex -31.6819 40 -0.517637
      vertex -31.423 40.9659 9.51764
      vertex -31.423 40.9659 -0.517637
    endloop
  endfacet
  facet normal -0.965926 0.258819 0
    outer loop
      vertex -31.423 40.9659 9.51764
      vertex -31.6819 40 -0.517637
      vertex -31.6819 40 9.51764
    endloop
  endfacet
  facet normal 0 1 -0
    outer loop
      vertex 29.75 41.9319 -0.517637
      vertex -29.75 41.9319 9.51764
      vertex 29.75 41.9319 9.51764
    endloop
  endfacet
  facet normal 0 1 0
    outer loop
      vertex -29.75 41.9319 9.51764
      vertex 29.75 41.9319 -0.517637
      vertex -29.75 41.9319 -0.517637
    endloop
  endfacet
  facet normal -0.866026 0 0.499999
    outer loop
      vertex -31.6819 6.93185 9.51764
      vertex -31.1642 40 10.4142
      vertex -31.6819 40 9.51764
    endloop
  endfacet
  facet normal -0.866026 0 0.499999
    outer loop
      vertex -31.1642 40 10.4142
      vertex -31.6819 6.93185 9.51764
      vertex -31.1642 6.41421 10.4142
    endloop
  endfacet
  facet normal 0.965926 0.258819 0
    outer loop
      vertex 31.6819 40 9.51764
      vertex 31.423 40.9659 -0.517637
      vertex 31.423 40.9659 9.51764
    endloop
  endfacet
  facet normal 0.965926 0.258819 0
    outer loop
      vertex 31.423 40.9659 -0.517637
      vertex 31.6819 40 9.51764
      vertex 31.6819 40 -0.517637
    endloop
  endfacet
  facet normal 0.866026 -0 0.499999
    outer loop
      vertex 31.1642 -2 10.4142
      vertex 31.6819 40 9.51764
      vertex 31.1642 40 10.4142
    endloop
  endfacet
  facet normal 0.866026 0 0.499999
    outer loop
      vertex 31.6819 40 9.51764
      vertex 31.1642 -2 10.4142
      vertex 31.6819 -2 9.51764
    endloop
  endfacet
  facet normal -0.226044 0.843611 -0.487056
    outer loop
      vertex -29.75 41.4142 -1.41421
      vertex -30.4571 41.2247 -1.41421
      vertex -29.75 41.9319 -0.517637
    endloop
  endfacet
  facet normal 0 0 -1
    outer loop
      vertex -30.2676 5.51764 -1.93185
      vertex -27.25 35.05 -1.93185
      vertex -27.25 0 -1.93185
    endloop
  endfacet
  facet normal 0 0 -1
    outer loop
      vertex -30.2676 40 -1.93185
      vertex -27.25 35.05 -1.93185
      vertex -30.2676 5.51764 -1.93185
    endloop
  endfacet
  facet normal 0 0 -1
    outer loop
      vertex -27.25 35.05 -1.93185
      vertex -30.2676 40 -1.93185
      vertex -29.75 40.5176 -1.93185
    endloop
  endfacet
  facet normal 0 0 -1
    outer loop
      vertex -29.75 40.5176 -1.93185
      vertex -30.2676 40 -1.93185
      vertex -30.0088 40.4483 -1.93185
    endloop
  endfacet
  facet normal 0 0 -1
    outer loop
      vertex -39.2676 0 -1.93185
      vertex -30.2676 5.51764 -1.93185
      vertex -27.25 0 -1.93185
    endloop
  endfacet
  facet normal -0 0 -1
    outer loop
      vertex -30.2676 5.51764 -1.93185
      vertex -39.2676 0 -1.93185
      vertex -38.75 5.51764 -1.93185
    endloop
  endfacet
  facet normal 0 0 -1
    outer loop
      vertex -39.2676 5 -1.93185
      vertex -38.75 5.51764 -1.93185
      vertex -39.2676 0 -1.93185
    endloop
  endfacet
  facet normal 0 0 -1
    outer loop
      vertex -38.75 5.51764 -1.93185
      vertex -39.2676 5 -1.93185
      vertex -39.0088 5.44829 -1.93185
    endloop
  endfacet
  facet normal 0 0 -1
    outer loop
      vertex -39.0088 5.44829 -1.93185
      vertex -39.2676 5 -1.93185
      vertex -39.1983 5.25882 -1.93185
    endloop
  endfacet
  facet normal 0 0 -1
    outer loop
      vertex 29.75 -2.51764 -1.93185
      vertex 30.2676 -2 -1.93185
      vertex 30.1983 -2.25882 -1.93185
    endloop
  endfacet
  facet normal 0 0 -1
    outer loop
      vertex 30.2676 -2 -1.93185
      vertex 27.25 35.05 -1.93185
      vertex 30.2676 40 -1.93185
    endloop
  endfacet
  facet normal 0 0 -1
    outer loop
      vertex 29.75 -2.51764 -1.93185
      vertex 30.1983 -2.25882 -1.93185
      vertex 30.0088 -2.44829 -1.93185
    endloop
  endfacet
  facet normal 0 -0 -1
    outer loop
      vertex 29.75 40.5176 -1.93185
      vertex 30.2676 40 -1.93185
      vertex 27.25 35.05 -1.93185
    endloop
  endfacet
  facet normal 0 0 -1
    outer loop
      vertex 30.2676 -2 -1.93185
      vertex 29.75 -2.51764 -1.93185
      vertex 27.25 -2.51764 -1.93185
    endloop
  endfacet
  facet normal 0 0 -1
    outer loop
      vertex 30.2676 40 -1.93185
      vertex 29.75 40.5176 -1.93185
      vertex 30.1983 40.2588 -1.93185
    endloop
  endfacet
  facet normal -0 0 -1
    outer loop
      vertex 30.2676 -2 -1.93185
      vertex 27.25 -2.51764 -1.93185
      vertex 27.25 35.05 -1.93185
    endloop
  endfacet
  facet normal 0 0 -1
    outer loop
      vertex 30.1983 40.2588 -1.93185
      vertex 29.75 40.5176 -1.93185
      vertex 30.0088 40.4483 -1.93185
    endloop
  endfacet
  facet normal 0 0 -1
    outer loop
      vertex -27.25 35.05 -1.93185
      vertex 29.75 40.5176 -1.93185
      vertex 27.25 35.05 -1.93185
    endloop
  endfacet
  facet normal -0 0 -1
    outer loop
      vertex 29.75 40.5176 -1.93185
      vertex -27.25 35.05 -1.93185
      vertex -29.75 40.5176 -1.93185
    endloop
  endfacet
  facet normal 0 0 -1
    outer loop
      vertex -30.0088 40.4483 -1.93185
      vertex -30.2676 40 -1.93185
      vertex -30.1983 40.2588 -1.93185
    endloop
  endfacet
  facet normal 0.132788 0.495572 -0.858356
    outer loop
      vertex 30.4571 41.2247 -1.41421
      vertex 29.75 40.5176 -1.93185
      vertex 29.75 41.4142 -1.41421
    endloop
  endfacet
  facet normal -0.132788 0.495572 -0.858356
    outer loop
      vertex -29.75 40.5176 -1.93185
      vertex -30.4571 41.2247 -1.41421
      vertex -29.75 41.4142 -1.41421
    endloop
  endfacet
  facet normal -0.132789 0.495571 -0.858357
    outer loop
      vertex -30.0088 40.4483 -1.93185
      vertex -30.4571 41.2247 -1.41421
      vertex -29.75 40.5176 -1.93185
    endloop
  endfacet
  facet normal -0.843611 0.226045 0.487057
    outer loop
      vertex -31.423 40.9659 9.51764
      vertex -31.6819 40 9.51764
      vertex -30.9747 40.7071 10.4142
    endloop
  endfacet
  facet normal -0.617568 0.617565 0.487055
    outer loop
      vertex -30.7159 41.673 9.51764
      vertex -30.9747 40.7071 10.4142
      vertex -30.4571 41.2247 10.4142
    endloop
  endfacet
  facet normal -0.617565 0.617567 0.487058
    outer loop
      vertex -30.9747 40.7071 10.4142
      vertex -30.7159 41.673 9.51764
      vertex -31.423 40.9659 9.51764
    endloop
  endfacet
  facet normal -0.226044 0.843611 0.487056
    outer loop
      vertex -29.75 41.9319 9.51764
      vertex -30.4571 41.2247 10.4142
      vertex -29.75 41.4142 10.4142
    endloop
  endfacet
  facet normal -0 0.5 0.866025
    outer loop
      vertex -29.75 41.4142 10.4142
      vertex 29.75 40.5176 10.9319
      vertex 29.75 41.4142 10.4142
    endloop
  endfacet
  facet normal 0 0.5 0.866025
    outer loop
      vertex 29.75 40.5176 10.9319
      vertex -29.75 41.4142 10.4142
      vertex -29.75 40.5176 10.9319
    endloop
  endfacet
  facet normal 0.226044 0.843611 -0.487056
    outer loop
      vertex 30.4571 41.2247 -1.41421
      vertex 29.75 41.4142 -1.41421
      vertex 29.75 41.9319 -0.517637
    endloop
  endfacet
  facet normal 0.362785 0.362783 0.858356
    outer loop
      vertex 30.4571 41.2247 10.4142
      vertex 30.1983 40.2588 10.9319
      vertex 30.9747 40.7071 10.4142
    endloop
  endfacet
  facet normal 0.362784 0.362784 0.858357
    outer loop
      vertex 30.1983 40.2588 10.9319
      vertex 30.4571 41.2247 10.4142
      vertex 30.0088 40.4483 10.9319
    endloop
  endfacet
  facet normal 0.25882 0.965926 -0
    outer loop
      vertex 30.7159 41.673 -0.517637
      vertex 29.75 41.9319 9.51764
      vertex 30.7159 41.673 9.51764
    endloop
  endfacet
  facet normal 0.25882 0.965926 0
    outer loop
      vertex 29.75 41.9319 9.51764
      vertex 30.7159 41.673 -0.517637
      vertex 29.75 41.9319 -0.517637
    endloop
  endfacet
  facet normal -0.495572 0.132788 -0.858356
    outer loop
      vertex -30.2676 40 -1.93185
      vertex -31.1642 40 -1.41421
      vertex -30.9747 40.7071 -1.41421
    endloop
  endfacet
  facet normal -1 0 0
    outer loop
      vertex -31.6819 40 -0.517637
      vertex -31.6819 7.1 3.96675
      vertex -31.6819 40 9.51764
    endloop
  endfacet
  facet normal -1 -0 0
    outer loop
      vertex -31.6819 7.08806 3.99094
      vertex -31.6819 6.93185 -0.517637
      vertex -31.6819 6.99893 4.5
    endloop
  endfacet
  facet normal -1 -0 0
    outer loop
      vertex -31.6819 7.08838 3.98916
      vertex -31.6819 6.93185 -0.517637
      vertex -31.6819 7.08806 3.99094
    endloop
  endfacet
  facet normal -1 -0 0
    outer loop
      vertex -31.6819 7.08921 3.98755
      vertex -31.6819 6.93185 -0.517637
      vertex -31.6819 7.08838 3.98916
    endloop
  endfacet
  facet normal -1 -0 0
    outer loop
      vertex -31.6819 7.1 3.96675
      vertex -31.6819 6.93185 -0.517637
      vertex -31.6819 7.08921 3.98755
    endloop
  endfacet
  facet normal -1 0 0
    outer loop
      vertex -31.6819 6.93185 -0.517637
      vertex -31.6819 7.1 3.96675
      vertex -31.6819 40 -0.517637
    endloop
  endfacet
  facet normal -1 0 0
    outer loop
      vertex -31.6819 7.1 5.03325
      vertex -31.6819 40 9.51764
      vertex -31.6819 7.1 3.96675
    endloop
  endfacet
  facet normal -1 0 0
    outer loop
      vertex -31.6819 7.1 5.03325
      vertex -31.6819 6.93185 9.51764
      vertex -31.6819 40 9.51764
    endloop
  endfacet
  facet normal -1 0 0
    outer loop
      vertex -31.6819 7.08921 5.01245
      vertex -31.6819 6.93185 9.51764
      vertex -31.6819 7.1 5.03325
    endloop
  endfacet
  facet normal -1 0 0
    outer loop
      vertex -31.6819 7.08838 5.01084
      vertex -31.6819 6.93185 9.51764
      vertex -31.6819 7.08921 5.01245
    endloop
  endfacet
  facet normal -1 0 0
    outer loop
      vertex -31.6819 7.08806 5.00906
      vertex -31.6819 6.93185 9.51764
      vertex -31.6819 7.08838 5.01084
    endloop
  endfacet
  facet normal -1 0 0
    outer loop
      vertex -31.6819 6.99893 4.5
      vertex -31.6819 6.93185 9.51764
      vertex -31.6819 7.08806 5.00906
    endloop
  endfacet
  facet normal -1 0 0
    outer loop
      vertex -31.6819 6.93185 9.51764
      vertex -31.6819 6.99893 4.5
      vertex -31.6819 6.93185 -0.517637
    endloop
  endfacet
  facet normal -0.866026 0 -0.499999
    outer loop
      vertex -31.1642 40 -1.41421
      vertex -31.6819 6.93185 -0.517637
      vertex -31.6819 40 -0.517637
    endloop
  endfacet
  facet normal -0.866026 0 -0.499999
    outer loop
      vertex -31.6819 6.93185 -0.517637
      vertex -31.1642 40 -1.41421
      vertex -31.1642 6.41421 -1.41421
    endloop
  endfacet
  facet normal -0.226046 0.843611 -0.487056
    outer loop
      vertex -30.4571 41.2247 -1.41421
      vertex -30.7159 41.673 -0.517637
      vertex -29.75 41.9319 -0.517637
    endloop
  endfacet
  facet normal -0.5 0 -0.866025
    outer loop
      vertex -31.1642 6.41421 -1.41421
      vertex -30.2676 40 -1.93185
      vertex -30.2676 5.51764 -1.93185
    endloop
  endfacet
  facet normal -0.5 0 -0.866025
    outer loop
      vertex -30.2676 40 -1.93185
      vertex -31.1642 6.41421 -1.41421
      vertex -31.1642 40 -1.41421
    endloop
  endfacet
  facet normal -0.843611 0.226044 0.487058
    outer loop
      vertex -30.9747 40.7071 10.4142
      vertex -31.6819 40 9.51764
      vertex -31.1642 40 10.4142
    endloop
  endfacet
  facet normal -0.495572 0.132788 0.858356
    outer loop
      vertex -30.9747 40.7071 10.4142
      vertex -31.1642 40 10.4142
      vertex -30.2676 40 10.9319
    endloop
  endfacet
  facet normal -0.5 0 0.866025
    outer loop
      vertex -31.1642 6.41421 10.4142
      vertex -30.2676 40 10.9319
      vertex -31.1642 40 10.4142
    endloop
  endfacet
  facet normal -0.5 0 0.866025
    outer loop
      vertex -30.2676 40 10.9319
      vertex -31.1642 6.41421 10.4142
      vertex -30.2676 5.51764 10.9319
    endloop
  endfacet
  facet normal 0.226044 0.843611 0.487056
    outer loop
      vertex 29.75 41.9319 9.51764
      vertex 29.75 41.4142 10.4142
      vertex 30.4571 41.2247 10.4142
    endloop
  endfacet
  facet normal 0.843611 0.226045 0.487057
    outer loop
      vertex 31.423 40.9659 9.51764
      vertex 30.9747 40.7071 10.4142
      vertex 31.6819 40 9.51764
    endloop
  endfacet
  facet normal 0.843611 0.226044 0.487058
    outer loop
      vertex 31.6819 40 9.51764
      vertex 30.9747 40.7071 10.4142
      vertex 31.1642 40 10.4142
    endloop
  endfacet
  facet normal -0.132788 0.495572 0.858356
    outer loop
      vertex -29.75 41.4142 10.4142
      vertex -30.4571 41.2247 10.4142
      vertex -29.75 40.5176 10.9319
    endloop
  endfacet
  facet normal 0 0.866027 0.499998
    outer loop
      vertex 29.75 41.9319 9.51764
      vertex -29.75 41.4142 10.4142
      vertex 29.75 41.4142 10.4142
    endloop
  endfacet
  facet normal 0 0.866027 0.499998
    outer loop
      vertex -29.75 41.4142 10.4142
      vertex 29.75 41.9319 9.51764
      vertex -29.75 41.9319 9.51764
    endloop
  endfacet
  facet normal 0.226046 0.843611 -0.487056
    outer loop
      vertex 30.4571 41.2247 -1.41421
      vertex 29.75 41.9319 -0.517637
      vertex 30.7159 41.673 -0.517637
    endloop
  endfacet
  facet normal 0.5 0 -0.866025
    outer loop
      vertex 30.2676 -2 -1.93185
      vertex 31.1642 40 -1.41421
      vertex 31.1642 -2 -1.41421
    endloop
  endfacet
  facet normal 0.5 0 -0.866025
    outer loop
      vertex 31.1642 40 -1.41421
      vertex 30.2676 -2 -1.93185
      vertex 30.2676 40 -1.93185
    endloop
  endfacet
  facet normal 0.495572 0.132788 -0.858356
    outer loop
      vertex 31.1642 40 -1.41421
      vertex 30.2676 40 -1.93185
      vertex 30.9747 40.7071 -1.41421
    endloop
  endfacet
  facet normal 0.5 0 0.866025
    outer loop
      vertex 30.2676 40 10.9319
      vertex 31.1642 -2 10.4142
      vertex 31.1642 40 10.4142
    endloop
  endfacet
  facet normal 0.5 0 0.866025
    outer loop
      vertex 31.1642 -2 10.4142
      vertex 30.2676 40 10.9319
      vertex 30.2676 -2 10.9319
    endloop
  endfacet
  facet normal 0.495572 0.132788 0.858356
    outer loop
      vertex 30.9747 40.7071 10.4142
      vertex 30.2676 40 10.9319
      vertex 31.1642 40 10.4142
    endloop
  endfacet
  facet normal 0.132788 0.495572 0.858356
    outer loop
      vertex 29.75 41.4142 10.4142
      vertex 29.75 40.5176 10.9319
      vertex 30.4571 41.2247 10.4142
    endloop
  endfacet
  facet normal 0.132789 0.495571 0.858357
    outer loop
      vertex 30.4571 41.2247 10.4142
      vertex 29.75 40.5176 10.9319
      vertex 30.0088 40.4483 10.9319
    endloop
  endfacet
  facet normal -0.226046 0.843611 0.487056
    outer loop
      vertex -29.75 41.9319 9.51764
      vertex -30.7159 41.673 9.51764
      vertex -30.4571 41.2247 10.4142
    endloop
  endfacet
  facet normal 0.495573 0.132786 -0.858356
    outer loop
      vertex 30.2676 40 -1.93185
      vertex 30.1983 40.2588 -1.93185
      vertex 30.9747 40.7071 -1.41421
    endloop
  endfacet
  facet normal 0.132789 0.495571 -0.858357
    outer loop
      vertex 30.0088 40.4483 -1.93185
      vertex 29.75 40.5176 -1.93185
      vertex 30.4571 41.2247 -1.41421
    endloop
  endfacet
  facet normal -0.843611 0.226044 -0.487058
    outer loop
      vertex -31.1642 40 -1.41421
      vertex -31.6819 40 -0.517637
      vertex -30.9747 40.7071 -1.41421
    endloop
  endfacet
  facet normal -0.843611 0.226045 -0.487057
    outer loop
      vertex -30.9747 40.7071 -1.41421
      vertex -31.6819 40 -0.517637
      vertex -31.423 40.9659 -0.517637
    endloop
  endfacet
  facet normal -0.707106 0.707108 0
    outer loop
      vertex -30.7159 41.673 -0.517637
      vertex -31.423 40.9659 9.51764
      vertex -30.7159 41.673 9.51764
    endloop
  endfacet
  facet normal -0.707106 0.707108 0
    outer loop
      vertex -31.423 40.9659 9.51764
      vertex -30.7159 41.673 -0.517637
      vertex -31.423 40.9659 -0.517637
    endloop
  endfacet
  facet normal -0.25882 0.965926 0
    outer loop
      vertex -29.75 41.9319 -0.517637
      vertex -30.7159 41.673 9.51764
      vertex -29.75 41.9319 9.51764
    endloop
  endfacet
  facet normal -0.25882 0.965926 0
    outer loop
      vertex -30.7159 41.673 9.51764
      vertex -29.75 41.9319 -0.517637
      vertex -30.7159 41.673 -0.517637
    endloop
  endfacet
  facet normal -0.617568 0.617565 -0.487055
    outer loop
      vertex -30.9747 40.7071 -1.41421
      vertex -30.7159 41.673 -0.517637
      vertex -30.4571 41.2247 -1.41421
    endloop
  endfacet
  facet normal -0.617565 0.617567 -0.487058
    outer loop
      vertex -30.7159 41.673 -0.517637
      vertex -30.9747 40.7071 -1.41421
      vertex -31.423 40.9659 -0.517637
    endloop
  endfacet
  facet normal -0.495573 0.132786 0.858356
    outer loop
      vertex -30.1983 40.2588 10.9319
      vertex -30.9747 40.7071 10.4142
      vertex -30.2676 40 10.9319
    endloop
  endfacet
  facet normal 0.226046 0.843611 0.487056
    outer loop
      vertex 30.7159 41.673 9.51764
      vertex 29.75 41.9319 9.51764
      vertex 30.4571 41.2247 10.4142
    endloop
  endfacet
  facet normal 0.617565 0.617567 0.487058
    outer loop
      vertex 30.7159 41.673 9.51764
      vertex 30.9747 40.7071 10.4142
      vertex 31.423 40.9659 9.51764
    endloop
  endfacet
  facet normal 0.617568 0.617565 0.487055
    outer loop
      vertex 30.9747 40.7071 10.4142
      vertex 30.7159 41.673 9.51764
      vertex 30.4571 41.2247 10.4142
    endloop
  endfacet
  facet normal -0.362784 0.362784 0.858357
    outer loop
      vertex -30.4571 41.2247 10.4142
      vertex -30.1983 40.2588 10.9319
      vertex -30.0088 40.4483 10.9319
    endloop
  endfacet
  facet normal -0.362785 0.362783 0.858356
    outer loop
      vertex -30.1983 40.2588 10.9319
      vertex -30.4571 41.2247 10.4142
      vertex -30.9747 40.7071 10.4142
    endloop
  endfacet
  facet normal -0.132789 0.495571 0.858357
    outer loop
      vertex -29.75 40.5176 10.9319
      vertex -30.4571 41.2247 10.4142
      vertex -30.0088 40.4483 10.9319
    endloop
  endfacet
  facet normal 0.617565 0.617567 -0.487058
    outer loop
      vertex 30.9747 40.7071 -1.41421
      vertex 30.7159 41.673 -0.517637
      vertex 31.423 40.9659 -0.517637
    endloop
  endfacet
  facet normal 0.617568 0.617565 -0.487055
    outer loop
      vertex 30.7159 41.673 -0.517637
      vertex 30.9747 40.7071 -1.41421
      vertex 30.4571 41.2247 -1.41421
    endloop
  endfacet
  facet normal 1 0 0
    outer loop
      vertex 31.6819 40 9.51764
      vertex 31.6819 7.1 5.03325
      vertex 31.6819 40 -0.517637
    endloop
  endfacet
  facet normal 1 0 0
    outer loop
      vertex 31.6819 7.08806 5.00906
      vertex 31.6819 -2 9.51764
      vertex 31.6819 6.99893 4.5
    endloop
  endfacet
  facet normal 1 0 0
    outer loop
      vertex 31.6819 7.08838 5.01084
      vertex 31.6819 -2 9.51764
      vertex 31.6819 7.08806 5.00906
    endloop
  endfacet
  facet normal 1 0 0
    outer loop
      vertex 31.6819 7.08921 5.01245
      vertex 31.6819 -2 9.51764
      vertex 31.6819 7.08838 5.01084
    endloop
  endfacet
  facet normal 1 0 0
    outer loop
      vertex 31.6819 7.1 5.03325
      vertex 31.6819 -2 9.51764
      vertex 31.6819 7.08921 5.01245
    endloop
  endfacet
  facet normal 1 -0 0
    outer loop
      vertex 31.6819 -2 9.51764
      vertex 31.6819 7.1 5.03325
      vertex 31.6819 40 9.51764
    endloop
  endfacet
  facet normal 1 -0 0
    outer loop
      vertex 31.6819 7.1 3.96675
      vertex 31.6819 40 -0.517637
      vertex 31.6819 7.1 5.03325
    endloop
  endfacet
  facet normal 1 0 0
    outer loop
      vertex 31.6819 -2 -0.517637
      vertex 31.6819 6.99893 4.5
      vertex 31.6819 -2 9.51764
    endloop
  endfacet
  facet normal 1 0 0
    outer loop
      vertex 31.6819 6.99893 4.5
      vertex 31.6819 -2 -0.517637
      vertex 31.6819 7.08806 3.99094
    endloop
  endfacet
  facet normal 1 0 0
    outer loop
      vertex 31.6819 7.08806 3.99094
      vertex 31.6819 -2 -0.517637
      vertex 31.6819 7.08838 3.98916
    endloop
  endfacet
  facet normal 1 0 0
    outer loop
      vertex 31.6819 7.08838 3.98916
      vertex 31.6819 -2 -0.517637
      vertex 31.6819 7.08921 3.98755
    endloop
  endfacet
  facet normal 1 0 0
    outer loop
      vertex 31.6819 7.1 3.96675
      vertex 31.6819 -2 -0.517637
      vertex 31.6819 40 -0.517637
    endloop
  endfacet
  facet normal 1 0 0
    outer loop
      vertex 31.6819 7.08921 3.98755
      vertex 31.6819 -2 -0.517637
      vertex 31.6819 7.1 3.96675
    endloop
  endfacet
  facet normal 0.362785 0.362783 -0.858356
    outer loop
      vertex 30.1983 40.2588 -1.93185
      vertex 30.4571 41.2247 -1.41421
      vertex 30.9747 40.7071 -1.41421
    endloop
  endfacet
  facet normal 0.362784 0.362784 -0.858357
    outer loop
      vertex 30.4571 41.2247 -1.41421
      vertex 30.1983 40.2588 -1.93185
      vertex 30.0088 40.4483 -1.93185
    endloop
  endfacet
  facet normal 0 0 1
    outer loop
      vertex 29.75 40.5176 10.9319
      vertex 30.2676 40 10.9319
      vertex 30.1983 40.2588 10.9319
    endloop
  endfacet
  facet normal 0 0 1
    outer loop
      vertex 30.2676 40 10.9319
      vertex 27.25 35.05 10.9319
      vertex 30.2676 -2 10.9319
    endloop
  endfacet
  facet normal 0 0 1
    outer loop
      vertex 29.75 40.5176 10.9319
      vertex 30.1983 40.2588 10.9319
      vertex 30.0088 40.4483 10.9319
    endloop
  endfacet
  facet normal 0 0 1
    outer loop
      vertex 27.25 -2.51764 10.9319
      vertex 30.2676 -2 10.9319
      vertex 27.25 35.05 10.9319
    endloop
  endfacet
  facet normal 0 0 1
    outer loop
      vertex 30.2676 40 10.9319
      vertex 29.75 40.5176 10.9319
      vertex 27.25 35.05 10.9319
    endloop
  endfacet
  facet normal 0 -0 1
    outer loop
      vertex 29.75 -2.51764 10.9319
      vertex 30.2676 -2 10.9319
      vertex 27.25 -2.51764 10.9319
    endloop
  endfacet
  facet normal 0 0 1
    outer loop
      vertex 30.2676 -2 10.9319
      vertex 29.75 -2.51764 10.9319
      vertex 30.1983 -2.25882 10.9319
    endloop
  endfacet
  facet normal 0 0 1
    outer loop
      vertex 29.75 40.5176 10.9319
      vertex -27.25 35.05 10.9319
      vertex 27.25 35.05 10.9319
    endloop
  endfacet
  facet normal -0 0 1
    outer loop
      vertex -29.75 40.5176 10.9319
      vertex -27.25 35.05 10.9319
      vertex 29.75 40.5176 10.9319
    endloop
  endfacet
  facet normal -0 0 1
    outer loop
      vertex -30.2676 40 10.9319
      vertex -27.25 35.05 10.9319
      vertex -29.75 40.5176 10.9319
    endloop
  endfacet
  facet normal 0 0 1
    outer loop
      vertex -30.2676 40 10.9319
      vertex -29.75 40.5176 10.9319
      vertex -30.0088 40.4483 10.9319
    endloop
  endfacet
  facet normal 0 0 1
    outer loop
      vertex -30.2676 40 10.9319
      vertex -30.0088 40.4483 10.9319
      vertex -30.1983 40.2588 10.9319
    endloop
  endfacet
  facet normal 0 0 1
    outer loop
      vertex -27.25 35.05 10.9319
      vertex -30.2676 40 10.9319
      vertex -30.2676 5.51764 10.9319
    endloop
  endfacet
  facet normal 0 0 1
    outer loop
      vertex -27.25 35.05 10.9319
      vertex -30.2676 5.51764 10.9319
      vertex -27.25 0 10.9319
    endloop
  endfacet
  facet normal 0 0 1
    outer loop
      vertex -39.2676 0 10.9319
      vertex -30.2676 5.51764 10.9319
      vertex -38.75 5.51764 10.9319
    endloop
  endfacet
  facet normal 0 0 1
    outer loop
      vertex -39.2676 5 10.9319
      vertex -38.75 5.51764 10.9319
      vertex -39.0088 5.44829 10.9319
    endloop
  endfacet
  facet normal 0 0 1
    outer loop
      vertex -39.2676 5 10.9319
      vertex -39.0088 5.44829 10.9319
      vertex -39.1983 5.25882 10.9319
    endloop
  endfacet
  facet normal 0 0 1
    outer loop
      vertex -38.75 5.51764 10.9319
      vertex -39.2676 5 10.9319
      vertex -39.2676 0 10.9319
    endloop
  endfacet
  facet normal 0 0 1
    outer loop
      vertex -30.2676 5.51764 10.9319
      vertex -39.2676 0 10.9319
      vertex -27.25 0 10.9319
    endloop
  endfacet
  facet normal 0 0 1
    outer loop
      vertex 30.1983 -2.25882 10.9319
      vertex 29.75 -2.51764 10.9319
      vertex 30.0088 -2.44829 10.9319
    endloop
  endfacet
  facet normal -0.495573 0.132786 -0.858356
    outer loop
      vertex -30.2676 40 -1.93185
      vertex -30.9747 40.7071 -1.41421
      vertex -30.1983 40.2588 -1.93185
    endloop
  endfacet
  facet normal -0.362784 0.362784 -0.858357
    outer loop
      vertex -30.1983 40.2588 -1.93185
      vertex -30.4571 41.2247 -1.41421
      vertex -30.0088 40.4483 -1.93185
    endloop
  endfacet
  facet normal -0.362785 0.362783 -0.858356
    outer loop
      vertex -30.4571 41.2247 -1.41421
      vertex -30.1983 40.2588 -1.93185
      vertex -30.9747 40.7071 -1.41421
    endloop
  endfacet
  facet normal 0.495573 0.132786 0.858356
    outer loop
      vertex 30.9747 40.7071 10.4142
      vertex 30.1983 40.2588 10.9319
      vertex 30.2676 40 10.9319
    endloop
  endfacet
  facet normal 0.866026 0 -0.499999
    outer loop
      vertex 31.6819 -2 -0.517637
      vertex 31.1642 40 -1.41421
      vertex 31.6819 40 -0.517637
    endloop
  endfacet
  facet normal 0.866026 0 -0.499999
    outer loop
      vertex 31.1642 40 -1.41421
      vertex 31.6819 -2 -0.517637
      vertex 31.1642 -2 -1.41421
    endloop
  endfacet
  facet normal 0.707106 0.707108 -0
    outer loop
      vertex 31.423 40.9659 -0.517637
      vertex 30.7159 41.673 9.51764
      vertex 31.423 40.9659 9.51764
    endloop
  endfacet
  facet normal 0.707106 0.707108 0
    outer loop
      vertex 30.7159 41.673 9.51764
      vertex 31.423 40.9659 -0.517637
      vertex 30.7159 41.673 -0.517637
    endloop
  endfacet
  facet normal 0.843611 0.226045 -0.487057
    outer loop
      vertex 31.6819 40 -0.517637
      vertex 30.9747 40.7071 -1.41421
      vertex 31.423 40.9659 -0.517637
    endloop
  endfacet
  facet normal 0.843611 0.226044 -0.487058
    outer loop
      vertex 31.1642 40 -1.41421
      vertex 30.9747 40.7071 -1.41421
      vertex 31.6819 40 -0.517637
    endloop
  endfacet
  facet normal -0.495571 0.13279 0.858357
    outer loop
      vertex -39.1983 5.25882 10.9319
      vertex -39.9747 5.70711 10.4142
      vertex -39.2676 5 10.9319
    endloop
  endfacet
  facet normal -0.843611 0.226046 -0.487056
    outer loop
      vertex -39.9747 5.70711 -1.41421
      vertex -40.6819 5 -0.517637
      vertex -40.423 5.96593 -0.517637
    endloop
  endfacet
  facet normal -0.965926 0.25882 0
    outer loop
      vertex -40.6819 5 -0.517637
      vertex -40.423 5.96593 9.51764
      vertex -40.423 5.96593 -0.517637
    endloop
  endfacet
  facet normal -0.965926 0.25882 0
    outer loop
      vertex -40.423 5.96593 9.51764
      vertex -40.6819 5 -0.517637
      vertex -40.6819 5 9.51764
    endloop
  endfacet
  facet normal -0.866027 0 -0.499998
    outer loop
      vertex -40.1642 0 -1.41421
      vertex -40.6819 5 -0.517637
      vertex -40.1642 5 -1.41421
    endloop
  endfacet
  facet normal -0.866027 -0 -0.499998
    outer loop
      vertex -40.6819 5 -0.517637
      vertex -40.1642 0 -1.41421
      vertex -40.6819 0 -0.517637
    endloop
  endfacet
  facet normal -0.362784 0.362784 0.858356
    outer loop
      vertex -39.4571 6.22474 10.4142
      vertex -39.1983 5.25882 10.9319
      vertex -39.0088 5.44829 10.9319
    endloop
  endfacet
  facet normal -0.362783 0.362784 0.858356
    outer loop
      vertex -39.1983 5.25882 10.9319
      vertex -39.4571 6.22474 10.4142
      vertex -39.9747 5.70711 10.4142
    endloop
  endfacet
  facet normal -0.132788 0.495572 0.858356
    outer loop
      vertex -38.75 6.41421 10.4142
      vertex -39.4571 6.22474 10.4142
      vertex -38.75 5.51764 10.9319
    endloop
  endfacet
  facet normal 0 -1 0
    outer loop
      vertex 27.25 -3.93185 -0.517637
      vertex 29.75 -3.93185 9.51764
      vertex 27.25 -3.93185 9.51764
    endloop
  endfacet
  facet normal 0 -1 -0
    outer loop
      vertex 29.75 -3.93185 9.51764
      vertex 27.25 -3.93185 -0.517637
      vertex 29.75 -3.93185 -0.517637
    endloop
  endfacet
  facet normal 0.226044 -0.84361 -0.487058
    outer loop
      vertex 30.4571 -3.22474 -1.41421
      vertex 29.75 -3.93185 -0.517637
      vertex 29.75 -3.41421 -1.41421
    endloop
  endfacet
  facet normal 0.226045 -0.84361 0.487058
    outer loop
      vertex 30.4571 -3.22474 10.4142
      vertex 29.75 -3.93185 9.51764
      vertex 30.7159 -3.67303 9.51764
    endloop
  endfacet
  facet normal -0.495572 0.132788 0.858356
    outer loop
      vertex -39.9747 5.70711 10.4142
      vertex -40.1642 5 10.4142
      vertex -39.2676 5 10.9319
    endloop
  endfacet
  facet normal -0.843611 0.226045 0.487056
    outer loop
      vertex -39.9747 5.70711 10.4142
      vertex -40.6819 5 9.51764
      vertex -40.1642 5 10.4142
    endloop
  endfacet
  facet normal -1 0 0
    outer loop
      vertex -40.6819 0 -0.517637
      vertex -40.6819 5 9.51764
      vertex -40.6819 5 -0.517637
    endloop
  endfacet
  facet normal -1 -0 0
    outer loop
      vertex -40.6819 5 9.51764
      vertex -40.6819 0 -0.517637
      vertex -40.6819 0 9.51764
    endloop
  endfacet
  facet normal -0.132788 0.495572 -0.858356
    outer loop
      vertex -38.75 5.51764 -1.93185
      vertex -39.4571 6.22474 -1.41421
      vertex -38.75 6.41421 -1.41421
    endloop
  endfacet
  facet normal -0.617567 0.617564 0.487058
    outer loop
      vertex -40.423 5.96593 9.51764
      vertex -39.4571 6.22474 10.4142
      vertex -39.7159 6.67303 9.51764
    endloop
  endfacet
  facet normal -0.617566 0.617567 0.487056
    outer loop
      vertex -39.4571 6.22474 10.4142
      vertex -40.423 5.96593 9.51764
      vertex -39.9747 5.70711 10.4142
    endloop
  endfacet
  facet normal 0.25882 -0.965926 0
    outer loop
      vertex 29.75 -3.93185 -0.517637
      vertex 30.7159 -3.67303 9.51764
      vertex 29.75 -3.93185 9.51764
    endloop
  endfacet
  facet normal 0.25882 -0.965926 0
    outer loop
      vertex 30.7159 -3.67303 9.51764
      vertex 29.75 -3.93185 -0.517637
      vertex 30.7159 -3.67303 -0.517637
    endloop
  endfacet
  facet normal 0 -0.5 0.866025
    outer loop
      vertex 27.25 -2.51764 10.9319
      vertex 29.75 -3.41421 10.4142
      vertex 29.75 -2.51764 10.9319
    endloop
  endfacet
  facet normal 0 -0.5 0.866025
    outer loop
      vertex 29.75 -3.41421 10.4142
      vertex 27.25 -2.51764 10.9319
      vertex 27.25 -3.41421 10.4142
    endloop
  endfacet
  facet normal -0.132788 0.495572 0.858356
    outer loop
      vertex -38.75 5.51764 10.9319
      vertex -39.4571 6.22474 10.4142
      vertex -39.0088 5.44829 10.9319
    endloop
  endfacet
  facet normal 0.707107 -0.707106 0
    outer loop
      vertex 30.7159 -3.67303 9.51764
      vertex 31.423 -2.96593 -0.517637
      vertex 31.423 -2.96593 9.51764
    endloop
  endfacet
  facet normal 0.707107 -0.707106 0
    outer loop
      vertex 31.423 -2.96593 -0.517637
      vertex 30.7159 -3.67303 9.51764
      vertex 30.7159 -3.67303 -0.517637
    endloop
  endfacet
  facet normal -0.866027 0 0.499998
    outer loop
      vertex -40.6819 0 9.51764
      vertex -40.1642 5 10.4142
      vertex -40.6819 5 9.51764
    endloop
  endfacet
  facet normal -0.866027 0 0.499998
    outer loop
      vertex -40.1642 5 10.4142
      vertex -40.6819 0 9.51764
      vertex -40.1642 0 10.4142
    endloop
  endfacet
  facet normal -0.843611 0.226045 -0.487056
    outer loop
      vertex -40.1642 5 -1.41421
      vertex -40.6819 5 -0.517637
      vertex -39.9747 5.70711 -1.41421
    endloop
  endfacet
  facet normal -0.495571 0.13279 -0.858357
    outer loop
      vertex -39.2676 5 -1.93185
      vertex -39.9747 5.70711 -1.41421
      vertex -39.1983 5.25882 -1.93185
    endloop
  endfacet
  facet normal 0.132788 -0.495572 -0.858356
    outer loop
      vertex 30.4571 -3.22474 -1.41421
      vertex 29.75 -2.51764 -1.93185
      vertex 30.0088 -2.44829 -1.93185
    endloop
  endfacet
  facet normal 0 0.866025 -0.5
    outer loop
      vertex -38.75 6.41421 -1.41421
      vertex -31.6819 6.93185 -0.517637
      vertex -31.1642 6.41421 -1.41421
    endloop
  endfacet
  facet normal 0 0.866025 -0.5
    outer loop
      vertex -31.6819 6.93185 -0.517637
      vertex -38.75 6.41421 -1.41421
      vertex -38.75 6.93185 -0.517637
    endloop
  endfacet
  facet normal 0 0.5 0.866025
    outer loop
      vertex -38.75 5.51764 10.9319
      vertex -31.1642 6.41421 10.4142
      vertex -38.75 6.41421 10.4142
    endloop
  endfacet
  facet normal 0 0.5 0.866025
    outer loop
      vertex -31.1642 6.41421 10.4142
      vertex -38.75 5.51764 10.9319
      vertex -30.2676 5.51764 10.9319
    endloop
  endfacet
  facet normal 0.132788 -0.495572 -0.858356
    outer loop
      vertex 30.4571 -3.22474 -1.41421
      vertex 29.75 -3.41421 -1.41421
      vertex 29.75 -2.51764 -1.93185
    endloop
  endfacet
  facet normal 0.965926 -0.25882 0
    outer loop
      vertex 31.423 -2.96593 9.51764
      vertex 31.6819 -2 -0.517637
      vertex 31.6819 -2 9.51764
    endloop
  endfacet
  facet normal 0.965926 -0.25882 0
    outer loop
      vertex 31.6819 -2 -0.517637
      vertex 31.423 -2.96593 9.51764
      vertex 31.423 -2.96593 -0.517637
    endloop
  endfacet
  facet normal 0 -0.866025 0.5
    outer loop
      vertex 27.25 -3.93185 9.51764
      vertex 29.75 -3.41421 10.4142
      vertex 27.25 -3.41421 10.4142
    endloop
  endfacet
  facet normal 0 -0.866025 0.5
    outer loop
      vertex 29.75 -3.41421 10.4142
      vertex 27.25 -3.93185 9.51764
      vertex 29.75 -3.93185 9.51764
    endloop
  endfacet
  facet normal 0.495573 -0.132787 0.858356
    outer loop
      vertex 30.2676 -2 10.9319
      vertex 30.1983 -2.25882 10.9319
      vertex 30.9747 -2.70711 10.4142
    endloop
  endfacet
  facet normal -0.843611 0.226046 0.487056
    outer loop
      vertex -40.423 5.96593 9.51764
      vertex -40.6819 5 9.51764
      vertex -39.9747 5.70711 10.4142
    endloop
  endfacet
  facet normal 0 0.5 -0.866025
    outer loop
      vertex -38.75 5.51764 -1.93185
      vertex -31.1642 6.41421 -1.41421
      vertex -30.2676 5.51764 -1.93185
    endloop
  endfacet
  facet normal 0 0.5 -0.866025
    outer loop
      vertex -31.1642 6.41421 -1.41421
      vertex -38.75 5.51764 -1.93185
      vertex -38.75 6.41421 -1.41421
    endloop
  endfacet
  facet normal 0.495572 -0.132788 0.858356
    outer loop
      vertex 31.1642 -2 10.4142
      vertex 30.2676 -2 10.9319
      vertex 30.9747 -2.70711 10.4142
    endloop
  endfacet
  facet normal 0 -0.5 -0.866025
    outer loop
      vertex 27.25 -3.41421 -1.41421
      vertex 29.75 -2.51764 -1.93185
      vertex 29.75 -3.41421 -1.41421
    endloop
  endfacet
  facet normal -0 -0.5 -0.866025
    outer loop
      vertex 29.75 -2.51764 -1.93185
      vertex 27.25 -3.41421 -1.41421
      vertex 27.25 -2.51764 -1.93185
    endloop
  endfacet
  facet normal 0.617566 -0.617565 -0.487057
    outer loop
      vertex 31.423 -2.96593 -0.517637
      vertex 30.4571 -3.22474 -1.41421
      vertex 30.9747 -2.70711 -1.41421
    endloop
  endfacet
  facet normal 0.617566 -0.617566 -0.487057
    outer loop
      vertex 30.4571 -3.22474 -1.41421
      vertex 31.423 -2.96593 -0.517637
      vertex 30.7159 -3.67303 -0.517637
    endloop
  endfacet
  facet normal 0.843611 -0.226045 -0.487057
    outer loop
      vertex 31.423 -2.96593 -0.517637
      vertex 30.9747 -2.70711 -1.41421
      vertex 31.6819 -2 -0.517637
    endloop
  endfacet
  facet normal 0.226045 -0.84361 -0.487058
    outer loop
      vertex 30.7159 -3.67303 -0.517637
      vertex 29.75 -3.93185 -0.517637
      vertex 30.4571 -3.22474 -1.41421
    endloop
  endfacet
  facet normal 0.132788 -0.495572 0.858356
    outer loop
      vertex 30.0088 -2.44829 10.9319
      vertex 29.75 -2.51764 10.9319
      vertex 30.4571 -3.22474 10.4142
    endloop
  endfacet
  facet normal 0.132788 -0.495572 0.858356
    outer loop
      vertex 29.75 -2.51764 10.9319
      vertex 29.75 -3.41421 10.4142
      vertex 30.4571 -3.22474 10.4142
    endloop
  endfacet
  facet normal 0.226044 -0.84361 0.487058
    outer loop
      vertex 29.75 -3.41421 10.4142
      vertex 29.75 -3.93185 9.51764
      vertex 30.4571 -3.22474 10.4142
    endloop
  endfacet
  facet normal 0.362784 -0.362784 0.858356
    outer loop
      vertex 30.1983 -2.25882 10.9319
      vertex 30.4571 -3.22474 10.4142
      vertex 30.9747 -2.70711 10.4142
    endloop
  endfacet
  facet normal 0.362784 -0.362784 0.858356
    outer loop
      vertex 30.4571 -3.22474 10.4142
      vertex 30.1983 -2.25882 10.9319
      vertex 30.0088 -2.44829 10.9319
    endloop
  endfacet
  facet normal -0.5 0 0.866025
    outer loop
      vertex -40.1642 5 10.4142
      vertex -39.2676 0 10.9319
      vertex -39.2676 5 10.9319
    endloop
  endfacet
  facet normal -0.5 0 0.866025
    outer loop
      vertex -39.2676 0 10.9319
      vertex -40.1642 5 10.4142
      vertex -40.1642 0 10.4142
    endloop
  endfacet
  facet normal 0 1 0
    outer loop
      vertex -34.7191 6.93185 6.98422
      vertex -31.6819 6.93185 9.51764
      vertex -34.25 6.93185 7.03042
    endloop
  endfacet
  facet normal 0 1 0
    outer loop
      vertex -31.6819 6.93185 9.51764
      vertex -33.7809 6.93185 6.98422
      vertex -34.25 6.93185 7.03042
    endloop
  endfacet
  facet normal 0 1 0
    outer loop
      vertex -31.6819 6.93185 9.51764
      vertex -33.7563 6.93185 6.9818
      vertex -33.7809 6.93185 6.98422
    endloop
  endfacet
  facet normal 0 1 0
    outer loop
      vertex -31.6819 6.93185 9.51764
      vertex -33.7327 6.93185 6.97462
      vertex -33.7563 6.93185 6.9818
    endloop
  endfacet
  facet normal 0 1 0
    outer loop
      vertex -31.6819 6.93185 9.51764
      vertex -33.2817 6.93185 6.8378
      vertex -33.7327 6.93185 6.97462
    endloop
  endfacet
  facet normal 0 1 0
    outer loop
      vertex -31.6819 6.93185 9.51764
      vertex -33.2598 6.93185 6.82615
      vertex -33.2817 6.93185 6.8378
    endloop
  endfacet
  facet normal 0 1 0
    outer loop
      vertex -31.6819 6.93185 9.51764
      vertex -32.8442 6.93185 6.60396
      vertex -33.2598 6.93185 6.82615
    endloop
  endfacet
  facet normal 0 1 0
    outer loop
      vertex -31.6819 6.93185 9.51764
      vertex -32.8251 6.93185 6.58828
      vertex -32.8442 6.93185 6.60396
    endloop
  endfacet
  facet normal 0 1 0
    outer loop
      vertex -31.6819 6.93185 9.51764
      vertex -32.4607 6.93185 6.28927
      vertex -32.8251 6.93185 6.58828
    endloop
  endfacet
  facet normal 0 1 0
    outer loop
      vertex -31.6819 6.93185 9.51764
      vertex -32.1617 6.93185 5.92493
      vertex -32.4607 6.93185 6.28927
    endloop
  endfacet
  facet normal 0 1 0
    outer loop
      vertex -31.6819 6.93185 9.51764
      vertex -32.146 6.93185 5.90582
      vertex -32.1617 6.93185 5.92493
    endloop
  endfacet
  facet normal 0 1 0
    outer loop
      vertex -31.6819 6.93185 9.51764
      vertex -31.9239 6.93185 5.49015
      vertex -32.146 6.93185 5.90582
    endloop
  endfacet
  facet normal 0 1 0
    outer loop
      vertex -31.6819 6.93185 9.51764
      vertex -31.9122 6.93185 5.46835
      vertex -31.9239 6.93185 5.49015
    endloop
  endfacet
  facet normal 0 1 0
    outer loop
      vertex -31.6819 6.93185 9.51764
      vertex -31.7754 6.93185 5.01732
      vertex -31.9122 6.93185 5.46835
    endloop
  endfacet
  facet normal 0 1 0
    outer loop
      vertex -31.6819 6.93185 9.51764
      vertex -31.7682 6.93185 4.99366
      vertex -31.7754 6.93185 5.01732
    endloop
  endfacet
  facet normal 0 1 0
    outer loop
      vertex -31.6819 6.93185 9.51764
      vertex -31.7658 6.93185 4.96906
      vertex -31.7682 6.93185 4.99366
    endloop
  endfacet
  facet normal 0 1 0
    outer loop
      vertex -31.6819 6.93185 9.51764
      vertex -31.7196 6.93185 4.5
      vertex -31.7658 6.93185 4.96906
    endloop
  endfacet
  facet normal 0 1 0
    outer loop
      vertex -31.6819 6.93185 -0.517637
      vertex -31.9239 6.93185 3.50985
      vertex -31.9122 6.93185 3.53165
    endloop
  endfacet
  facet normal 0 1 0
    outer loop
      vertex -31.6819 6.93185 -0.517637
      vertex -32.1617 6.93185 3.07507
      vertex -32.146 6.93185 3.09418
    endloop
  endfacet
  facet normal 0 1 0
    outer loop
      vertex -31.6819 6.93185 -0.517637
      vertex -33.2598 6.93185 2.17385
      vertex -32.8442 6.93185 2.39604
    endloop
  endfacet
  facet normal 0 1 0
    outer loop
      vertex -31.6819 6.93185 -0.517637
      vertex -33.7809 6.93185 2.01578
      vertex -33.7563 6.93185 2.0182
    endloop
  endfacet
  facet normal 0 1 0
    outer loop
      vertex -33.7809 6.93185 2.01578
      vertex -31.6819 6.93185 -0.517637
      vertex -34.25 6.93185 1.96958
    endloop
  endfacet
  facet normal 0 1 0
    outer loop
      vertex -33.7327 6.93185 2.02538
      vertex -31.6819 6.93185 -0.517637
      vertex -33.7563 6.93185 2.0182
    endloop
  endfacet
  facet normal 0 1 0
    outer loop
      vertex -33.2817 6.93185 2.1622
      vertex -31.6819 6.93185 -0.517637
      vertex -33.7327 6.93185 2.02538
    endloop
  endfacet
  facet normal 0 1 0
    outer loop
      vertex -33.2598 6.93185 2.17385
      vertex -31.6819 6.93185 -0.517637
      vertex -33.2817 6.93185 2.1622
    endloop
  endfacet
  facet normal 0 1 0
    outer loop
      vertex -32.8251 6.93185 2.41172
      vertex -31.6819 6.93185 -0.517637
      vertex -32.8442 6.93185 2.39604
    endloop
  endfacet
  facet normal 0 1 0
    outer loop
      vertex -32.4607 6.93185 2.71073
      vertex -31.6819 6.93185 -0.517637
      vertex -32.8251 6.93185 2.41172
    endloop
  endfacet
  facet normal 0 1 0
    outer loop
      vertex -32.1617 6.93185 3.07507
      vertex -31.6819 6.93185 -0.517637
      vertex -32.4607 6.93185 2.71073
    endloop
  endfacet
  facet normal 0 1 0
    outer loop
      vertex -31.9239 6.93185 3.50985
      vertex -31.6819 6.93185 -0.517637
      vertex -32.146 6.93185 3.09418
    endloop
  endfacet
  facet normal 0 1 0
    outer loop
      vertex -31.7754 6.93185 3.98268
      vertex -31.6819 6.93185 -0.517637
      vertex -31.9122 6.93185 3.53165
    endloop
  endfacet
  facet normal 0 1 0
    outer loop
      vertex -31.7682 6.93185 4.00634
      vertex -31.6819 6.93185 -0.517637
      vertex -31.7754 6.93185 3.98268
    endloop
  endfacet
  facet normal 0 1 0
    outer loop
      vertex -31.7658 6.93185 4.03094
      vertex -31.6819 6.93185 -0.517637
      vertex -31.7682 6.93185 4.00634
    endloop
  endfacet
  facet normal 0 1 0
    outer loop
      vertex -31.7196 6.93185 4.5
      vertex -31.6819 6.93185 -0.517637
      vertex -31.7658 6.93185 4.03094
    endloop
  endfacet
  facet normal 0 1 -0
    outer loop
      vertex -31.6819 6.93185 -0.517637
      vertex -31.7196 6.93185 4.5
      vertex -31.6819 6.93185 9.51764
    endloop
  endfacet
  facet normal 0 1 0
    outer loop
      vertex -34.7437 6.93185 6.9818
      vertex -31.6819 6.93185 9.51764
      vertex -34.7191 6.93185 6.98422
    endloop
  endfacet
  facet normal 0 1 0
    outer loop
      vertex -31.6819 6.93185 9.51764
      vertex -34.7437 6.93185 6.9818
      vertex -38.75 6.93185 9.51764
    endloop
  endfacet
  facet normal 0 1 -0
    outer loop
      vertex -34.7673 6.93185 6.97462
      vertex -38.75 6.93185 9.51764
      vertex -34.7437 6.93185 6.9818
    endloop
  endfacet
  facet normal 0 1 -0
    outer loop
      vertex -35.2183 6.93185 6.8378
      vertex -38.75 6.93185 9.51764
      vertex -34.7673 6.93185 6.97462
    endloop
  endfacet
  facet normal 0 1 -0
    outer loop
      vertex -35.2402 6.93185 6.82615
      vertex -38.75 6.93185 9.51764
      vertex -35.2183 6.93185 6.8378
    endloop
  endfacet
  facet normal 0 1 -0
    outer loop
      vertex -35.6558 6.93185 6.60396
      vertex -38.75 6.93185 9.51764
      vertex -35.2402 6.93185 6.82615
    endloop
  endfacet
  facet normal 0 1 -0
    outer loop
      vertex -35.6749 6.93185 6.58828
      vertex -38.75 6.93185 9.51764
      vertex -35.6558 6.93185 6.60396
    endloop
  endfacet
  facet normal 0 1 -0
    outer loop
      vertex -36.0393 6.93185 6.28927
      vertex -38.75 6.93185 9.51764
      vertex -35.6749 6.93185 6.58828
    endloop
  endfacet
  facet normal 0 1 -0
    outer loop
      vertex -36.3383 6.93185 5.92493
      vertex -38.75 6.93185 9.51764
      vertex -36.0393 6.93185 6.28927
    endloop
  endfacet
  facet normal 0 1 -0
    outer loop
      vertex -36.354 6.93185 5.90582
      vertex -38.75 6.93185 9.51764
      vertex -36.3383 6.93185 5.92493
    endloop
  endfacet
  facet normal 0 1 -0
    outer loop
      vertex -36.5761 6.93185 5.49015
      vertex -38.75 6.93185 9.51764
      vertex -36.354 6.93185 5.90582
    endloop
  endfacet
  facet normal 0 1 -0
    outer loop
      vertex -36.5878 6.93185 5.46835
      vertex -38.75 6.93185 9.51764
      vertex -36.5761 6.93185 5.49015
    endloop
  endfacet
  facet normal 0 1 -0
    outer loop
      vertex -36.7246 6.93185 5.01732
      vertex -38.75 6.93185 9.51764
      vertex -36.5878 6.93185 5.46835
    endloop
  endfacet
  facet normal 0 1 -0
    outer loop
      vertex -36.7318 6.93185 4.99366
      vertex -38.75 6.93185 9.51764
      vertex -36.7246 6.93185 5.01732
    endloop
  endfacet
  facet normal 0 1 -0
    outer loop
      vertex -36.7342 6.93185 4.96906
      vertex -38.75 6.93185 9.51764
      vertex -36.7318 6.93185 4.99366
    endloop
  endfacet
  facet normal 0 1 -0
    outer loop
      vertex -36.7804 6.93185 4.5
      vertex -38.75 6.93185 9.51764
      vertex -36.7342 6.93185 4.96906
    endloop
  endfacet
  facet normal 0 1 0
    outer loop
      vertex -38.75 6.93185 -0.517637
      vertex -36.7804 6.93185 4.5
      vertex -36.7342 6.93185 4.03094
    endloop
  endfacet
  facet normal 0 1 0
    outer loop
      vertex -38.75 6.93185 -0.517637
      vertex -36.7342 6.93185 4.03094
      vertex -36.7318 6.93185 4.00634
    endloop
  endfacet
  facet normal 0 1 0
    outer loop
      vertex -38.75 6.93185 -0.517637
      vertex -36.7318 6.93185 4.00634
      vertex -36.7246 6.93185 3.98268
    endloop
  endfacet
  facet normal 0 1 0
    outer loop
      vertex -38.75 6.93185 -0.517637
      vertex -36.7246 6.93185 3.98268
      vertex -36.5878 6.93185 3.53165
    endloop
  endfacet
  facet normal 0 1 0
    outer loop
      vertex -38.75 6.93185 -0.517637
      vertex -36.5761 6.93185 3.50985
      vertex -36.354 6.93185 3.09418
    endloop
  endfacet
  facet normal 0 1 0
    outer loop
      vertex -38.75 6.93185 -0.517637
      vertex -36.3383 6.93185 3.07507
      vertex -36.0393 6.93185 2.71073
    endloop
  endfacet
  facet normal 0 1 0
    outer loop
      vertex -38.75 6.93185 -0.517637
      vertex -35.2402 6.93185 2.17385
      vertex -35.2183 6.93185 2.1622
    endloop
  endfacet
  facet normal 0 1 0
    outer loop
      vertex -31.6819 6.93185 -0.517637
      vertex -34.7191 6.93185 2.01578
      vertex -34.25 6.93185 1.96958
    endloop
  endfacet
  facet normal 0 1 0
    outer loop
      vertex -34.7191 6.93185 2.01578
      vertex -31.6819 6.93185 -0.517637
      vertex -34.7437 6.93185 2.0182
    endloop
  endfacet
  facet normal 0 1 0
    outer loop
      vertex -38.75 6.93185 -0.517637
      vertex -34.7437 6.93185 2.0182
      vertex -31.6819 6.93185 -0.517637
    endloop
  endfacet
  facet normal 0 1 0
    outer loop
      vertex -34.7437 6.93185 2.0182
      vertex -38.75 6.93185 -0.517637
      vertex -34.7673 6.93185 2.02538
    endloop
  endfacet
  facet normal 0 1 0
    outer loop
      vertex -34.7673 6.93185 2.02538
      vertex -38.75 6.93185 -0.517637
      vertex -35.2183 6.93185 2.1622
    endloop
  endfacet
  facet normal 0 1 0
    outer loop
      vertex -36.7804 6.93185 4.5
      vertex -38.75 6.93185 -0.517637
      vertex -38.75 6.93185 9.51764
    endloop
  endfacet
  facet normal 0 1 0
    outer loop
      vertex -36.5761 6.93185 3.50985
      vertex -38.75 6.93185 -0.517637
      vertex -36.5878 6.93185 3.53165
    endloop
  endfacet
  facet normal 0 1 0
    outer loop
      vertex -36.3383 6.93185 3.07507
      vertex -38.75 6.93185 -0.517637
      vertex -36.354 6.93185 3.09418
    endloop
  endfacet
  facet normal 0 1 0
    outer loop
      vertex -35.6749 6.93185 2.41172
      vertex -38.75 6.93185 -0.517637
      vertex -36.0393 6.93185 2.71073
    endloop
  endfacet
  facet normal 0 1 0
    outer loop
      vertex -35.6558 6.93185 2.39604
      vertex -38.75 6.93185 -0.517637
      vertex -35.6749 6.93185 2.41172
    endloop
  endfacet
  facet normal 0 1 0
    outer loop
      vertex -35.2402 6.93185 2.17385
      vertex -38.75 6.93185 -0.517637
      vertex -35.6558 6.93185 2.39604
    endloop
  endfacet
  facet normal -0.226045 0.84361 0.487058
    outer loop
      vertex -38.75 6.93185 9.51764
      vertex -39.7159 6.67303 9.51764
      vertex -39.4571 6.22474 10.4142
    endloop
  endfacet
  facet normal 0.843611 -0.226044 0.487058
    outer loop
      vertex 31.1642 -2 10.4142
      vertex 30.9747 -2.70711 10.4142
      vertex 31.6819 -2 9.51764
    endloop
  endfacet
  facet normal 0 0.866025 0.5
    outer loop
      vertex -31.6819 6.93185 9.51764
      vertex -38.75 6.41421 10.4142
      vertex -31.1642 6.41421 10.4142
    endloop
  endfacet
  facet normal 0 0.866025 0.5
    outer loop
      vertex -38.75 6.41421 10.4142
      vertex -31.6819 6.93185 9.51764
      vertex -38.75 6.93185 9.51764
    endloop
  endfacet
  facet normal -0.226044 0.84361 0.487058
    outer loop
      vertex -38.75 6.93185 9.51764
      vertex -39.4571 6.22474 10.4142
      vertex -38.75 6.41421 10.4142
    endloop
  endfacet
  facet normal 0 -0.866025 -0.5
    outer loop
      vertex 27.25 -3.41421 -1.41421
      vertex 29.75 -3.93185 -0.517637
      vertex 27.25 -3.93185 -0.517637
    endloop
  endfacet
  facet normal 0 -0.866025 -0.5
    outer loop
      vertex 29.75 -3.93185 -0.517637
      vertex 27.25 -3.41421 -1.41421
      vertex 29.75 -3.41421 -1.41421
    endloop
  endfacet
  facet normal 0.617566 -0.617565 0.487057
    outer loop
      vertex 30.4571 -3.22474 10.4142
      vertex 31.423 -2.96593 9.51764
      vertex 30.9747 -2.70711 10.4142
    endloop
  endfacet
  facet normal 0.617566 -0.617566 0.487057
    outer loop
      vertex 31.423 -2.96593 9.51764
      vertex 30.4571 -3.22474 10.4142
      vertex 30.7159 -3.67303 9.51764
    endloop
  endfacet
  facet normal -0.495572 0.132788 -0.858356
    outer loop
      vertex -39.2676 5 -1.93185
      vertex -40.1642 5 -1.41421
      vertex -39.9747 5.70711 -1.41421
    endloop
  endfacet
  facet normal -0.226044 0.84361 -0.487058
    outer loop
      vertex -38.75 6.41421 -1.41421
      vertex -39.4571 6.22474 -1.41421
      vertex -38.75 6.93185 -0.517637
    endloop
  endfacet
  facet normal -0.617567 0.617564 -0.487058
    outer loop
      vertex -39.4571 6.22474 -1.41421
      vertex -40.423 5.96593 -0.517637
      vertex -39.7159 6.67303 -0.517637
    endloop
  endfacet
  facet normal -0.617566 0.617567 -0.487056
    outer loop
      vertex -40.423 5.96593 -0.517637
      vertex -39.4571 6.22474 -1.41421
      vertex -39.9747 5.70711 -1.41421
    endloop
  endfacet
  facet normal -0.707108 0.707105 0
    outer loop
      vertex -40.423 5.96593 -0.517637
      vertex -39.7159 6.67303 9.51764
      vertex -39.7159 6.67303 -0.517637
    endloop
  endfacet
  facet normal -0.707108 0.707105 0
    outer loop
      vertex -39.7159 6.67303 9.51764
      vertex -40.423 5.96593 -0.517637
      vertex -40.423 5.96593 9.51764
    endloop
  endfacet
  facet normal -0.258819 0.965926 0
    outer loop
      vertex -38.75 6.93185 -0.517637
      vertex -39.7159 6.67303 9.51764
      vertex -38.75 6.93185 9.51764
    endloop
  endfacet
  facet normal -0.258819 0.965926 0
    outer loop
      vertex -39.7159 6.67303 9.51764
      vertex -38.75 6.93185 -0.517637
      vertex -39.7159 6.67303 -0.517637
    endloop
  endfacet
  facet normal 0.362784 -0.362784 -0.858356
    outer loop
      vertex 30.4571 -3.22474 -1.41421
      vertex 30.1983 -2.25882 -1.93185
      vertex 30.9747 -2.70711 -1.41421
    endloop
  endfacet
  facet normal 0.362784 -0.362784 -0.858356
    outer loop
      vertex 30.1983 -2.25882 -1.93185
      vertex 30.4571 -3.22474 -1.41421
      vertex 30.0088 -2.44829 -1.93185
    endloop
  endfacet
  facet normal 0.843611 -0.226045 0.487057
    outer loop
      vertex 31.6819 -2 9.51764
      vertex 30.9747 -2.70711 10.4142
      vertex 31.423 -2.96593 9.51764
    endloop
  endfacet
  facet normal -0.5 0 -0.866025
    outer loop
      vertex -40.1642 0 -1.41421
      vertex -39.2676 5 -1.93185
      vertex -39.2676 0 -1.93185
    endloop
  endfacet
  facet normal -0.5 0 -0.866025
    outer loop
      vertex -39.2676 5 -1.93185
      vertex -40.1642 0 -1.41421
      vertex -40.1642 5 -1.41421
    endloop
  endfacet
  facet normal -0.226045 0.84361 -0.487058
    outer loop
      vertex -39.4571 6.22474 -1.41421
      vertex -39.7159 6.67303 -0.517637
      vertex -38.75 6.93185 -0.517637
    endloop
  endfacet
  facet normal 0.495572 -0.132788 -0.858356
    outer loop
      vertex 30.9747 -2.70711 -1.41421
      vertex 30.2676 -2 -1.93185
      vertex 31.1642 -2 -1.41421
    endloop
  endfacet
  facet normal 0.843611 -0.226044 -0.487058
    outer loop
      vertex 31.6819 -2 -0.517637
      vertex 30.9747 -2.70711 -1.41421
      vertex 31.1642 -2 -1.41421
    endloop
  endfacet
  facet normal -0.132788 0.495572 -0.858356
    outer loop
      vertex -39.0088 5.44829 -1.93185
      vertex -39.4571 6.22474 -1.41421
      vertex -38.75 5.51764 -1.93185
    endloop
  endfacet
  facet normal -0.362784 0.362784 -0.858356
    outer loop
      vertex -39.1983 5.25882 -1.93185
      vertex -39.4571 6.22474 -1.41421
      vertex -39.0088 5.44829 -1.93185
    endloop
  endfacet
  facet normal -0.362783 0.362784 -0.858356
    outer loop
      vertex -39.4571 6.22474 -1.41421
      vertex -39.1983 5.25882 -1.93185
      vertex -39.9747 5.70711 -1.41421
    endloop
  endfacet
  facet normal 0.495573 -0.132787 -0.858356
    outer loop
      vertex 30.9747 -2.70711 -1.41421
      vertex 30.1983 -2.25882 -1.93185
      vertex 30.2676 -2 -1.93185
    endloop
  endfacet
  facet normal -0.0855281 0.488465 -0.868382
    outer loop
      vertex -34.25 6.93185 7.03042
      vertex -33.7809 6.93185 6.98422
      vertex -34.25 5.1 6
    endloop
  endfacet
  facet normal -0.868384 0.488461 0.0855272
    outer loop
      vertex -31.6819 7.08806 3.99094
      vertex -31.625 7.1 4.5
      vertex -31.6754 7.1 3.98789
    endloop
  endfacet
  facet normal -0.868385 0.488459 0.0855274
    outer loop
      vertex -31.625 7.1 4.5
      vertex -31.6819 7.08806 3.99094
      vertex -31.6819 6.99893 4.5
    endloop
  endfacet
  facet normal -0.868382 0.488465 0.0855279
    outer loop
      vertex -31.7196 6.93185 4.5
      vertex -31.7658 6.93185 4.03094
      vertex -32.75 5.1 4.5
    endloop
  endfacet
  facet normal -0.868379 0.488465 0.0855533
    outer loop
      vertex -31.6754 7.1 3.98789
      vertex -31.6819 7.08838 3.98916
      vertex -31.6819 7.08806 3.99094
    endloop
  endfacet
  facet normal -0.868377 0.488467 0.0855637
    outer loop
      vertex -32.7788 5.1 4.20737
      vertex -31.7658 6.93185 4.03094
      vertex -31.7682 6.93185 4.00634
    endloop
  endfacet
  facet normal -0.868381 0.488466 0.0855335
    outer loop
      vertex -31.7658 6.93185 4.03094
      vertex -32.7788 5.1 4.20737
      vertex -32.75 5.1 4.5
    endloop
  endfacet
  facet normal -0.868381 0.488466 -0.0855335
    outer loop
      vertex -32.7788 5.1 4.79263
      vertex -31.7658 6.93185 4.96906
      vertex -32.75 5.1 4.5
    endloop
  endfacet
  facet normal -0.868377 0.488467 -0.0855637
    outer loop
      vertex -31.7658 6.93185 4.96906
      vertex -32.7788 5.1 4.79263
      vertex -31.7682 6.93185 4.99366
    endloop
  endfacet
  facet normal -0.868379 0.488465 -0.0855533
    outer loop
      vertex -31.6819 7.08838 5.01084
      vertex -31.6754 7.1 5.01211
      vertex -31.6819 7.08806 5.00906
    endloop
  endfacet
  facet normal 0.83499 0.48845 -0.253394
    outer loop
      vertex -35.6358 5.1 5.07402
      vertex -36.7318 6.93185 4.99366
      vertex -36.7246 6.93185 5.01732
    endloop
  endfacet
  facet normal 0.83501 0.488466 -0.253295
    outer loop
      vertex -36.7318 6.93185 4.99366
      vertex -35.6358 5.1 5.07402
      vertex -35.7212 5.1 4.79263
    endloop
  endfacet
  facet normal 0.253284 0.488468 0.835013
    outer loop
      vertex -34.824 5.1 3.11418
      vertex -34.7437 6.93185 2.0182
      vertex -34.7673 6.93185 2.02538
    endloop
  endfacet
  facet normal 0.253296 0.488465 0.83501
    outer loop
      vertex -34.7437 6.93185 2.0182
      vertex -34.824 5.1 3.11418
      vertex -34.5426 5.1 3.02882
    endloop
  endfacet
  facet normal -0.674515 0.488464 -0.553563
    outer loop
      vertex -32.4607 6.93185 6.28927
      vertex -32.1617 6.93185 5.92493
      vertex -33.1893 5.1 5.56066
    endloop
  endfacet
  facet normal -0.835012 0.488462 -0.253299
    outer loop
      vertex -31.6819 7.1 5.03325
      vertex -31.6754 7.1 5.01211
      vertex -31.6819 7.08921 5.01245
    endloop
  endfacet
  facet normal -0.83501 0.488465 -0.253299
    outer loop
      vertex -31.9122 6.93185 5.46835
      vertex -31.7754 6.93185 5.01732
      vertex -32.8642 5.1 5.07402
    endloop
  endfacet
  facet normal -0.868384 0.488461 -0.0855272
    outer loop
      vertex -31.625 7.1 4.5
      vertex -31.6819 7.08806 5.00906
      vertex -31.6754 7.1 5.01211
    endloop
  endfacet
  facet normal -0.868385 0.488459 -0.0855274
    outer loop
      vertex -31.6819 7.08806 5.00906
      vertex -31.625 7.1 4.5
      vertex -31.6819 6.99893 4.5
    endloop
  endfacet
  facet normal -0.868382 0.488465 -0.0855279
    outer loop
      vertex -31.7658 6.93185 4.96906
      vertex -31.7196 6.93185 4.5
      vertex -32.75 5.1 4.5
    endloop
  endfacet
  facet normal -0.769552 0.488465 -0.41133
    outer loop
      vertex -32.146 6.93185 5.90582
      vertex -31.9239 6.93185 5.49015
      vertex -33.0028 5.1 5.33335
    endloop
  endfacet
  facet normal -0.674518 0.488466 -0.553558
    outer loop
      vertex -33.1893 5.1 5.56066
      vertex -32.146 6.93185 5.90582
      vertex -33.0028 5.1 5.33335
    endloop
  endfacet
  facet normal -0.674475 0.488453 -0.553622
    outer loop
      vertex -32.146 6.93185 5.90582
      vertex -33.1893 5.1 5.56066
      vertex -32.1617 6.93185 5.92493
    endloop
  endfacet
  facet normal -0.553542 0.488468 -0.67453
    outer loop
      vertex -33.1893 5.1 5.56066
      vertex -32.8442 6.93185 6.60396
      vertex -32.8251 6.93185 6.58828
    endloop
  endfacet
  facet normal -0.553559 0.488465 -0.674518
    outer loop
      vertex -32.8442 6.93185 6.60396
      vertex -33.1893 5.1 5.56066
      vertex -33.4166 5.1 5.7472
    endloop
  endfacet
  facet normal -0.253299 0.488465 -0.83501
    outer loop
      vertex -33.2817 6.93185 6.8378
      vertex -33.676 5.1 5.88582
      vertex -33.7327 6.93185 6.97462
    endloop
  endfacet
  facet normal -0.411333 0.488465 -0.76955
    outer loop
      vertex -33.2598 6.93185 6.82615
      vertex -32.8442 6.93185 6.60396
      vertex -33.4166 5.1 5.7472
    endloop
  endfacet
  facet normal -0.553564 0.488464 -0.674514
    outer loop
      vertex -32.8251 6.93185 6.58828
      vertex -32.4607 6.93185 6.28927
      vertex -33.1893 5.1 5.56066
    endloop
  endfacet
  facet normal 0.553559 0.488465 -0.674518
    outer loop
      vertex -35.3107 5.1 5.56066
      vertex -35.6558 6.93185 6.60396
      vertex -35.0834 5.1 5.7472
    endloop
  endfacet
  facet normal 0.553542 0.488468 -0.67453
    outer loop
      vertex -35.6558 6.93185 6.60396
      vertex -35.3107 5.1 5.56066
      vertex -35.6749 6.93185 6.58828
    endloop
  endfacet
  facet normal -0.411333 0.488465 0.76955
    outer loop
      vertex -32.8442 6.93185 2.39604
      vertex -33.2598 6.93185 2.17385
      vertex -33.4166 5.1 3.2528
    endloop
  endfacet
  facet normal 0.769552 0.488465 0.41133
    outer loop
      vertex -35.4972 5.1 3.66665
      vertex -36.354 6.93185 3.09418
      vertex -36.5761 6.93185 3.50985
    endloop
  endfacet
  facet normal 0.674518 0.488466 0.553558
    outer loop
      vertex -35.3107 5.1 3.43934
      vertex -36.354 6.93185 3.09418
      vertex -35.4972 5.1 3.66665
    endloop
  endfacet
  facet normal 0.674478 0.488454 0.553618
    outer loop
      vertex -36.354 6.93185 3.09418
      vertex -35.3107 5.1 3.43934
      vertex -36.3383 6.93185 3.07507
    endloop
  endfacet
  facet normal -0.835016 0.488465 -0.253278
    outer loop
      vertex -31.6819 7.08921 5.01245
      vertex -31.6754 7.1 5.01211
      vertex -31.6819 7.08838 5.01084
    endloop
  endfacet
  facet normal -0.835011 0.488465 -0.253295
    outer loop
      vertex -32.8642 5.1 5.07402
      vertex -31.7682 6.93185 4.99366
      vertex -32.7788 5.1 4.79263
    endloop
  endfacet
  facet normal -0.835017 0.48847 -0.253267
    outer loop
      vertex -31.7682 6.93185 4.99366
      vertex -32.8642 5.1 5.07402
      vertex -31.7754 6.93185 5.01732
    endloop
  endfacet
  facet normal -0.769551 0.488465 -0.411332
    outer loop
      vertex -33.0028 5.1 5.33335
      vertex -31.9122 6.93185 5.46835
      vertex -32.8642 5.1 5.07402
    endloop
  endfacet
  facet normal -0.76955 0.488465 -0.411333
    outer loop
      vertex -31.9122 6.93185 5.46835
      vertex -33.0028 5.1 5.33335
      vertex -31.9239 6.93185 5.49015
    endloop
  endfacet
  facet normal -0.253284 0.488468 -0.835013
    outer loop
      vertex -33.676 5.1 5.88582
      vertex -33.7563 6.93185 6.9818
      vertex -33.7327 6.93185 6.97462
    endloop
  endfacet
  facet normal -0.253296 0.488466 -0.83501
    outer loop
      vertex -33.7563 6.93185 6.9818
      vertex -33.676 5.1 5.88582
      vertex -33.9574 5.1 5.97118
    endloop
  endfacet
  facet normal -0.0855255 0.488465 -0.868382
    outer loop
      vertex -33.9574 5.1 5.97118
      vertex -33.7809 6.93185 6.98422
      vertex -33.7563 6.93185 6.9818
    endloop
  endfacet
  facet normal -0.0855312 0.488465 -0.868381
    outer loop
      vertex -33.7809 6.93185 6.98422
      vertex -33.9574 5.1 5.97118
      vertex -34.25 5.1 6
    endloop
  endfacet
  facet normal -0.411362 0.48846 -0.769537
    outer loop
      vertex -33.4166 5.1 5.7472
      vertex -33.2817 6.93185 6.8378
      vertex -33.2598 6.93185 6.82615
    endloop
  endfacet
  facet normal -0.411332 0.488465 -0.76955
    outer loop
      vertex -33.2817 6.93185 6.8378
      vertex -33.4166 5.1 5.7472
      vertex -33.676 5.1 5.88582
    endloop
  endfacet
  facet normal 0.0855312 0.488465 -0.868381
    outer loop
      vertex -34.5426 5.1 5.97118
      vertex -34.7191 6.93185 6.98422
      vertex -34.25 5.1 6
    endloop
  endfacet
  facet normal 0.0855255 0.488465 -0.868382
    outer loop
      vertex -34.7191 6.93185 6.98422
      vertex -34.5426 5.1 5.97118
      vertex -34.7437 6.93185 6.9818
    endloop
  endfacet
  facet normal 0.0855281 0.488465 -0.868382
    outer loop
      vertex -34.25 6.93185 7.03042
      vertex -34.25 5.1 6
      vertex -34.7191 6.93185 6.98422
    endloop
  endfacet
  facet normal 0.769552 0.488465 -0.41133
    outer loop
      vertex -36.354 6.93185 5.90582
      vertex -35.4972 5.1 5.33335
      vertex -36.5761 6.93185 5.49015
    endloop
  endfacet
  facet normal -0.674478 0.488454 0.553618
    outer loop
      vertex -33.1893 5.1 3.43934
      vertex -32.146 6.93185 3.09418
      vertex -32.1617 6.93185 3.07507
    endloop
  endfacet
  facet normal -0.674518 0.488466 0.553558
    outer loop
      vertex -32.146 6.93185 3.09418
      vertex -33.1893 5.1 3.43934
      vertex -33.0028 5.1 3.66665
    endloop
  endfacet
  facet normal 0.868381 0.488465 -0.0855314
    outer loop
      vertex -36.7342 6.93185 4.96906
      vertex -35.75 5.1 4.5
      vertex -36.7804 6.93185 4.5
    endloop
  endfacet
  facet normal 0.868381 0.488466 0.0855335
    outer loop
      vertex -35.7212 5.1 4.20737
      vertex -36.7342 6.93185 4.03094
      vertex -35.75 5.1 4.5
    endloop
  endfacet
  facet normal 0.868385 0.488465 0.0854971
    outer loop
      vertex -36.7342 6.93185 4.03094
      vertex -35.7212 5.1 4.20737
      vertex -36.7318 6.93185 4.00634
    endloop
  endfacet
  facet normal 0.76955 0.488465 -0.411333
    outer loop
      vertex -35.4972 5.1 5.33335
      vertex -36.5878 6.93185 5.46835
      vertex -36.5761 6.93185 5.49015
    endloop
  endfacet
  facet normal 0.769551 0.488465 -0.411332
    outer loop
      vertex -36.5878 6.93185 5.46835
      vertex -35.4972 5.1 5.33335
      vertex -35.6358 5.1 5.07402
    endloop
  endfacet
  facet normal 0.835011 0.488465 -0.253296
    outer loop
      vertex -36.5878 6.93185 5.46835
      vertex -35.6358 5.1 5.07402
      vertex -36.7246 6.93185 5.01732
    endloop
  endfacet
  facet normal 0.253299 0.488465 -0.83501
    outer loop
      vertex -34.7673 6.93185 6.97462
      vertex -34.824 5.1 5.88582
      vertex -35.2183 6.93185 6.8378
    endloop
  endfacet
  facet normal 0.253296 0.488466 -0.83501
    outer loop
      vertex -34.824 5.1 5.88582
      vertex -34.7437 6.93185 6.9818
      vertex -34.5426 5.1 5.97118
    endloop
  endfacet
  facet normal 0.253284 0.488468 -0.835013
    outer loop
      vertex -34.7437 6.93185 6.9818
      vertex -34.824 5.1 5.88582
      vertex -34.7673 6.93185 6.97462
    endloop
  endfacet
  facet normal 0.411332 0.488465 -0.76955
    outer loop
      vertex -35.0834 5.1 5.7472
      vertex -35.2183 6.93185 6.8378
      vertex -34.824 5.1 5.88582
    endloop
  endfacet
  facet normal 0.411362 0.48846 -0.769537
    outer loop
      vertex -35.2183 6.93185 6.8378
      vertex -35.0834 5.1 5.7472
      vertex -35.2402 6.93185 6.82615
    endloop
  endfacet
  facet normal 0.411333 0.488465 -0.76955
    outer loop
      vertex -35.2402 6.93185 6.82615
      vertex -35.0834 5.1 5.7472
      vertex -35.6558 6.93185 6.60396
    endloop
  endfacet
  facet normal 0.674515 0.488464 -0.553563
    outer loop
      vertex -36.0393 6.93185 6.28927
      vertex -35.3107 5.1 5.56066
      vertex -36.3383 6.93185 5.92493
    endloop
  endfacet
  facet normal 0.553564 0.488464 -0.674514
    outer loop
      vertex -35.6749 6.93185 6.58828
      vertex -35.3107 5.1 5.56066
      vertex -36.0393 6.93185 6.28927
    endloop
  endfacet
  facet normal -0.411362 0.48846 0.769537
    outer loop
      vertex -33.2817 6.93185 2.1622
      vertex -33.4166 5.1 3.2528
      vertex -33.2598 6.93185 2.17385
    endloop
  endfacet
  facet normal -0.411332 0.488465 0.76955
    outer loop
      vertex -33.4166 5.1 3.2528
      vertex -33.2817 6.93185 2.1622
      vertex -33.676 5.1 3.11418
    endloop
  endfacet
  facet normal -0.76955 0.488465 0.411333
    outer loop
      vertex -33.0028 5.1 3.66665
      vertex -31.9122 6.93185 3.53165
      vertex -31.9239 6.93185 3.50985
    endloop
  endfacet
  facet normal -0.769551 0.488465 0.411332
    outer loop
      vertex -31.9122 6.93185 3.53165
      vertex -33.0028 5.1 3.66665
      vertex -32.8642 5.1 3.92598
    endloop
  endfacet
  facet normal 0.553559 0.488465 0.674518
    outer loop
      vertex -35.6558 6.93185 2.39604
      vertex -35.3107 5.1 3.43934
      vertex -35.0834 5.1 3.2528
    endloop
  endfacet
  facet normal 0.553542 0.488468 0.67453
    outer loop
      vertex -35.3107 5.1 3.43934
      vertex -35.6558 6.93185 2.39604
      vertex -35.6749 6.93185 2.41172
    endloop
  endfacet
  facet normal 0.253298 0.488465 0.83501
    outer loop
      vertex -34.824 5.1 3.11418
      vertex -34.7673 6.93185 2.02538
      vertex -35.2183 6.93185 2.1622
    endloop
  endfacet
  facet normal 0.835011 0.488465 0.253296
    outer loop
      vertex -35.6358 5.1 3.92598
      vertex -36.5878 6.93185 3.53165
      vertex -36.7246 6.93185 3.98268
    endloop
  endfacet
  facet normal 0.868385 0.488465 -0.0854971
    outer loop
      vertex -35.7212 5.1 4.79263
      vertex -36.7342 6.93185 4.96906
      vertex -36.7318 6.93185 4.99366
    endloop
  endfacet
  facet normal 0.868381 0.488466 -0.0855335
    outer loop
      vertex -36.7342 6.93185 4.96906
      vertex -35.7212 5.1 4.79263
      vertex -35.75 5.1 4.5
    endloop
  endfacet
  facet normal 0.769551 0.488465 0.411332
    outer loop
      vertex -35.4972 5.1 3.66665
      vertex -36.5878 6.93185 3.53165
      vertex -35.6358 5.1 3.92598
    endloop
  endfacet
  facet normal 0.76955 0.488465 0.411333
    outer loop
      vertex -36.5878 6.93185 3.53165
      vertex -35.4972 5.1 3.66665
      vertex -36.5761 6.93185 3.50985
    endloop
  endfacet
  facet normal 0.553564 0.488464 0.674514
    outer loop
      vertex -35.3107 5.1 3.43934
      vertex -35.6749 6.93185 2.41172
      vertex -36.0393 6.93185 2.71073
    endloop
  endfacet
  facet normal 0.674515 0.488464 0.553563
    outer loop
      vertex -35.3107 5.1 3.43934
      vertex -36.0393 6.93185 2.71073
      vertex -36.3383 6.93185 3.07507
    endloop
  endfacet
  facet normal 0.674475 0.488453 -0.553622
    outer loop
      vertex -35.3107 5.1 5.56066
      vertex -36.354 6.93185 5.90582
      vertex -36.3383 6.93185 5.92493
    endloop
  endfacet
  facet normal 0.674518 0.488466 -0.553558
    outer loop
      vertex -36.354 6.93185 5.90582
      vertex -35.3107 5.1 5.56066
      vertex -35.4972 5.1 5.33335
    endloop
  endfacet
  facet normal 0.0855312 0.488465 0.868381
    outer loop
      vertex -34.7191 6.93185 2.01578
      vertex -34.5426 5.1 3.02882
      vertex -34.25 5.1 3
    endloop
  endfacet
  facet normal 0.0855255 0.488465 0.868382
    outer loop
      vertex -34.5426 5.1 3.02882
      vertex -34.7191 6.93185 2.01578
      vertex -34.7437 6.93185 2.0182
    endloop
  endfacet
  facet normal 0.085529 0.488465 0.868382
    outer loop
      vertex -34.25 5.1 3
      vertex -34.25 6.93185 1.96958
      vertex -34.7191 6.93185 2.01578
    endloop
  endfacet
  facet normal -0.553542 0.488468 0.67453
    outer loop
      vertex -32.8442 6.93185 2.39604
      vertex -33.1893 5.1 3.43934
      vertex -32.8251 6.93185 2.41172
    endloop
  endfacet
  facet normal -0.553559 0.488465 0.674518
    outer loop
      vertex -33.1893 5.1 3.43934
      vertex -32.8442 6.93185 2.39604
      vertex -33.4166 5.1 3.2528
    endloop
  endfacet
  facet normal 0.411333 0.488465 0.76955
    outer loop
      vertex -35.0834 5.1 3.2528
      vertex -35.2402 6.93185 2.17385
      vertex -35.6558 6.93185 2.39604
    endloop
  endfacet
  facet normal 0.411332 0.488465 0.76955
    outer loop
      vertex -35.2183 6.93185 2.1622
      vertex -35.0834 5.1 3.2528
      vertex -34.824 5.1 3.11418
    endloop
  endfacet
  facet normal 0.411362 0.48846 0.769537
    outer loop
      vertex -35.0834 5.1 3.2528
      vertex -35.2183 6.93185 2.1622
      vertex -35.2402 6.93185 2.17385
    endloop
  endfacet
  facet normal 0 -1 0
    outer loop
      vertex -31.6819 7.1 5.03325
      vertex -31.625 7.1 4.5
      vertex -31.6754 7.1 5.01211
    endloop
  endfacet
  facet normal 0 -1 0
    outer loop
      vertex -31.6819 7.1 3.96675
      vertex -31.625 7.1 4.5
      vertex -31.6819 7.1 5.03325
    endloop
  endfacet
  facet normal 0 -1 0
    outer loop
      vertex -31.625 7.1 4.5
      vertex -31.6819 7.1 3.96675
      vertex -31.6754 7.1 3.98789
    endloop
  endfacet
  facet normal 0.868381 0.488465 0.0855314
    outer loop
      vertex -35.75 5.1 4.5
      vertex -36.7342 6.93185 4.03094
      vertex -36.7804 6.93185 4.5
    endloop
  endfacet
  facet normal 0.83501 0.488466 0.253295
    outer loop
      vertex -35.6358 5.1 3.92598
      vertex -36.7318 6.93185 4.00634
      vertex -35.7212 5.1 4.20737
    endloop
  endfacet
  facet normal 0.83499 0.48845 0.253394
    outer loop
      vertex -36.7318 6.93185 4.00634
      vertex -35.6358 5.1 3.92598
      vertex -36.7246 6.93185 3.98268
    endloop
  endfacet
  facet normal -0.253284 0.488468 0.835013
    outer loop
      vertex -33.7563 6.93185 2.0182
      vertex -33.676 5.1 3.11418
      vertex -33.7327 6.93185 2.02538
    endloop
  endfacet
  facet normal -0.253296 0.488465 0.83501
    outer loop
      vertex -33.676 5.1 3.11418
      vertex -33.7563 6.93185 2.0182
      vertex -33.9574 5.1 3.02882
    endloop
  endfacet
  facet normal -0.253298 0.488465 0.83501
    outer loop
      vertex -33.676 5.1 3.11418
      vertex -33.2817 6.93185 2.1622
      vertex -33.7327 6.93185 2.02538
    endloop
  endfacet
  facet normal -0.085529 0.488465 0.868382
    outer loop
      vertex -33.7809 6.93185 2.01578
      vertex -34.25 6.93185 1.96958
      vertex -34.25 5.1 3
    endloop
  endfacet
  facet normal -0.0855255 0.488465 0.868382
    outer loop
      vertex -33.7809 6.93185 2.01578
      vertex -33.9574 5.1 3.02882
      vertex -33.7563 6.93185 2.0182
    endloop
  endfacet
  facet normal -0.0855312 0.488465 0.868381
    outer loop
      vertex -33.9574 5.1 3.02882
      vertex -33.7809 6.93185 2.01578
      vertex -34.25 5.1 3
    endloop
  endfacet
  facet normal -0.835014 0.488457 0.253299
    outer loop
      vertex -31.6754 7.1 3.98789
      vertex -31.6819 7.1 3.96675
      vertex -31.6819 7.08921 3.98755
    endloop
  endfacet
  facet normal -0.83501 0.488465 0.253299
    outer loop
      vertex -31.7754 6.93185 3.98268
      vertex -31.9122 6.93185 3.53165
      vertex -32.8642 5.1 3.92598
    endloop
  endfacet
  facet normal -0.769552 0.488465 0.41133
    outer loop
      vertex -31.9239 6.93185 3.50985
      vertex -32.146 6.93185 3.09418
      vertex -33.0028 5.1 3.66665
    endloop
  endfacet
  facet normal -0.553564 0.488464 0.674514
    outer loop
      vertex -32.4607 6.93185 2.71073
      vertex -32.8251 6.93185 2.41172
      vertex -33.1893 5.1 3.43934
    endloop
  endfacet
  facet normal -0.674515 0.488464 0.553563
    outer loop
      vertex -32.1617 6.93185 3.07507
      vertex -32.4607 6.93185 2.71073
      vertex -33.1893 5.1 3.43934
    endloop
  endfacet
  facet normal -0.835027 0.488466 0.253241
    outer loop
      vertex -31.6754 7.1 3.98789
      vertex -31.6819 7.08921 3.98755
      vertex -31.6819 7.08838 3.98916
    endloop
  endfacet
  facet normal -0.835017 0.48847 0.253267
    outer loop
      vertex -32.8642 5.1 3.92598
      vertex -31.7682 6.93185 4.00634
      vertex -31.7754 6.93185 3.98268
    endloop
  endfacet
  facet normal -0.835011 0.488465 0.253295
    outer loop
      vertex -31.7682 6.93185 4.00634
      vertex -32.8642 5.1 3.92598
      vertex -32.7788 5.1 4.20737
    endloop
  endfacet
  facet normal -0.471395 0 0.881922
    outer loop
      vertex -33.676 5.1 3.11418
      vertex -33.4166 0 3.2528
      vertex -33.4166 5.1 3.2528
    endloop
  endfacet
  facet normal -0.471395 0 0.881922
    outer loop
      vertex -33.4166 0 3.2528
      vertex -33.676 5.1 3.11418
      vertex -33.676 0 3.11418
    endloop
  endfacet
  facet normal 0.956941 -0 0.290282
    outer loop
      vertex -35.7212 0 4.20737
      vertex -35.6358 5.1 3.92598
      vertex -35.7212 5.1 4.20737
    endloop
  endfacet
  facet normal 0.956941 0 0.290282
    outer loop
      vertex -35.6358 5.1 3.92598
      vertex -35.7212 0 4.20737
      vertex -35.6358 0 3.92598
    endloop
  endfacet
  facet normal -0.995184 0 -0.0980233
    outer loop
      vertex -32.75 0 4.5
      vertex -32.7788 5.1 4.79263
      vertex -32.75 5.1 4.5
    endloop
  endfacet
  facet normal -0.995184 -0 -0.0980233
    outer loop
      vertex -32.7788 5.1 4.79263
      vertex -32.75 0 4.5
      vertex -32.7788 0 4.79263
    endloop
  endfacet
  facet normal 0.290283 0 -0.956941
    outer loop
      vertex -34.824 0 5.88582
      vertex -34.5426 5.1 5.97118
      vertex -34.5426 0 5.97118
    endloop
  endfacet
  facet normal 0.290283 0 -0.956941
    outer loop
      vertex -34.5426 5.1 5.97118
      vertex -34.824 0 5.88582
      vertex -34.824 5.1 5.88582
    endloop
  endfacet
  facet normal 0.290283 0 0.956941
    outer loop
      vertex -34.824 5.1 3.11418
      vertex -34.5426 0 3.02882
      vertex -34.5426 5.1 3.02882
    endloop
  endfacet
  facet normal 0.290283 0 0.956941
    outer loop
      vertex -34.5426 0 3.02882
      vertex -34.824 5.1 3.11418
      vertex -34.824 0 3.11418
    endloop
  endfacet
  facet normal 0.881922 -0 0.471395
    outer loop
      vertex -35.6358 0 3.92598
      vertex -35.4972 5.1 3.66665
      vertex -35.6358 5.1 3.92598
    endloop
  endfacet
  facet normal 0.881922 0 0.471395
    outer loop
      vertex -35.4972 5.1 3.66665
      vertex -35.6358 0 3.92598
      vertex -35.4972 0 3.66665
    endloop
  endfacet
  facet normal -0.773013 0 -0.63439
    outer loop
      vertex -33.0028 0 5.33335
      vertex -33.1893 5.1 5.56066
      vertex -33.0028 5.1 5.33335
    endloop
  endfacet
  facet normal -0.773013 -0 -0.63439
    outer loop
      vertex -33.1893 5.1 5.56066
      vertex -33.0028 0 5.33335
      vertex -33.1893 0 5.56066
    endloop
  endfacet
  facet normal -0.956941 0 0.290282
    outer loop
      vertex -32.8642 0 3.92598
      vertex -32.7788 5.1 4.20737
      vertex -32.8642 5.1 3.92598
    endloop
  endfacet
  facet normal -0.956941 0 0.290282
    outer loop
      vertex -32.7788 5.1 4.20737
      vertex -32.8642 0 3.92598
      vertex -32.7788 0 4.20737
    endloop
  endfacet
  facet normal -0.881922 0 0.471395
    outer loop
      vertex -33.0028 0 3.66665
      vertex -32.8642 5.1 3.92598
      vertex -33.0028 5.1 3.66665
    endloop
  endfacet
  facet normal -0.881922 0 0.471395
    outer loop
      vertex -32.8642 5.1 3.92598
      vertex -33.0028 0 3.66665
      vertex -32.8642 0 3.92598
    endloop
  endfacet
  facet normal -0.773013 0 0.63439
    outer loop
      vertex -33.1893 0 3.43934
      vertex -33.0028 5.1 3.66665
      vertex -33.1893 5.1 3.43934
    endloop
  endfacet
  facet normal -0.773013 0 0.63439
    outer loop
      vertex -33.0028 5.1 3.66665
      vertex -33.1893 0 3.43934
      vertex -33.0028 0 3.66665
    endloop
  endfacet
  facet normal -0.634391 0 0.773012
    outer loop
      vertex -33.4166 5.1 3.2528
      vertex -33.1893 0 3.43934
      vertex -33.1893 5.1 3.43934
    endloop
  endfacet
  facet normal -0.634391 0 0.773012
    outer loop
      vertex -33.1893 0 3.43934
      vertex -33.4166 5.1 3.2528
      vertex -33.4166 0 3.2528
    endloop
  endfacet
  facet normal -0.0980207 0 0.995184
    outer loop
      vertex -34.25 5.1 3
      vertex -33.9574 0 3.02882
      vertex -33.9574 5.1 3.02882
    endloop
  endfacet
  facet normal -0.0980207 0 0.995184
    outer loop
      vertex -33.9574 0 3.02882
      vertex -34.25 5.1 3
      vertex -34.25 0 3
    endloop
  endfacet
  facet normal 0.995184 -0 0.0980233
    outer loop
      vertex -35.75 0 4.5
      vertex -35.7212 5.1 4.20737
      vertex -35.75 5.1 4.5
    endloop
  endfacet
  facet normal 0.995184 0 0.0980233
    outer loop
      vertex -35.7212 5.1 4.20737
      vertex -35.75 0 4.5
      vertex -35.7212 0 4.20737
    endloop
  endfacet
  facet normal 0.773013 -0 0.63439
    outer loop
      vertex -35.4972 0 3.66665
      vertex -35.3107 5.1 3.43934
      vertex -35.4972 5.1 3.66665
    endloop
  endfacet
  facet normal 0.773013 0 0.63439
    outer loop
      vertex -35.3107 5.1 3.43934
      vertex -35.4972 0 3.66665
      vertex -35.3107 0 3.43934
    endloop
  endfacet
  facet normal 0.471395 0 0.881922
    outer loop
      vertex -35.0834 5.1 3.2528
      vertex -34.824 0 3.11418
      vertex -34.824 5.1 3.11418
    endloop
  endfacet
  facet normal 0.471395 0 0.881922
    outer loop
      vertex -34.824 0 3.11418
      vertex -35.0834 5.1 3.2528
      vertex -35.0834 0 3.2528
    endloop
  endfacet
  facet normal 0.0980207 0 0.995184
    outer loop
      vertex -34.5426 5.1 3.02882
      vertex -34.25 0 3
      vertex -34.25 5.1 3
    endloop
  endfacet
  facet normal 0.0980207 0 0.995184
    outer loop
      vertex -34.25 0 3
      vertex -34.5426 5.1 3.02882
      vertex -34.5426 0 3.02882
    endloop
  endfacet
  facet normal 0.634391 0 0.773012
    outer loop
      vertex -35.3107 5.1 3.43934
      vertex -35.0834 0 3.2528
      vertex -35.0834 5.1 3.2528
    endloop
  endfacet
  facet normal 0.634391 0 0.773012
    outer loop
      vertex -35.0834 0 3.2528
      vertex -35.3107 5.1 3.43934
      vertex -35.3107 0 3.43934
    endloop
  endfacet
  facet normal -0.995184 0 0.0980233
    outer loop
      vertex -32.7788 0 4.20737
      vertex -32.75 5.1 4.5
      vertex -32.7788 5.1 4.20737
    endloop
  endfacet
  facet normal -0.995184 0 0.0980233
    outer loop
      vertex -32.75 5.1 4.5
      vertex -32.7788 0 4.20737
      vertex -32.75 0 4.5
    endloop
  endfacet
  facet normal -0.881922 0 -0.471395
    outer loop
      vertex -32.8642 0 5.07402
      vertex -33.0028 5.1 5.33335
      vertex -32.8642 5.1 5.07402
    endloop
  endfacet
  facet normal -0.881922 -0 -0.471395
    outer loop
      vertex -33.0028 5.1 5.33335
      vertex -32.8642 0 5.07402
      vertex -33.0028 0 5.33335
    endloop
  endfacet
  facet normal -0.956941 0 -0.290282
    outer loop
      vertex -32.7788 0 4.79263
      vertex -32.8642 5.1 5.07402
      vertex -32.7788 5.1 4.79263
    endloop
  endfacet
  facet normal -0.956941 -0 -0.290282
    outer loop
      vertex -32.8642 5.1 5.07402
      vertex -32.7788 0 4.79263
      vertex -32.8642 0 5.07402
    endloop
  endfacet
  facet normal -0.471395 0 -0.881922
    outer loop
      vertex -33.676 0 5.88582
      vertex -33.4166 5.1 5.7472
      vertex -33.4166 0 5.7472
    endloop
  endfacet
  facet normal -0.471395 0 -0.881922
    outer loop
      vertex -33.4166 5.1 5.7472
      vertex -33.676 0 5.88582
      vertex -33.676 5.1 5.88582
    endloop
  endfacet
  facet normal -0.634391 0 -0.773012
    outer loop
      vertex -33.4166 0 5.7472
      vertex -33.1893 5.1 5.56066
      vertex -33.1893 0 5.56066
    endloop
  endfacet
  facet normal -0.634391 0 -0.773012
    outer loop
      vertex -33.1893 5.1 5.56066
      vertex -33.4166 0 5.7472
      vertex -33.4166 5.1 5.7472
    endloop
  endfacet
  facet normal 0.0980207 0 -0.995184
    outer loop
      vertex -34.5426 0 5.97118
      vertex -34.25 5.1 6
      vertex -34.25 0 6
    endloop
  endfacet
  facet normal 0.0980207 0 -0.995184
    outer loop
      vertex -34.25 5.1 6
      vertex -34.5426 0 5.97118
      vertex -34.5426 5.1 5.97118
    endloop
  endfacet
  facet normal 0.634391 0 -0.773012
    outer loop
      vertex -35.3107 0 5.56066
      vertex -35.0834 5.1 5.7472
      vertex -35.0834 0 5.7472
    endloop
  endfacet
  facet normal 0.634391 0 -0.773012
    outer loop
      vertex -35.0834 5.1 5.7472
      vertex -35.3107 0 5.56066
      vertex -35.3107 5.1 5.56066
    endloop
  endfacet
  facet normal 0.881922 0 -0.471395
    outer loop
      vertex -35.4972 0 5.33335
      vertex -35.6358 5.1 5.07402
      vertex -35.4972 5.1 5.33335
    endloop
  endfacet
  facet normal 0.881922 0 -0.471395
    outer loop
      vertex -35.6358 5.1 5.07402
      vertex -35.4972 0 5.33335
      vertex -35.6358 0 5.07402
    endloop
  endfacet
  facet normal 0.995184 0 -0.0980233
    outer loop
      vertex -35.7212 0 4.79263
      vertex -35.75 5.1 4.5
      vertex -35.7212 5.1 4.79263
    endloop
  endfacet
  facet normal 0.995184 0 -0.0980233
    outer loop
      vertex -35.75 5.1 4.5
      vertex -35.7212 0 4.79263
      vertex -35.75 0 4.5
    endloop
  endfacet
  facet normal 0.773013 0 -0.63439
    outer loop
      vertex -35.3107 0 5.56066
      vertex -35.4972 5.1 5.33335
      vertex -35.3107 5.1 5.56066
    endloop
  endfacet
  facet normal 0.773013 0 -0.63439
    outer loop
      vertex -35.4972 5.1 5.33335
      vertex -35.3107 0 5.56066
      vertex -35.4972 0 5.33335
    endloop
  endfacet
  facet normal -0.290283 0 0.956941
    outer loop
      vertex -33.9574 5.1 3.02882
      vertex -33.676 0 3.11418
      vertex -33.676 5.1 3.11418
    endloop
  endfacet
  facet normal -0.290283 0 0.956941
    outer loop
      vertex -33.676 0 3.11418
      vertex -33.9574 5.1 3.02882
      vertex -33.9574 0 3.02882
    endloop
  endfacet
  facet normal -0.0980207 0 -0.995184
    outer loop
      vertex -34.25 0 6
      vertex -33.9574 5.1 5.97118
      vertex -33.9574 0 5.97118
    endloop
  endfacet
  facet normal -0.0980207 0 -0.995184
    outer loop
      vertex -33.9574 5.1 5.97118
      vertex -34.25 0 6
      vertex -34.25 5.1 6
    endloop
  endfacet
  facet normal -0.290283 0 -0.956941
    outer loop
      vertex -33.9574 0 5.97118
      vertex -33.676 5.1 5.88582
      vertex -33.676 0 5.88582
    endloop
  endfacet
  facet normal -0.290283 0 -0.956941
    outer loop
      vertex -33.676 5.1 5.88582
      vertex -33.9574 0 5.97118
      vertex -33.9574 5.1 5.97118
    endloop
  endfacet
  facet normal 0.471395 0 -0.881922
    outer loop
      vertex -35.0834 0 5.7472
      vertex -34.824 5.1 5.88582
      vertex -34.824 0 5.88582
    endloop
  endfacet
  facet normal 0.471395 0 -0.881922
    outer loop
      vertex -34.824 5.1 5.88582
      vertex -35.0834 0 5.7472
      vertex -35.0834 5.1 5.7472
    endloop
  endfacet
  facet normal 0.956941 0 -0.290282
    outer loop
      vertex -35.6358 0 5.07402
      vertex -35.7212 5.1 4.79263
      vertex -35.6358 5.1 5.07402
    endloop
  endfacet
  facet normal 0.956941 0 -0.290282
    outer loop
      vertex -35.7212 5.1 4.79263
      vertex -35.6358 0 5.07402
      vertex -35.7212 0 4.79263
    endloop
  endfacet
  facet normal 0.835016 0.488465 -0.253278
    outer loop
      vertex 31.6819 7.08921 5.01245
      vertex 31.6819 7.08838 5.01084
      vertex 31.6754 7.1 5.01211
    endloop
  endfacet
  facet normal 0.868384 0.488461 -0.0855272
    outer loop
      vertex 31.6819 7.08806 5.00906
      vertex 31.625 7.1 4.5
      vertex 31.6754 7.1 5.01211
    endloop
  endfacet
  facet normal 0.868385 0.488459 -0.0855274
    outer loop
      vertex 31.625 7.1 4.5
      vertex 31.6819 7.08806 5.00906
      vertex 31.6819 6.99893 4.5
    endloop
  endfacet
  facet normal 0.868379 0.488465 0.0855533
    outer loop
      vertex 31.6819 7.08806 3.99094
      vertex 31.6819 7.08838 3.98916
      vertex 31.6754 7.1 3.98789
    endloop
  endfacet
  facet normal 0.835012 0.488462 -0.253299
    outer loop
      vertex 31.6819 7.1 5.03325
      vertex 31.6819 7.08921 5.01245
      vertex 31.6754 7.1 5.01211
    endloop
  endfacet
  facet normal 0.835014 0.488457 0.253299
    outer loop
      vertex 31.6819 7.08921 3.98755
      vertex 31.6819 7.1 3.96675
      vertex 31.6754 7.1 3.98789
    endloop
  endfacet
  facet normal 0.868379 0.488465 -0.0855533
    outer loop
      vertex 31.6819 7.08838 5.01084
      vertex 31.6819 7.08806 5.00906
      vertex 31.6754 7.1 5.01211
    endloop
  endfacet
  facet normal 0 -1 0
    outer loop
      vertex 31.625 7.1 4.5
      vertex 31.6819 7.1 5.03325
      vertex 31.6754 7.1 5.01211
    endloop
  endfacet
  facet normal 0 -1 0
    outer loop
      vertex 31.6819 7.1 3.96675
      vertex 31.625 7.1 4.5
      vertex 31.6754 7.1 3.98789
    endloop
  endfacet
  facet normal 0 -1 0
    outer loop
      vertex 31.625 7.1 4.5
      vertex 31.6819 7.1 3.96675
      vertex 31.6819 7.1 5.03325
    endloop
  endfacet
  facet normal 0.868384 0.488461 0.0855272
    outer loop
      vertex 31.625 7.1 4.5
      vertex 31.6819 7.08806 3.99094
      vertex 31.6754 7.1 3.98789
    endloop
  endfacet
  facet normal 0.868385 0.488459 0.0855274
    outer loop
      vertex 31.6819 7.08806 3.99094
      vertex 31.625 7.1 4.5
      vertex 31.6819 6.99893 4.5
    endloop
  endfacet
  facet normal 0.835027 0.488466 0.253241
    outer loop
      vertex 31.6819 7.08838 3.98916
      vertex 31.6819 7.08921 3.98755
      vertex 31.6754 7.1 3.98789
    endloop
  endfacet
  facet normal 1 -0 0
    outer loop
      vertex -27.25 0 10.9319
      vertex -27.25 35.05 -1.93185
      vertex -27.25 35.05 10.9319
    endloop
  endfacet
  facet normal 1 0 0
    outer loop
      vertex -27.25 35.05 -1.93185
      vertex -27.25 0 10.9319
      vertex -27.25 0 -1.93185
    endloop
  endfacet
  facet normal -1 0 0
    outer loop
      vertex 27.25 -2.51764 -1.93185
      vertex 27.25 35.05 10.9319
      vertex 27.25 35.05 -1.93185
    endloop
  endfacet
  facet normal -1 0 0
    outer loop
      vertex 27.25 -2.51764 -1.93185
      vertex 27.25 -2.51764 10.9319
      vertex 27.25 35.05 10.9319
    endloop
  endfacet
  facet normal -1 0 0
    outer loop
      vertex 27.25 -3.93185 -0.517637
      vertex 27.25 -2.51764 -1.93185
      vertex 27.25 -3.41421 -1.41421
    endloop
  endfacet
  facet normal -1 0 0
    outer loop
      vertex 27.25 -2.51764 -1.93185
      vertex 27.25 -3.93185 -0.517637
      vertex 27.25 -2.51764 10.9319
    endloop
  endfacet
  facet normal -1 0 0
    outer loop
      vertex 27.25 -3.93185 9.51764
      vertex 27.25 -2.51764 10.9319
      vertex 27.25 -3.93185 -0.517637
    endloop
  endfacet
  facet normal -1 0 0
    outer loop
      vertex 27.25 -2.51764 10.9319
      vertex 27.25 -3.93185 9.51764
      vertex 27.25 -3.41421 10.4142
    endloop
  endfacet
  facet normal 0 -1 0
    outer loop
      vertex -27.25 35.05 -1.93185
      vertex 27.25 35.05 10.9319
      vertex -27.25 35.05 10.9319
    endloop
  endfacet
  facet normal 0 -1 -0
    outer loop
      vertex 27.25 35.05 10.9319
      vertex -27.25 35.05 -1.93185
      vertex 27.25 35.05 -1.93185
    endloop
  endfacet
  facet normal 0 -1 0
    outer loop
      vertex -39.2676 0 10.9319
      vertex -34.5426 0 5.97118
      vertex -34.25 0 6
    endloop
  endfacet
  facet normal 0 -1 0
    outer loop
      vertex -39.2676 0 10.9319
      vertex -34.824 0 5.88582
      vertex -34.5426 0 5.97118
    endloop
  endfacet
  facet normal 0 -1 0
    outer loop
      vertex -39.2676 0 10.9319
      vertex -35.0834 0 5.7472
      vertex -34.824 0 5.88582
    endloop
  endfacet
  facet normal 0 -1 0
    outer loop
      vertex -39.2676 0 10.9319
      vertex -35.3107 0 5.56066
      vertex -35.0834 0 5.7472
    endloop
  endfacet
  facet normal 0 -1 0
    outer loop
      vertex -40.6819 0 9.51764
      vertex -35.4972 0 5.33335
      vertex -35.3107 0 5.56066
    endloop
  endfacet
  facet normal 0 -1 0
    outer loop
      vertex -40.6819 0 9.51764
      vertex -35.6358 0 5.07402
      vertex -35.4972 0 5.33335
    endloop
  endfacet
  facet normal 0 -1 0
    outer loop
      vertex -40.6819 0 9.51764
      vertex -35.7212 0 4.79263
      vertex -35.6358 0 5.07402
    endloop
  endfacet
  facet normal 0 -1 0
    outer loop
      vertex -40.6819 0 9.51764
      vertex -35.75 0 4.5
      vertex -35.7212 0 4.79263
    endloop
  endfacet
  facet normal 0 -1 0
    outer loop
      vertex -40.6819 0 -0.517637
      vertex -35.75 0 4.5
      vertex -40.6819 0 9.51764
    endloop
  endfacet
  facet normal 0 -1 -0
    outer loop
      vertex -35.75 0 4.5
      vertex -40.6819 0 -0.517637
      vertex -35.7212 0 4.20737
    endloop
  endfacet
  facet normal 0 -1 -0
    outer loop
      vertex -35.7212 0 4.20737
      vertex -40.6819 0 -0.517637
      vertex -35.6358 0 3.92598
    endloop
  endfacet
  facet normal 0 -1 -0
    outer loop
      vertex -35.6358 0 3.92598
      vertex -40.6819 0 -0.517637
      vertex -35.4972 0 3.66665
    endloop
  endfacet
  facet normal 0 -1 -0
    outer loop
      vertex -34.824 0 3.11418
      vertex -39.2676 0 -1.93185
      vertex -34.5426 0 3.02882
    endloop
  endfacet
  facet normal 0 -1 -0
    outer loop
      vertex -35.0834 0 3.2528
      vertex -39.2676 0 -1.93185
      vertex -34.824 0 3.11418
    endloop
  endfacet
  facet normal 0 -1 -0
    outer loop
      vertex -35.3107 0 3.43934
      vertex -39.2676 0 -1.93185
      vertex -35.0834 0 3.2528
    endloop
  endfacet
  facet normal 0 -1 0
    outer loop
      vertex -39.2676 0 -1.93185
      vertex -35.3107 0 3.43934
      vertex -40.6819 0 -0.517637
    endloop
  endfacet
  facet normal 0 -1 -0
    outer loop
      vertex -35.4972 0 3.66665
      vertex -40.6819 0 -0.517637
      vertex -35.3107 0 3.43934
    endloop
  endfacet
  facet normal 0 -1 0
    outer loop
      vertex -40.6819 0 9.51764
      vertex -39.2676 0 10.9319
      vertex -40.1642 0 10.4142
    endloop
  endfacet
  facet normal 0 -1 0
    outer loop
      vertex -35.3107 0 5.56066
      vertex -39.2676 0 10.9319
      vertex -40.6819 0 9.51764
    endloop
  endfacet
  facet normal 0 -1 0
    outer loop
      vertex -33.9574 0 5.97118
      vertex -39.2676 0 10.9319
      vertex -34.25 0 6
    endloop
  endfacet
  facet normal 0 -1 0
    outer loop
      vertex -39.2676 0 10.9319
      vertex -33.9574 0 5.97118
      vertex -27.25 0 10.9319
    endloop
  endfacet
  facet normal 0 -1 0
    outer loop
      vertex -33.676 0 5.88582
      vertex -27.25 0 10.9319
      vertex -33.9574 0 5.97118
    endloop
  endfacet
  facet normal 0 -1 0
    outer loop
      vertex -33.4166 0 5.7472
      vertex -27.25 0 10.9319
      vertex -33.676 0 5.88582
    endloop
  endfacet
  facet normal 0 -1 0
    outer loop
      vertex -33.1893 0 5.56066
      vertex -27.25 0 10.9319
      vertex -33.4166 0 5.7472
    endloop
  endfacet
  facet normal 0 -1 0
    outer loop
      vertex -33.0028 0 5.33335
      vertex -27.25 0 10.9319
      vertex -33.1893 0 5.56066
    endloop
  endfacet
  facet normal 0 -1 0
    outer loop
      vertex -32.8642 0 5.07402
      vertex -27.25 0 10.9319
      vertex -33.0028 0 5.33335
    endloop
  endfacet
  facet normal 0 -1 0
    outer loop
      vertex -32.7788 0 4.79263
      vertex -27.25 0 10.9319
      vertex -32.8642 0 5.07402
    endloop
  endfacet
  facet normal 0 -1 0
    outer loop
      vertex -32.75 0 4.5
      vertex -27.25 0 10.9319
      vertex -32.7788 0 4.79263
    endloop
  endfacet
  facet normal 0 -1 0
    outer loop
      vertex -27.25 0 -1.93185
      vertex -32.75 0 4.5
      vertex -32.7788 0 4.20737
    endloop
  endfacet
  facet normal 0 -1 0
    outer loop
      vertex -27.25 0 -1.93185
      vertex -32.7788 0 4.20737
      vertex -32.8642 0 3.92598
    endloop
  endfacet
  facet normal 0 -1 0
    outer loop
      vertex -27.25 0 -1.93185
      vertex -32.8642 0 3.92598
      vertex -33.0028 0 3.66665
    endloop
  endfacet
  facet normal 0 -1 -0
    outer loop
      vertex -34.5426 0 3.02882
      vertex -39.2676 0 -1.93185
      vertex -34.25 0 3
    endloop
  endfacet
  facet normal 0 -1 -0
    outer loop
      vertex -34.25 0 3
      vertex -39.2676 0 -1.93185
      vertex -33.9574 0 3.02882
    endloop
  endfacet
  facet normal 0 -1 0
    outer loop
      vertex -39.2676 0 -1.93185
      vertex -40.6819 0 -0.517637
      vertex -40.1642 0 -1.41421
    endloop
  endfacet
  facet normal 0 -1 0
    outer loop
      vertex -27.25 0 -1.93185
      vertex -33.9574 0 3.02882
      vertex -39.2676 0 -1.93185
    endloop
  endfacet
  facet normal 0 -1 0
    outer loop
      vertex -33.9574 0 3.02882
      vertex -27.25 0 -1.93185
      vertex -33.676 0 3.11418
    endloop
  endfacet
  facet normal 0 -1 0
    outer loop
      vertex -33.676 0 3.11418
      vertex -27.25 0 -1.93185
      vertex -33.4166 0 3.2528
    endloop
  endfacet
  facet normal 0 -1 0
    outer loop
      vertex -32.75 0 4.5
      vertex -27.25 0 -1.93185
      vertex -27.25 0 10.9319
    endloop
  endfacet
  facet normal 0 -1 0
    outer loop
      vertex -33.1893 0 3.43934
      vertex -27.25 0 -1.93185
      vertex -33.0028 0 3.66665
    endloop
  endfacet
  facet normal 0 -1 0
    outer loop
      vertex -33.4166 0 3.2528
      vertex -27.25 0 -1.93185
      vertex -33.1893 0 3.43934
    endloop
  endfacet
endsolid OpenSCAD_Model
