  0
SECTION
  2
BLOCKS
  0
ENDSEC
  0
SECTION
  2
ENTITIES
  0
LINE
  8
0
 10
-77.9
 20
0
 11
-76.7276
 21
-11.155
  0
LINE
  8
0
 10
-76.7276
 20
-11.155
 11
-52.9556
 21
-11.1588
  0
LINE
  8
0
 10
-52.9556
 20
-11.1588
 11
-52.8386
 21
-11.1711
  0
LINE
  8
0
 10
-52.8386
 20
-11.1711
 11
-52.8142
 21
-11.2861
  0
LINE
  8
0
 10
-52.8142
 20
-11.2861
 11
-52.916
 21
-11.3449
  0
LINE
  8
0
 10
-52.916
 20
-11.3449
 11
-74.6313
 21
-21.0173
  0
LINE
  8
0
 10
-74.6313
 20
-21.0173
 11
-71.1652
 21
-31.6848
  0
LINE
  8
0
 10
-71.1652
 20
-31.6848
 11
-65.557
 21
-41.3985
  0
LINE
  8
0
 10
-65.557
 20
-41.3985
 11
-43.8386
 21
-31.7331
  0
LINE
  8
0
 10
-43.8386
 20
-31.7331
 11
-43.7268
 21
-31.6967
  0
LINE
  8
0
 10
-43.7268
 20
-31.6967
 11
-43.6577
 21
-31.7918
  0
LINE
  8
0
 10
-43.6577
 20
-31.7918
 11
-43.7268
 21
-31.8869
  0
LINE
  8
0
 10
-43.7268
 20
-31.8869
 11
-59.6305
 21
-49.5556
  0
LINE
  8
0
 10
-59.6305
 20
-49.5556
 11
-52.1253
 21
-57.891
  0
LINE
  8
0
 10
-52.1253
 20
-57.891
 11
-43.051
 21
-64.4838
  0
LINE
  8
0
 10
-43.051
 20
-64.4838
 11
-27.1416
 21
-46.8204
  0
LINE
  8
0
 10
-27.1416
 20
-46.8204
 11
-27.0542
 21
-46.7417
  0
LINE
  8
0
 10
-27.0542
 20
-46.7417
 11
-26.9524
 21
-46.8005
  0
LINE
  8
0
 10
-26.9524
 20
-46.8005
 11
-26.9768
 21
-46.9155
  0
LINE
  8
0
 10
-26.9768
 20
-46.9155
 11
-34.3191
 21
-69.5252
  0
LINE
  8
0
 10
-34.3191
 20
-69.5252
 11
-24.0724
 21
-74.0873
  0
LINE
  8
0
 10
-24.0724
 20
-74.0873
 11
-13.1011
 21
-76.4193
  0
LINE
  8
0
 10
-13.1011
 20
-76.4193
 11
-5.7515
 21
-53.812
  0
LINE
  8
0
 10
-5.7515
 20
-53.812
 11
-5.70368
 21
-53.7046
  0
LINE
  8
0
 10
-5.70368
 20
-53.7046
 11
-5.58677
 21
-53.7169
  0
LINE
  8
0
 10
-5.58677
 20
-53.7169
 11
-5.56233
 21
-53.8319
  0
LINE
  8
0
 10
-5.56233
 20
-53.8319
 11
-3.07365
 21
-77.4733
  0
LINE
  8
0
 10
-3.07365
 20
-77.4733
 11
8.14277
 21
-77.4733
  0
LINE
  8
0
 10
8.14277
 20
-77.4733
 11
19.1141
 21
-75.1412
  0
LINE
  8
0
 10
19.1141
 20
-75.1412
 11
16.6331
 21
-51.499
  0
LINE
  8
0
 10
16.6331
 20
-51.499
 11
16.6331
 21
-51.3815
  0
LINE
  8
0
 10
16.6331
 20
-51.3815
 11
16.7449
 21
-51.3452
  0
LINE
  8
0
 10
16.7449
 20
-51.3452
 11
16.814
 21
-51.4403
  0
LINE
  8
0
 10
16.814
 20
-51.4403
 11
28.7033
 21
-72.0255
  0
LINE
  8
0
 10
28.7033
 20
-72.0255
 11
38.95
 21
-67.4634
  0
LINE
  8
0
 10
38.95
 20
-67.4634
 11
48.0243
 21
-60.8705
  0
LINE
  8
0
 10
48.0243
 20
-60.8705
 11
36.1416
 21
-40.2814
  0
LINE
  8
0
 10
36.1416
 20
-40.2814
 11
36.0938
 21
-40.1741
  0
LINE
  8
0
 10
36.0938
 20
-40.1741
 11
36.1811
 21
-40.0954
  0
LINE
  8
0
 10
36.1811
 20
-40.0954
 11
36.283
 21
-40.1542
  0
LINE
  8
0
 10
36.283
 20
-40.1542
 11
55.5172
 21
-54.1239
  0
LINE
  8
0
 10
55.5172
 20
-54.1239
 11
63.0224
 21
-45.7885
  0
LINE
  8
0
 10
63.0224
 20
-45.7885
 11
68.6306
 21
-36.0748
  0
LINE
  8
0
 10
68.6306
 20
-36.0748
 11
49.4009
 21
-22.0988
  0
LINE
  8
0
 10
49.4009
 20
-22.0988
 11
49.3136
 21
-22.0202
  0
LINE
  8
0
 10
49.3136
 20
-22.0202
 11
49.3614
 21
-21.9128
  0
LINE
  8
0
 10
49.3614
 20
-21.9128
 11
49.4783
 21
-21.9251
  0
LINE
  8
0
 10
49.4783
 20
-21.9251
 11
72.7316
 21
-26.8638
  0
LINE
  8
0
 10
72.7316
 20
-26.8638
 11
76.1977
 21
-16.1963
  0
LINE
  8
0
 10
76.1977
 20
-16.1963
 11
77.3701
 21
-5.04135
  0
LINE
  8
0
 10
77.3701
 20
-5.04135
 11
54.1184
 21
-0.0951052
  0
LINE
  8
0
 10
54.1184
 20
-0.0951052
 11
54.0066
 21
-0.0587778
  0
LINE
  8
0
 10
54.0066
 20
-0.0587778
 11
54.0066
 21
0.0587778
  0
LINE
  8
0
 10
54.0066
 20
0.0587778
 11
54.1184
 21
0.0951052
  0
LINE
  8
0
 10
54.1184
 20
0.0951052
 11
77.3701
 21
5.04135
  0
LINE
  8
0
 10
77.3701
 20
5.04135
 11
76.1977
 21
16.1963
  0
LINE
  8
0
 10
76.1977
 20
16.1963
 11
72.7316
 21
26.8638
  0
LINE
  8
0
 10
72.7316
 20
26.8638
 11
49.4783
 21
21.9251
  0
LINE
  8
0
 10
49.4783
 20
21.9251
 11
49.3614
 21
21.9128
  0
LINE
  8
0
 10
49.3614
 20
21.9128
 11
49.3136
 21
22.0202
  0
LINE
  8
0
 10
49.3136
 20
22.0202
 11
49.4009
 21
22.0988
  0
LINE
  8
0
 10
49.4009
 20
22.0988
 11
68.6306
 21
36.0748
  0
LINE
  8
0
 10
68.6306
 20
36.0748
 11
63.0224
 21
45.7885
  0
LINE
  8
0
 10
63.0224
 20
45.7885
 11
55.5172
 21
54.1239
  0
LINE
  8
0
 10
55.5172
 20
54.1239
 11
36.283
 21
40.1542
  0
LINE
  8
0
 10
36.283
 20
40.1542
 11
36.1811
 21
40.0954
  0
LINE
  8
0
 10
36.1811
 20
40.0954
 11
36.0938
 21
40.1741
  0
LINE
  8
0
 10
36.0938
 20
40.1741
 11
36.1416
 21
40.2814
  0
LINE
  8
0
 10
36.1416
 20
40.2814
 11
48.0243
 21
60.8705
  0
LINE
  8
0
 10
48.0243
 20
60.8705
 11
38.95
 21
67.4634
  0
LINE
  8
0
 10
38.95
 20
67.4634
 11
28.7033
 21
72.0255
  0
LINE
  8
0
 10
28.7033
 20
72.0255
 11
16.814
 21
51.4403
  0
LINE
  8
0
 10
16.814
 20
51.4403
 11
16.7449
 21
51.3452
  0
LINE
  8
0
 10
16.7449
 20
51.3452
 11
16.6331
 21
51.3815
  0
LINE
  8
0
 10
16.6331
 20
51.3815
 11
16.6331
 21
51.499
  0
LINE
  8
0
 10
16.6331
 20
51.499
 11
19.1141
 21
75.1412
  0
LINE
  8
0
 10
19.1141
 20
75.1412
 11
8.14277
 21
77.4733
  0
LINE
  8
0
 10
8.14277
 20
77.4733
 11
-3.07365
 21
77.4733
  0
LINE
  8
0
 10
-3.07365
 20
77.4733
 11
-5.56233
 21
53.8319
  0
LINE
  8
0
 10
-5.56233
 20
53.8319
 11
-5.58677
 21
53.7169
  0
LINE
  8
0
 10
-5.58677
 20
53.7169
 11
-5.70368
 21
53.7046
  0
LINE
  8
0
 10
-5.70368
 20
53.7046
 11
-5.7515
 21
53.812
  0
LINE
  8
0
 10
-5.7515
 20
53.812
 11
-13.1011
 21
76.4193
  0
LINE
  8
0
 10
-13.1011
 20
76.4193
 11
-24.0724
 21
74.0873
  0
LINE
  8
0
 10
-24.0724
 20
74.0873
 11
-34.3191
 21
69.5252
  0
LINE
  8
0
 10
-34.3191
 20
69.5252
 11
-26.9768
 21
46.9155
  0
LINE
  8
0
 10
-26.9768
 20
46.9155
 11
-26.9524
 21
46.8005
  0
LINE
  8
0
 10
-26.9524
 20
46.8005
 11
-27.0542
 21
46.7417
  0
LINE
  8
0
 10
-27.0542
 20
46.7417
 11
-27.1416
 21
46.8204
  0
LINE
  8
0
 10
-27.1416
 20
46.8204
 11
-43.051
 21
64.4838
  0
LINE
  8
0
 10
-43.051
 20
64.4838
 11
-52.1253
 21
57.891
  0
LINE
  8
0
 10
-52.1253
 20
57.891
 11
-59.6305
 21
49.5556
  0
LINE
  8
0
 10
-59.6305
 20
49.5556
 11
-43.7268
 21
31.8869
  0
LINE
  8
0
 10
-43.7268
 20
31.8869
 11
-43.6577
 21
31.7918
  0
LINE
  8
0
 10
-43.6577
 20
31.7918
 11
-43.7268
 21
31.6967
  0
LINE
  8
0
 10
-43.7268
 20
31.6967
 11
-43.8386
 21
31.7331
  0
LINE
  8
0
 10
-43.8386
 20
31.7331
 11
-65.557
 21
41.3985
  0
LINE
  8
0
 10
-65.557
 20
41.3985
 11
-71.1652
 21
31.6848
  0
LINE
  8
0
 10
-71.1652
 20
31.6848
 11
-74.6313
 21
21.0173
  0
LINE
  8
0
 10
-74.6313
 20
21.0173
 11
-52.916
 21
11.3449
  0
LINE
  8
0
 10
-52.916
 20
11.3449
 11
-52.8142
 21
11.2861
  0
LINE
  8
0
 10
-52.8142
 20
11.2861
 11
-52.8386
 21
11.1711
  0
LINE
  8
0
 10
-52.8386
 20
11.1711
 11
-52.9556
 21
11.1588
  0
LINE
  8
0
 10
-52.9556
 20
11.1588
 11
-76.7276
 21
11.155
  0
LINE
  8
0
 10
-76.7276
 20
11.155
 11
-77.9
 21
0
  0
ENDSEC
  0
SECTION
  2
OBJECTS
  0
DICTIONARY
  0
ENDSEC
  0
EOF
